<?xml version="1.0" encoding="UTF-8" standalone="no"?>
<!-- Created with Inkscape (http://www.inkscape.org/) -->

<svg
   xmlns:dc="http://purl.org/dc/elements/1.1/"
   xmlns:cc="http://creativecommons.org/ns#"
   xmlns:rdf="http://www.w3.org/1999/02/22-rdf-syntax-ns#"
   xmlns:svg="http://www.w3.org/2000/svg"
   xmlns="http://www.w3.org/2000/svg"
   xmlns:xlink="http://www.w3.org/1999/xlink"
   xmlns:sodipodi="http://sodipodi.sourceforge.net/DTD/sodipodi-0.dtd"
   xmlns:inkscape="http://www.inkscape.org/namespaces/inkscape"
   width="744.09448819"
   height="1052.3622047"
   id="svg2"
   version="1.1"
   inkscape:version="0.48.4 r9939"
   sodipodi:docname="characters.svg">
  <defs
     id="defs4">
    <linearGradient
       id="linearGradient5757">
      <stop
         style="stop-color:#ffcc00;stop-opacity:1;"
         offset="0"
         id="stop5759" />
      <stop
         style="stop-color:#ffa500;stop-opacity:1;"
         offset="1"
         id="stop5761" />
    </linearGradient>
    <radialGradient
       inkscape:collect="always"
       xlink:href="#linearGradient5757"
       id="radialGradient5763"
       cx="149.75511"
       cy="482.63614"
       fx="149.75511"
       fy="482.63614"
       r="41.668793"
       gradientTransform="matrix(1,0,0,1.0666667,0,-32.175746)"
       gradientUnits="userSpaceOnUse" />
    <radialGradient
       inkscape:collect="always"
       xlink:href="#linearGradient5757"
       id="radialGradient5775"
       gradientUnits="userSpaceOnUse"
       gradientTransform="matrix(-0.99996777,-0.00880724,0.00781333,-1.0675101,295.7344,999.17404)"
       cx="149.75511"
       cy="482.63614"
       fx="149.75511"
       fy="482.63614"
       r="41.668793" />
    <radialGradient
       inkscape:collect="always"
       xlink:href="#linearGradient5757"
       id="radialGradient5779"
       gradientUnits="userSpaceOnUse"
       gradientTransform="matrix(-0.86400385,0.01762956,-0.04380137,-1.5454305,296.95596,1168.2629)"
       cx="148.47572"
       cy="459.0679"
       fx="148.47572"
       fy="459.0679"
       r="41.668793" />
  </defs>
  <sodipodi:namedview
     id="base"
     pagecolor="#ffffff"
     bordercolor="#666666"
     borderopacity="1.0"
     inkscape:pageopacity="0.0"
     inkscape:pageshadow="2"
     inkscape:zoom="2.8"
     inkscape:cx="128.9137"
     inkscape:cy="588.44534"
     inkscape:document-units="px"
     inkscape:current-layer="layer2"
     showgrid="false"
     showguides="true"
     inkscape:guide-bbox="true"
     inkscape:window-width="1680"
     inkscape:window-height="988"
     inkscape:window-x="-8"
     inkscape:window-y="-8"
     inkscape:window-maximized="1"
     inkscape:snap-nodes="false" />
  <metadata
     id="metadata7">
    <rdf:RDF>
      <cc:Work
         rdf:about="">
        <dc:format>image/svg+xml</dc:format>
        <dc:type
           rdf:resource="http://purl.org/dc/dcmitype/StillImage" />
        <dc:title></dc:title>
      </cc:Work>
    </rdf:RDF>
  </metadata>
  <g
     inkscape:groupmode="layer"
     id="layer2"
     inkscape:label="Bg"
     style="display:inline">
    <rect
       style="fill:none;fill-opacity:1;stroke:none"
       id="rect3053"
       width="200"
       height="200"
       x="75"
       y="372.36218"
       inkscape:export-filename="C:\Users\adi\Desktop\g3080.png"
       inkscape:export-xdpi="45"
       inkscape:export-ydpi="45" />
  </g>
  <g
     inkscape:label="Layer 1"
     inkscape:groupmode="layer"
     id="layer1">
    <path
       sodipodi:type="arc"
       style="fill:#ff7f2a;fill-rule:evenodd;stroke:none;stroke-width:1px;stroke-linecap:butt;stroke-linejoin:miter;stroke-opacity:1"
       id="path2987"
       sodipodi:cx="227.14285"
       sodipodi:cy="293.79074"
       sodipodi:rx="72.85714"
       sodipodi:ry="72.85714"
       d="m 299.99999,293.79074 a 72.85714,72.85714 0 1 1 -145.71428,0 72.85714,72.85714 0 1 1 145.71428,0 z" />
    <path
       sodipodi:type="arc"
       style="fill:#ff7f2a;stroke:none"
       id="path3759"
       sodipodi:cx="124.24876"
       sodipodi:cy="165.44824"
       sodipodi:rx="22.223356"
       sodipodi:ry="22.223356"
       d="m 146.47211,165.44824 a 22.223356,22.223356 0 1 1 -44.44671,0 22.223356,22.223356 0 1 1 44.44671,0 z"
       transform="matrix(1.3133769,0,0,1.3053416,5.2063517,84.572792)" />
    <path
       transform="matrix(0.95975244,0,0,0.93884243,49.347781,145.47049)"
       d="m 146.47211,165.44824 a 22.223356,22.223356 0 1 1 -44.44671,0 22.223356,22.223356 0 1 1 44.44671,0 z"
       sodipodi:ry="22.223356"
       sodipodi:rx="22.223356"
       sodipodi:cy="165.44824"
       sodipodi:cx="124.24876"
       id="path3761"
       style="fill:#ffffff;fill-opacity:1;stroke:none"
       sodipodi:type="arc" />
    <path
       sodipodi:type="arc"
       style="fill:#000000;fill-opacity:1;stroke:none"
       id="path3763"
       sodipodi:cx="124.24876"
       sodipodi:cy="165.44824"
       sodipodi:rx="22.223356"
       sodipodi:ry="22.223356"
       d="m 146.47211,165.44824 a 22.223356,22.223356 0 1 1 -44.44671,0 22.223356,22.223356 0 1 1 44.44671,0 z"
       transform="matrix(0.576307,0,0,0.60199736,97.908731,200.66521)" />
    <path
       transform="matrix(0.26758858,0,0,0.26155311,139.9758,252.69615)"
       d="m 146.47211,165.44824 a 22.223356,22.223356 0 1 1 -44.44671,0 22.223356,22.223356 0 1 1 44.44671,0 z"
       sodipodi:ry="22.223356"
       sodipodi:rx="22.223356"
       sodipodi:cy="165.44824"
       sodipodi:cx="124.24876"
       id="path3765"
       style="fill:#ffffff;fill-opacity:1;stroke:none"
       sodipodi:type="arc" />
    <path
       style="fill:#c83737;fill-opacity:1;stroke:none"
       d="m 185.6171,266.02552 c 2.16047,12.67857 -3.3164,8.71996 -7.85713,8.39286 -11.53092,-0.83065 -19.89201,4.28571 -7.85715,-8.39286 3.19116,-3.36185 4.46479,-5.67807 8.80417,-5.67807 4.33938,0 6.13147,1.10869 6.91011,5.67807 z"
       id="path3785"
       inkscape:connector-curvature="0"
       sodipodi:nodetypes="sssss" />
    <path
       transform="matrix(1.3133769,0,0,1.3053416,120.20635,85.287077)"
       d="m 146.47211,165.44824 a 22.223356,22.223356 0 1 1 -44.44671,0 22.223356,22.223356 0 1 1 44.44671,0 z"
       sodipodi:ry="22.223356"
       sodipodi:rx="22.223356"
       sodipodi:cy="165.44824"
       sodipodi:cx="124.24876"
       id="path3787"
       style="fill:#ff7f2a;stroke:none"
       sodipodi:type="arc" />
    <path
       sodipodi:type="arc"
       style="fill:#ffffff;fill-opacity:1;stroke:none"
       id="path3789"
       sodipodi:cx="124.24876"
       sodipodi:cy="165.44824"
       sodipodi:rx="22.223356"
       sodipodi:ry="22.223356"
       d="m 146.47211,165.44824 a 22.223356,22.223356 0 1 1 -44.44671,0 22.223356,22.223356 0 1 1 44.44671,0 z"
       transform="matrix(0.95975244,0,0,0.93884243,164.34778,146.18477)" />
    <path
       transform="matrix(0.576307,0,0,0.60199736,212.90873,201.37949)"
       d="m 146.47211,165.44824 a 22.223356,22.223356 0 1 1 -44.44671,0 22.223356,22.223356 0 1 1 44.44671,0 z"
       sodipodi:ry="22.223356"
       sodipodi:rx="22.223356"
       sodipodi:cy="165.44824"
       sodipodi:cx="124.24876"
       id="path3791"
       style="fill:#000000;fill-opacity:1;stroke:none"
       sodipodi:type="arc" />
    <path
       sodipodi:type="arc"
       style="fill:#ffffff;fill-opacity:1;stroke:none"
       id="path3793"
       sodipodi:cx="124.24876"
       sodipodi:cy="165.44824"
       sodipodi:rx="22.223356"
       sodipodi:ry="22.223356"
       d="m 146.47211,165.44824 a 22.223356,22.223356 0 1 1 -44.44671,0 22.223356,22.223356 0 1 1 44.44671,0 z"
       transform="matrix(0.26758858,0,0,0.26155311,254.9758,253.41043)" />
    <path
       sodipodi:nodetypes="sssss"
       inkscape:connector-curvature="0"
       id="path3796"
       d="m 269.5642,267.54075 c -2.16047,12.67857 3.3164,8.71996 7.85713,8.39286 11.53092,-0.83065 19.89201,4.28571 7.85715,-8.39286 -3.19116,-3.36185 -4.46479,-5.67807 -8.80417,-5.67807 -4.33938,0 -6.13147,1.10869 -6.91011,5.67807 z"
       style="fill:#c83737;fill-opacity:1;stroke:none" />
    <path
       transform="translate(100.25764,91.671344)"
       style="fill:#c83737;fill-opacity:1;stroke:none"
       d="m 163.89725,252.82645 c 0,5.71839 -16.84671,10.35406 -37.62818,10.35406 -20.78147,0 -37.628178,-4.63567 -37.628178,-10.35406 0,-5.7184 16.594168,-1.76777 37.375638,-1.76777 20.78147,0 37.88072,-3.95063 37.88072,1.76777 z"
       id="path3798"
       inkscape:connector-curvature="0"
       sodipodi:nodetypes="sssss" />
    <path
       sodipodi:nodetypes="sssss"
       inkscape:connector-curvature="0"
       id="path3803"
       d="m 260.36682,342.86793 c -0.20245,4.10303 -15.20726,7.43824 -33.96637,7.43824 -18.75911,0 -33.78209,-3.33436 -33.96639,-7.43824 -0.25254,-5.62328 14.72676,-1.01742 33.48587,-1.01742 18.75912,0 34.69943,-4.10078 34.44689,1.01742 z"
       style="fill:#ffffff;fill-opacity:1;stroke:none" />
    <path
       style="fill:#a02c2c;fill-opacity:1;stroke:none"
       d="m 188.14092,333.76492 c -0.25254,4.81925 -2.7701,6.43973 -6.18719,6.43973 -3.41708,0 -30.1783,3.43029 -30.1783,-0.12627 0,-3.55656 26.76122,-12.75318 30.1783,-12.75318 3.41709,0 6.37331,2.88803 6.18719,6.43972 z"
       id="path3805"
       inkscape:connector-curvature="0"
       sodipodi:nodetypes="sssss" />
    <path
       sodipodi:nodetypes="sssss"
       inkscape:connector-curvature="0"
       id="path3808"
       d="m 265.17339,332.75477 c 0.25254,4.81925 2.7701,6.43973 6.18719,6.43973 3.41708,0 30.1783,3.43029 30.1783,-0.12627 0,-3.55656 -26.76122,-12.75318 -30.1783,-12.75318 -3.41709,0 -6.37331,2.88803 -6.18719,6.43972 z"
       style="fill:#a02c2c;fill-opacity:1;stroke:none" />
    <path
       d="m 299.99999,293.79074 a 72.85714,72.85714 0 1 1 -145.71428,0 72.85714,72.85714 0 1 1 145.71428,0 z"
       sodipodi:ry="72.85714"
       sodipodi:rx="72.85714"
       sodipodi:cy="293.79074"
       sodipodi:cx="227.14285"
       id="path3810"
       style="fill:#2ad4ff;fill-opacity:1;fill-rule:evenodd;stroke:none"
       sodipodi:type="arc"
       transform="translate(246.47722,3.0304579)" />
    <path
       transform="matrix(1.3133769,0,0,1.3053416,251.68357,87.60325)"
       d="m 146.47211,165.44824 a 22.223356,22.223356 0 1 1 -44.44671,0 22.223356,22.223356 0 1 1 44.44671,0 z"
       sodipodi:ry="22.223356"
       sodipodi:rx="22.223356"
       sodipodi:cy="165.44824"
       sodipodi:cx="124.24876"
       id="path3812"
       style="fill:#2ad4ff;fill-opacity:1;stroke:none"
       sodipodi:type="arc" />
    <path
       sodipodi:type="arc"
       style="fill:#ffffff;fill-opacity:1;stroke:none"
       id="path3814"
       sodipodi:cx="124.24876"
       sodipodi:cy="165.44824"
       sodipodi:rx="22.223356"
       sodipodi:ry="22.223356"
       d="m 146.47211,165.44824 a 22.223356,22.223356 0 1 1 -44.44671,0 22.223356,22.223356 0 1 1 44.44671,0 z"
       transform="matrix(0.95975244,0,0,0.93884243,295.825,148.50095)" />
    <path
       transform="matrix(0.47694494,0,0,0.40277033,365.63507,237.2807)"
       d="m 146.47211,165.44824 a 22.223356,22.223356 0 1 1 -44.44671,0 22.223356,22.223356 0 1 1 44.44671,0 z"
       sodipodi:ry="22.223356"
       sodipodi:rx="22.223356"
       sodipodi:cy="165.44824"
       sodipodi:cx="124.24876"
       id="path3816"
       style="fill:#000000;fill-opacity:1;stroke:none"
       sodipodi:type="arc" />
    <path
       sodipodi:type="arc"
       style="fill:#ffffff;fill-opacity:1;stroke:none"
       id="path3818"
       sodipodi:cx="124.24876"
       sodipodi:cy="165.44824"
       sodipodi:rx="22.223356"
       sodipodi:ry="22.223356"
       d="m 146.47211,165.44824 a 22.223356,22.223356 0 1 1 -44.44671,0 22.223356,22.223356 0 1 1 44.44671,0 z"
       transform="matrix(0.22145318,0,0,0.17499384,400.44929,272.09235)" />
    <path
       sodipodi:nodetypes="sssss"
       inkscape:connector-curvature="0"
       id="path3820"
       d="m 435.45195,264.99057 c 2.95117,18.26212 -4.53014,12.56017 -10.73269,12.08901 -15.75103,-1.19646 -27.17213,6.17311 -10.73273,-12.08901 4.35907,-4.84238 6.09882,-8.17865 12.02634,-8.17865 5.92751,0 8.37547,1.59695 9.43908,8.17865 z"
       style="fill:#444bd9;fill-opacity:1;stroke:none" />
    <path
       sodipodi:type="arc"
       style="fill:#2ad4ff;fill-opacity:1;stroke:none"
       id="path3822"
       sodipodi:cx="124.24876"
       sodipodi:cy="165.44824"
       sodipodi:rx="22.223356"
       sodipodi:ry="22.223356"
       d="m 146.47211,165.44824 a 22.223356,22.223356 0 1 1 -44.44671,0 22.223356,22.223356 0 1 1 44.44671,0 z"
       transform="matrix(1.3133769,0,0,1.3053416,366.68357,88.317535)" />
    <path
       transform="matrix(0.95975244,0,0,0.93884243,410.825,149.21523)"
       d="m 146.47211,165.44824 a 22.223356,22.223356 0 1 1 -44.44671,0 22.223356,22.223356 0 1 1 44.44671,0 z"
       sodipodi:ry="22.223356"
       sodipodi:rx="22.223356"
       sodipodi:cy="165.44824"
       sodipodi:cx="124.24876"
       id="path3824"
       style="fill:#ffffff;fill-opacity:1;stroke:none"
       sodipodi:type="arc" />
    <path
       sodipodi:type="arc"
       style="fill:#000000;fill-opacity:1;stroke:none"
       id="path3826"
       sodipodi:cx="124.24876"
       sodipodi:cy="165.44824"
       sodipodi:rx="22.223356"
       sodipodi:ry="22.223356"
       d="m 146.47211,165.44824 a 22.223356,22.223356 0 1 1 -44.44671,0 22.223356,22.223356 0 1 1 44.44671,0 z"
       transform="matrix(0.47694494,0,0,0.40277033,460.80772,237.7586)" />
    <path
       transform="matrix(0.22145318,0,0,0.17499384,495.62195,272.57024)"
       d="m 146.47211,165.44824 a 22.223356,22.223356 0 1 1 -44.44671,0 22.223356,22.223356 0 1 1 44.44671,0 z"
       sodipodi:ry="22.223356"
       sodipodi:rx="22.223356"
       sodipodi:cy="165.44824"
       sodipodi:cx="124.24876"
       id="path3828"
       style="fill:#ffffff;fill-opacity:1;stroke:none"
       sodipodi:type="arc" />
    <path
       sodipodi:nodetypes="sssss"
       inkscape:connector-curvature="0"
       id="path3832"
       d="m 510.63211,343.28828 c 0,10.01268 -16.84671,18.12956 -37.62818,18.12956 -20.78147,0 -37.62818,-8.11688 -37.62818,-18.12956 0,-10.0127 16.59417,-3.0953 37.37564,-3.0953 20.78147,0 37.88072,-6.9174 37.88072,3.0953 z"
       style="fill:#1a36bf;fill-opacity:1;stroke:none" />
    <path
       style="fill:#ffffff;fill-opacity:1;stroke:none"
       d="m 502.29875,341.49216 c -0.17536,6.53357 -13.17227,11.84447 -29.42109,11.84447 -16.24883,0 -29.26148,-5.30955 -29.42111,-11.84447 -0.21875,-8.95437 12.75606,-1.62011 29.00489,-1.62011 16.24883,0 30.05605,-6.52998 29.83731,1.62011 z"
       id="path3834"
       inkscape:connector-curvature="0"
       sodipodi:nodetypes="sssss" />
    <path
       sodipodi:nodetypes="sssss"
       inkscape:connector-curvature="0"
       id="path3836"
       d="m 449.77043,325.6837 c -0.25254,4.81925 -2.7701,6.43973 -6.18719,6.43973 -3.41708,0 -32.19861,16.0572 -32.19861,12.50064 0,-3.55656 28.78153,-25.38009 32.19861,-25.38009 3.41709,0 6.37331,2.88803 6.18719,6.43972 z"
       style="fill:#444bd9;fill-opacity:1;stroke:none" />
    <path
       style="fill:#444bd9;fill-opacity:1;stroke:none"
       d="m 497.76101,326.18878 c 0.25254,4.81925 2.7701,6.43973 6.18719,6.43973 3.41708,0 32.19861,16.0572 32.19861,12.50064 0,-3.55656 -28.78153,-25.38009 -32.19861,-25.38009 -3.41709,0 -6.37331,2.88803 -6.18719,6.43972 z"
       id="path3840"
       inkscape:connector-curvature="0"
       sodipodi:nodetypes="sssss" />
    <path
       style="fill:#444bd9;fill-opacity:1;stroke:none"
       d="m 511.67362,266.50581 c -2.95117,18.26212 4.53014,12.56017 10.73269,12.08901 15.75103,-1.19646 27.17213,6.17311 10.73273,-12.08901 -4.35907,-4.84238 -6.09882,-8.17865 -12.02634,-8.17865 -5.92751,0 -8.37547,1.59695 -9.43908,8.17865 z"
       id="path3842"
       inkscape:connector-curvature="0"
       sodipodi:nodetypes="sssss" />
    <g
       id="g3081"
       transform="matrix(1.5913983,0,0,1.5913983,-99.448049,-266.8653)"
       inkscape:export-filename="C:\Users\adi\Desktop\g3080.png"
       inkscape:export-xdpi="45"
       inkscape:export-ydpi="45">
      <path
         transform="matrix(1.1939394,0,0,1,-15.406356,0)"
         d="m 191.4239,482.63614 c 0,24.54724 -18.65575,44.44671 -41.66879,44.44671 -23.01304,0 -41.66879,-19.89947 -41.66879,-44.44671 0,-24.54724 18.65575,-44.44671 41.66879,-44.44671 23.01304,0 41.66879,19.89947 41.66879,44.44671 z"
         sodipodi:ry="44.446712"
         sodipodi:rx="41.668793"
         sodipodi:cy="482.63614"
         sodipodi:cx="149.75511"
         id="path5247"
         style="fill:url(#radialGradient5763);fill-opacity:1;stroke:none"
         sodipodi:type="arc" />
      <path
         transform="matrix(1.0969697,0,0,1,19.823479,-0.50507627)"
         sodipodi:type="arc"
         style="fill:url(#radialGradient5775);fill-opacity:1;stroke:none"
         id="path5773"
         sodipodi:cx="149.75511"
         sodipodi:cy="482.63614"
         sodipodi:rx="41.668793"
         sodipodi:ry="44.446712"
         d="m 191.4239,482.63614 c 0,24.54724 -18.65575,44.44671 -41.66879,44.44671 -23.01304,0 -41.66879,-19.89947 -41.66879,-44.44671 0,-24.54724 18.65575,-44.44671 41.66879,-44.44671 23.01304,0 41.66879,19.89947 41.66879,44.44671 z" />
      <path
         transform="matrix(1.1939394,0,0,1,-15.406356,0)"
         sodipodi:nodetypes="cscsc"
         inkscape:connector-curvature="0"
         id="path3073"
         d="m 181.05958,502.33412 c -10.39353,22.8814 -9.1375,24.49619 -32.15054,24.49619 -23.01304,0 -40.82272,-19.64693 -40.82272,-44.19417 11.21039,18.1317 17.91472,22.22746 40.6112,26.76905 7.57232,1.51523 12.08568,0.0996 32.36206,-7.07107 z"
         style="opacity:0.25;fill:#57104f;fill-opacity:1;stroke:none" />
      <path
         transform="matrix(1.0969697,0,0,1,19.823479,-0.50507627)"
         sodipodi:nodetypes="cscsc"
         inkscape:connector-curvature="0"
         id="path3075"
         d="m 191.4239,482.63614 c 0,24.54724 -18.65575,44.44671 -41.66879,44.44671 -23.01304,0 -26.93508,-1.71672 -34.99258,-21.97082 9.43879,3.23196 22.67882,4.22658 34.30194,2.52538 21.08561,-3.08616 29.69764,-5.35434 42.35943,-25.00127 z"
         style="opacity:0.25;fill:#57104f;fill-opacity:1;stroke:none" />
      <path
         d="m 191.4239,482.63614 c 0,24.54724 -18.65575,44.44671 -41.66879,44.44671 -23.01304,0 -41.66879,-19.89947 -41.66879,-44.44671 0,-24.54724 18.65575,-44.44671 41.66879,-44.44671 23.01304,0 41.66879,19.89947 41.66879,44.44671 z"
         sodipodi:ry="44.446712"
         sodipodi:rx="41.668793"
         sodipodi:cy="482.63614"
         sodipodi:cx="149.75511"
         id="path5777"
         style="fill:url(#radialGradient5779);fill-opacity:1;stroke:none"
         sodipodi:type="arc"
         transform="matrix(0.84848485,0,0,1,45.671138,0)" />
      <path
         transform="matrix(0.84848485,0,0,1,45.671138,0)"
         sodipodi:nodetypes="cscsc"
         inkscape:connector-curvature="0"
         id="path3077"
         d="m 190.67982,492.6114 c -4.76215,16.97109 -17.91167,34.47145 -40.92471,34.47145 -23.01304,0 -36.90664,-17.75289 -41.07352,-35.4816 13.69117,12.32333 17.76285,15.5311 40.77589,15.5311 23.01304,0 30.20987,-4.723 41.22234,-14.52095 z"
         style="opacity:0.25;fill:#57104f;fill-opacity:1;stroke:none" />
      <path
         sodipodi:nodetypes="sssss"
         inkscape:connector-curvature="0"
         id="path3972"
         d="m 184.24889,484.76243 c 0,5.9276 5.08794,10.73287 11.36422,10.73287 6.27628,0 9.3439,-0.76465 9.59644,-8.20748 0.20101,-5.9242 -9.88616,-16.28873 -16.16244,-16.28873 -6.27628,0 -4.79822,7.83573 -4.79822,13.76334 z"
         style="opacity:0.2;fill:#f6fbbf;fill-opacity:1" />
      <path
         transform="matrix(0.92121212,0,0,1,34.779862,0.25253766)"
         sodipodi:type="arc"
         style="opacity:0.1;fill:#57104f;fill-opacity:1;stroke:none"
         id="path3851"
         sodipodi:cx="149.75511"
         sodipodi:cy="482.63614"
         sodipodi:rx="41.668793"
         sodipodi:ry="44.446712"
         d="m 191.4239,482.63614 c 0,24.54724 -18.65575,44.44671 -41.66879,44.44671 -23.01304,0 -41.66879,-19.89947 -41.66879,-44.44671 0,-24.54724 18.65575,-44.44671 41.66879,-44.44671 23.01304,0 41.66879,19.89947 41.66879,44.44671 z" />
      <path
         style="opacity:0.2;fill:#f6fbbf;fill-opacity:1"
         d="m 160.8668,484.76243 c 0,5.9276 -5.08794,10.73287 -11.36422,10.73287 -6.27628,0 -9.3439,-0.76465 -9.59644,-8.20748 -0.20101,-5.9242 9.88616,-16.28873 16.16244,-16.28873 6.27628,0 4.79822,7.83573 4.79822,13.76334 z"
         id="path3970"
         inkscape:connector-curvature="0"
         sodipodi:nodetypes="sssss" />
      <path
         style="opacity:0.2;fill:#3f123a;fill-opacity:1"
         d="m 160.8668,480.76243 c 0,5.9276 -5.08794,10.73287 -11.36422,10.73287 -6.27628,0 -9.3439,-0.76465 -9.59644,-8.20748 -0.20101,-5.9242 9.88616,-16.28873 16.16244,-16.28873 6.27628,0 4.79822,7.83573 4.79822,13.76334 z"
         id="path3974"
         inkscape:connector-curvature="0"
         sodipodi:nodetypes="sssss" />
      <path
         sodipodi:nodetypes="sssss"
         inkscape:connector-curvature="0"
         id="path3853"
         d="m 160.8668,482.76243 c 0,5.9276 -5.08794,10.73287 -11.36422,10.73287 -6.27628,0 -9.3439,-0.76465 -9.59644,-8.20748 -0.20101,-5.9242 9.88616,-16.28873 16.16244,-16.28873 6.27628,0 4.79822,7.83573 4.79822,13.76334 z"
         style="fill:#000000;fill-opacity:1" />
      <path
         sodipodi:nodetypes="sssss"
         inkscape:connector-curvature="0"
         id="path3976"
         d="m 184.24889,480.76243 c 0,5.9276 5.08794,10.73287 11.36422,10.73287 6.27628,0 9.3439,-0.76465 9.59644,-8.20748 0.20101,-5.9242 -9.88616,-16.28873 -16.16244,-16.28873 -6.27628,0 -4.79822,7.83573 -4.79822,13.76334 z"
         style="opacity:0.2;fill:#3f123a;fill-opacity:1" />
      <path
         style="fill:#000000;fill-opacity:1"
         d="m 184.24889,482.76243 c 0,5.9276 5.08794,10.73287 11.36422,10.73287 6.27628,0 9.3439,-0.76465 9.59644,-8.20748 0.20101,-5.9242 -9.88616,-16.28873 -16.16244,-16.28873 -6.27628,0 -4.79822,7.83573 -4.79822,13.76334 z"
         id="path3858"
         inkscape:connector-curvature="0"
         sodipodi:nodetypes="sssss" />
      <path
         inkscape:connector-curvature="0"
         style="opacity:0.2;fill:#f6fbbf;fill-opacity:1"
         d="m 140.34629,501.11405 c -1.32166,-0.0298 -2.03789,0.63176 -1.96875,2.3125 0.27889,6.77996 16.48826,18.34375 35.875,18.34375 19.38674,0 33.23485,-11.19946 33.84375,-18.34375 0.36273,-4.25588 -5.52302,-0.957 -14.53125,2.28125 l 1.96875,7.53125 -9.5,2.5 -1.90625,-7.21875 c -3.51286,0.80125 -7.25697,1.34375 -11.125,1.34375 -3.89506,0 -7.63873,-0.62019 -11.125,-1.46875 l -1.90625,7.34375 -9.53125,-2.5 2.03125,-7.8125 c -5.53625,-2.12962 -9.80622,-4.26015 -12.125,-4.3125 z"
         id="path3874" />
      <path
         inkscape:connector-curvature="0"
         id="path3860"
         d="m 140.34629,498.58867 c -1.32166,-0.0298 -2.03789,0.63176 -1.96875,2.3125 0.27889,6.77996 16.48826,18.34375 35.875,18.34375 19.38674,0 33.23485,-11.19946 33.84375,-18.34375 0.36273,-4.25588 -5.52302,-0.957 -14.53125,2.28125 l 1.96875,7.53125 -9.5,2.5 -1.90625,-7.21875 c -3.51286,0.80125 -7.25697,1.34375 -11.125,1.34375 -3.89506,0 -7.63873,-0.62019 -11.125,-1.46875 l -1.90625,7.34375 -9.53125,-2.5 2.03125,-7.8125 c -5.53625,-2.12962 -9.80622,-4.26015 -12.125,-4.3125 z"
         style="fill:#000000;fill-opacity:1" />
      <path
         style="opacity:0.2;fill:#4d254a;fill-opacity:1"
         d="m 140.34629,497.07344 c -1.32166,-0.0298 -2.03789,0.63176 -1.96875,2.3125 0.27889,6.77996 16.48826,18.34375 35.875,18.34375 19.38674,0 33.23485,-11.19946 33.84375,-18.34375 0.36273,-4.25588 -5.52302,-0.957 -14.53125,2.28125 l 1.96875,7.53125 -9.5,2.5 -1.90625,-7.21875 c -3.51286,0.80125 -7.25697,1.34375 -11.125,1.34375 -3.89506,0 -7.63873,-0.62019 -11.125,-1.46875 l -1.90625,7.34375 -9.53125,-2.5 2.03125,-7.8125 c -5.53625,-2.12962 -9.80622,-4.26015 -12.125,-4.3125 z"
         id="path3876"
         inkscape:connector-curvature="0" />
      <path
         transform="translate(50.002551,-34.597724)"
         d="m 108.5914,515.46613 c 0,3.0684 -1.46985,5.55583 -3.283,5.55583 -1.81315,0 -3.28299,-2.48743 -3.28299,-5.55583 0,-3.06841 1.46984,-5.55584 3.28299,-5.55584 1.81315,0 3.283,2.48743 3.283,5.55584 z"
         sodipodi:ry="5.5558391"
         sodipodi:rx="3.2829957"
         sodipodi:cy="515.46613"
         sodipodi:cx="105.3084"
         id="path3978"
         style="fill:#ff0000;fill-opacity:1"
         sodipodi:type="arc" />
      <path
         sodipodi:type="arc"
         style="fill:#ff0000;fill-opacity:1"
         id="path3980"
         sodipodi:cx="105.3084"
         sodipodi:cy="515.46613"
         sodipodi:rx="3.2829957"
         sodipodi:ry="5.5558391"
         d="m 108.5914,515.46613 c 0,3.0684 -1.46985,5.55583 -3.283,5.55583 -1.81315,0 -3.28299,-2.48743 -3.28299,-5.55583 0,-3.06841 1.46984,-5.55584 3.28299,-5.55584 1.81315,0 3.283,2.48743 3.283,5.55584 z"
         transform="translate(84.852814,-34.092648)" />
      <path
         sodipodi:nodetypes="sssss"
         inkscape:connector-curvature="0"
         id="path3982"
         d="m 176.52416,439.32587 c 0,2.71972 -7.90341,2.14657 -15.78364,2.14657 -7.88022,0 -16.03617,3.35107 -16.03617,0.63135 0,-2.71973 9.67118,-7.70242 17.5514,-7.70242 7.88023,0 14.26841,2.20477 14.26841,4.9245 z"
         style="fill:#338000;fill-opacity:1" />
      <path
         sodipodi:nodetypes="sssss"
         inkscape:connector-curvature="0"
         id="path3984"
         d="m 203.29319,442.98766 c 0,3.20787 -2.26463,-2.77793 -12.87944,-4.29316 -8.00825,-1.14315 -17.1726,0.17742 -17.1726,-3.03045 0,-3.20788 10.09689,-4.54476 17.93021,-2.52538 7.83689,2.02031 12.12183,6.64111 12.12183,9.84899 z"
         style="fill:#338000;fill-opacity:1" />
      <path
         transform="matrix(0.59959098,-0.8003066,0.8003066,0.59959098,-343.11224,375.85827)"
         sodipodi:nodetypes="sssss"
         inkscape:connector-curvature="0"
         id="path3986"
         d="m 267.94324,462.93961 c 0,6.13681 -5.95692,19.4163 -6.61797,13.98995 -0.69554,-5.70951 -2.77599,-8.76166 -2.77599,-14.89847 0,-6.13681 0.50664,-13.18344 3.43558,-13.18344 2.92893,0 5.95838,7.95515 5.95838,14.09196 z"
         style="fill:#338000;fill-opacity:1" />
      <path
         sodipodi:nodetypes="sssss"
         inkscape:connector-curvature="0"
         id="path3990"
         d="m 182.26089,423.32023 c 2.57738,11.19337 -3.56429,16.8895 -9.02085,16.8895 -5.45657,0 -10.45272,-4.9723 -8.16171,-16.8895 2.12418,-11.04937 -7.31801,-20.99122 -1.86145,-20.99122 5.45656,0 16.51381,10.00272 19.04401,20.99122 z"
         style="fill:#338000;fill-opacity:1" />
      <path
         style="fill:#51cb00;fill-opacity:1"
         d="m 175.6429,421.89347 c 2.0131,10.24542 -3.43211,15.19529 -6.79396,13.77057 -2.83054,-1.19956 -2.32592,-2.53772 -0.91576,-13.51803 0.91631,-7.13496 -8.17988,-18.30177 -4.52859,-18.30177 3.65128,0 10.79775,10.71773 12.23831,18.04923 z"
         id="path3996"
         inkscape:connector-curvature="0"
         sodipodi:nodetypes="sssss" />
      <path
         style="fill:#51cb00;fill-opacity:1"
         d="m 168.06413,437.43184 c 1.07866,0.69469 -2.91578,0.5682 -6.06092,0.82074 -7.85494,0.63071 -17.01294,3.18478 -14.77348,1.6415 3.03046,-2.08839 5.5177,-3.68529 14.14214,-4.86136 5.73665,-0.78228 3.90415,0.60348 6.69226,2.39912 z"
         id="path3998"
         inkscape:connector-curvature="0"
         sodipodi:nodetypes="sssss" />
    </g>
  </g>
</svg>
