<?xml version="1.0" encoding="UTF-8" standalone="no"?>
<!-- Created with Inkscape (http://www.inkscape.org/) -->

<svg
   xmlns:dc="http://purl.org/dc/elements/1.1/"
   xmlns:cc="http://creativecommons.org/ns#"
   xmlns:rdf="http://www.w3.org/1999/02/22-rdf-syntax-ns#"
   xmlns:svg="http://www.w3.org/2000/svg"
   xmlns="http://www.w3.org/2000/svg"
   xmlns:sodipodi="http://sodipodi.sourceforge.net/DTD/sodipodi-0.dtd"
   xmlns:inkscape="http://www.inkscape.org/namespaces/inkscape"
   width="744.09448819"
   height="1052.3622047"
   id="svg4652"
   version="1.1"
   inkscape:version="0.48.4 r9939"
   sodipodi:docname="crate.svg">
  <defs
     id="defs4654" />
  <sodipodi:namedview
     id="base"
     pagecolor="#ffffff"
     bordercolor="#666666"
     borderopacity="1.0"
     inkscape:pageopacity="0.0"
     inkscape:pageshadow="2"
     inkscape:zoom="0.98994949"
     inkscape:cx="172.1428"
     inkscape:cy="635.03733"
     inkscape:document-units="px"
     inkscape:current-layer="layer1"
     showgrid="false"
     inkscape:window-width="1680"
     inkscape:window-height="988"
     inkscape:window-x="-8"
     inkscape:window-y="-8"
     inkscape:window-maximized="1" />
  <metadata
     id="metadata4657">
    <rdf:RDF>
      <cc:Work
         rdf:about="">
        <dc:format>image/svg+xml</dc:format>
        <dc:type
           rdf:resource="http://purl.org/dc/dcmitype/StillImage" />
        <dc:title></dc:title>
      </cc:Work>
    </rdf:RDF>
  </metadata>
  <g
     inkscape:label="Layer 1"
     inkscape:groupmode="layer"
     id="layer1">
    <rect
       style="fill:#b18f31;fill-opacity:1;stroke:none"
       id="rect4660"
       width="242.85715"
       height="254.28571"
       x="282.85715"
       y="369.50504" />
    <rect
       y="406.88068"
       x="312.15158"
       height="182.56487"
       width="187.19659"
       id="rect5170"
       style="fill:#a05a2c;fill-opacity:1;stroke:none" />
    <rect
       y="416.98221"
       x="323.26324"
       height="160.34152"
       width="166.08556"
       id="rect5172"
       style="fill:#b18f31;fill-opacity:1;stroke:none" />
    <rect
       style="fill:#a05a2c;fill-opacity:1;stroke:none"
       id="rect5174"
       width="187.19659"
       height="12.859253"
       x="312.15158"
       y="459.26648" />
    <rect
       y="521.26648"
       x="312.15158"
       height="12.859253"
       width="187.19659"
       id="rect5176"
       style="fill:#a05a2c;fill-opacity:1;stroke:none" />
    <rect
       style="fill:#d0b057;fill-opacity:1;stroke:none"
       id="rect5178"
       width="225.68456"
       height="12.859247"
       x="292.95868"
       y="373.58627" />
    <rect
       y="418.03299"
       x="324.27341"
       height="13.8694"
       width="161.03479"
       id="rect5180"
       style="fill:#d0b057;fill-opacity:1;stroke:none" />
    <rect
       style="fill:#d0b057;fill-opacity:1;stroke:none"
       id="rect5182"
       width="161.03479"
       height="13.8694"
       x="324.27341"
       y="474.03299" />
    <rect
       y="536.03296"
       x="324.27341"
       height="13.8694"
       width="161.03479"
       id="rect5184"
       style="fill:#d0b057;fill-opacity:1;stroke:none" />
    <rect
       style="fill:#d0b057;fill-opacity:1;stroke:none"
       id="rect5186"
       width="187.29875"
       height="13.8694"
       x="312.15158"
       y="590.03296" />
    <path
       transform="matrix(1.6162625,0,0,1.6595178,-64.798509,-202.46069)"
       d="m 232.14286,356.64789 a 4.8214288,5.3571429 0 1 1 -9.64286,0 4.8214288,5.3571429 0 1 1 9.64286,0 z"
       sodipodi:ry="5.3571429"
       sodipodi:rx="4.8214288"
       sodipodi:cy="356.64789"
       sodipodi:cx="227.32143"
       id="path5192"
       style="fill:#88643e;fill-opacity:1;stroke:none"
       sodipodi:type="arc" />
    <path
       sodipodi:type="arc"
       style="fill:#979590;fill-opacity:1;stroke:none"
       id="path5188"
       sodipodi:cx="227.32143"
       sodipodi:cy="356.64789"
       sodipodi:rx="4.8214288"
       sodipodi:ry="5.3571429"
       d="m 232.14286,356.64789 a 4.8214288,5.3571429 0 1 1 -9.64286,0 4.8214288,5.3571429 0 1 1 9.64286,0 z"
       transform="matrix(1.3703704,0,0,1.4333333,-9.708707,-123.00418)" />
    <path
       transform="matrix(0.77777783,0,0,0.59999998,124.32171,170.80953)"
       d="m 232.14286,356.64789 a 4.8214288,5.3571429 0 1 1 -9.64286,0 4.8214288,5.3571429 0 1 1 9.64286,0 z"
       sodipodi:ry="5.3571429"
       sodipodi:rx="4.8214288"
       sodipodi:cy="356.64789"
       sodipodi:cx="227.32143"
       id="path5190"
       style="fill:#d8d7d5;fill-opacity:1;stroke:none"
       sodipodi:type="arc" />
    <path
       sodipodi:type="arc"
       style="fill:#88643e;fill-opacity:1;stroke:none"
       id="path5194"
       sodipodi:cx="227.32143"
       sodipodi:cy="356.64789"
       sodipodi:rx="4.8214288"
       sodipodi:ry="5.3571429"
       d="m 232.14286,356.64789 a 4.8214288,5.3571429 0 1 1 -9.64286,0 4.8214288,5.3571429 0 1 1 9.64286,0 z"
       transform="matrix(1.6162625,0,0,1.6595178,139.75738,-201.45054)" />
    <path
       transform="matrix(1.3703704,0,0,1.4333333,194.84718,-121.99403)"
       d="m 232.14286,356.64789 a 4.8214288,5.3571429 0 1 1 -9.64286,0 4.8214288,5.3571429 0 1 1 9.64286,0 z"
       sodipodi:ry="5.3571429"
       sodipodi:rx="4.8214288"
       sodipodi:cy="356.64789"
       sodipodi:cx="227.32143"
       id="path5196"
       style="fill:#979590;fill-opacity:1;stroke:none"
       sodipodi:type="arc" />
    <path
       sodipodi:type="arc"
       style="fill:#d8d7d5;fill-opacity:1;stroke:none"
       id="path5198"
       sodipodi:cx="227.32143"
       sodipodi:cy="356.64789"
       sodipodi:rx="4.8214288"
       sodipodi:ry="5.3571429"
       d="m 232.14286,356.64789 a 4.8214288,5.3571429 0 1 1 -9.64286,0 4.8214288,5.3571429 0 1 1 9.64286,0 z"
       transform="matrix(0.77777783,0,0,0.59999998,328.8776,171.81968)" />
    <path
       sodipodi:type="arc"
       style="fill:#88643e;fill-opacity:1;stroke:none"
       id="path5200"
       sodipodi:cx="227.32143"
       sodipodi:cy="356.64789"
       sodipodi:rx="4.8214288"
       sodipodi:ry="5.3571429"
       d="m 232.14286,356.64789 a 4.8214288,5.3571429 0 1 1 -9.64286,0 4.8214288,5.3571429 0 1 1 9.64286,0 z"
       transform="matrix(1.6162625,0,0,1.6595178,-64.798509,12.196726)" />
    <path
       transform="matrix(1.3703704,0,0,1.4333333,-9.708707,91.653236)"
       d="m 232.14286,356.64789 a 4.8214288,5.3571429 0 1 1 -9.64286,0 4.8214288,5.3571429 0 1 1 9.64286,0 z"
       sodipodi:ry="5.3571429"
       sodipodi:rx="4.8214288"
       sodipodi:cy="356.64789"
       sodipodi:cx="227.32143"
       id="path5202"
       style="fill:#979590;fill-opacity:1;stroke:none"
       sodipodi:type="arc" />
    <path
       sodipodi:type="arc"
       style="fill:#d8d7d5;fill-opacity:1;stroke:none"
       id="path5204"
       sodipodi:cx="227.32143"
       sodipodi:cy="356.64789"
       sodipodi:rx="4.8214288"
       sodipodi:ry="5.3571429"
       d="m 232.14286,356.64789 a 4.8214288,5.3571429 0 1 1 -9.64286,0 4.8214288,5.3571429 0 1 1 9.64286,0 z"
       transform="matrix(0.77777783,0,0,0.59999998,124.32171,385.46695)" />
    <path
       transform="matrix(1.6162625,0,0,1.6595178,140.76754,9.6713446)"
       d="m 232.14286,356.64789 a 4.8214288,5.3571429 0 1 1 -9.64286,0 4.8214288,5.3571429 0 1 1 9.64286,0 z"
       sodipodi:ry="5.3571429"
       sodipodi:rx="4.8214288"
       sodipodi:cy="356.64789"
       sodipodi:cx="227.32143"
       id="path5206"
       style="fill:#88643e;fill-opacity:1;stroke:none"
       sodipodi:type="arc" />
    <path
       sodipodi:type="arc"
       style="fill:#979590;fill-opacity:1;stroke:none"
       id="path5208"
       sodipodi:cx="227.32143"
       sodipodi:cy="356.64789"
       sodipodi:rx="4.8214288"
       sodipodi:ry="5.3571429"
       d="m 232.14286,356.64789 a 4.8214288,5.3571429 0 1 1 -9.64286,0 4.8214288,5.3571429 0 1 1 9.64286,0 z"
       transform="matrix(1.3703704,0,0,1.4333333,195.85734,89.127855)" />
    <path
       transform="matrix(0.77777783,0,0,0.59999998,329.88776,382.94157)"
       d="m 232.14286,356.64789 a 4.8214288,5.3571429 0 1 1 -9.64286,0 4.8214288,5.3571429 0 1 1 9.64286,0 z"
       sodipodi:ry="5.3571429"
       sodipodi:rx="4.8214288"
       sodipodi:cy="356.64789"
       sodipodi:cx="227.32143"
       id="path5210"
       style="fill:#d8d7d5;fill-opacity:1;stroke:none"
       sodipodi:type="arc" />
  </g>
</svg>
