<?xml version="1.0" encoding="UTF-8" standalone="no"?>
<!-- Created with Inkscape (http://www.inkscape.org/) -->

<svg
   xmlns:dc="http://purl.org/dc/elements/1.1/"
   xmlns:cc="http://creativecommons.org/ns#"
   xmlns:rdf="http://www.w3.org/1999/02/22-rdf-syntax-ns#"
   xmlns:svg="http://www.w3.org/2000/svg"
   xmlns="http://www.w3.org/2000/svg"
   xmlns:sodipodi="http://sodipodi.sourceforge.net/DTD/sodipodi-0.dtd"
   xmlns:inkscape="http://www.inkscape.org/namespaces/inkscape"
   width="744.09448819"
   height="1052.3622047"
   id="svg3869"
   version="1.1"
   inkscape:version="0.48.4 r9939"
   sodipodi:docname="materials.svg">
  <defs
     id="defs3871">
    <clipPath
       clipPathUnits="userSpaceOnUse"
       id="clipPath4425">
      <rect
         y="558.07648"
         x="68.571434"
         height="29.999998"
         width="188.57143"
         id="rect4427"
         style="opacity:0.56637166;fill:#d3bc5f;fill-opacity:1;stroke:none" />
    </clipPath>
    <clipPath
       clipPathUnits="userSpaceOnUse"
       id="clipPath4429">
      <rect
         y="558.07648"
         x="68.571434"
         height="29.999998"
         width="188.57143"
         id="rect4431"
         style="opacity:0.56637166;fill:#d3bc5f;fill-opacity:1;stroke:none" />
    </clipPath>
  </defs>
  <sodipodi:namedview
     id="base"
     pagecolor="#ffffff"
     bordercolor="#666666"
     borderopacity="1.0"
     inkscape:pageopacity="0.0"
     inkscape:pageshadow="2"
     inkscape:zoom="3.959798"
     inkscape:cx="174.93229"
     inkscape:cy="538.20267"
     inkscape:document-units="px"
     inkscape:current-layer="layer1"
     showgrid="false"
     showguides="true"
     inkscape:guide-bbox="true"
     inkscape:window-width="1600"
     inkscape:window-height="838"
     inkscape:window-x="-8"
     inkscape:window-y="-8"
     inkscape:window-maximized="1" />
  <metadata
     id="metadata3874">
    <rdf:RDF>
      <cc:Work
         rdf:about="">
        <dc:format>image/svg+xml</dc:format>
        <dc:type
           rdf:resource="http://purl.org/dc/dcmitype/StillImage" />
        <dc:title></dc:title>
      </cc:Work>
    </rdf:RDF>
  </metadata>
  <g
     inkscape:label="Layer 1"
     inkscape:groupmode="layer"
     id="layer1"
     style="display:inline">
    <g
       id="g4451"
       transform="translate(6.8185297,-100.51018)"
       inkscape:export-filename="D:\proiecte\angrybox\src\img\wood-h.png"
       inkscape:export-xdpi="45"
       inkscape:export-ydpi="45">
      <rect
         transform="matrix(1.0606061,0,0,1,-4.1558453,0)"
         clip-path="url(#clipPath4429)"
         y="558.07648"
         x="68.571434"
         height="29.999998"
         width="188.57143"
         id="rect3879"
         style="fill:#d3bc5f;fill-opacity:1;stroke:none" />
      <path
         transform="matrix(1.0606061,0,0,1,-4.1558453,0)"
         inkscape:connector-curvature="0"
         clip-path="url(#clipPath4425)"
         id="rect4392"
         d="m 130.4375,557.90625 c -0.98102,0.0166 -1.95974,0.0676 -2.9375,0.15625 -5.30473,0.48113 -10.39294,2.96102 -15.71875,2.875 -3.10107,-0.0501 -6.00988,-1.63875 -9.09375,-1.96875 -4.319092,-0.46218 -8.6875,0 -13.03125,0 -2.385417,0 -4.77209,0.0774 -7.15625,0 -4.65319,-0.15111 -13.9375,-0.90625 -13.9375,-0.90625 -0.115864,-0.008 -0.08867,1.49246 1.3125,1.59375 1.401169,0.1013 3.626775,-0.3391 6.21875,-0.25 2.591976,0.0891 5.369387,0.70475 8.96875,0.78125 3.599364,0.0765 9.795417,-0.40705 14.21875,-0.34375 4.42333,0.0633 8.15487,2.10665 13.21875,2.15625 5.06389,0.0496 10.38523,-2.5979 15.90625,-2.5625 5.52102,0.0354 11.23652,0.073 17.03125,0.0937 5.79474,0.0207 13.98997,-0.16125 19.875,-0.15625 5.88504,0.005 9.45809,0.1978 15.25,0.1875 5.79192,-0.0103 13.26588,1.74525 18.78125,1.71875 5.51537,-0.0265 9.06958,-1.8317 14.125,-1.875 5.05541,-0.0433 9.83797,-0.0956 14.25,-0.15625 4.41204,-0.0606 8.78975,1.8284 12.375,1.75 3.58525,-0.0784 5.83121,-0.8721 8.40625,-0.96875 2.57503,-0.0967 7.27485,-0.38453 8.65625,-0.5 1.38137,-0.11547 -0.004,-1.33396 0,-1.46875 0.0145,-0.48937 -12.12054,2.31918 -18.21875,1.96875 -2.68688,-0.1544 -5.20347,-1.45553 -7.875,-1.78125 -3.07164,-0.3745 -6.18728,-0.23816 -9.28125,-0.1875 -4.52657,0.0741 -9.06501,0.20111 -13.5625,0.71875 -3.06926,0.35325 -6.03694,1.5301 -9.125,1.625 -4.72681,0.14526 -9.37446,-1.32148 -14.09375,-1.625 -3.80499,-0.24472 -7.62673,-0.0303 -11.4375,-0.15625 -3.57588,-0.11821 -7.14215,-0.46872 -10.71875,-0.5625 -3.92573,-0.10294 -7.85417,0 -11.78125,0 l -11.78125,0 c -2.94531,0 -5.90069,-0.20613 -8.84375,-0.15625 z M 128.90625,562 c -0.45073,-0.01 -0.91737,0.0182 -1.40625,0.0625 -5.30473,0.48113 -10.39294,2.96102 -15.71875,2.875 -3.10107,-0.0501 -6.00988,-1.63875 -9.09375,-1.96875 -4.319092,-0.46218 -8.6875,0 -13.03125,0 -2.385417,0 -4.77209,0.0774 -7.15625,0 -4.653191,-0.15112 -13.9375,-0.90625 -13.9375,-0.90625 -0.115864,-0.008 -0.08867,1.49246 1.3125,1.59375 1.401169,0.1013 3.626775,-0.3391 6.21875,-0.25 2.591976,0.0891 5.369387,0.70475 8.96875,0.78125 3.599364,0.0765 9.795417,-0.40705 14.21875,-0.34375 4.42333,0.0633 8.15487,2.10665 13.21875,2.15625 5.06389,0.0496 10.38523,-2.5979 15.90625,-2.5625 5.52102,0.0354 11.23652,1.32305 17.03125,1.34375 5.79474,0.0207 13.98997,0.0263 19.875,0.0312 5.88504,0.005 9.45809,-1.2397 15.25,-1.25 5.79192,-0.0103 12.92213,2.464 18.4375,2.4375 5.51537,-0.0265 9.41333,-2.55045 14.46875,-2.59375 5.05541,-0.0433 9.83797,-0.0956 14.25,-0.15625 4.41204,-0.0606 8.78975,1.8284 12.375,1.75 3.58525,-0.0784 5.83121,-0.8721 8.40625,-0.96875 2.57503,-0.0967 7.27485,-0.38453 8.65625,-0.5 1.38137,-0.11547 -0.004,-1.33396 0,-1.46875 0.0145,-0.48937 -12.12054,2.31918 -18.21875,1.96875 -2.68688,-0.1544 -5.20347,-1.45553 -7.875,-1.78125 -3.07164,-0.3745 -6.18728,-0.23816 -9.28125,-0.1875 -4.52657,0.0741 -9.09047,0.0143 -13.5625,0.71875 -3.23041,0.50889 -6.20101,2.40331 -9.46875,2.53125 -4.65159,0.18213 -9.11695,-2.07823 -13.75,-2.53125 -3.79476,-0.37105 -7.62673,-0.0303 -11.4375,-0.15625 -3.57588,-0.11821 -7.8609,1.31253 -11.4375,1.21875 -3.92573,-0.10294 -9.29167,0 -13.21875,0 -3.92708,0 -7.13542,-0.53125 -11.0625,-0.53125 -3.43619,0 -5.78242,-1.24299 -8.9375,-1.3125 z m 128.125,4 c -1.34358,-0.096 -12.37668,2.35978 -18.09375,2.03125 -2.68688,-0.1544 -5.20347,-1.45553 -7.875,-1.78125 -3.07164,-0.3745 -5.12478,2.26184 -8.21875,2.3125 -4.52657,0.0741 -4.71318,1.56611 -10.53125,1.78125 -3.49365,0.12919 -10.31872,-2.29144 -13.75,-2.125 -4.66954,0.22649 -8.10573,0.24423 -13.75,1.0625 -3.77341,0.54705 -8.87673,0.31345 -12.6875,0.1875 -3.57588,-0.11821 -6.95465,-0.0937 -10.53125,-0.1875 -3.92573,-0.10294 -6.07292,-0.375 -10,-0.375 -3.92708,0 -8.72917,-0.34375 -12.65625,-0.34375 -3.92708,0 -7.33897,-0.54223 -11.25,-0.1875 -5.30473,0.48113 -8.98669,3.33602 -14.3125,3.25 -3.10107,-0.0501 -7.60363,-4.32625 -10.6875,-4.65625 -4.319092,-0.46218 -8.6875,0 -13.03125,0 -2.385417,0 -4.77209,0.0774 -7.15625,0 -4.653191,-0.15112 -13.9375,-0.90625 -13.9375,-0.90625 -0.115864,-0.008 -0.08867,1.49246 1.3125,1.59375 1.401169,0.1013 3.626775,-0.3391 6.21875,-0.25 2.591976,0.0891 5.369387,0.70475 8.96875,0.78125 3.599364,0.0765 9.795417,-0.40705 14.21875,-0.34375 4.42333,0.0633 9.59237,4.60665 14.65625,4.65625 5.06389,0.0496 8.41648,-3.50415 13.9375,-3.46875 5.52102,0.0354 11.42402,0.073 17.21875,0.0937 5.79474,0.0207 14.33372,1.08875 20.21875,1.09375 5.88504,0.005 10.70809,0.3853 16.5,0.375 5.79192,-0.0103 11.30906,-1.14488 16.8125,-0.78125 2.30108,0.15204 8.88208,1.57455 13.9375,1.53125 5.05541,-0.0433 13.24422,-2.9706 17.65625,-3.03125 4.41204,-0.0606 6.28975,0.7659 9.875,0.6875 3.58525,-0.0784 5.83121,0.5654 8.40625,0.46875 2.57503,-0.0967 7.27485,-1.82203 8.65625,-1.9375 1.38137,-0.11547 -0.004,-1.33396 0,-1.46875 9.1e-4,-0.0306 -0.0354,-0.0561 -0.125,-0.0625 z M 130.5,570.6875 c -0.87699,0.0162 -1.78194,0.0491 -2.65625,0.125 -5.54004,0.48097 -7.28864,3.87175 -12.84375,4.125 -2.91901,0.13308 -9.39292,-1.84886 -12.3125,-1.96875 -4.340092,-0.17823 -8.6875,0 -13.03125,0 -2.385417,0 -4.77209,0.0774 -7.15625,0 -4.653191,-0.15112 -13.9375,-0.90625 -13.9375,-0.90625 -0.115864,-0.008 -0.08867,1.49246 1.3125,1.59375 1.401169,0.1013 3.626775,-0.3391 6.21875,-0.25 2.591976,0.0891 5.369387,0.70475 8.96875,0.78125 3.599364,0.0765 9.795417,-0.40705 14.21875,-0.34375 4.42333,0.0633 10.31112,1.7629 15.375,1.8125 5.06389,0.0496 8.04148,-3.69165 13.5625,-3.65625 5.52102,0.0354 10.70527,-0.0832 16.5,-0.0625 5.79474,0.0207 14.70872,1.4325 20.59375,1.4375 5.88504,0.005 11.19206,-1.07926 16.84375,0.1875 6.32763,1.41828 11.85963,4.7765 17.375,4.75 5.51537,-0.0265 11.03833,-5.05045 16.09375,-5.09375 5.05541,-0.0433 7.68172,0.0919 12.09375,0.0312 4.41204,-0.0606 8.78975,1.8284 12.375,1.75 3.58525,-0.0784 5.83121,-0.52835 8.40625,-0.625 2.57503,-0.0966 7.27485,-0.72828 8.65625,-0.84375 1.38137,-0.11547 0.13407,-1.48324 0,-1.46875 0,0 -12.12054,2.31918 -18.21875,1.96875 -2.68688,-0.1544 -5.20347,-1.45553 -7.875,-1.78125 -3.07164,-0.3745 -6.18728,-0.23816 -9.28125,-0.1875 -4.52657,0.0741 -8.52037,0.0314 -13.375,2.15625 -2.8303,1.23877 -5.16194,2.93635 -8.25,3.03125 -4.72681,0.14526 -14.37446,-4.16523 -19.09375,-4.46875 -3.805,-0.24472 -4.75172,-0.37403 -8.5625,-0.5 -3.57588,-0.11821 -6.08757,0.0371 -9.65625,-0.21875 -3.9332,-0.28195 -7.84337,-0.856 -11.78125,-1.0625 -4.21933,-0.22126 -8.46248,-0.15774 -12.6875,-0.1875 -2.63275,-0.0185 -5.24402,-0.17349 -7.875,-0.125 z m 65.625,0.9375 c -0.76651,0.005 -1.52424,0.0496 -2.15625,0.21875 -0.93502,0.25028 -6.46875,-0.0484 -6.46875,0.46875 0,1.03433 9.66762,4.3009 12.375,3.75 2.85215,-0.58035 7.38408,-2.63813 7.40625,-3.09375 0.0327,-0.67223 -6.17464,-1.3125 -8.9375,-1.3125 -0.69072,0 -1.45224,-0.0365 -2.21875,-0.0312 z m 1.875,0.4375 c 2.4481,0 4.70089,0.67933 6.84375,1.21875 -1.42857,0.85193 -3.4894,2.59375 -5.9375,2.59375 -2.4481,0 -6.03125,-1.78646 -6.03125,-2.59375 0,-0.80728 2.6769,-1.21875 5.125,-1.21875 z m -67.59375,1.6875 c -0.97874,0.0332 -1.94063,0.13515 -2.90625,0.3125 -4.1353,0.75952 -7.58155,4.2685 -11.78125,4.46875 -4.49635,0.2144 -8.57015,-2.96113 -13.03125,-3.5625 -4.304813,-0.5803 -8.6875,0 -13.03125,0 -2.385417,0 -4.77209,0.0774 -7.15625,0 -4.65319,-0.15111 -14.097181,-1.57568 -13.9375,-0.90625 0.02694,0.11294 -0.08867,1.49246 1.3125,1.59375 1.401169,0.1013 3.626775,-0.3391 6.21875,-0.25 2.591976,0.0891 5.369387,0.70475 8.96875,0.78125 3.599364,0.0765 9.795417,-0.40705 14.21875,-0.34375 4.42333,0.0633 13.4884,3.94908 16.25,3.9375 3.38487,-0.0142 10.56827,-4.02201 12.875,-4.34375 5.4682,-0.7627 11.23652,0.073 17.03125,0.0937 5.79474,0.0207 13.98997,-0.16125 19.875,-0.15625 5.88504,0.005 10.61443,-0.24611 16.15625,1.4375 5.2562,1.59684 11.82838,5.1515 17.34375,5.125 5.51537,-0.0265 10.13208,-5.05045 15.1875,-5.09375 5.05541,-0.0433 9.30672,-1.5331 13.71875,-1.59375 4.41204,-0.0606 8.78975,1.8284 12.375,1.75 3.58525,-0.0784 5.64371,-0.15335 8.21875,-0.25 2.57503,-0.0967 7.46235,-1.10328 8.84375,-1.21875 1.38137,-0.11547 0.13407,-1.48324 0,-1.46875 0,0 -12.12054,2.31918 -18.21875,1.96875 -2.68688,-0.1544 -5.20347,-1.45553 -7.875,-1.78125 -3.07164,-0.3745 -7.78104,0.82434 -10.875,0.875 -4.52657,0.0741 -6.22126,0.57165 -10.71875,1.625 -3.00812,0.70452 -6.38069,3.49885 -9.46875,3.59375 -4.72681,0.14526 -8.30303,0.11155 -15.34375,-3.40625 -3.41082,-1.70417 -7.28298,-2.18653 -11.09375,-2.3125 -3.57588,-0.11821 -7.14215,-0.46872 -10.71875,-0.5625 -3.92573,-0.10294 -7.85417,0 -11.78125,0 l -11.78125,0 c -2.94531,0 -5.93877,-0.41226 -8.875,-0.3125 z m -61.46875,6.15625 c -0.25204,0.0248 -0.39496,0.0726 -0.375,0.15625 0.02694,0.11294 -0.08867,1.49246 1.3125,1.59375 1.401169,0.1013 3.626775,-0.3391 6.21875,-0.25 2.591976,0.0891 5.369387,0.70475 8.96875,0.78125 3.599364,0.0765 9.795417,-0.40705 14.21875,-0.34375 4.42333,0.0633 8.15487,2.10665 13.21875,2.15625 5.06389,0.0496 10.38523,-2.5979 15.90625,-2.5625 5.52102,0.0354 11.23652,0.073 17.03125,0.0937 5.79474,0.0207 13.98997,-0.16125 19.875,-0.15625 5.88504,0.005 9.45809,0.1978 15.25,0.1875 5.79192,-0.0103 13.07838,3.18275 18.59375,3.15625 5.51537,-0.0265 9.25708,-3.2692 14.3125,-3.3125 5.05541,-0.0433 9.83797,-0.0956 14.25,-0.15625 4.41204,-0.0606 8.78975,1.8284 12.375,1.75 3.58525,-0.0784 5.83121,-0.8721 8.40625,-0.96875 2.57503,-0.0967 7.27485,-0.38453 8.65625,-0.5 1.38137,-0.11547 0.13407,-1.48324 0,-1.46875 0,0 -12.12054,2.31918 -18.21875,1.96875 -2.68688,-0.1544 -5.20347,-1.45553 -7.875,-1.78125 -3.07164,-0.3745 -6.18728,-0.23816 -9.28125,-0.1875 -4.52657,0.0741 -9.60519,0.74576 -14.28125,2.15625 -2.95788,0.89222 -4.97443,1.68635 -8.0625,1.78125 -4.72681,0.14526 -9.71821,-2.91523 -14.4375,-3.21875 -3.80499,-0.24472 -7.62673,-0.0303 -11.4375,-0.15625 -3.57588,-0.11821 -7.14215,-0.46872 -10.71875,-0.5625 -3.92573,-0.10294 -7.85417,0 -11.78125,0 l -11.78125,0 c -3.92708,0 -7.87022,-0.35473 -11.78125,0 -5.30473,0.48113 -10.39294,2.96102 -15.71875,2.875 -3.10107,-0.0501 -6.00988,-1.63875 -9.09375,-1.96875 -4.319092,-0.46218 -8.6875,0 -13.03125,0 -2.385417,0 -4.77209,0.0774 -7.15625,0 -4.071541,-0.13222 -11.798217,-1.23624 -13.5625,-1.0625 z m 61.5,4 c -0.98102,0.0166 -1.95974,0.0676 -2.9375,0.15625 -5.30473,0.48113 -10.39294,2.96102 -15.71875,2.875 -3.10107,-0.0501 -6.00988,-1.63875 -9.09375,-1.96875 -4.319092,-0.46218 -8.6875,0 -13.03125,0 -2.385417,0 -4.77209,0.0774 -7.15625,0 -4.65319,-0.15111 -13.9375,-0.90625 -13.9375,-0.90625 -0.115864,-0.008 -0.08867,1.49246 1.3125,1.59375 1.401169,0.1013 3.626775,-0.3391 6.21875,-0.25 2.591976,0.0891 5.369387,0.70475 8.96875,0.78125 3.599364,0.0765 9.795417,-0.40705 14.21875,-0.34375 4.42333,0.0633 8.15487,2.10665 13.21875,2.15625 5.06389,0.0496 10.38523,-2.5979 15.90625,-2.5625 5.52102,0.0354 11.23652,0.073 17.03125,0.0937 5.79474,0.0207 13.98997,-0.16125 19.875,-0.15625 5.88504,0.005 9.45809,0.1978 15.25,0.1875 5.79192,-0.0103 13.26588,1.74525 18.78125,1.71875 5.51537,-0.0265 9.06958,-1.8317 14.125,-1.875 5.05541,-0.0433 9.83797,-0.0956 14.25,-0.15625 4.41204,-0.0606 8.78975,1.8284 12.375,1.75 3.58525,-0.0784 5.83121,-0.8721 8.40625,-0.96875 2.57503,-0.0967 7.27485,-0.38453 8.65625,-0.5 1.38137,-0.11547 -0.004,-1.33396 0,-1.46875 0.0145,-0.48937 -12.12054,2.31918 -18.21875,1.96875 -2.68688,-0.1544 -5.20347,-1.45553 -7.875,-1.78125 -3.07164,-0.3745 -6.18728,-0.23816 -9.28125,-0.1875 -4.52657,0.0741 -9.06501,0.20111 -13.5625,0.71875 -3.06926,0.35325 -6.03694,1.5301 -9.125,1.625 -4.72681,0.14526 -9.37446,-1.32148 -14.09375,-1.625 -3.80499,-0.24472 -7.62673,-0.0303 -11.4375,-0.15625 -3.57588,-0.11821 -7.14215,-0.46872 -10.71875,-0.5625 -3.92573,-0.10294 -7.85417,0 -11.78125,0 l -11.78125,0 c -2.94531,0 -5.90069,-0.20613 -8.84375,-0.15625 z"
         style="opacity:0.38938054;fill:#736426;fill-opacity:1;stroke:none" />
    </g>
    <g
       id="g4455"
       transform="matrix(0,-1,1,0,-517.89466,725.99054)"
       inkscape:export-filename="D:\proiecte\angrybox\src\img\wood-v.png"
       inkscape:export-xdpi="45"
       inkscape:export-ydpi="45">
      <rect
         style="fill:#d3bc5f;fill-opacity:1;stroke:none"
         id="rect4457"
         width="188.57143"
         height="29.999998"
         x="68.571434"
         y="558.07648"
         clip-path="url(#clipPath4429)"
         transform="matrix(1.0606061,0,0,1,-4.1558453,0)" />
      <path
         style="opacity:0.38938054;fill:#736426;fill-opacity:1;stroke:none"
         d="m 130.4375,557.90625 c -0.98102,0.0166 -1.95974,0.0676 -2.9375,0.15625 -5.30473,0.48113 -10.39294,2.96102 -15.71875,2.875 -3.10107,-0.0501 -6.00988,-1.63875 -9.09375,-1.96875 -4.319092,-0.46218 -8.6875,0 -13.03125,0 -2.385417,0 -4.77209,0.0774 -7.15625,0 -4.65319,-0.15111 -13.9375,-0.90625 -13.9375,-0.90625 -0.115864,-0.008 -0.08867,1.49246 1.3125,1.59375 1.401169,0.1013 3.626775,-0.3391 6.21875,-0.25 2.591976,0.0891 5.369387,0.70475 8.96875,0.78125 3.599364,0.0765 9.795417,-0.40705 14.21875,-0.34375 4.42333,0.0633 8.15487,2.10665 13.21875,2.15625 5.06389,0.0496 10.38523,-2.5979 15.90625,-2.5625 5.52102,0.0354 11.23652,0.073 17.03125,0.0937 5.79474,0.0207 13.98997,-0.16125 19.875,-0.15625 5.88504,0.005 9.45809,0.1978 15.25,0.1875 5.79192,-0.0103 13.26588,1.74525 18.78125,1.71875 5.51537,-0.0265 9.06958,-1.8317 14.125,-1.875 5.05541,-0.0433 9.83797,-0.0956 14.25,-0.15625 4.41204,-0.0606 8.78975,1.8284 12.375,1.75 3.58525,-0.0784 5.83121,-0.8721 8.40625,-0.96875 2.57503,-0.0967 7.27485,-0.38453 8.65625,-0.5 1.38137,-0.11547 -0.004,-1.33396 0,-1.46875 0.0145,-0.48937 -12.12054,2.31918 -18.21875,1.96875 -2.68688,-0.1544 -5.20347,-1.45553 -7.875,-1.78125 -3.07164,-0.3745 -6.18728,-0.23816 -9.28125,-0.1875 -4.52657,0.0741 -9.06501,0.20111 -13.5625,0.71875 -3.06926,0.35325 -6.03694,1.5301 -9.125,1.625 -4.72681,0.14526 -9.37446,-1.32148 -14.09375,-1.625 -3.80499,-0.24472 -7.62673,-0.0303 -11.4375,-0.15625 -3.57588,-0.11821 -7.14215,-0.46872 -10.71875,-0.5625 -3.92573,-0.10294 -7.85417,0 -11.78125,0 l -11.78125,0 c -2.94531,0 -5.90069,-0.20613 -8.84375,-0.15625 z M 128.90625,562 c -0.45073,-0.01 -0.91737,0.0182 -1.40625,0.0625 -5.30473,0.48113 -10.39294,2.96102 -15.71875,2.875 -3.10107,-0.0501 -6.00988,-1.63875 -9.09375,-1.96875 -4.319092,-0.46218 -8.6875,0 -13.03125,0 -2.385417,0 -4.77209,0.0774 -7.15625,0 -4.653191,-0.15112 -13.9375,-0.90625 -13.9375,-0.90625 -0.115864,-0.008 -0.08867,1.49246 1.3125,1.59375 1.401169,0.1013 3.626775,-0.3391 6.21875,-0.25 2.591976,0.0891 5.369387,0.70475 8.96875,0.78125 3.599364,0.0765 9.795417,-0.40705 14.21875,-0.34375 4.42333,0.0633 8.15487,2.10665 13.21875,2.15625 5.06389,0.0496 10.38523,-2.5979 15.90625,-2.5625 5.52102,0.0354 11.23652,1.32305 17.03125,1.34375 5.79474,0.0207 13.98997,0.0263 19.875,0.0312 5.88504,0.005 9.45809,-1.2397 15.25,-1.25 5.79192,-0.0103 12.92213,2.464 18.4375,2.4375 5.51537,-0.0265 9.41333,-2.55045 14.46875,-2.59375 5.05541,-0.0433 9.83797,-0.0956 14.25,-0.15625 4.41204,-0.0606 8.78975,1.8284 12.375,1.75 3.58525,-0.0784 5.83121,-0.8721 8.40625,-0.96875 2.57503,-0.0967 7.27485,-0.38453 8.65625,-0.5 1.38137,-0.11547 -0.004,-1.33396 0,-1.46875 0.0145,-0.48937 -12.12054,2.31918 -18.21875,1.96875 -2.68688,-0.1544 -5.20347,-1.45553 -7.875,-1.78125 -3.07164,-0.3745 -6.18728,-0.23816 -9.28125,-0.1875 -4.52657,0.0741 -9.09047,0.0143 -13.5625,0.71875 -3.23041,0.50889 -6.20101,2.40331 -9.46875,2.53125 -4.65159,0.18213 -9.11695,-2.07823 -13.75,-2.53125 -3.79476,-0.37105 -7.62673,-0.0303 -11.4375,-0.15625 -3.57588,-0.11821 -7.8609,1.31253 -11.4375,1.21875 -3.92573,-0.10294 -9.29167,0 -13.21875,0 -3.92708,0 -7.13542,-0.53125 -11.0625,-0.53125 -3.43619,0 -5.78242,-1.24299 -8.9375,-1.3125 z m 128.125,4 c -1.34358,-0.096 -12.37668,2.35978 -18.09375,2.03125 -2.68688,-0.1544 -5.20347,-1.45553 -7.875,-1.78125 -3.07164,-0.3745 -5.12478,2.26184 -8.21875,2.3125 -4.52657,0.0741 -4.71318,1.56611 -10.53125,1.78125 -3.49365,0.12919 -10.31872,-2.29144 -13.75,-2.125 -4.66954,0.22649 -8.10573,0.24423 -13.75,1.0625 -3.77341,0.54705 -8.87673,0.31345 -12.6875,0.1875 -3.57588,-0.11821 -6.95465,-0.0937 -10.53125,-0.1875 -3.92573,-0.10294 -6.07292,-0.375 -10,-0.375 -3.92708,0 -8.72917,-0.34375 -12.65625,-0.34375 -3.92708,0 -7.33897,-0.54223 -11.25,-0.1875 -5.30473,0.48113 -8.98669,3.33602 -14.3125,3.25 -3.10107,-0.0501 -7.60363,-4.32625 -10.6875,-4.65625 -4.319092,-0.46218 -8.6875,0 -13.03125,0 -2.385417,0 -4.77209,0.0774 -7.15625,0 -4.653191,-0.15112 -13.9375,-0.90625 -13.9375,-0.90625 -0.115864,-0.008 -0.08867,1.49246 1.3125,1.59375 1.401169,0.1013 3.626775,-0.3391 6.21875,-0.25 2.591976,0.0891 5.369387,0.70475 8.96875,0.78125 3.599364,0.0765 9.795417,-0.40705 14.21875,-0.34375 4.42333,0.0633 9.59237,4.60665 14.65625,4.65625 5.06389,0.0496 8.41648,-3.50415 13.9375,-3.46875 5.52102,0.0354 11.42402,0.073 17.21875,0.0937 5.79474,0.0207 14.33372,1.08875 20.21875,1.09375 5.88504,0.005 10.70809,0.3853 16.5,0.375 5.79192,-0.0103 11.30906,-1.14488 16.8125,-0.78125 2.30108,0.15204 8.88208,1.57455 13.9375,1.53125 5.05541,-0.0433 13.24422,-2.9706 17.65625,-3.03125 4.41204,-0.0606 6.28975,0.7659 9.875,0.6875 3.58525,-0.0784 5.83121,0.5654 8.40625,0.46875 2.57503,-0.0967 7.27485,-1.82203 8.65625,-1.9375 1.38137,-0.11547 -0.004,-1.33396 0,-1.46875 9.1e-4,-0.0306 -0.0354,-0.0561 -0.125,-0.0625 z M 130.5,570.6875 c -0.87699,0.0162 -1.78194,0.0491 -2.65625,0.125 -5.54004,0.48097 -7.28864,3.87175 -12.84375,4.125 -2.91901,0.13308 -9.39292,-1.84886 -12.3125,-1.96875 -4.340092,-0.17823 -8.6875,0 -13.03125,0 -2.385417,0 -4.77209,0.0774 -7.15625,0 -4.653191,-0.15112 -13.9375,-0.90625 -13.9375,-0.90625 -0.115864,-0.008 -0.08867,1.49246 1.3125,1.59375 1.401169,0.1013 3.626775,-0.3391 6.21875,-0.25 2.591976,0.0891 5.369387,0.70475 8.96875,0.78125 3.599364,0.0765 9.795417,-0.40705 14.21875,-0.34375 4.42333,0.0633 10.31112,1.7629 15.375,1.8125 5.06389,0.0496 8.04148,-3.69165 13.5625,-3.65625 5.52102,0.0354 10.70527,-0.0832 16.5,-0.0625 5.79474,0.0207 14.70872,1.4325 20.59375,1.4375 5.88504,0.005 11.19206,-1.07926 16.84375,0.1875 6.32763,1.41828 11.85963,4.7765 17.375,4.75 5.51537,-0.0265 11.03833,-5.05045 16.09375,-5.09375 5.05541,-0.0433 7.68172,0.0919 12.09375,0.0312 4.41204,-0.0606 8.78975,1.8284 12.375,1.75 3.58525,-0.0784 5.83121,-0.52835 8.40625,-0.625 2.57503,-0.0966 7.27485,-0.72828 8.65625,-0.84375 1.38137,-0.11547 0.13407,-1.48324 0,-1.46875 0,0 -12.12054,2.31918 -18.21875,1.96875 -2.68688,-0.1544 -5.20347,-1.45553 -7.875,-1.78125 -3.07164,-0.3745 -6.18728,-0.23816 -9.28125,-0.1875 -4.52657,0.0741 -8.52037,0.0314 -13.375,2.15625 -2.8303,1.23877 -5.16194,2.93635 -8.25,3.03125 -4.72681,0.14526 -14.37446,-4.16523 -19.09375,-4.46875 -3.805,-0.24472 -4.75172,-0.37403 -8.5625,-0.5 -3.57588,-0.11821 -6.08757,0.0371 -9.65625,-0.21875 -3.9332,-0.28195 -7.84337,-0.856 -11.78125,-1.0625 -4.21933,-0.22126 -8.46248,-0.15774 -12.6875,-0.1875 -2.63275,-0.0185 -5.24402,-0.17349 -7.875,-0.125 z m 65.625,0.9375 c -0.76651,0.005 -1.52424,0.0496 -2.15625,0.21875 -0.93502,0.25028 -6.46875,-0.0484 -6.46875,0.46875 0,1.03433 9.66762,4.3009 12.375,3.75 2.85215,-0.58035 7.38408,-2.63813 7.40625,-3.09375 0.0327,-0.67223 -6.17464,-1.3125 -8.9375,-1.3125 -0.69072,0 -1.45224,-0.0365 -2.21875,-0.0312 z m 1.875,0.4375 c 2.4481,0 4.70089,0.67933 6.84375,1.21875 -1.42857,0.85193 -3.4894,2.59375 -5.9375,2.59375 -2.4481,0 -6.03125,-1.78646 -6.03125,-2.59375 0,-0.80728 2.6769,-1.21875 5.125,-1.21875 z m -67.59375,1.6875 c -0.97874,0.0332 -1.94063,0.13515 -2.90625,0.3125 -4.1353,0.75952 -7.58155,4.2685 -11.78125,4.46875 -4.49635,0.2144 -8.57015,-2.96113 -13.03125,-3.5625 -4.304813,-0.5803 -8.6875,0 -13.03125,0 -2.385417,0 -4.77209,0.0774 -7.15625,0 -4.65319,-0.15111 -14.097181,-1.57568 -13.9375,-0.90625 0.02694,0.11294 -0.08867,1.49246 1.3125,1.59375 1.401169,0.1013 3.626775,-0.3391 6.21875,-0.25 2.591976,0.0891 5.369387,0.70475 8.96875,0.78125 3.599364,0.0765 9.795417,-0.40705 14.21875,-0.34375 4.42333,0.0633 13.4884,3.94908 16.25,3.9375 3.38487,-0.0142 10.56827,-4.02201 12.875,-4.34375 5.4682,-0.7627 11.23652,0.073 17.03125,0.0937 5.79474,0.0207 13.98997,-0.16125 19.875,-0.15625 5.88504,0.005 10.61443,-0.24611 16.15625,1.4375 5.2562,1.59684 11.82838,5.1515 17.34375,5.125 5.51537,-0.0265 10.13208,-5.05045 15.1875,-5.09375 5.05541,-0.0433 9.30672,-1.5331 13.71875,-1.59375 4.41204,-0.0606 8.78975,1.8284 12.375,1.75 3.58525,-0.0784 5.64371,-0.15335 8.21875,-0.25 2.57503,-0.0967 7.46235,-1.10328 8.84375,-1.21875 1.38137,-0.11547 0.13407,-1.48324 0,-1.46875 0,0 -12.12054,2.31918 -18.21875,1.96875 -2.68688,-0.1544 -5.20347,-1.45553 -7.875,-1.78125 -3.07164,-0.3745 -7.78104,0.82434 -10.875,0.875 -4.52657,0.0741 -6.22126,0.57165 -10.71875,1.625 -3.00812,0.70452 -6.38069,3.49885 -9.46875,3.59375 -4.72681,0.14526 -8.30303,0.11155 -15.34375,-3.40625 -3.41082,-1.70417 -7.28298,-2.18653 -11.09375,-2.3125 -3.57588,-0.11821 -7.14215,-0.46872 -10.71875,-0.5625 -3.92573,-0.10294 -7.85417,0 -11.78125,0 l -11.78125,0 c -2.94531,0 -5.93877,-0.41226 -8.875,-0.3125 z m -61.46875,6.15625 c -0.25204,0.0248 -0.39496,0.0726 -0.375,0.15625 0.02694,0.11294 -0.08867,1.49246 1.3125,1.59375 1.401169,0.1013 3.626775,-0.3391 6.21875,-0.25 2.591976,0.0891 5.369387,0.70475 8.96875,0.78125 3.599364,0.0765 9.795417,-0.40705 14.21875,-0.34375 4.42333,0.0633 8.15487,2.10665 13.21875,2.15625 5.06389,0.0496 10.38523,-2.5979 15.90625,-2.5625 5.52102,0.0354 11.23652,0.073 17.03125,0.0937 5.79474,0.0207 13.98997,-0.16125 19.875,-0.15625 5.88504,0.005 9.45809,0.1978 15.25,0.1875 5.79192,-0.0103 13.07838,3.18275 18.59375,3.15625 5.51537,-0.0265 9.25708,-3.2692 14.3125,-3.3125 5.05541,-0.0433 9.83797,-0.0956 14.25,-0.15625 4.41204,-0.0606 8.78975,1.8284 12.375,1.75 3.58525,-0.0784 5.83121,-0.8721 8.40625,-0.96875 2.57503,-0.0967 7.27485,-0.38453 8.65625,-0.5 1.38137,-0.11547 0.13407,-1.48324 0,-1.46875 0,0 -12.12054,2.31918 -18.21875,1.96875 -2.68688,-0.1544 -5.20347,-1.45553 -7.875,-1.78125 -3.07164,-0.3745 -6.18728,-0.23816 -9.28125,-0.1875 -4.52657,0.0741 -9.60519,0.74576 -14.28125,2.15625 -2.95788,0.89222 -4.97443,1.68635 -8.0625,1.78125 -4.72681,0.14526 -9.71821,-2.91523 -14.4375,-3.21875 -3.80499,-0.24472 -7.62673,-0.0303 -11.4375,-0.15625 -3.57588,-0.11821 -7.14215,-0.46872 -10.71875,-0.5625 -3.92573,-0.10294 -7.85417,0 -11.78125,0 l -11.78125,0 c -3.92708,0 -7.87022,-0.35473 -11.78125,0 -5.30473,0.48113 -10.39294,2.96102 -15.71875,2.875 -3.10107,-0.0501 -6.00988,-1.63875 -9.09375,-1.96875 -4.319092,-0.46218 -8.6875,0 -13.03125,0 -2.385417,0 -4.77209,0.0774 -7.15625,0 -4.071541,-0.13222 -11.798217,-1.23624 -13.5625,-1.0625 z m 61.5,4 c -0.98102,0.0166 -1.95974,0.0676 -2.9375,0.15625 -5.30473,0.48113 -10.39294,2.96102 -15.71875,2.875 -3.10107,-0.0501 -6.00988,-1.63875 -9.09375,-1.96875 -4.319092,-0.46218 -8.6875,0 -13.03125,0 -2.385417,0 -4.77209,0.0774 -7.15625,0 -4.65319,-0.15111 -13.9375,-0.90625 -13.9375,-0.90625 -0.115864,-0.008 -0.08867,1.49246 1.3125,1.59375 1.401169,0.1013 3.626775,-0.3391 6.21875,-0.25 2.591976,0.0891 5.369387,0.70475 8.96875,0.78125 3.599364,0.0765 9.795417,-0.40705 14.21875,-0.34375 4.42333,0.0633 8.15487,2.10665 13.21875,2.15625 5.06389,0.0496 10.38523,-2.5979 15.90625,-2.5625 5.52102,0.0354 11.23652,0.073 17.03125,0.0937 5.79474,0.0207 13.98997,-0.16125 19.875,-0.15625 5.88504,0.005 9.45809,0.1978 15.25,0.1875 5.79192,-0.0103 13.26588,1.74525 18.78125,1.71875 5.51537,-0.0265 9.06958,-1.8317 14.125,-1.875 5.05541,-0.0433 9.83797,-0.0956 14.25,-0.15625 4.41204,-0.0606 8.78975,1.8284 12.375,1.75 3.58525,-0.0784 5.83121,-0.8721 8.40625,-0.96875 2.57503,-0.0967 7.27485,-0.38453 8.65625,-0.5 1.38137,-0.11547 -0.004,-1.33396 0,-1.46875 0.0145,-0.48937 -12.12054,2.31918 -18.21875,1.96875 -2.68688,-0.1544 -5.20347,-1.45553 -7.875,-1.78125 -3.07164,-0.3745 -6.18728,-0.23816 -9.28125,-0.1875 -4.52657,0.0741 -9.06501,0.20111 -13.5625,0.71875 -3.06926,0.35325 -6.03694,1.5301 -9.125,1.625 -4.72681,0.14526 -9.37446,-1.32148 -14.09375,-1.625 -3.80499,-0.24472 -7.62673,-0.0303 -11.4375,-0.15625 -3.57588,-0.11821 -7.14215,-0.46872 -10.71875,-0.5625 -3.92573,-0.10294 -7.85417,0 -11.78125,0 l -11.78125,0 c -2.94531,0 -5.90069,-0.20613 -8.84375,-0.15625 z"
         id="path4459"
         clip-path="url(#clipPath4425)"
         inkscape:connector-curvature="0"
         transform="matrix(1.0606061,0,0,1,-4.1558453,0)" />
    </g>
  </g>
</svg>
