<?xml version="1.0" encoding="UTF-8" standalone="no"?>
<!-- Created with Inkscape (http://www.inkscape.org/) -->

<svg
   xmlns:dc="http://purl.org/dc/elements/1.1/"
   xmlns:cc="http://creativecommons.org/ns#"
   xmlns:rdf="http://www.w3.org/1999/02/22-rdf-syntax-ns#"
   xmlns:svg="http://www.w3.org/2000/svg"
   xmlns="http://www.w3.org/2000/svg"
   xmlns:sodipodi="http://sodipodi.sourceforge.net/DTD/sodipodi-0.dtd"
   xmlns:inkscape="http://www.inkscape.org/namespaces/inkscape"
   width="744.09448819"
   height="1052.3622047"
   id="svg2"
   version="1.1"
   inkscape:version="0.48.4 r9939"
   sodipodi:docname="materials1.svg">
  <defs
     id="defs4" />
  <sodipodi:namedview
     id="base"
     pagecolor="#ffffff"
     bordercolor="#666666"
     borderopacity="1.0"
     inkscape:pageopacity="0.0"
     inkscape:pageshadow="2"
     inkscape:zoom="5.6"
     inkscape:cx="608.33959"
     inkscape:cy="989.10014"
     inkscape:document-units="px"
     inkscape:current-layer="layer1"
     showgrid="false"
     inkscape:window-width="1600"
     inkscape:window-height="838"
     inkscape:window-x="-8"
     inkscape:window-y="-8"
     inkscape:window-maximized="1" />
  <metadata
     id="metadata7">
    <rdf:RDF>
      <cc:Work
         rdf:about="">
        <dc:format>image/svg+xml</dc:format>
        <dc:type
           rdf:resource="http://purl.org/dc/dcmitype/StillImage" />
        <dc:title></dc:title>
      </cc:Work>
    </rdf:RDF>
  </metadata>
  <g
     inkscape:label="Layer 1"
     inkscape:groupmode="layer"
     id="layer1">
    <g
       id="g3811">
      <rect
         ry="6.5659919"
         y="30.277531"
         x="21.166048"
         height="82.85714"
         width="160"
         id="rect2985"
         style="fill:#6e6e6e;fill-opacity:1;stroke:none" />
      <path
         id="rect2988"
         d="m 28.734568,31.54023 144.862962,0 c 3.49343,0 6.30583,2.8124 6.30583,6.30583 l 0,66.96248 c 0,3.49343 -2.8124,6.30583 -6.30583,6.30583 l -144.862962,0 c -3.49343,0 -6.30583,-2.8124 -6.30583,-6.30583 l 0,-66.96248 c 0,-3.49343 2.8124,-6.30583 6.30583,-6.30583 z"
         style="fill:#b3b3b3;fill-opacity:1;stroke:none"
         inkscape:connector-curvature="0" />
      <path
         sodipodi:nodetypes="sssssssss"
         inkscape:connector-curvature="0"
         style="fill:#808080;fill-opacity:1;stroke:none"
         d="M 85.050568,83.81562 151.37417,75.7344 c 7.13756,-0.86967 23.82853,4.64309 24.48858,8.0736 l 4.04061,21.00054 c 0.66005,3.43051 -2.8124,6.30583 -6.30583,6.30583 l -144.862962,0 c -3.49343,0 -6.30583,-2.8124 -6.30583,-6.30583 0,-22.32083 3.95031,-15.21318 24.4962,-27.06145 13.60852,-7.84768 25.03096,7.66406 38.12563,6.06853 z"
         id="path2991" />
      <path
         sodipodi:nodetypes="sssszssss"
         inkscape:connector-curvature="0"
         id="rect3788"
         d="m 29.960488,31.66761 141.673902,0.25254 c 3.63756,0.006 9.19315,3.07428 5.55585,3.03046 L 72.386918,33.68792 c -3.6373,-0.0438 -40.619913,-1.722859 -44.951803,1.010151 -4.3319,2.73301 -0.757617,33.840109 -0.757617,33.840109 -0.0632,3.637 -3.283,15.25432 -3.283,11.61676 l 0,-41.92134 c 0,-3.63756 2.92845,-6.57247 6.56599,-6.56599 z"
         style="fill:#f9f9f9;fill-opacity:1;fill-rule:nonzero;stroke:none" />
    </g>
    <g
       id="g3862">
      <g
         transform="translate(162.38202,0)"
         id="g3817">
        <rect
           ry="6.5659919"
           y="30.277531"
           x="21.166048"
           height="82.85714"
           width="160"
           id="rect3819"
           style="fill:#6e6e6e;fill-opacity:1;stroke:none" />
        <path
           id="path3821"
           d="m 28.734568,31.54023 144.862962,0 c 3.49343,0 6.30583,2.8124 6.30583,6.30583 l 0,66.96248 c 0,3.49343 -2.8124,6.30583 -6.30583,6.30583 l -144.862962,0 c -3.49343,0 -6.30583,-2.8124 -6.30583,-6.30583 l 0,-66.96248 c 0,-3.49343 2.8124,-6.30583 6.30583,-6.30583 z"
           style="fill:#b3b3b3;fill-opacity:1;stroke:none"
           inkscape:connector-curvature="0" />
        <path
           sodipodi:nodetypes="sssssssss"
           inkscape:connector-curvature="0"
           style="fill:#808080;fill-opacity:1;stroke:none"
           d="M 85.050568,83.81562 151.37417,75.7344 c 7.13756,-0.86967 23.82853,4.64309 24.48858,8.0736 l 4.04061,21.00054 c 0.66005,3.43051 -2.8124,6.30583 -6.30583,6.30583 l -144.862962,0 c -3.49343,0 -6.30583,-2.8124 -6.30583,-6.30583 0,-22.32083 3.95031,-15.21318 24.4962,-27.06145 13.60852,-7.84768 25.03096,7.66406 38.12563,6.06853 z"
           id="path3823" />
        <path
           sodipodi:nodetypes="sssszssss"
           inkscape:connector-curvature="0"
           id="path3825"
           d="m 29.960488,31.66761 141.673902,0.25254 c 3.63756,0.006 9.19315,3.07428 5.55585,3.03046 L 72.386918,33.68792 c -3.6373,-0.0438 -40.619913,-1.722859 -44.951803,1.010151 -4.3319,2.73301 -0.757617,33.840109 -0.757617,33.840109 -0.0632,3.637 -3.283,15.25432 -3.283,11.61676 l 0,-41.92134 c 0,-3.63756 2.92845,-6.57247 6.56599,-6.56599 z"
           style="fill:#f9f9f9;fill-opacity:1;fill-rule:nonzero;stroke:none" />
      </g>
      <path
         sodipodi:nodetypes="ccccc"
         inkscape:connector-curvature="0"
         id="path3827"
         d="m 207.21719,53.433608 -1.53911,-18.965422 -2.31637,-3.928464 6.1337,0.06315 z"
         inkscape:transform-center-y="2.9311153"
         inkscape:transform-center-x="0.15492516"
         style="fill:#6e6e6e;fill-opacity:1;fill-rule:nonzero;stroke:none" />
      <path
         style="fill:#6e6e6e;fill-opacity:1;fill-rule:nonzero;stroke:none"
         inkscape:transform-center-x="0.15492516"
         inkscape:transform-center-y="2.9311153"
         d="m 259.36005,59.326464 -2.43197,-23.78685 -2.49494,-4.821321 5.41942,0.241721 -0.78197,9.808225 z"
         id="path3830"
         inkscape:connector-curvature="0"
         sodipodi:nodetypes="cccccc" />
      <path
         style="fill:#6e6e6e;fill-opacity:1;fill-rule:nonzero;stroke:none"
         inkscape:transform-center-x="0.11884136"
         inkscape:transform-center-y="2.1537872"
         d="m 312.7478,47.897893 -1.18064,-13.935817 -1.77688,-2.88664 4.70513,0.0464 z"
         id="path3832"
         inkscape:connector-curvature="0"
         sodipodi:nodetypes="ccccc" />
      <path
         sodipodi:nodetypes="ccccc"
         inkscape:connector-curvature="0"
         id="path3834"
         d="m 305.24829,95.616015 -2.71441,13.719795 0.91046,3.26513 -4.50928,-1.34417 z"
         inkscape:transform-center-y="-1.7958293"
         inkscape:transform-center-x="0.70572136"
         style="fill:#6e6e6e;fill-opacity:1;fill-rule:nonzero;stroke:none" />
      <path
         sodipodi:nodetypes="cccccc"
         inkscape:connector-curvature="0"
         id="path3836"
         d="m 208.8766,79.509144 -4.65952,26.932716 -4.15252,5.3685 8.69201,-0.03 -0.93866,-11.18602 z"
         inkscape:transform-center-y="-3.3504267"
         inkscape:transform-center-x="0.5489123"
         style="fill:#6e6e6e;fill-opacity:1;fill-rule:nonzero;stroke:none" />
      <path
         sodipodi:nodetypes="ccccc"
         inkscape:connector-curvature="0"
         id="path3838"
         d="m 256.06447,95.332492 0.94081,13.954058 1.72698,2.91677 -4.70364,-0.1273 z"
         inkscape:transform-center-y="-2.1363988"
         inkscape:transform-center-x="-0.01161364"
         style="fill:#6e6e6e;fill-opacity:1;fill-rule:nonzero;stroke:none" />
    </g>
    <path
       style="fill:#6e6e6e;fill-opacity:1;stroke:none"
       d="M 355.84375 29.90625 C 352.20619 29.90625 349.25 32.86244 349.25 36.5 L 349.25 106.21875 C 349.25 109.85631 352.20619 112.78125 355.84375 112.78125 L 370.40625 112.78125 L 373.5 96.3125 L 372.625 112.78125 L 421.65625 112.78125 L 421.59375 106.875 L 422.625 111.625 L 423.28125 112.78125 L 464.15625 112.78125 L 468.625 106.09375 L 467.96875 112.78125 L 502.6875 112.78125 C 506.32506 112.78125 509.25 109.85631 509.25 106.21875 L 509.25 36.5 C 509.25 32.86244 506.32506 29.90625 502.6875 29.90625 L 480.09375 29.90625 L 479.09375 32.90625 L 478.125 29.90625 L 425.375 29.90625 L 424.28125 33.25 L 423.1875 29.90625 L 375.3125 29.90625 L 374.5625 34.6875 L 373.0625 29.90625 L 355.84375 29.90625 z "
       id="rect3842" />
    <path
       style="fill:#b3b3b3;fill-opacity:1;stroke:none"
       d="M 356.84375 31.1875 C 353.35032 31.1875 350.53125 34.00657 350.53125 37.5 L 350.53125 104.4375 C 350.53125 107.93093 353.35032 110.75 356.84375 110.75 L 370.78125 110.75 L 373.5 96.3125 L 372.71875 110.75 L 421.625 110.75 L 421.59375 106.875 L 422.4375 110.75 L 465.5 110.75 L 468.625 106.09375 L 468.1875 110.75 L 501.6875 110.75 C 505.18093 110.75 508 107.93093 508 104.4375 L 508 37.5 C 508 34.00657 505.18093 31.1875 501.6875 31.1875 L 479.65625 31.1875 L 479.09375 32.90625 L 478.53125 31.1875 L 424.96875 31.1875 L 424.28125 33.25 L 423.59375 31.1875 L 375.09375 31.1875 L 374.5625 34.6875 L 373.46875 31.1875 L 356.84375 31.1875 z "
       id="path3844" />
    <path
       style="fill:#808080;fill-opacity:1;stroke:none"
       d="M 382.625 75.15625 C 380.15354 75.230216 377.636 75.872905 375.03125 77.375 C 354.48536 89.22327 350.53125 82.116667 350.53125 104.4375 C 350.53125 107.93093 353.35032 110.75 356.84375 110.75 L 370.78125 110.75 L 373.5 96.3125 L 372.71875 110.75 L 421.625 110.75 L 421.59375 106.875 L 422.4375 110.75 L 465.5 110.75 L 468.625 106.09375 L 468.1875 110.75 L 501.6875 110.75 C 505.18093 110.75 508.66005 107.86801 508 104.4375 L 503.96875 83.4375 C 503.3087 80.00699 486.60631 74.50533 479.46875 75.375 L 413.15625 83.46875 C 402.92604 84.715258 393.7162 75.496619 383.6875 75.15625 C 383.3365 75.144337 382.97807 75.145683 382.625 75.15625 z "
       id="path3846" />
    <path
       style="fill:#f9f9f9;fill-opacity:1;fill-rule:nonzero;stroke:none"
       d="M 358.0625,31.3125 C 354.42496,31.30602 351.5,34.23744 351.5,37.875 l 0,41.9375 c 0,3.63756 3.21805,-7.988 3.28125,-11.625 0,0 -3.58191,-31.11074 0.75,-33.84375 1.85843,-1.172493 9.77133,-1.505351 18.4375,-1.53125 l -0.4375,-1.46875 z m 17.03125,0.03125 -0.88135,24.671009 c 2.82628,-0.0013 2.81026,-22.065387 5.0793,-23.024951 2.55545,-1.080691 9.47476,-0.0075 11.84479,0.06162 2.37003,0.06911 4.45003,0.139145 6.06406,0.193424 1.61403,0.05428 2.76208,0.0928 3.2682,0.0989 l 104.8125,1.25 c 3.6373,0.04382 -1.92494,-3.02525 -5.5625,-3.03125 l -20.15625,-0.03125 -0.46875,1.375 -0.4375,-1.375 L 424.875,31.4375 424.28125,33.25 423.6875,31.4375 z"
       id="path3848"
       inkscape:connector-curvature="0"
       sodipodi:nodetypes="csscscccccssscccccccccc" />
    <path
       style="fill:#6e6e6e;fill-opacity:1;fill-rule:nonzero;stroke:none"
       d="M 369.0625 30.1875 L 372.28125 35.65625 L 374.40625 62 L 377.53125 30.28125 L 375.25 30.25 L 374.5625 34.6875 L 373.1875 30.21875 L 369.0625 30.1875 z "
       id="path3850" />
    <path
       style="fill:#6e6e6e;fill-opacity:1;fill-rule:nonzero;stroke:none"
       d="M 420.15625 30.375 L 423.3125 35.9375 L 426.375 63.4375 L 426 41.96875 L 427 30.625 L 425.1875 30.5625 L 424.28125 33.25 L 423.375 30.5 L 420.15625 30.375 z "
       id="path3852" />
    <path
       style="fill:#6e6e6e;fill-opacity:1;fill-rule:nonzero;stroke:none"
       d="M 475.5 30.71875 L 477.6875 34.09375 L 479.125 50.40625 L 481.28125 30.78125 L 479.8125 30.75 L 479.09375 32.90625 L 478.375 30.75 L 475.5 30.71875 z "
       id="path3854" />
    <path
       style="fill:#6e6e6e;fill-opacity:1;fill-rule:nonzero;stroke:none"
       d="M 472.5625 91.875 L 464.65625 110.625 L 465.4375 110.84375 L 468.625 106.09375 L 468.09375 111.625 L 470.3125 112.25 L 469.15625 108.3125 L 472.5625 91.875 z "
       id="path3856" />
    <path
       style="fill:#6e6e6e;fill-opacity:1;fill-rule:nonzero;stroke:none"
       d="M 375.65625 75.21875 L 370.4375 105.4375 L 365.78125 111.46875 L 370.65625 111.4375 L 373.5 96.3125 L 372.6875 111.4375 L 375.53125 111.40625 L 374.46875 98.875 L 375.65625 75.21875 z "
       id="path3858" />
    <path
       style="fill:#6e6e6e;fill-opacity:1;fill-rule:nonzero;stroke:none"
       d="M 422 93.1875 L 419.75 111.71875 L 421.65625 111.75 L 421.59375 106.875 L 422.625 111.625 L 422.71875 111.78125 L 424.96875 111.84375 L 423.0625 108.625 L 422 93.1875 z "
       id="path3860" />
    <path
       sodipodi:type="star"
       style="fill:#ff00ff;fill-opacity:1;fill-rule:nonzero;stroke:none"
       id="path3974"
       sodipodi:sides="3"
       sodipodi:cx="381.42856"
       sodipodi:cy="129.32648"
       sodipodi:r1="8.3011713"
       sodipodi:r2="4.1505857"
       sodipodi:arg1="1.2422432"
       sodipodi:arg2="2.2894407"
       inkscape:flatsided="true"
       inkscape:rounded="0"
       inkscape:randomized="0"
       d="m 384.10713,137.18362 -10.82234,-9.466 13.60897,-4.63943 z"
       inkscape:transform-center-x="0.28405707"
       inkscape:transform-center-y="-3.4929015"
       transform="matrix(0.29122518,-1.1246213,-0.0269757,1.3505627,402.28162,459.64971)" />
    <path
       style="fill:#ffff00;fill-opacity:1;fill-rule:nonzero;stroke:none"
       d="m 526.45149,199.7946 0.0625,8.34375 0.27054,0.79676 0.54196,2.98449 0.34375,4.84375 0.32701,-8.10287 -0.22033,-1.21534 -0.79418,-2.86929 z"
       id="path3993"
       inkscape:connector-curvature="0"
       sodipodi:nodetypes="ccccccccc" />
    <path
       sodipodi:nodetypes="ccccccccc"
       inkscape:connector-curvature="0"
       id="path4002"
       d="m 398.50193,92.979576 6.5583,-17.858071 -0.26731,-2.045556 0.59091,-7.055919 2.7688,-10.762466 -7.6784,16.843901 -0.24187,2.872833 0.35439,7.13484 z"
       style="fill:#6e6e6e;fill-opacity:1;fill-rule:nonzero;stroke:none" />
    <path
       style="fill:#6e6e6e;fill-opacity:1;fill-rule:nonzero;stroke:none"
       d="m 441.52248,61.585086 0.12377,12.317389 0.53573,1.17621 1.07322,4.405824 0.68071,7.150544 0.64756,-11.961788 -0.43631,-1.794135 -1.57267,-4.235765 z"
       id="path4004"
       inkscape:connector-curvature="0"
       sodipodi:nodetypes="ccccccccc" />
    <path
       sodipodi:nodetypes="ccccccccc"
       inkscape:connector-curvature="0"
       id="path4006"
       d="m 483.52267,56.273449 -1.54056,13.051857 2.1195,3.892304 2.22191,5.372728 1.62791,6.794715 1.18828,-13.901288 -0.8006,-2.08504 -1.74949,-4.922557 z"
       style="fill:#6e6e6e;fill-opacity:1;fill-rule:nonzero;stroke:none" />
    <path
       id="path4010"
       d="m 534.54943,31.033855 c -3.63756,0 -6.59375,2.95619 -6.59375,6.59375 l 0,69.718755 c 0,3.63756 2.95619,6.5625 6.59375,6.5625 l 14.5625,0 3.09375,-16.468755 -0.875,16.468755 49.03125,0 -0.0625,-5.90625 1.03125,4.75 0.65625,1.15625 40.875,0 4.46875,-6.6875 -0.65625,6.6875 34.71875,0 c 3.63756,0 6.5625,-2.92494 6.5625,-6.5625 l 0,-69.718755 c 0,-3.63756 -2.92494,-6.59375 -6.5625,-6.59375 l -22.59375,0 -1,3 -0.96875,-3 -52.75,0 -1.09375,3.34375 -1.09375,-3.34375 -47.875,0 -0.75,4.78125 -1.5,-4.78125 -17.21875,0 z"
       style="fill:#6e6e6e;fill-opacity:1;stroke:none"
       inkscape:connector-curvature="0" />
    <path
       id="path4012"
       d="m 535.54943,32.315105 c -3.49343,0 -6.3125,2.81907 -6.3125,6.3125 l 0,66.937505 c 0,3.49343 2.81907,6.3125 6.3125,6.3125 l 13.9375,0 2.71875,-14.437505 -0.78125,14.437505 48.90625,0 -0.0312,-3.875 0.84375,3.875 43.0625,0 3.125,-4.65625 -0.4375,4.65625 33.5,0 c 3.49343,0 6.3125,-2.81907 6.3125,-6.3125 l 0,-66.937505 c 0,-3.49343 -2.81907,-6.3125 -6.3125,-6.3125 l -22.03125,0 -0.5625,1.71875 -0.5625,-1.71875 -53.5625,0 -0.6875,2.0625 -0.6875,-2.0625 -48.5,0 -0.53125,3.5 -1.09375,-3.5 -16.625,0 z"
       style="fill:#b3b3b3;fill-opacity:1;stroke:none"
       inkscape:connector-curvature="0" />
    <path
       id="path4014"
       d="m 561.33068,76.283855 c -2.47146,0.074 -4.989,0.71665 -7.59375,2.21875 -20.54589,11.84827 -24.5,4.74166 -24.5,27.062505 0,3.49343 2.81907,6.3125 6.3125,6.3125 l 13.9375,0 2.71875,-14.437505 -0.78125,14.437505 48.90625,0 -0.0312,-3.875 0.84375,3.875 43.0625,0 3.125,-4.65625 -0.4375,4.65625 33.5,0 c 3.49343,0 6.97255,-2.88199 6.3125,-6.3125 l -4.03125,-21.000005 c -0.66005,-3.43051 -17.36244,-8.93217 -24.5,-8.0625 l -66.3125,8.09375 c -10.23021,1.24651 -19.44005,-7.97213 -29.46875,-8.3125 -0.351,-0.0119 -0.70943,-0.0106 -1.0625,0 z"
       style="fill:#808080;fill-opacity:1;stroke:none"
       inkscape:connector-curvature="0" />
    <path
       sodipodi:nodetypes="csscscccccssscccccccccc"
       inkscape:connector-curvature="0"
       id="path4016"
       d="m 536.76818,32.440105 c -3.63754,-0.006 -6.5625,2.92494 -6.5625,6.5625 l 0,41.9375 c 0,3.63756 3.21805,-7.988 3.28125,-11.625 0,0 -3.58191,-31.11074 0.75,-33.84375 1.85843,-1.1725 9.77133,-1.50535 18.4375,-1.53125 l -0.4375,-1.46875 z m 17.03125,0.0312 -0.88135,24.67101 c 2.82628,-0.001 2.81026,-22.06539 5.0793,-23.02495 2.55545,-1.0807 9.47476,-0.007 11.84479,0.0616 2.37003,0.0691 4.45003,0.13914 6.06406,0.19342 1.61403,0.0543 2.76208,0.0928 3.2682,0.0989 l 104.8125,1.25 c 3.6373,0.0438 -1.92494,-3.02525 -5.5625,-3.03125 l -20.15625,-0.0312 -0.46875,1.375 -0.4375,-1.375 -53.78125,-0.0937 -0.59375,1.8125 -0.59375,-1.8125 z"
       style="fill:#f9f9f9;fill-opacity:1;fill-rule:nonzero;stroke:none" />
    <path
       id="path4018"
       d="m 547.76818,31.315105 3.21875,5.46875 2.125,26.34375 3.125,-31.71875 -2.28125,-0.0312 -0.6875,4.4375 -1.375,-4.46875 -4.125,-0.0312 z"
       style="fill:#6e6e6e;fill-opacity:1;fill-rule:nonzero;stroke:none"
       inkscape:connector-curvature="0" />
    <path
       id="path4020"
       d="m 598.86193,31.502605 3.15625,5.5625 3.0625,27.5 -0.375,-21.46875 1,-11.34375 -1.8125,-0.0625 -0.90625,2.6875 -0.90625,-2.75 -3.21875,-0.125 z"
       style="fill:#6e6e6e;fill-opacity:1;fill-rule:nonzero;stroke:none"
       inkscape:connector-curvature="0" />
    <path
       id="path4022"
       d="m 654.20568,31.846355 2.1875,3.375 1.4375,16.3125 2.15625,-19.625 -1.46875,-0.0312 -0.71875,2.15625 -0.71875,-2.15625 -2.875,-0.0312 z"
       style="fill:#6e6e6e;fill-opacity:1;fill-rule:nonzero;stroke:none"
       inkscape:connector-curvature="0" />
    <path
       id="path4024"
       d="m 651.26818,93.002605 -7.90625,18.750005 0.78125,0.21875 3.1875,-4.75 -0.53125,5.53125 2.21875,0.625 -1.15625,-3.9375 3.40625,-16.437505 z"
       style="fill:#6e6e6e;fill-opacity:1;fill-rule:nonzero;stroke:none"
       inkscape:connector-curvature="0" />
    <path
       id="path4026"
       d="m 554.36193,76.346355 -5.21875,30.218755 -4.65625,6.03125 4.875,-0.0312 2.84375,-15.125005 -0.8125,15.125005 2.84375,-0.0312 -1.0625,-12.53125 1.1875,-23.656255 z"
       style="fill:#6e6e6e;fill-opacity:1;fill-rule:nonzero;stroke:none"
       inkscape:connector-curvature="0" />
    <path
       id="path4028"
       d="m 600.70568,94.315105 -2.25,18.531255 1.90625,0.0312 -0.0625,-4.875 1.03125,4.75 0.0937,0.15625 2.25,0.0625 -1.90625,-3.21875 -1.06245,-15.437455 z"
       style="fill:#6e6e6e;fill-opacity:1;fill-rule:nonzero;stroke:none"
       inkscape:connector-curvature="0" />
    <path
       style="fill:#6e6e6e;fill-opacity:1;fill-rule:nonzero;stroke:none"
       d="m 577.20761,94.107175 6.5583,-17.85807 -0.26731,-2.04555 0.59091,-7.05592 2.7688,-10.76247 -7.6784,16.8439 -0.24187,2.87284 0.35439,7.13484 z"
       id="path4030"
       inkscape:connector-curvature="0"
       sodipodi:nodetypes="ccccccccc" />
    <path
       sodipodi:nodetypes="ccccccccc"
       inkscape:connector-curvature="0"
       id="path4032"
       d="m 620.22816,62.712685 0.12377,12.31739 0.53573,1.17621 1.07322,4.40583 0.68071,7.15054 0.64756,-11.96179 -0.43631,-1.79413 -1.57267,-4.23577 z"
       style="fill:#6e6e6e;fill-opacity:1;fill-rule:nonzero;stroke:none" />
    <path
       style="fill:#6e6e6e;fill-opacity:1;fill-rule:nonzero;stroke:none"
       d="m 662.22835,57.401055 -1.54056,13.05185 2.1195,3.89231 2.22191,5.37273 1.62791,6.79471 1.18828,-13.90129 -0.8006,-2.08504 -1.74949,-4.92255 z"
       id="path4034"
       inkscape:connector-curvature="0"
       sodipodi:nodetypes="ccccccccc" />
    <path
       style="fill:#6e6e6e;fill-opacity:1;fill-rule:nonzero;stroke:none"
       d="m 578.3439,76.054725 10.74972,6.014712 1.28691,0.119741 4.35651,1.258561 6.5431,2.963357 -10.05779,-6.507277 -1.77369,-0.513135 -4.45718,-0.740647 z"
       id="path4036"
       inkscape:connector-curvature="0"
       sodipodi:nodetypes="ccccccccc" />
    <path
       style="fill:#6e6e6e;fill-opacity:1;fill-rule:nonzero;stroke:none"
       d="m 648.47451,80.812492 11.58772,-4.178319 0.93378,-0.893606 3.80555,-2.465953 6.52618,-3.000422 -11.50633,3.332873 -1.54993,1.003496 -3.48031,2.881396 z"
       id="path4038"
       inkscape:connector-curvature="0"
       sodipodi:nodetypes="ccccccccc" />
    <path
       sodipodi:nodetypes="ccccccccc"
       inkscape:connector-curvature="0"
       id="path4040"
       d="m 621.15308,55.455349 11.58772,-4.178319 0.93378,-0.893606 3.80555,-2.465953 6.52618,-3.000422 -11.50633,3.332873 -1.54993,1.003496 -3.48031,2.881396 z"
       style="fill:#6e6e6e;fill-opacity:1;fill-rule:nonzero;stroke:none" />
    <path
       sodipodi:nodetypes="ccccccccc"
       inkscape:connector-curvature="0"
       id="path4042"
       d="m 574.41533,46.054725 10.74972,6.014712 1.28691,0.119741 4.35651,1.258561 6.5431,2.963357 -10.05779,-6.507277 -1.77369,-0.513135 -4.45718,-0.740647 z"
       style="fill:#6e6e6e;fill-opacity:1;fill-rule:nonzero;stroke:none" />
    <path
       style="fill:#6e6e6e;fill-opacity:1;fill-rule:nonzero;stroke:none"
       d="m 543.47451,87.776778 11.58772,-4.178319 0.93378,-0.893606 3.80555,-2.465953 6.52618,-3.000422 -11.50633,3.332873 -1.54993,1.003496 -3.48031,2.881396 z"
       id="path4044"
       inkscape:connector-curvature="0"
       sodipodi:nodetypes="ccccccccc" />
  </g>
</svg>
