<?xml version="1.0" encoding="UTF-8" standalone="no"?>
<!-- Created with Inkscape (http://www.inkscape.org/) -->

<svg
   xmlns:dc="http://purl.org/dc/elements/1.1/"
   xmlns:cc="http://creativecommons.org/ns#"
   xmlns:rdf="http://www.w3.org/1999/02/22-rdf-syntax-ns#"
   xmlns:svg="http://www.w3.org/2000/svg"
   xmlns="http://www.w3.org/2000/svg"
   xmlns:sodipodi="http://sodipodi.sourceforge.net/DTD/sodipodi-0.dtd"
   xmlns:inkscape="http://www.inkscape.org/namespaces/inkscape"
   width="744.09448819"
   height="1052.3622047"
   id="svg2"
   version="1.1"
   inkscape:version="0.48.4 r9939"
   sodipodi:docname="stone.svg">
  <defs
     id="defs4" />
  <sodipodi:namedview
     id="base"
     pagecolor="#ffffff"
     bordercolor="#666666"
     borderopacity="1.0"
     inkscape:pageopacity="0.0"
     inkscape:pageshadow="2"
     inkscape:zoom="1.4"
     inkscape:cx="283.83957"
     inkscape:cy="780.68972"
     inkscape:document-units="px"
     inkscape:current-layer="layer1"
     showgrid="false"
     inkscape:window-width="986"
     inkscape:window-height="618"
     inkscape:window-x="-3"
     inkscape:window-y="35"
     inkscape:window-maximized="0" />
  <metadata
     id="metadata7">
    <rdf:RDF>
      <cc:Work
         rdf:about="">
        <dc:format>image/svg+xml</dc:format>
        <dc:type
           rdf:resource="http://purl.org/dc/dcmitype/StillImage" />
        <dc:title />
      </cc:Work>
    </rdf:RDF>
  </metadata>
  <g
     inkscape:label="Layer 1"
     inkscape:groupmode="layer"
     id="layer1">
    <g
       id="g3811"
       transform="matrix(0.40008625,0,0,0.38620691,0.9226023,323.49727)">
      <rect
         ry="6.5659919"
         y="30.277531"
         x="21.166048"
         height="82.85714"
         width="160"
         id="rect2985"
         style="fill:#6e6e6e;fill-opacity:1;stroke:none" />
      <path
         id="rect2988"
         d="m 28.734568,31.54023 144.862962,0 c 3.49343,0 6.30583,2.8124 6.30583,6.30583 l 0,66.96248 c 0,3.49343 -2.8124,6.30583 -6.30583,6.30583 l -144.862962,0 c -3.49343,0 -6.30583,-2.8124 -6.30583,-6.30583 l 0,-66.96248 c 0,-3.49343 2.8124,-6.30583 6.30583,-6.30583 z"
         style="fill:#b3b3b3;fill-opacity:1;stroke:none"
         inkscape:connector-curvature="0" />
      <path
         sodipodi:nodetypes="sssssssss"
         inkscape:connector-curvature="0"
         style="fill:#808080;fill-opacity:1;stroke:none"
         d="M 85.050568,83.81562 151.37417,75.7344 c 7.13756,-0.86967 23.82853,4.64309 24.48858,8.0736 l 4.04061,21.00054 c 0.66005,3.43051 -2.8124,6.30583 -6.30583,6.30583 l -144.862962,0 c -3.49343,0 -6.30583,-2.8124 -6.30583,-6.30583 0,-22.32083 3.95031,-15.21318 24.4962,-27.06145 13.60852,-7.84768 25.03096,7.66406 38.12563,6.06853 z"
         id="path2991" />
      <path
         sodipodi:nodetypes="sssszssss"
         inkscape:connector-curvature="0"
         id="rect3788"
         d="m 29.960488,31.66761 141.673902,0.25254 c 3.63756,0.006 9.19315,3.07428 5.55585,3.03046 L 72.386918,33.68792 c -3.6373,-0.0438 -40.619913,-1.722859 -44.951803,1.010151 -4.3319,2.73301 -0.757617,33.840109 -0.757617,33.840109 -0.0632,3.637 -3.283,15.25432 -3.283,11.61676 l 0,-41.92134 c 0,-3.63756 2.92845,-6.57247 6.56599,-6.56599 z"
         style="fill:#f9f9f9;fill-opacity:1;fill-rule:nonzero;stroke:none" />
    </g>
    <g
       id="g3862"
       transform="matrix(0.40008625,0,0,0.38620691,98.337809,323.49727)">
      <g
         transform="translate(162.38202,0)"
         id="g3817">
        <rect
           ry="6.5659919"
           y="30.277531"
           x="21.166048"
           height="82.85714"
           width="160"
           id="rect3819"
           style="fill:#6e6e6e;fill-opacity:1;stroke:none" />
        <path
           id="path3821"
           d="m 28.734568,31.54023 144.862962,0 c 3.49343,0 6.30583,2.8124 6.30583,6.30583 l 0,66.96248 c 0,3.49343 -2.8124,6.30583 -6.30583,6.30583 l -144.862962,0 c -3.49343,0 -6.30583,-2.8124 -6.30583,-6.30583 l 0,-66.96248 c 0,-3.49343 2.8124,-6.30583 6.30583,-6.30583 z"
           style="fill:#b3b3b3;fill-opacity:1;stroke:none"
           inkscape:connector-curvature="0" />
        <path
           sodipodi:nodetypes="sssssssss"
           inkscape:connector-curvature="0"
           style="fill:#808080;fill-opacity:1;stroke:none"
           d="M 85.050568,83.81562 151.37417,75.7344 c 7.13756,-0.86967 23.82853,4.64309 24.48858,8.0736 l 4.04061,21.00054 c 0.66005,3.43051 -2.8124,6.30583 -6.30583,6.30583 l -144.862962,0 c -3.49343,0 -6.30583,-2.8124 -6.30583,-6.30583 0,-22.32083 3.95031,-15.21318 24.4962,-27.06145 13.60852,-7.84768 25.03096,7.66406 38.12563,6.06853 z"
           id="path3823" />
        <path
           sodipodi:nodetypes="sssszssss"
           inkscape:connector-curvature="0"
           id="path3825"
           d="m 29.960488,31.66761 141.673902,0.25254 c 3.63756,0.006 9.19315,3.07428 5.55585,3.03046 L 72.386918,33.68792 c -3.6373,-0.0438 -40.619913,-1.722859 -44.951803,1.010151 -4.3319,2.73301 -0.757617,33.840109 -0.757617,33.840109 -0.0632,3.637 -3.283,15.25432 -3.283,11.61676 l 0,-41.92134 c 0,-3.63756 2.92845,-6.57247 6.56599,-6.56599 z"
           style="fill:#f9f9f9;fill-opacity:1;fill-rule:nonzero;stroke:none" />
      </g>
      <path
         sodipodi:nodetypes="ccccc"
         inkscape:connector-curvature="0"
         id="path3827"
         d="m 207.21719,53.433608 -1.53911,-18.965422 -2.31637,-3.928464 6.1337,0.06315 z"
         inkscape:transform-center-y="2.9311153"
         inkscape:transform-center-x="0.15492516"
         style="fill:#6e6e6e;fill-opacity:1;fill-rule:nonzero;stroke:none" />
      <path
         style="fill:#6e6e6e;fill-opacity:1;fill-rule:nonzero;stroke:none"
         inkscape:transform-center-x="0.15492516"
         inkscape:transform-center-y="2.9311153"
         d="m 259.36005,59.326464 -2.43197,-23.78685 -2.49494,-4.821321 5.41942,0.241721 -0.78197,9.808225 z"
         id="path3830"
         inkscape:connector-curvature="0"
         sodipodi:nodetypes="cccccc" />
      <path
         style="fill:#6e6e6e;fill-opacity:1;fill-rule:nonzero;stroke:none"
         inkscape:transform-center-x="0.11884136"
         inkscape:transform-center-y="2.1537872"
         d="m 312.7478,47.897893 -1.18064,-13.935817 -1.77688,-2.88664 4.70513,0.0464 z"
         id="path3832"
         inkscape:connector-curvature="0"
         sodipodi:nodetypes="ccccc" />
      <path
         sodipodi:nodetypes="ccccc"
         inkscape:connector-curvature="0"
         id="path3834"
         d="m 305.24829,95.616015 -2.71441,13.719795 0.91046,3.26513 -4.50928,-1.34417 z"
         inkscape:transform-center-y="-1.7958293"
         inkscape:transform-center-x="0.70572136"
         style="fill:#6e6e6e;fill-opacity:1;fill-rule:nonzero;stroke:none" />
      <path
         sodipodi:nodetypes="cccccc"
         inkscape:connector-curvature="0"
         id="path3836"
         d="m 208.8766,79.509144 -4.65952,26.932716 -4.15252,5.3685 8.69201,-0.03 -0.93866,-11.18602 z"
         inkscape:transform-center-y="-3.3504267"
         inkscape:transform-center-x="0.5489123"
         style="fill:#6e6e6e;fill-opacity:1;fill-rule:nonzero;stroke:none" />
      <path
         sodipodi:nodetypes="ccccc"
         inkscape:connector-curvature="0"
         id="path3838"
         d="m 256.06447,95.332492 0.94081,13.954058 1.72698,2.91677 -4.70364,-0.1273 z"
         inkscape:transform-center-y="-2.1363988"
         inkscape:transform-center-x="-0.01161364"
         style="fill:#6e6e6e;fill-opacity:1;fill-rule:nonzero;stroke:none" />
    </g>
    <g
       id="g4166"
       transform="matrix(0.40000003,0,0,0.38612368,197.77479,323.65177)">
      <path
         id="rect3842"
         d="m 355.84375,29.90625 c -3.63756,0 -6.59375,2.95619 -6.59375,6.59375 l 0,69.71875 c 0,3.63756 2.95619,6.5625 6.59375,6.5625 l 14.5625,0 3.09375,-16.46875 -0.875,16.46875 49.03125,0 -0.0625,-5.90625 1.03125,4.75 0.65625,1.15625 40.875,0 4.46875,-6.6875 -0.65625,6.6875 34.71875,0 c 3.63756,0 6.5625,-2.92494 6.5625,-6.5625 l 0,-69.71875 c 0,-3.63756 -2.92494,-6.59375 -6.5625,-6.59375 l -22.59375,0 -1,3 -0.96875,-3 -52.75,0 -1.09375,3.34375 -1.09375,-3.34375 -47.875,0 -0.75,4.78125 -1.5,-4.78125 -17.21875,0 z"
         style="fill:#6e6e6e;fill-opacity:1;stroke:none"
         inkscape:connector-curvature="0" />
      <path
         id="path3844"
         d="m 356.84375,31.1875 c -3.49343,0 -6.3125,2.81907 -6.3125,6.3125 l 0,66.9375 c 0,3.49343 2.81907,6.3125 6.3125,6.3125 l 13.9375,0 2.71875,-14.4375 -0.78125,14.4375 48.90625,0 -0.0312,-3.875 0.84375,3.875 43.0625,0 3.125,-4.65625 -0.4375,4.65625 33.5,0 c 3.49343,0 6.3125,-2.81907 6.3125,-6.3125 L 508,37.5 c 0,-3.49343 -2.81907,-6.3125 -6.3125,-6.3125 l -22.03125,0 -0.5625,1.71875 -0.5625,-1.71875 -53.5625,0 -0.6875,2.0625 -0.6875,-2.0625 -48.5,0 -0.53125,3.5 -1.09375,-3.5 -16.625,0 z"
         style="fill:#b3b3b3;fill-opacity:1;stroke:none"
         inkscape:connector-curvature="0" />
      <path
         id="path3846"
         d="m 382.625,75.15625 c -2.47146,0.07397 -4.989,0.716655 -7.59375,2.21875 -20.54589,11.84827 -24.5,4.741667 -24.5,27.0625 0,3.49343 2.81907,6.3125 6.3125,6.3125 l 13.9375,0 2.71875,-14.4375 -0.78125,14.4375 48.90625,0 -0.0312,-3.875 0.84375,3.875 43.0625,0 3.125,-4.65625 -0.4375,4.65625 33.5,0 c 3.49343,0 6.97255,-2.88199 6.3125,-6.3125 l -4.03125,-21 c -0.66005,-3.43051 -17.36244,-8.93217 -24.5,-8.0625 l -66.3125,8.09375 c -10.23021,1.246508 -19.44005,-7.972131 -29.46875,-8.3125 -0.351,-0.01191 -0.70943,-0.01057 -1.0625,0 z"
         style="fill:#808080;fill-opacity:1;stroke:none"
         inkscape:connector-curvature="0" />
      <path
         sodipodi:nodetypes="csscscccccssscccccccccc"
         inkscape:connector-curvature="0"
         id="path3848"
         d="M 358.0625,31.3125 C 354.42496,31.30602 351.5,34.23744 351.5,37.875 l 0,41.9375 c 0,3.63756 3.21805,-7.988 3.28125,-11.625 0,0 -3.58191,-31.11074 0.75,-33.84375 1.85843,-1.172493 9.77133,-1.505351 18.4375,-1.53125 l -0.4375,-1.46875 z m 17.03125,0.03125 -0.88135,24.671009 c 2.82628,-0.0013 2.81026,-22.065387 5.0793,-23.024951 2.55545,-1.080691 9.47476,-0.0075 11.84479,0.06162 2.37003,0.06911 4.45003,0.139145 6.06406,0.193424 1.61403,0.05428 2.76208,0.0928 3.2682,0.0989 l 104.8125,1.25 c 3.6373,0.04382 -1.92494,-3.02525 -5.5625,-3.03125 l -20.15625,-0.03125 -0.46875,1.375 -0.4375,-1.375 L 424.875,31.4375 424.28125,33.25 423.6875,31.4375 z"
         style="fill:#f9f9f9;fill-opacity:1;fill-rule:nonzero;stroke:none" />
      <path
         id="path3850"
         d="m 369.0625,30.1875 3.21875,5.46875 2.125,26.34375 3.125,-31.71875 L 375.25,30.25 l -0.6875,4.4375 -1.375,-4.46875 -4.125,-0.03125 z"
         style="fill:#6e6e6e;fill-opacity:1;fill-rule:nonzero;stroke:none"
         inkscape:connector-curvature="0" />
      <path
         id="path3852"
         d="m 420.15625,30.375 3.15625,5.5625 3.0625,27.5 L 426,41.96875 427,30.625 425.1875,30.5625 424.28125,33.25 423.375,30.5 420.15625,30.375 z"
         style="fill:#6e6e6e;fill-opacity:1;fill-rule:nonzero;stroke:none"
         inkscape:connector-curvature="0" />
      <path
         id="path3854"
         d="m 475.5,30.71875 2.1875,3.375 1.4375,16.3125 2.15625,-19.625 L 479.8125,30.75 479.09375,32.90625 478.375,30.75 475.5,30.71875 z"
         style="fill:#6e6e6e;fill-opacity:1;fill-rule:nonzero;stroke:none"
         inkscape:connector-curvature="0" />
      <path
         id="path3856"
         d="m 472.5625,91.875 -7.90625,18.75 0.78125,0.21875 3.1875,-4.75 -0.53125,5.53125 2.21875,0.625 -1.15625,-3.9375 3.40625,-16.4375 z"
         style="fill:#6e6e6e;fill-opacity:1;fill-rule:nonzero;stroke:none"
         inkscape:connector-curvature="0" />
      <path
         id="path3858"
         d="m 375.65625,75.21875 -5.21875,30.21875 -4.65625,6.03125 4.875,-0.0312 2.84375,-15.125 -0.8125,15.125 2.84375,-0.0312 -1.0625,-12.53125 1.1875,-23.65625 z"
         style="fill:#6e6e6e;fill-opacity:1;fill-rule:nonzero;stroke:none"
         inkscape:connector-curvature="0" />
      <path
         id="path3860"
         d="m 422,93.1875 -2.25,18.53125 1.90625,0.0312 -0.0625,-4.875 1.03125,4.75 0.0937,0.15625 2.25,0.0625 -1.9062,-3.2187 L 422,93.1875 z"
         style="fill:#6e6e6e;fill-opacity:1;fill-rule:nonzero;stroke:none"
         inkscape:connector-curvature="0" />
      <path
         style="fill:#6e6e6e;fill-opacity:1;fill-rule:nonzero;stroke:none"
         d="m 398.50193,92.979576 6.5583,-17.858071 -0.26731,-2.045556 0.59091,-7.055919 2.7688,-10.762466 -7.6784,16.843901 -0.24187,2.872833 0.35439,7.13484 z"
         id="path4002"
         inkscape:connector-curvature="0"
         sodipodi:nodetypes="ccccccccc" />
      <path
         sodipodi:nodetypes="ccccccccc"
         inkscape:connector-curvature="0"
         id="path4004"
         d="m 441.52248,61.585086 0.12377,12.317389 0.53573,1.17621 1.07322,4.405824 0.68071,7.150544 0.64756,-11.961788 -0.43631,-1.794135 -1.57267,-4.235765 z"
         style="fill:#6e6e6e;fill-opacity:1;fill-rule:nonzero;stroke:none" />
      <path
         style="fill:#6e6e6e;fill-opacity:1;fill-rule:nonzero;stroke:none"
         d="m 483.52267,56.273449 -1.54056,13.051857 2.1195,3.892304 2.22191,5.372728 1.62791,6.794715 1.18828,-13.901288 -0.8006,-2.08504 -1.74949,-4.922557 z"
         id="path4006"
         inkscape:connector-curvature="0"
         sodipodi:nodetypes="ccccccccc" />
    </g>
    <g
       id="g4146"
       transform="matrix(0.4,0,0,0.38612366,304.99821,323.21638)">
      <path
         inkscape:connector-curvature="0"
         style="fill:#6e6e6e;fill-opacity:1;stroke:none"
         d="m 534.54943,31.033855 c -3.63756,0 -6.59375,2.95619 -6.59375,6.59375 l 0,69.718755 c 0,3.63756 2.95619,6.5625 6.59375,6.5625 l 14.5625,0 3.09375,-16.468755 -0.875,16.468755 49.03125,0 -0.0625,-5.90625 1.03125,4.75 0.65625,1.15625 40.875,0 4.46875,-6.6875 -0.65625,6.6875 34.71875,0 c 3.63756,0 6.5625,-2.92494 6.5625,-6.5625 l 0,-69.718755 c 0,-3.63756 -2.92494,-6.59375 -6.5625,-6.59375 l -22.59375,0 -1,3 -0.96875,-3 -52.75,0 -1.09375,3.34375 -1.09375,-3.34375 -47.875,0 -0.75,4.78125 -1.5,-4.78125 -17.21875,0 z"
         id="path4010" />
      <path
         inkscape:connector-curvature="0"
         style="fill:#b3b3b3;fill-opacity:1;stroke:none"
         d="m 535.54943,32.315105 c -3.49343,0 -6.3125,2.81907 -6.3125,6.3125 l 0,66.937505 c 0,3.49343 2.81907,6.3125 6.3125,6.3125 l 13.9375,0 2.71875,-14.437505 -0.78125,14.437505 48.90625,0 -0.0312,-3.875 0.84375,3.875 43.0625,0 3.125,-4.65625 -0.4375,4.65625 33.5,0 c 3.49343,0 6.3125,-2.81907 6.3125,-6.3125 l 0,-66.937505 c 0,-3.49343 -2.81907,-6.3125 -6.3125,-6.3125 l -22.03125,0 -0.5625,1.71875 -0.5625,-1.71875 -53.5625,0 -0.6875,2.0625 -0.6875,-2.0625 -48.5,0 -0.53125,3.5 -1.09375,-3.5 -16.625,0 z"
         id="path4012" />
      <path
         inkscape:connector-curvature="0"
         style="fill:#808080;fill-opacity:1;stroke:none"
         d="m 561.33068,76.283855 c -2.47146,0.074 -4.989,0.71665 -7.59375,2.21875 -20.54589,11.84827 -24.5,4.74166 -24.5,27.062505 0,3.49343 2.81907,6.3125 6.3125,6.3125 l 13.9375,0 2.71875,-14.437505 -0.78125,14.437505 48.90625,0 -0.0312,-3.875 0.84375,3.875 43.0625,0 3.125,-4.65625 -0.4375,4.65625 33.5,0 c 3.49343,0 6.97255,-2.88199 6.3125,-6.3125 l -4.03125,-21.000005 c -0.66005,-3.43051 -17.36244,-8.93217 -24.5,-8.0625 l -66.3125,8.09375 c -10.23021,1.24651 -19.44005,-7.97213 -29.46875,-8.3125 -0.351,-0.0119 -0.70943,-0.0106 -1.0625,0 z"
         id="path4014" />
      <path
         style="fill:#f9f9f9;fill-opacity:1;fill-rule:nonzero;stroke:none"
         d="m 536.76818,32.440105 c -3.63754,-0.006 -6.5625,2.92494 -6.5625,6.5625 l 0,41.9375 c 0,3.63756 3.21805,-7.988 3.28125,-11.625 0,0 -3.58191,-31.11074 0.75,-33.84375 1.85843,-1.1725 9.77133,-1.50535 18.4375,-1.53125 l -0.4375,-1.46875 z m 17.03125,0.0312 -0.88135,24.67101 c 2.82628,-0.001 2.81026,-22.06539 5.0793,-23.02495 2.55545,-1.0807 9.47476,-0.007 11.84479,0.0616 2.37003,0.0691 4.45003,0.13914 6.06406,0.19342 1.61403,0.0543 2.76208,0.0928 3.2682,0.0989 l 104.8125,1.25 c 3.6373,0.0438 -1.92494,-3.02525 -5.5625,-3.03125 l -20.15625,-0.0312 -0.46875,1.375 -0.4375,-1.375 -53.78125,-0.0937 -0.59375,1.8125 -0.59375,-1.8125 z"
         id="path4016"
         inkscape:connector-curvature="0"
         sodipodi:nodetypes="csscscccccssscccccccccc" />
      <path
         inkscape:connector-curvature="0"
         style="fill:#6e6e6e;fill-opacity:1;fill-rule:nonzero;stroke:none"
         d="m 547.76818,31.315105 3.21875,5.46875 2.125,26.34375 3.125,-31.71875 -2.28125,-0.0312 -0.6875,4.4375 -1.375,-4.46875 -4.125,-0.0312 z"
         id="path4018" />
      <path
         inkscape:connector-curvature="0"
         style="fill:#6e6e6e;fill-opacity:1;fill-rule:nonzero;stroke:none"
         d="m 598.86193,31.502605 3.15625,5.5625 3.0625,27.5 -0.375,-21.46875 1,-11.34375 -1.8125,-0.0625 -0.90625,2.6875 -0.90625,-2.75 -3.21875,-0.125 z"
         id="path4020" />
      <path
         inkscape:connector-curvature="0"
         style="fill:#6e6e6e;fill-opacity:1;fill-rule:nonzero;stroke:none"
         d="m 654.20568,31.846355 2.1875,3.375 1.4375,16.3125 2.15625,-19.625 -1.46875,-0.0312 -0.71875,2.15625 -0.71875,-2.15625 -2.875,-0.0312 z"
         id="path4022" />
      <path
         inkscape:connector-curvature="0"
         style="fill:#6e6e6e;fill-opacity:1;fill-rule:nonzero;stroke:none"
         d="m 651.26818,93.002605 -7.90625,18.750005 0.78125,0.21875 3.1875,-4.75 -0.53125,5.53125 2.21875,0.625 -1.15625,-3.9375 3.40625,-16.437505 z"
         id="path4024" />
      <path
         inkscape:connector-curvature="0"
         style="fill:#6e6e6e;fill-opacity:1;fill-rule:nonzero;stroke:none"
         d="m 554.36193,76.346355 -5.21875,30.218755 -4.65625,6.03125 4.875,-0.0312 2.84375,-15.125005 -0.8125,15.125005 2.84375,-0.0312 -1.0625,-12.53125 1.1875,-23.656255 z"
         id="path4026" />
      <path
         inkscape:connector-curvature="0"
         style="fill:#6e6e6e;fill-opacity:1;fill-rule:nonzero;stroke:none"
         d="m 600.70568,94.315105 -2.25,18.531255 1.90625,0.0312 -0.0625,-4.875 1.03125,4.75 0.0937,0.15625 2.25,0.0625 -1.90625,-3.21875 -1.06245,-15.437455 z"
         id="path4028" />
      <path
         sodipodi:nodetypes="ccccccccc"
         inkscape:connector-curvature="0"
         id="path4030"
         d="m 577.20761,94.107175 6.5583,-17.85807 -0.26731,-2.04555 0.59091,-7.05592 2.7688,-10.76247 -7.6784,16.8439 -0.24187,2.87284 0.35439,7.13484 z"
         style="fill:#6e6e6e;fill-opacity:1;fill-rule:nonzero;stroke:none" />
      <path
         style="fill:#6e6e6e;fill-opacity:1;fill-rule:nonzero;stroke:none"
         d="m 620.22816,62.712685 0.12377,12.31739 0.53573,1.17621 1.07322,4.40583 0.68071,7.15054 0.64756,-11.96179 -0.43631,-1.79413 -1.57267,-4.23577 z"
         id="path4032"
         inkscape:connector-curvature="0"
         sodipodi:nodetypes="ccccccccc" />
      <path
         sodipodi:nodetypes="ccccccccc"
         inkscape:connector-curvature="0"
         id="path4034"
         d="m 662.22835,57.401055 -1.54056,13.05185 2.1195,3.89231 2.22191,5.37273 1.62791,6.79471 1.18828,-13.90129 -0.8006,-2.08504 -1.74949,-4.92255 z"
         style="fill:#6e6e6e;fill-opacity:1;fill-rule:nonzero;stroke:none" />
      <path
         sodipodi:nodetypes="ccccccccc"
         inkscape:connector-curvature="0"
         id="path4036"
         d="m 578.3439,76.054725 10.74972,6.014712 1.28691,0.119741 4.35651,1.258561 6.5431,2.963357 -10.05779,-6.507277 -1.77369,-0.513135 -4.45718,-0.740647 z"
         style="fill:#6e6e6e;fill-opacity:1;fill-rule:nonzero;stroke:none" />
      <path
         sodipodi:nodetypes="ccccccccc"
         inkscape:connector-curvature="0"
         id="path4038"
         d="m 648.47451,80.812492 11.58772,-4.178319 0.93378,-0.893606 3.80555,-2.465953 6.52618,-3.000422 -11.50633,3.332873 -1.54993,1.003496 -3.48031,2.881396 z"
         style="fill:#6e6e6e;fill-opacity:1;fill-rule:nonzero;stroke:none" />
      <path
         style="fill:#6e6e6e;fill-opacity:1;fill-rule:nonzero;stroke:none"
         d="m 621.15308,55.455349 11.58772,-4.178319 0.93378,-0.893606 3.80555,-2.465953 6.52618,-3.000422 -11.50633,3.332873 -1.54993,1.003496 -3.48031,2.881396 z"
         id="path4040"
         inkscape:connector-curvature="0"
         sodipodi:nodetypes="ccccccccc" />
      <path
         style="fill:#6e6e6e;fill-opacity:1;fill-rule:nonzero;stroke:none"
         d="m 574.41533,46.054725 10.74972,6.014712 1.28691,0.119741 4.35651,1.258561 6.5431,2.963357 -10.05779,-6.507277 -1.77369,-0.513135 -4.45718,-0.740647 z"
         id="path4042"
         inkscape:connector-curvature="0"
         sodipodi:nodetypes="ccccccccc" />
      <path
         sodipodi:nodetypes="ccccccccc"
         inkscape:connector-curvature="0"
         id="path4044"
         d="m 543.47451,87.776778 11.58772,-4.178319 0.93378,-0.893606 3.80555,-2.465953 6.52618,-3.000422 -11.50633,3.332873 -1.54993,1.003496 -3.48031,2.881396 z"
         style="fill:#6e6e6e;fill-opacity:1;fill-rule:nonzero;stroke:none" />
    </g>
    <g
       transform="matrix(0.5,0,0,0.24132728,0.23639402,433.46392)"
       id="g4181">
      <rect
         style="fill:#6e6e6e;fill-opacity:1;stroke:none"
         id="rect4183"
         width="160"
         height="82.85714"
         x="21.166048"
         y="30.277531"
         ry="6.5659919" />
      <path
         inkscape:connector-curvature="0"
         style="fill:#b3b3b3;fill-opacity:1;stroke:none"
         d="m 28.734568,31.54023 144.862962,0 c 3.49343,0 6.30583,2.8124 6.30583,6.30583 l 0,66.96248 c 0,3.49343 -2.8124,6.30583 -6.30583,6.30583 l -144.862962,0 c -3.49343,0 -6.30583,-2.8124 -6.30583,-6.30583 l 0,-66.96248 c 0,-3.49343 2.8124,-6.30583 6.30583,-6.30583 z"
         id="path4185" />
      <path
         id="path4187"
         d="M 85.050568,83.81562 151.37417,75.7344 c 7.13756,-0.86967 23.82853,4.64309 24.48858,8.0736 l 4.04061,21.00054 c 0.66005,3.43051 -2.8124,6.30583 -6.30583,6.30583 l -144.862962,0 c -3.49343,0 -6.30583,-2.8124 -6.30583,-6.30583 0,-22.32083 3.95031,-15.21318 24.4962,-27.06145 13.60852,-7.84768 25.03096,7.66406 38.12563,6.06853 z"
         style="fill:#808080;fill-opacity:1;stroke:none"
         inkscape:connector-curvature="0"
         sodipodi:nodetypes="sssssssss" />
      <path
         style="fill:#f9f9f9;fill-opacity:1;fill-rule:nonzero;stroke:none"
         d="m 29.960488,31.66761 141.673902,0.25254 c 3.63756,0.006 9.19315,3.07428 5.55585,3.03046 L 72.386918,33.68792 c -3.6373,-0.0438 -40.619913,-1.722859 -44.951803,1.010151 -4.3319,2.73301 -0.757617,33.840109 -0.757617,33.840109 -0.0632,3.637 -3.283,15.25432 -3.283,11.61676 l 0,-41.92134 c 0,-3.63756 2.92845,-6.57247 6.56599,-6.56599 z"
         id="path4189"
         inkscape:connector-curvature="0"
         sodipodi:nodetypes="sssszssss" />
    </g>
    <g
       transform="matrix(0.5,0,0,0.24132728,81.427404,433.46392)"
       id="g4191">
      <g
         id="g4193"
         transform="translate(162.38202,0)">
        <rect
           style="fill:#6e6e6e;fill-opacity:1;stroke:none"
           id="rect4195"
           width="160"
           height="82.85714"
           x="21.166048"
           y="30.277531"
           ry="6.5659919" />
        <path
           inkscape:connector-curvature="0"
           style="fill:#b3b3b3;fill-opacity:1;stroke:none"
           d="m 28.734568,31.54023 144.862962,0 c 3.49343,0 6.30583,2.8124 6.30583,6.30583 l 0,66.96248 c 0,3.49343 -2.8124,6.30583 -6.30583,6.30583 l -144.862962,0 c -3.49343,0 -6.30583,-2.8124 -6.30583,-6.30583 l 0,-66.96248 c 0,-3.49343 2.8124,-6.30583 6.30583,-6.30583 z"
           id="path4197" />
        <path
           id="path4199"
           d="M 85.050568,83.81562 151.37417,75.7344 c 7.13756,-0.86967 23.82853,4.64309 24.48858,8.0736 l 4.04061,21.00054 c 0.66005,3.43051 -2.8124,6.30583 -6.30583,6.30583 l -144.862962,0 c -3.49343,0 -6.30583,-2.8124 -6.30583,-6.30583 0,-22.32083 3.95031,-15.21318 24.4962,-27.06145 13.60852,-7.84768 25.03096,7.66406 38.12563,6.06853 z"
           style="fill:#808080;fill-opacity:1;stroke:none"
           inkscape:connector-curvature="0"
           sodipodi:nodetypes="sssssssss" />
        <path
           style="fill:#f9f9f9;fill-opacity:1;fill-rule:nonzero;stroke:none"
           d="m 29.960488,31.66761 141.673902,0.25254 c 3.63756,0.006 9.19315,3.07428 5.55585,3.03046 L 72.386918,33.68792 c -3.6373,-0.0438 -40.619913,-1.722859 -44.951803,1.010151 -4.3319,2.73301 -0.757617,33.840109 -0.757617,33.840109 -0.0632,3.637 -3.283,15.25432 -3.283,11.61676 l 0,-41.92134 c 0,-3.63756 2.92845,-6.57247 6.56599,-6.56599 z"
           id="path4201"
           inkscape:connector-curvature="0"
           sodipodi:nodetypes="sssszssss" />
      </g>
      <path
         style="fill:#6e6e6e;fill-opacity:1;fill-rule:nonzero;stroke:none"
         inkscape:transform-center-x="0.15492516"
         inkscape:transform-center-y="2.9311153"
         d="m 207.21719,53.433608 -1.53911,-18.965422 -2.31637,-3.928464 6.1337,0.06315 z"
         id="path4203"
         inkscape:connector-curvature="0"
         sodipodi:nodetypes="ccccc" />
      <path
         sodipodi:nodetypes="cccccc"
         inkscape:connector-curvature="0"
         id="path4205"
         d="m 259.36005,59.326464 -2.43197,-23.78685 -2.49494,-4.821321 5.41942,0.241721 -0.78197,9.808225 z"
         inkscape:transform-center-y="2.9311153"
         inkscape:transform-center-x="0.15492516"
         style="fill:#6e6e6e;fill-opacity:1;fill-rule:nonzero;stroke:none" />
      <path
         sodipodi:nodetypes="ccccc"
         inkscape:connector-curvature="0"
         id="path4207"
         d="m 312.7478,47.897893 -1.18064,-13.935817 -1.77688,-2.88664 4.70513,0.0464 z"
         inkscape:transform-center-y="2.1537872"
         inkscape:transform-center-x="0.11884136"
         style="fill:#6e6e6e;fill-opacity:1;fill-rule:nonzero;stroke:none" />
      <path
         style="fill:#6e6e6e;fill-opacity:1;fill-rule:nonzero;stroke:none"
         inkscape:transform-center-x="0.70572136"
         inkscape:transform-center-y="-1.7958293"
         d="m 305.24829,95.616015 -2.71441,13.719795 0.91046,3.26513 -4.50928,-1.34417 z"
         id="path4209"
         inkscape:connector-curvature="0"
         sodipodi:nodetypes="ccccc" />
      <path
         style="fill:#6e6e6e;fill-opacity:1;fill-rule:nonzero;stroke:none"
         inkscape:transform-center-x="0.5489123"
         inkscape:transform-center-y="-3.3504267"
         d="m 208.8766,79.509144 -4.65952,26.932716 -4.15252,5.3685 8.69201,-0.03 -0.93866,-11.18602 z"
         id="path4211"
         inkscape:connector-curvature="0"
         sodipodi:nodetypes="cccccc" />
      <path
         style="fill:#6e6e6e;fill-opacity:1;fill-rule:nonzero;stroke:none"
         inkscape:transform-center-x="-0.01161364"
         inkscape:transform-center-y="-2.1363988"
         d="m 256.06447,95.332492 0.94081,13.954058 1.72698,2.91677 -4.70364,-0.1273 z"
         id="path4213"
         inkscape:connector-curvature="0"
         sodipodi:nodetypes="ccccc" />
    </g>
    <g
       id="g3199"
       transform="matrix(0.5,0,0,0.5,169.45168,230.38536)">
      <path
         inkscape:connector-curvature="0"
         style="fill:#6e6e6e;fill-opacity:1;stroke:none"
         d="m 345.49712,420.77072 c -3.63756,0 -6.59375,1.42682 -6.59375,3.1825 l 0,33.65008 c 0,1.75568 2.95619,3.16742 6.59375,3.16742 l 14.5625,0 3.09375,-7.94872 -0.875,7.94872 49.03125,0 -0.0625,-2.85068 1.03125,2.29261 0.65625,0.55807 40.875,0 4.46875,-3.22776 -0.65625,3.22776 34.71875,0 c 3.63756,0 6.5625,-1.41174 6.5625,-3.16742 l 0,-33.65008 c 0,-1.75568 -2.92494,-3.1825 -6.5625,-3.1825 l -22.59375,0 -1,1.44796 -0.96875,-1.44796 -52.75,0 -1.09375,1.61387 -1.09375,-1.61387 -47.875,0 -0.75,2.30769 -1.5,-2.30769 -17.21875,0 z"
         id="path4217" />
      <path
         inkscape:connector-curvature="0"
         style="fill:#b3b3b3;fill-opacity:1;stroke:none"
         d="m 346.49712,421.38912 c -3.49343,0 -6.3125,1.36064 -6.3125,3.04676 l 0,32.30769 c 0,1.68612 2.81907,3.04675 6.3125,3.04675 l 13.9375,0 2.71875,-6.96832 -0.78125,6.96832 48.90625,0 -0.0312,-1.87028 0.84375,1.87028 43.0625,0 3.125,-2.24736 -0.4375,2.24736 33.5,0 c 3.49343,0 6.3125,-1.36063 6.3125,-3.04675 l -5e-5,-32.30769 c 0,-1.68612 -2.81907,-3.04676 -6.3125,-3.04676 l -22.03125,0 -0.5625,0.82956 -0.5625,-0.82956 -53.5625,0 -0.6875,0.99547 -0.6875,-0.99547 -48.5,0 -0.53125,1.68929 -1.09375,-1.68929 -16.625,0 z"
         id="path4219" />
      <path
         inkscape:connector-curvature="0"
         style="fill:#808080;fill-opacity:1;stroke:none"
         d="m 372.27837,442.61084 c -2.47146,0.0357 -4.989,0.34589 -7.59375,1.07089 -20.54589,5.71862 -24.5,2.28858 -24.5,13.06184 0,1.68612 2.81907,3.04675 6.3125,3.04675 l 13.9375,0 2.71875,-6.96832 -0.78125,6.96832 48.90625,0 -0.0312,-1.87028 0.84375,1.87028 43.0625,0 3.125,-2.24736 -0.4375,2.24736 33.5,0 c 3.49343,0 6.97255,-1.391 6.3125,-3.04675 l -4.03125,-10.13575 c -0.66005,-1.65575 -17.36244,-4.31115 -24.5,-3.8914 l -66.3125,3.90648 c -10.23021,0.60164 -19.44005,-3.84778 -29.46875,-4.01206 -0.351,-0.006 -0.70943,-0.005 -1.0625,0 z"
         id="path4221" />
      <path
         style="fill:#f9f9f9;fill-opacity:1;fill-rule:nonzero;stroke:none"
         d="m 347.71587,421.44945 c -3.63754,-0.003 -6.5625,1.41174 -6.5625,3.16742 l 0,20.24133 c 0,1.75568 3.21805,-3.85545 3.28125,-5.61086 0,0 -3.58191,-15.01574 0.75,-16.33484 1.85843,-0.56591 9.77133,-0.72657 18.4375,-0.73907 l -0.4375,-0.7089 z m 17.03125,0.0151 -0.88135,11.90758 c 2.82628,-6.3e-4 2.81026,-10.64996 5.0793,-11.1131 2.55545,-0.5216 9.47476,-0.004 11.84479,0.0297 2.37003,0.0334 4.45003,0.0672 6.06406,0.0934 1.61403,0.0262 2.76208,0.0448 3.2682,0.0477 l 104.8125,0.60332 c 3.6373,0.0212 -1.92494,-1.46015 -5.5625,-1.46304 l -20.15625,-0.0151 -0.46875,0.66365 -0.4375,-0.66365 -53.78125,-0.0453 -0.59375,0.87481 -0.59375,-0.87481 z"
         id="path4223"
         inkscape:connector-curvature="0"
         sodipodi:nodetypes="csscscccccssscccccccccc" />
      <path
         inkscape:connector-curvature="0"
         style="fill:#6e6e6e;fill-opacity:1;fill-rule:nonzero;stroke:none"
         d="m 358.71587,420.90646 3.21875,2.63952 2.125,12.71493 3.125,-15.3092 -2.28125,-0.0151 -0.6875,2.14178 -1.375,-2.15686 -4.125,-0.0151 z"
         id="path4225" />
      <path
         inkscape:connector-curvature="0"
         style="fill:#6e6e6e;fill-opacity:1;fill-rule:nonzero;stroke:none"
         d="m 409.80962,420.99696 3.15625,2.68477 3.0625,13.273 -0.375,-10.36199 1,-5.47511 -1.8125,-0.0302 -0.90625,1.29713 -0.90625,-1.3273 -3.21875,-0.0603 z"
         id="path4227" />
      <path
         inkscape:connector-curvature="0"
         style="fill:#6e6e6e;fill-opacity:1;fill-rule:nonzero;stroke:none"
         d="m 465.15337,421.16288 2.1875,1.62895 1.4375,7.87331 2.15625,-9.4721 -1.46875,-0.0151 -0.71875,1.04072 -0.71875,-1.04072 -2.875,-0.0151 z"
         id="path4229" />
      <path
         inkscape:connector-curvature="0"
         style="fill:#6e6e6e;fill-opacity:1;fill-rule:nonzero;stroke:none"
         d="m 462.21587,450.68022 -7.90625,9.04977 0.78125,0.10558 3.1875,-2.29261 -0.53125,2.66969 2.21875,0.30166 -1.15625,-1.90046 3.40625,-7.93363 z"
         id="path4231" />
      <path
         inkscape:connector-curvature="0"
         style="fill:#6e6e6e;fill-opacity:1;fill-rule:nonzero;stroke:none"
         d="m 365.30962,442.641 -5.21875,14.58522 -4.65625,2.91101 4.875,-0.0151 2.84375,-7.30015 -0.8125,7.30015 2.84375,-0.0151 -1.0625,-6.04826 1.1875,-11.4178 z"
         id="path4233" />
      <path
         inkscape:connector-curvature="0"
         style="fill:#6e6e6e;fill-opacity:1;fill-rule:nonzero;stroke:none"
         d="m 411.65337,451.3137 -2.25,8.9442 1.90625,0.0151 -0.0625,-2.35294 1.03125,2.29261 0.0937,0.0754 2.25,0.0302 -1.9062,-1.55352 -1.0625,-7.45098 z"
         id="path4235" />
      <path
         sodipodi:nodetypes="ccccccccc"
         inkscape:connector-curvature="0"
         id="path4237"
         d="m 388.1553,451.21335 6.5583,-8.61928 -0.26731,-0.9873 0.59091,-3.40557 2.7688,-5.19455 -7.6784,8.12978 -0.24187,1.38659 0.35439,3.44366 z"
         style="fill:#6e6e6e;fill-opacity:1;fill-rule:nonzero;stroke:none" />
      <path
         style="fill:#6e6e6e;fill-opacity:1;fill-rule:nonzero;stroke:none"
         d="m 431.17585,436.06065 0.12377,5.94505 0.53573,0.5677 1.07322,2.12649 0.68071,3.45124 0.64756,-5.77341 -0.43631,-0.86594 -1.57267,-2.04442 z"
         id="path4239"
         inkscape:connector-curvature="0"
         sodipodi:nodetypes="ccccccccc" />
      <path
         sodipodi:nodetypes="ccccccccc"
         inkscape:connector-curvature="0"
         id="path4241"
         d="m 476.53932,429.21126 -0.61813,8.22099 0.85042,2.45164 0.89151,3.38413 0.65318,4.2798 0.47678,-8.75602 -0.32123,-1.31332 -0.70196,-3.10057 z"
         style="fill:#6e6e6e;fill-opacity:1;fill-rule:nonzero;stroke:none" />
    </g>
    <g
       id="g4312"
       transform="matrix(0.5,0,0,0.5,255.77407,358.67473)">
      <path
         id="path4245"
         d="m 530.26372,164.19196 c -3.63756,0 -6.59375,1.42682 -6.59375,3.18251 l 0,33.65007 c 0,1.75569 2.95619,3.16742 6.59375,3.16742 l 14.5625,0 3.09375,-7.94872 -0.875,7.94872 49.03125,0 -0.0625,-2.85068 1.03125,2.29261 0.65625,0.55807 40.875,0 4.46875,-3.22775 -0.65625,3.22775 34.71875,0 c 3.63756,0 6.5625,-1.41173 6.5625,-3.16742 l 0,-33.65007 c 0,-1.75569 -2.92494,-3.18251 -6.5625,-3.18251 l -22.59375,0 -1,1.44797 -0.96875,-1.44797 -52.75,0 -1.09375,1.61388 -1.09375,-1.61388 -47.875,0 -0.75,2.30769 -1.5,-2.30769 -17.21875,0 z"
         style="fill:#6e6e6e;fill-opacity:1;stroke:none"
         inkscape:connector-curvature="0" />
      <path
         id="path4247"
         d="m 531.26372,164.81036 c -3.49343,0 -6.3125,1.36064 -6.3125,3.04676 l 0,32.30769 c 0,1.68612 2.81907,3.04676 6.3125,3.04676 l 13.9375,0 2.71875,-6.96833 -0.78125,6.96833 48.90625,0 -0.0312,-1.87029 0.84375,1.87029 43.0625,0 3.125,-2.24736 -0.4375,2.24736 33.5,0 c 3.49343,0 6.3125,-1.36064 6.3125,-3.04676 l 0,-32.30769 c 0,-1.68612 -2.81907,-3.04676 -6.3125,-3.04676 l -22.03125,0 -0.5625,0.82957 -0.5625,-0.82957 -53.5625,0 -0.6875,0.99548 -0.6875,-0.99548 -48.5,0 -0.53125,1.68929 -1.09375,-1.68929 -16.625,0 z"
         style="fill:#b3b3b3;fill-opacity:1;stroke:none"
         inkscape:connector-curvature="0" />
      <path
         id="path4249"
         d="m 557.04497,186.03208 c -2.47146,0.0357 -4.989,0.3459 -7.59375,1.07089 -20.54589,5.71862 -24.5,2.28858 -24.5,13.06184 0,1.68612 2.81907,3.04676 6.3125,3.04676 l 13.9375,0 2.71875,-6.96833 -0.78125,6.96833 48.90625,0 -0.0312,-1.87029 0.84375,1.87029 43.0625,0 3.125,-2.24736 -0.4375,2.24736 33.5,0 c 3.49343,0 6.97255,-1.39101 6.3125,-3.04676 l -4.03125,-10.13575 c -0.66005,-1.65575 -17.36244,-4.31115 -24.5,-3.8914 l -66.3125,3.90649 c -10.23021,0.60163 -19.44005,-3.84779 -29.46875,-4.01207 -0.351,-0.006 -0.70943,-0.005 -1.0625,0 z"
         style="fill:#808080;fill-opacity:1;stroke:none"
         inkscape:connector-curvature="0" />
      <path
         sodipodi:nodetypes="csscscccccssscccccccccc"
         inkscape:connector-curvature="0"
         id="path4251"
         d="m 532.48247,164.87069 c -3.63754,-0.003 -6.5625,1.41174 -6.5625,3.16743 l 0,20.24132 c 0,1.75569 3.21805,-3.85544 3.28125,-5.61086 0,0 -3.58191,-15.01574 0.75,-16.33484 1.85843,-0.56591 9.77133,-0.72656 18.4375,-0.73906 l -0.4375,-0.7089 z m 17.03125,0.0151 -0.88135,11.90758 c 2.82628,-4.8e-4 2.81026,-10.64996 5.0793,-11.1131 2.55545,-0.5216 9.47476,-0.003 11.84479,0.0297 2.37003,0.0334 4.45003,0.0672 6.06406,0.0934 1.61403,0.0262 2.76208,0.0448 3.2682,0.0477 l 104.8125,0.60332 c 3.6373,0.0211 -1.92494,-1.46015 -5.5625,-1.46305 l -20.15625,-0.0151 -0.46875,0.66365 -0.4375,-0.66365 -53.78125,-0.0452 -0.59375,0.87481 -0.59375,-0.87481 z"
         style="fill:#f9f9f9;fill-opacity:1;fill-rule:nonzero;stroke:none" />
      <path
         id="path4253"
         d="m 543.48247,164.32771 3.21875,2.63952 2.125,12.71493 3.125,-15.3092 -2.28125,-0.0151 -0.6875,2.14178 -1.375,-2.15686 -4.125,-0.0151 z"
         style="fill:#6e6e6e;fill-opacity:1;fill-rule:nonzero;stroke:none"
         inkscape:connector-curvature="0" />
      <path
         id="path4255"
         d="m 594.57622,164.41821 3.15625,2.68476 3.0625,13.273 -0.375,-10.36199 1,-5.47511 -1.8125,-0.0302 -0.90625,1.29714 -0.90625,-1.3273 -3.21875,-0.0603 z"
         style="fill:#6e6e6e;fill-opacity:1;fill-rule:nonzero;stroke:none"
         inkscape:connector-curvature="0" />
      <path
         id="path4257"
         d="m 649.91997,164.58412 2.1875,1.62896 1.4375,7.8733 2.15625,-9.4721 -1.46875,-0.0151 -0.71875,1.04072 -0.71875,-1.04072 -2.875,-0.0151 z"
         style="fill:#6e6e6e;fill-opacity:1;fill-rule:nonzero;stroke:none"
         inkscape:connector-curvature="0" />
      <path
         id="path4259"
         d="m 646.98247,194.10146 -7.90625,9.04978 0.78125,0.10558 3.1875,-2.29261 -0.53125,2.66968 2.21875,0.30166 -1.15625,-1.90045 3.40625,-7.93364 z"
         style="fill:#6e6e6e;fill-opacity:1;fill-rule:nonzero;stroke:none"
         inkscape:connector-curvature="0" />
      <path
         id="path4261"
         d="m 550.07622,186.06225 -5.21875,14.58522 -4.65625,2.91101 4.875,-0.0151 2.84375,-7.30015 -0.8125,7.30015 2.84375,-0.0151 -1.0625,-6.04827 1.1875,-11.41779 z"
         style="fill:#6e6e6e;fill-opacity:1;fill-rule:nonzero;stroke:none"
         inkscape:connector-curvature="0" />
      <path
         id="path4263"
         d="m 596.41997,194.73495 -2.25,8.94419 1.90625,0.0151 -0.0625,-2.35294 1.03125,2.29261 0.0937,0.0754 2.25,0.0302 -1.90625,-1.55355 -1.06245,-7.45095 z"
         style="fill:#6e6e6e;fill-opacity:1;fill-rule:nonzero;stroke:none"
         inkscape:connector-curvature="0" />
      <path
         style="fill:#6e6e6e;fill-opacity:1;fill-rule:nonzero;stroke:none"
         d="m 572.9219,194.63459 6.5583,-8.61928 -0.26731,-0.9873 0.59091,-3.40557 2.7688,-5.19455 -7.6784,8.12978 -0.24187,1.38659 0.35439,3.44367 z"
         id="path4265"
         inkscape:connector-curvature="0"
         sodipodi:nodetypes="ccccccccc" />
      <path
         sodipodi:nodetypes="ccccccccc"
         inkscape:connector-curvature="0"
         id="path4267"
         d="m 615.94245,177.08278 0.12377,7.12472 0.53573,0.68035 1.07322,2.54846 0.68071,4.13607 0.64756,-6.91904 -0.43631,-1.03777 -1.57267,-2.45008 z"
         style="fill:#6e6e6e;fill-opacity:1;fill-rule:nonzero;stroke:none" />
      <path
         style="fill:#6e6e6e;fill-opacity:1;fill-rule:nonzero;stroke:none"
         d="m 657.94264,176.91821 -1.54056,6.29954 2.1195,1.87864 2.22191,2.59317 1.62791,3.2795 1.18828,-6.70952 -0.8006,-1.00636 -1.74949,-2.37589 z"
         id="path4269"
         inkscape:connector-curvature="0"
         sodipodi:nodetypes="ccccccccc" />
      <path
         style="fill:#6e6e6e;fill-opacity:1;fill-rule:nonzero;stroke:none"
         d="m 574.05819,185.92149 10.74972,2.90303 1.28691,0.0578 4.35651,0.60745 6.5431,1.43028 -10.05779,-3.14077 -1.77369,-0.24766 -4.45718,-0.35748 z"
         id="path4271"
         inkscape:connector-curvature="0"
         sodipodi:nodetypes="ccccccccc" />
      <path
         style="fill:#6e6e6e;fill-opacity:1;fill-rule:nonzero;stroke:none"
         d="m 644.1888,193.01607 11.58772,-3.91913 0.93378,-0.83817 3.80555,-2.31298 6.52618,-2.8143 -11.50633,3.12613 -1.54993,0.94125 -3.48031,2.70265 z"
         id="path4273"
         inkscape:connector-curvature="0"
         sodipodi:nodetypes="ccccccccc" />
      <path
         sodipodi:nodetypes="ccccccccc"
         inkscape:connector-curvature="0"
         id="path4275"
         d="m 616.86737,175.97911 11.58772,-2.01669 0.93378,-0.4313 3.80555,-1.1902 6.52618,-1.44817 -11.50633,1.60863 -1.54993,0.48434 -3.48031,1.39072 z"
         style="fill:#6e6e6e;fill-opacity:1;fill-rule:nonzero;stroke:none" />
      <path
         sodipodi:nodetypes="ccccccccc"
         inkscape:connector-curvature="0"
         id="path4277"
         d="m 570.12962,171.44185 10.74972,2.90303 1.28691,0.0578 4.35651,0.60745 6.5431,1.43027 -10.05779,-3.14076 -1.77369,-0.24767 -4.45718,-0.35748 z"
         style="fill:#6e6e6e;fill-opacity:1;fill-rule:nonzero;stroke:none" />
      <path
         style="fill:#6e6e6e;fill-opacity:1;fill-rule:nonzero;stroke:none"
         d="m 539.1888,191.57919 11.58772,-2.01668 0.93378,-0.4313 3.80555,-1.19021 6.52618,-1.44817 -11.50633,1.60863 -1.54993,0.48434 -3.48031,1.39072 z"
         id="path4279"
         inkscape:connector-curvature="0"
         sodipodi:nodetypes="ccccccccc" />
    </g>
    <g
       id="g3229">
      <rect
         ry="1.5845526"
         y="509.46323"
         x="8.7991133"
         height="19.995686"
         width="160"
         id="rect4334"
         style="fill:#6e6e6e;fill-opacity:1;stroke:none" />
      <path
         id="path4336"
         d="m 16.367634,509.76797 144.862956,0 c 3.49343,0 6.30583,0.67871 6.30583,1.52177 l 0,16.15987 c 0,0.84306 -2.8124,1.52176 -6.30583,1.52176 l -144.862956,0 c -3.49343,0 -6.30583,-0.6787 -6.30583,-1.52176 l 0,-16.15987 c 0,-0.84306 2.8124,-1.52177 6.30583,-1.52177 z"
         style="fill:#b3b3b3;fill-opacity:1;stroke:none"
         inkscape:connector-curvature="0" />
      <path
         sodipodi:nodetypes="sssssssss"
         inkscape:connector-curvature="0"
         style="fill:#808080;fill-opacity:1;stroke:none"
         d="m 72.683634,522.38344 66.323596,-1.95022 c 7.13756,-0.20987 23.82853,1.12051 24.48858,1.94838 l 4.04061,5.06801 c 0.66005,0.82787 -2.8124,1.52176 -6.30583,1.52176 l -144.862956,0 c -3.49343,0 -6.30583,-0.6787 -6.30583,-1.52176 0,-5.38663 3.95031,-3.67136 24.4962,-6.53067 13.60852,-1.89386 25.03096,1.84955 38.12563,1.4645 z"
         id="path4338" />
      <path
         sodipodi:nodetypes="sssszssss"
         inkscape:connector-curvature="0"
         id="path4340"
         d="m 17.593554,509.79871 141.673896,0.0609 c 3.63756,0.001 9.19315,0.74191 5.55585,0.73133 L 60.019984,510.28626 c -3.6373,-0.0106 -40.619913,-0.41577 -44.951803,0.24378 -4.3319,0.65955 -0.757617,8.16654 -0.757617,8.16654 -0.0632,0.87771 -3.283,3.68128 -3.283,2.80344 l 0,-10.11676 c 0,-0.87784 2.92845,-1.58612 6.56599,-1.58455 z"
         style="fill:#f9f9f9;fill-opacity:1;fill-rule:nonzero;stroke:none" />
    </g>
    <g
       id="g4342"
       transform="matrix(1,0,0,0.24132724,-12.366935,502.15645)">
      <g
         transform="translate(162.38202,0)"
         id="g4344">
        <rect
           ry="6.5659919"
           y="30.277531"
           x="21.166048"
           height="82.85714"
           width="160"
           id="rect4346"
           style="fill:#6e6e6e;fill-opacity:1;stroke:none" />
        <path
           id="path4348"
           d="m 28.734568,31.54023 144.862962,0 c 3.49343,0 6.30583,2.8124 6.30583,6.30583 l 0,66.96248 c 0,3.49343 -2.8124,6.30583 -6.30583,6.30583 l -144.862962,0 c -3.49343,0 -6.30583,-2.8124 -6.30583,-6.30583 l 0,-66.96248 c 0,-3.49343 2.8124,-6.30583 6.30583,-6.30583 z"
           style="fill:#b3b3b3;fill-opacity:1;stroke:none"
           inkscape:connector-curvature="0" />
        <path
           sodipodi:nodetypes="sssssssss"
           inkscape:connector-curvature="0"
           style="fill:#808080;fill-opacity:1;stroke:none"
           d="M 85.050568,83.81562 151.37417,75.7344 c 7.13756,-0.86967 23.82853,4.64309 24.48858,8.0736 l 4.04061,21.00054 c 0.66005,3.43051 -2.8124,6.30583 -6.30583,6.30583 l -144.862962,0 c -3.49343,0 -6.30583,-2.8124 -6.30583,-6.30583 0,-22.32083 3.95031,-15.21318 24.4962,-27.06145 13.60852,-7.84768 25.03096,7.66406 38.12563,6.06853 z"
           id="path4350" />
        <path
           sodipodi:nodetypes="sssszssss"
           inkscape:connector-curvature="0"
           id="path4352"
           d="m 29.960488,31.66761 141.673902,0.25254 c 3.63756,0.006 9.19315,3.07428 5.55585,3.03046 L 72.386918,33.68792 c -3.6373,-0.0438 -40.619913,-1.722859 -44.951803,1.010151 -4.3319,2.73301 -0.757617,33.840109 -0.757617,33.840109 -0.0632,3.637 -3.283,15.25432 -3.283,11.61676 l 0,-41.92134 c 0,-3.63756 2.92845,-6.57247 6.56599,-6.56599 z"
           style="fill:#f9f9f9;fill-opacity:1;fill-rule:nonzero;stroke:none" />
      </g>
      <path
         sodipodi:nodetypes="ccccc"
         inkscape:connector-curvature="0"
         id="path4354"
         d="m 207.21719,53.433608 -1.53911,-18.965422 -2.31637,-3.928464 6.1337,0.06315 z"
         inkscape:transform-center-y="2.9311153"
         inkscape:transform-center-x="0.15492516"
         style="fill:#6e6e6e;fill-opacity:1;fill-rule:nonzero;stroke:none" />
      <path
         style="fill:#6e6e6e;fill-opacity:1;fill-rule:nonzero;stroke:none"
         inkscape:transform-center-x="0.15492516"
         inkscape:transform-center-y="2.9311153"
         d="m 259.36005,59.326464 -2.43197,-23.78685 -2.49494,-4.821321 5.41942,0.241721 -0.78197,9.808225 z"
         id="path4356"
         inkscape:connector-curvature="0"
         sodipodi:nodetypes="cccccc" />
      <path
         style="fill:#6e6e6e;fill-opacity:1;fill-rule:nonzero;stroke:none"
         inkscape:transform-center-x="0.11884136"
         inkscape:transform-center-y="2.1537872"
         d="m 312.7478,47.897893 -1.18064,-13.935817 -1.77688,-2.88664 4.70513,0.0464 z"
         id="path4358"
         inkscape:connector-curvature="0"
         sodipodi:nodetypes="ccccc" />
      <path
         sodipodi:nodetypes="ccccc"
         inkscape:connector-curvature="0"
         id="path4360"
         d="m 305.24829,95.616015 -2.71441,13.719795 0.91046,3.26513 -4.50928,-1.34417 z"
         inkscape:transform-center-y="-1.7958293"
         inkscape:transform-center-x="0.70572136"
         style="fill:#6e6e6e;fill-opacity:1;fill-rule:nonzero;stroke:none" />
      <path
         sodipodi:nodetypes="cccccc"
         inkscape:connector-curvature="0"
         id="path4362"
         d="m 208.8766,79.509144 -4.65952,26.932716 -4.15252,5.3685 8.69201,-0.03 -0.93866,-11.18602 z"
         inkscape:transform-center-y="-3.3504267"
         inkscape:transform-center-x="0.5489123"
         style="fill:#6e6e6e;fill-opacity:1;fill-rule:nonzero;stroke:none" />
      <path
         sodipodi:nodetypes="ccccc"
         inkscape:connector-curvature="0"
         id="path4364"
         d="m 256.06447,95.332492 0.94081,13.954058 1.72698,2.91677 -4.70364,-0.1273 z"
         inkscape:transform-center-y="-2.1363988"
         inkscape:transform-center-x="-0.01161364"
         style="fill:#6e6e6e;fill-opacity:1;fill-rule:nonzero;stroke:none" />
    </g>
    <g
       id="g3214">
      <path
         id="path4366"
         d="m 343.47681,509.46109 c -3.63756,0 -6.59375,0.71341 -6.59375,1.59125 l 0,16.82504 c 0,0.87784 2.95619,1.58371 6.59375,1.58371 l 14.5625,0 3.09375,-3.97436 -0.875,3.97436 49.03125,0 -0.0625,-1.42534 1.03125,1.14631 0.65625,0.27903 40.875,0 4.46875,-1.61388 -0.65625,1.61388 34.71875,0 c 3.63756,0 6.5625,-0.70587 6.5625,-1.58371 l 0,-16.82504 c 0,-0.87784 -2.92494,-1.59125 -6.5625,-1.59125 l -22.59375,0 -1,0.72398 -0.96875,-0.72398 -52.75,0 -1.09375,0.80694 -1.09375,-0.80694 -47.875,0 -0.75,1.15385 -1.5,-1.15385 -17.21875,0 z"
         style="fill:#6e6e6e;fill-opacity:1;stroke:none"
         inkscape:connector-curvature="0" />
      <path
         id="path4368"
         d="m 344.47681,509.77029 c -3.49343,0 -6.3125,0.68032 -6.3125,1.52338 l 0,16.15385 c 0,0.84306 2.81907,1.52337 6.3125,1.52337 l 13.9375,0 2.71875,-3.48416 -0.78125,3.48416 48.90625,0 -0.0312,-0.93514 0.84375,0.93514 43.0625,0 3.125,-1.12368 -0.4375,1.12368 33.5,0 c 3.49343,0 6.3125,-0.68031 6.3125,-1.52337 l -5e-5,-16.15385 c 0,-0.84306 -2.81907,-1.52338 -6.3125,-1.52338 l -22.03125,0 -0.5625,0.41478 -0.5625,-0.41478 -53.5625,0 -0.6875,0.49774 -0.6875,-0.49774 -48.5,0 -0.53125,0.84465 -1.09375,-0.84465 -16.625,0 z"
         style="fill:#b3b3b3;fill-opacity:1;stroke:none"
         inkscape:connector-curvature="0" />
      <path
         id="path4370"
         d="m 370.25806,520.38115 c -2.47146,0.0179 -4.989,0.17295 -7.59375,0.53545 -20.54589,2.85931 -24.5,1.14429 -24.5,6.53092 0,0.84306 2.81907,1.52337 6.3125,1.52337 l 13.9375,0 2.71875,-3.48416 -0.78125,3.48416 48.90625,0 -0.0312,-0.93514 0.84375,0.93514 43.0625,0 3.125,-1.12368 -0.4375,1.12368 33.5,0 c 3.49343,0 6.97255,-0.6955 6.3125,-1.52337 l -4.03125,-5.06788 c -0.66005,-0.82787 -17.36244,-2.15557 -24.5,-1.9457 l -66.3125,1.95324 c -10.23021,0.30082 -19.44005,-1.92389 -29.46875,-2.00603 -0.351,-0.003 -0.70943,-0.002 -1.0625,0 z"
         style="fill:#808080;fill-opacity:1;stroke:none"
         inkscape:connector-curvature="0" />
      <path
         sodipodi:nodetypes="csscscccccssscccccccccc"
         inkscape:connector-curvature="0"
         id="path4372"
         d="m 345.69556,509.80046 c -3.63754,-10e-4 -6.5625,0.70587 -6.5625,1.58371 l 0,10.12066 c 0,0.87784 3.21805,-1.92772 3.28125,-2.80543 0,0 -3.58191,-7.50787 0.75,-8.16742 1.85843,-0.28295 9.77133,-0.36328 18.4375,-0.36953 l -0.4375,-0.35445 z m 17.03125,0.008 -0.88135,5.95379 c 2.82628,-3.2e-4 2.81026,-5.32498 5.0793,-5.55655 2.55545,-0.2608 9.47476,-0.002 11.84479,0.0148 2.37003,0.0167 4.45003,0.0336 6.06406,0.0467 1.61403,0.0131 2.76208,0.0224 3.2682,0.0239 l 104.8125,0.30166 c 3.6373,0.0106 -1.92494,-0.73008 -5.5625,-0.73152 l -20.15625,-0.008 -0.46875,0.33182 -0.4375,-0.33182 -53.78125,-0.0226 -0.59375,0.4374 -0.59375,-0.4374 z"
         style="fill:#f9f9f9;fill-opacity:1;fill-rule:nonzero;stroke:none" />
      <path
         id="path4374"
         d="m 356.69556,509.52896 3.21875,1.31976 2.125,6.35747 3.125,-7.6546 -2.28125,-0.008 -0.6875,1.07089 -1.375,-1.07843 -4.125,-0.008 z"
         style="fill:#6e6e6e;fill-opacity:1;fill-rule:nonzero;stroke:none"
         inkscape:connector-curvature="0" />
      <path
         id="path4376"
         d="m 407.78931,509.57421 3.15625,1.34239 3.0625,6.6365 -0.375,-5.181 1,-2.73755 -1.8125,-0.0151 -0.90625,0.64856 -0.90625,-0.66365 -3.21875,-0.0301 z"
         style="fill:#6e6e6e;fill-opacity:1;fill-rule:nonzero;stroke:none"
         inkscape:connector-curvature="0" />
      <path
         id="path4378"
         d="m 463.13306,509.65717 2.1875,0.81448 1.4375,3.93665 2.15625,-4.73605 -1.46875,-0.008 -0.71875,0.52036 -0.71875,-0.52036 -2.875,-0.008 z"
         style="fill:#6e6e6e;fill-opacity:1;fill-rule:nonzero;stroke:none"
         inkscape:connector-curvature="0" />
      <path
         id="path4380"
         d="m 460.19556,524.41584 -7.90625,4.52489 0.78125,0.0528 3.1875,-1.14631 -0.53125,1.33485 2.21875,0.15083 -1.15625,-0.95023 3.40625,-3.96682 z"
         style="fill:#6e6e6e;fill-opacity:1;fill-rule:nonzero;stroke:none"
         inkscape:connector-curvature="0" />
      <path
         id="path4382"
         d="m 363.28931,520.39623 -5.21875,7.29261 -4.65625,1.45551 4.875,-0.008 2.84375,-3.65008 -0.8125,3.65008 2.84375,-0.008 -1.0625,-3.02413 1.1875,-5.7089 z"
         style="fill:#6e6e6e;fill-opacity:1;fill-rule:nonzero;stroke:none"
         inkscape:connector-curvature="0" />
      <path
         id="path4384"
         d="m 409.63306,524.73258 -2.25,4.4721 1.90625,0.008 -0.0625,-1.17647 1.03125,1.14631 0.0937,0.0377 2.25,0.0151 -1.9062,-0.77676 -1.0625,-3.72549 z"
         style="fill:#6e6e6e;fill-opacity:1;fill-rule:nonzero;stroke:none"
         inkscape:connector-curvature="0" />
      <path
         style="fill:#6e6e6e;fill-opacity:1;fill-rule:nonzero;stroke:none"
         d="m 386.13499,524.68241 6.5583,-4.30964 -0.26731,-0.49365 0.59091,-1.70279 2.7688,-2.59727 -7.6784,4.06489 -0.24187,0.69329 0.35439,1.72183 z"
         id="path4386"
         inkscape:connector-curvature="0"
         sodipodi:nodetypes="ccccccccc" />
      <path
         sodipodi:nodetypes="ccccccccc"
         inkscape:connector-curvature="0"
         id="path4388"
         d="m 429.15554,517.10606 0.12377,2.97252 0.53573,0.28385 1.07322,1.06325 0.68071,1.72562 0.64756,-2.88671 -0.43631,-0.43297 -1.57267,-1.02221 z"
         style="fill:#6e6e6e;fill-opacity:1;fill-rule:nonzero;stroke:none" />
      <path
         style="fill:#6e6e6e;fill-opacity:1;fill-rule:nonzero;stroke:none"
         d="m 474.51901,513.68136 -0.61813,4.1105 0.85042,1.22582 0.89151,1.69206 0.65318,2.1399 0.47678,-4.37801 -0.32123,-0.65666 -0.70196,-1.55028 z"
         id="path4390"
         inkscape:connector-curvature="0"
         sodipodi:nodetypes="ccccccccc" />
    </g>
    <g
       id="g4392"
       transform="matrix(1,0,0,0.49999991,-8.0812204,427.36512)">
      <path
         inkscape:connector-curvature="0"
         style="fill:#6e6e6e;fill-opacity:1;stroke:none"
         d="m 530.26372,164.19196 c -3.63756,0 -6.59375,1.42682 -6.59375,3.18251 l 0,33.65007 c 0,1.75569 2.95619,3.16742 6.59375,3.16742 l 14.5625,0 3.09375,-7.94872 -0.875,7.94872 49.03125,0 -0.0625,-2.85068 1.03125,2.29261 0.65625,0.55807 40.875,0 4.46875,-3.22775 -0.65625,3.22775 34.71875,0 c 3.63756,0 6.5625,-1.41173 6.5625,-3.16742 l 0,-33.65007 c 0,-1.75569 -2.92494,-3.18251 -6.5625,-3.18251 l -22.59375,0 -1,1.44797 -0.96875,-1.44797 -52.75,0 -1.09375,1.61388 -1.09375,-1.61388 -47.875,0 -0.75,2.30769 -1.5,-2.30769 -17.21875,0 z"
         id="path4394" />
      <path
         inkscape:connector-curvature="0"
         style="fill:#b3b3b3;fill-opacity:1;stroke:none"
         d="m 531.26372,164.81036 c -3.49343,0 -6.3125,1.36064 -6.3125,3.04676 l 0,32.30769 c 0,1.68612 2.81907,3.04676 6.3125,3.04676 l 13.9375,0 2.71875,-6.96833 -0.78125,6.96833 48.90625,0 -0.0312,-1.87029 0.84375,1.87029 43.0625,0 3.125,-2.24736 -0.4375,2.24736 33.5,0 c 3.49343,0 6.3125,-1.36064 6.3125,-3.04676 l 0,-32.30769 c 0,-1.68612 -2.81907,-3.04676 -6.3125,-3.04676 l -22.03125,0 -0.5625,0.82957 -0.5625,-0.82957 -53.5625,0 -0.6875,0.99548 -0.6875,-0.99548 -48.5,0 -0.53125,1.68929 -1.09375,-1.68929 -16.625,0 z"
         id="path4396" />
      <path
         inkscape:connector-curvature="0"
         style="fill:#808080;fill-opacity:1;stroke:none"
         d="m 557.04497,186.03208 c -2.47146,0.0357 -4.989,0.3459 -7.59375,1.07089 -20.54589,5.71862 -24.5,2.28858 -24.5,13.06184 0,1.68612 2.81907,3.04676 6.3125,3.04676 l 13.9375,0 2.71875,-6.96833 -0.78125,6.96833 48.90625,0 -0.0312,-1.87029 0.84375,1.87029 43.0625,0 3.125,-2.24736 -0.4375,2.24736 33.5,0 c 3.49343,0 6.97255,-1.39101 6.3125,-3.04676 l -4.03125,-10.13575 c -0.66005,-1.65575 -17.36244,-4.31115 -24.5,-3.8914 l -66.3125,3.90649 c -10.23021,0.60163 -19.44005,-3.84779 -29.46875,-4.01207 -0.351,-0.006 -0.70943,-0.005 -1.0625,0 z"
         id="path4398" />
      <path
         style="fill:#f9f9f9;fill-opacity:1;fill-rule:nonzero;stroke:none"
         d="m 532.48247,164.87069 c -3.63754,-0.003 -6.5625,1.41174 -6.5625,3.16743 l 0,20.24132 c 0,1.75569 3.21805,-3.85544 3.28125,-5.61086 0,0 -3.58191,-15.01574 0.75,-16.33484 1.85843,-0.56591 9.77133,-0.72656 18.4375,-0.73906 l -0.4375,-0.7089 z m 17.03125,0.0151 -0.88135,11.90758 c 2.82628,-4.8e-4 2.81026,-10.64996 5.0793,-11.1131 2.55545,-0.5216 9.47476,-0.003 11.84479,0.0297 2.37003,0.0334 4.45003,0.0672 6.06406,0.0934 1.61403,0.0262 2.76208,0.0448 3.2682,0.0477 l 104.8125,0.60332 c 3.6373,0.0211 -1.92494,-1.46015 -5.5625,-1.46305 l -20.15625,-0.0151 -0.46875,0.66365 -0.4375,-0.66365 -53.78125,-0.0452 -0.59375,0.87481 -0.59375,-0.87481 z"
         id="path4400"
         inkscape:connector-curvature="0"
         sodipodi:nodetypes="csscscccccssscccccccccc" />
      <path
         inkscape:connector-curvature="0"
         style="fill:#6e6e6e;fill-opacity:1;fill-rule:nonzero;stroke:none"
         d="m 543.48247,164.32771 3.21875,2.63952 2.125,12.71493 3.125,-15.3092 -2.28125,-0.0151 -0.6875,2.14178 -1.375,-2.15686 -4.125,-0.0151 z"
         id="path4402" />
      <path
         inkscape:connector-curvature="0"
         style="fill:#6e6e6e;fill-opacity:1;fill-rule:nonzero;stroke:none"
         d="m 594.57622,164.41821 3.15625,2.68476 3.0625,13.273 -0.375,-10.36199 1,-5.47511 -1.8125,-0.0302 -0.90625,1.29714 -0.90625,-1.3273 -3.21875,-0.0603 z"
         id="path4404" />
      <path
         inkscape:connector-curvature="0"
         style="fill:#6e6e6e;fill-opacity:1;fill-rule:nonzero;stroke:none"
         d="m 649.91997,164.58412 2.1875,1.62896 1.4375,7.8733 2.15625,-9.4721 -1.46875,-0.0151 -0.71875,1.04072 -0.71875,-1.04072 -2.875,-0.0151 z"
         id="path4406" />
      <path
         inkscape:connector-curvature="0"
         style="fill:#6e6e6e;fill-opacity:1;fill-rule:nonzero;stroke:none"
         d="m 646.98247,194.10146 -7.90625,9.04978 0.78125,0.10558 3.1875,-2.29261 -0.53125,2.66968 2.21875,0.30166 -1.15625,-1.90045 3.40625,-7.93364 z"
         id="path4408" />
      <path
         inkscape:connector-curvature="0"
         style="fill:#6e6e6e;fill-opacity:1;fill-rule:nonzero;stroke:none"
         d="m 550.07622,186.06225 -5.21875,14.58522 -4.65625,2.91101 4.875,-0.0151 2.84375,-7.30015 -0.8125,7.30015 2.84375,-0.0151 -1.0625,-6.04827 1.1875,-11.41779 z"
         id="path4410" />
      <path
         inkscape:connector-curvature="0"
         style="fill:#6e6e6e;fill-opacity:1;fill-rule:nonzero;stroke:none"
         d="m 596.41997,194.73495 -2.25,8.94419 1.90625,0.0151 -0.0625,-2.35294 1.03125,2.29261 0.0937,0.0754 2.25,0.0302 -1.90625,-1.55355 -1.06245,-7.45095 z"
         id="path4412" />
      <path
         sodipodi:nodetypes="ccccccccc"
         inkscape:connector-curvature="0"
         id="path4414"
         d="m 572.9219,194.63459 6.5583,-8.61928 -0.26731,-0.9873 0.59091,-3.40557 2.7688,-5.19455 -7.6784,8.12978 -0.24187,1.38659 0.35439,3.44367 z"
         style="fill:#6e6e6e;fill-opacity:1;fill-rule:nonzero;stroke:none" />
      <path
         style="fill:#6e6e6e;fill-opacity:1;fill-rule:nonzero;stroke:none"
         d="m 615.94245,177.08278 0.12377,7.12472 0.53573,0.68035 1.07322,2.54846 0.68071,4.13607 0.64756,-6.91904 -0.43631,-1.03777 -1.57267,-2.45008 z"
         id="path4416"
         inkscape:connector-curvature="0"
         sodipodi:nodetypes="ccccccccc" />
      <path
         sodipodi:nodetypes="ccccccccc"
         inkscape:connector-curvature="0"
         id="path4418"
         d="m 657.94264,176.91821 -1.54056,6.29954 2.1195,1.87864 2.22191,2.59317 1.62791,3.2795 1.18828,-6.70952 -0.8006,-1.00636 -1.74949,-2.37589 z"
         style="fill:#6e6e6e;fill-opacity:1;fill-rule:nonzero;stroke:none" />
      <path
         sodipodi:nodetypes="ccccccccc"
         inkscape:connector-curvature="0"
         id="path4420"
         d="m 574.05819,185.92149 10.74972,2.90303 1.28691,0.0578 4.35651,0.60745 6.5431,1.43028 -10.05779,-3.14077 -1.77369,-0.24766 -4.45718,-0.35748 z"
         style="fill:#6e6e6e;fill-opacity:1;fill-rule:nonzero;stroke:none" />
      <path
         sodipodi:nodetypes="ccccccccc"
         inkscape:connector-curvature="0"
         id="path4422"
         d="m 644.1888,193.01607 11.58772,-3.91913 0.93378,-0.83817 3.80555,-2.31298 6.52618,-2.8143 -11.50633,3.12613 -1.54993,0.94125 -3.48031,2.70265 z"
         style="fill:#6e6e6e;fill-opacity:1;fill-rule:nonzero;stroke:none" />
      <path
         style="fill:#6e6e6e;fill-opacity:1;fill-rule:nonzero;stroke:none"
         d="m 616.86737,175.97911 11.58772,-2.01669 0.93378,-0.4313 3.80555,-1.1902 6.52618,-1.44817 -11.50633,1.60863 -1.54993,0.48434 -3.48031,1.39072 z"
         id="path4424"
         inkscape:connector-curvature="0"
         sodipodi:nodetypes="ccccccccc" />
      <path
         style="fill:#6e6e6e;fill-opacity:1;fill-rule:nonzero;stroke:none"
         d="m 570.12962,171.44185 10.74972,2.90303 1.28691,0.0578 4.35651,0.60745 6.5431,1.43027 -10.05779,-3.14076 -1.77369,-0.24767 -4.45718,-0.35748 z"
         id="path4426"
         inkscape:connector-curvature="0"
         sodipodi:nodetypes="ccccccccc" />
      <path
         sodipodi:nodetypes="ccccccccc"
         inkscape:connector-curvature="0"
         id="path4428"
         d="m 539.1888,191.57919 11.58772,-2.01668 0.93378,-0.4313 3.80555,-1.19021 6.52618,-1.44817 -11.50633,1.60863 -1.54993,0.48434 -3.48031,1.39072 z"
         style="fill:#6e6e6e;fill-opacity:1;fill-rule:nonzero;stroke:none" />
    </g>
    <g
       id="stone-01"
       inkscape:export-filename="Z:\Proiecte\angrybox\src\assets\stone-01.png"
       inkscape:export-xdpi="36"
       inkscape:export-ydpi="36"
       inkscape:label="#stone-01">
      <g
         id="g4834"
         transform="matrix(1,0,0,1.9310346,-0.66352302,-16.941318)">
        <rect
           ry="6.5659919"
           y="30.277531"
           x="21.166048"
           height="82.85714"
           width="160"
           id="rect4836"
           style="fill:#6e6e6e;fill-opacity:1;stroke:none" />
        <path
           id="path4838"
           d="m 28.734568,31.54023 144.862962,0 c 3.49343,0 6.30583,2.853768 6.30583,6.398581 l 0,67.947419 c 0,3.54482 -2.8124,6.39858 -6.30583,6.39858 l -144.862962,0 c -3.49343,0 -6.30583,-2.85376 -6.30583,-6.39858 l 0,-67.947419 c 0,-3.544813 2.8124,-6.398581 6.30583,-6.398581 z"
           style="fill:#b3b3b3;fill-opacity:1;stroke:none"
           inkscape:connector-curvature="0" />
        <path
           sodipodi:nodetypes="sssssssss"
           inkscape:connector-curvature="0"
           style="fill:#808080;fill-opacity:1;stroke:none"
           d="m 105.16433,80.740397 46.12055,-3.896303 c 7.2368,-0.611371 23.82853,4.64309 24.48858,8.0736 l 4.04061,21.000536 c 0.66005,3.43051 -2.8124,6.30583 -6.30583,6.30583 l -144.862958,0 c -3.49343,0 -6.30583,-2.8124 -6.30583,-6.30583 0,-22.320826 24.153361,-4.22777 44.699251,-10.844891 C 84.334309,89.50302 91.887589,81.862027 105.16433,80.740397 z"
           id="path4840" />
        <path
           sodipodi:nodetypes="sssszssss"
           inkscape:connector-curvature="0"
           id="path4842"
           d="m 29.960488,31.66761 141.673902,0.25254 c 3.63756,0.006 9.19315,3.07428 5.55585,3.03046 L 72.386918,33.68792 c -3.6373,-0.0438 -36.831841,0.238821 -41.163731,2.971831 -4.3319,2.73301 -1.010155,30.701421 -1.010155,30.701421 -0.0632,3.637 -6.818534,16.431328 -6.818534,12.793768 l 0,-41.92134 c 0,-3.63756 2.92845,-6.57247 6.56599,-6.56599 z"
           style="fill:#f9f9f9;fill-opacity:1;fill-rule:nonzero;stroke:none" />
      </g>
    </g>
    <g
       id="stone-02"
       inkscape:export-filename="Z:\Proiecte\angrybox\src\assets\stone-02.png"
       inkscape:export-xdpi="36"
       inkscape:export-ydpi="36">
      <g
         transform="translate(170.2107,0)"
         id="g4872">
        <g
           id="g4874"
           transform="matrix(1,0,0,1.9310346,-0.66352302,-16.941318)">
          <rect
             ry="6.5659919"
             y="30.277531"
             x="21.166048"
             height="82.85714"
             width="160"
             id="rect4876"
             style="fill:#6e6e6e;fill-opacity:1;stroke:none" />
          <path
             id="path4878"
             d="m 28.734568,31.54023 144.862962,0 c 3.49343,0 6.30583,2.853768 6.30583,6.398581 l 0,67.947419 c 0,3.54482 -2.8124,6.39858 -6.30583,6.39858 l -144.862962,0 c -3.49343,0 -6.30583,-2.85376 -6.30583,-6.39858 l 0,-67.947419 c 0,-3.544813 2.8124,-6.398581 6.30583,-6.398581 z"
             style="fill:#b3b3b3;fill-opacity:1;stroke:none"
             inkscape:connector-curvature="0" />
          <path
             sodipodi:nodetypes="sssssssss"
             inkscape:connector-curvature="0"
             style="fill:#808080;fill-opacity:1;stroke:none"
             d="m 105.16433,80.740397 46.12055,-3.896303 c 7.2368,-0.611371 23.82853,4.64309 24.48858,8.0736 l 4.04061,21.000536 c 0.66005,3.43051 -2.8124,6.30583 -6.30583,6.30583 l -144.862958,0 c -3.49343,0 -6.30583,-2.8124 -6.30583,-6.30583 0,-22.320826 24.153361,-4.22777 44.699251,-10.844891 C 84.334309,89.50302 91.887589,81.862027 105.16433,80.740397 z"
             id="path4880" />
          <path
             sodipodi:nodetypes="sssszssss"
             inkscape:connector-curvature="0"
             id="path4882"
             d="m 29.960488,31.66761 141.673902,0.25254 c 3.63756,0.006 9.19315,3.07428 5.55585,3.03046 L 72.386918,33.68792 c -3.6373,-0.0438 -36.831841,0.238821 -41.163731,2.971831 -4.3319,2.73301 -1.010155,30.701421 -1.010155,30.701421 -0.0632,3.637 -6.818534,16.431328 -6.818534,12.793768 l 0,-41.92134 c 0,-3.63756 2.92845,-6.57247 6.56599,-6.56599 z"
             style="fill:#f9f9f9;fill-opacity:1;fill-rule:nonzero;stroke:none" />
        </g>
      </g>
      <path
         style="fill:#6e6e6e;fill-opacity:1;fill-rule:nonzero;stroke:none"
         inkscape:transform-center-x="0.24270102"
         inkscape:transform-center-y="-5.8098378"
         d="m 287.9002,151.87491 -1.82886,36.36323 1.97223,12.59259 -9.34512,-0.30964 z"
         id="path4884"
         inkscape:connector-curvature="0"
         sodipodi:nodetypes="ccccc" />
      <path
         sodipodi:nodetypes="ccccc"
         inkscape:connector-curvature="0"
         id="path4886"
         d="m 223.28344,90.724107 1.82886,-36.363225 -1.97223,-12.592596 9.34512,0.309645 z"
         inkscape:transform-center-y="5.8098378"
         inkscape:transform-center-x="-0.24270102"
         style="fill:#6e6e6e;fill-opacity:1;fill-rule:nonzero;stroke:none" />
      <path
         style="fill:#6e6e6e;fill-opacity:1;fill-rule:nonzero;stroke:none"
         inkscape:transform-center-x="-0.13776292"
         inkscape:transform-center-y="3.5920584"
         d="m 268.67831,73.046438 1.03811,-22.482353 -1.11949,-7.785646 5.30451,0.191445 z"
         id="path4888"
         inkscape:connector-curvature="0"
         sodipodi:nodetypes="ccccc" />
      <path
         sodipodi:nodetypes="ccccc"
         inkscape:connector-curvature="0"
         id="path4890"
         d="m 320.08397,84.283172 22.49702,-0.646669 7.68008,-1.698786 0.20592,5.303978 z"
         inkscape:transform-center-y="-0.7188976"
         inkscape:transform-center-x="3.6640971"
         style="fill:#6e6e6e;fill-opacity:1;fill-rule:nonzero;stroke:none" />
    </g>
    <g
       id="stone-03"
       inkscape:export-filename="Z:\Proiecte\angrybox\src\assets\stone-03.png"
       inkscape:export-xdpi="36"
       inkscape:export-ydpi="36">
      <g
         id="g4892"
         transform="translate(341.43156,0)">
        <g
           transform="matrix(1,0,0,1.9310346,-0.66352302,-16.941318)"
           id="g4894">
          <rect
             style="fill:#6e6e6e;fill-opacity:1;stroke:none"
             id="rect4896"
             width="160"
             height="82.85714"
             x="21.166048"
             y="30.277531"
             ry="6.5659919" />
          <path
             inkscape:connector-curvature="0"
             style="fill:#b3b3b3;fill-opacity:1;stroke:none"
             d="m 28.734568,31.54023 144.862962,0 c 3.49343,0 6.30583,2.853768 6.30583,6.398581 l 0,67.947419 c 0,3.54482 -2.8124,6.39858 -6.30583,6.39858 l -144.862962,0 c -3.49343,0 -6.30583,-2.85376 -6.30583,-6.39858 l 0,-67.947419 c 0,-3.544813 2.8124,-6.398581 6.30583,-6.398581 z"
             id="path4898" />
          <path
             id="path4900"
             d="m 105.16433,80.740397 46.12055,-3.896303 c 7.2368,-0.611371 23.82853,4.64309 24.48858,8.0736 l 4.04061,21.000536 c 0.66005,3.43051 -2.8124,6.30583 -6.30583,6.30583 l -144.862958,0 c -3.49343,0 -6.30583,-2.8124 -6.30583,-6.30583 0,-22.320826 24.153361,-4.22777 44.699251,-10.844891 C 84.334309,89.50302 91.887589,81.862027 105.16433,80.740397 z"
             style="fill:#808080;fill-opacity:1;stroke:none"
             inkscape:connector-curvature="0"
             sodipodi:nodetypes="sssssssss" />
          <path
             style="fill:#f9f9f9;fill-opacity:1;fill-rule:nonzero;stroke:none"
             d="m 29.960488,31.66761 141.673902,0.25254 c 3.63756,0.006 9.19315,3.07428 5.55585,3.03046 L 72.386918,33.68792 c -3.6373,-0.0438 -36.831841,0.238821 -41.163731,2.971831 -4.3319,2.73301 -1.010155,30.701421 -1.010155,30.701421 -0.0632,3.637 -6.818534,16.431328 -6.818534,12.793768 l 0,-41.92134 c 0,-3.63756 2.92845,-6.57247 6.56599,-6.56599 z"
             id="path4902"
             inkscape:connector-curvature="0"
             sodipodi:nodetypes="sssszssss" />
        </g>
      </g>
      <path
         sodipodi:nodetypes="ccccc"
         inkscape:connector-curvature="0"
         id="path4904"
         d="m 459.12106,151.87491 -1.82886,36.36323 1.97223,12.59259 -9.34512,-0.30964 z"
         inkscape:transform-center-y="-5.8098378"
         inkscape:transform-center-x="0.24270102"
         style="fill:#6e6e6e;fill-opacity:1;fill-rule:nonzero;stroke:none" />
      <path
         style="fill:#6e6e6e;fill-opacity:1;fill-rule:nonzero;stroke:none"
         inkscape:transform-center-x="-0.24270102"
         inkscape:transform-center-y="5.8098378"
         d="m 394.5043,90.724107 1.82886,-36.363225 -1.97223,-12.592596 9.34512,0.309645 z"
         id="path4906"
         inkscape:connector-curvature="0"
         sodipodi:nodetypes="ccccc" />
      <path
         sodipodi:nodetypes="ccccc"
         inkscape:connector-curvature="0"
         id="path4908"
         d="m 439.89917,73.046438 1.03811,-22.482353 -1.11949,-7.785646 5.30451,0.191445 z"
         inkscape:transform-center-y="3.5920584"
         inkscape:transform-center-x="-0.13776292"
         style="fill:#6e6e6e;fill-opacity:1;fill-rule:nonzero;stroke:none" />
      <path
         style="fill:#6e6e6e;fill-opacity:1;fill-rule:nonzero;stroke:none"
         inkscape:transform-center-x="3.6640971"
         inkscape:transform-center-y="-0.7188976"
         d="m 491.30483,84.283172 22.49702,-0.646669 7.68008,-1.698786 0.20592,5.303978 z"
         id="path4910"
         inkscape:connector-curvature="0"
         sodipodi:nodetypes="ccccc" />
      <path
         sodipodi:nodetypes="ccccc"
         inkscape:connector-curvature="0"
         id="path4912"
         d="m 403.26456,124.8006 -30.52712,-1.19981 -10.57155,1.29387 0.25995,-6.13083 z"
         inkscape:transform-center-y="-0.1592247"
         inkscape:transform-center-x="-4.877391"
         style="fill:#6e6e6e;fill-opacity:1;fill-rule:nonzero;stroke:none" />
      <path
         style="fill:#6e6e6e;fill-opacity:1;fill-rule:nonzero;stroke:none"
         inkscape:transform-center-x="-0.24270102"
         inkscape:transform-center-y="5.8098378"
         d="m 482.2458,146.11969 -7.83557,-22.46732 -20.69271,1.81839 26.24205,-6.87832 11.48798,-21.118921 -8.88659,30.394511 z"
         id="path4914"
         inkscape:connector-curvature="0"
         sodipodi:nodetypes="ccccccc" />
      <path
         sodipodi:nodetypes="ccccc"
         inkscape:connector-curvature="0"
         id="path4916"
         d="m 490.94769,158.21174 22.49702,-0.64667 7.68008,-1.69878 0.20592,5.30398 z"
         inkscape:transform-center-y="-0.7188976"
         inkscape:transform-center-x="3.6640971"
         style="fill:#6e6e6e;fill-opacity:1;fill-rule:nonzero;stroke:none" />
    </g>
    <g
       id="stone-04"
       transform="translate(512.14734,0)"
       inkscape:export-filename="Z:\Proiecte\angrybox\src\assets\stone-04.png"
       inkscape:export-xdpi="36"
       inkscape:export-ydpi="36">
      <g
         transform="matrix(1,0,0,1.9310346,-0.66352302,-16.941318)"
         id="g4920">
        <rect
           style="fill:#6e6e6e;fill-opacity:1;stroke:none"
           id="rect4922"
           width="160"
           height="82.85714"
           x="21.166048"
           y="30.277531"
           ry="6.5659919" />
        <path
           inkscape:connector-curvature="0"
           style="fill:#b3b3b3;fill-opacity:1;stroke:none"
           d="m 28.734568,31.54023 144.862962,0 c 3.49343,0 6.30583,2.853768 6.30583,6.398581 l 0,67.947419 c 0,3.54482 -2.8124,6.39858 -6.30583,6.39858 l -144.862962,0 c -3.49343,0 -6.30583,-2.85376 -6.30583,-6.39858 l 0,-67.947419 c 0,-3.544813 2.8124,-6.398581 6.30583,-6.398581 z"
           id="path4924" />
        <path
           id="path4926"
           d="m 105.16433,80.740397 46.12055,-3.896303 c 7.2368,-0.611371 23.82853,4.64309 24.48858,8.0736 l 4.04061,21.000536 c 0.66005,3.43051 -2.8124,6.30583 -6.30583,6.30583 l -144.862958,0 c -3.49343,0 -6.30583,-2.8124 -6.30583,-6.30583 0,-22.320826 24.153361,-4.22777 44.699251,-10.844891 C 84.334309,89.50302 91.887589,81.862027 105.16433,80.740397 z"
           style="fill:#808080;fill-opacity:1;stroke:none"
           inkscape:connector-curvature="0"
           sodipodi:nodetypes="sssssssss" />
        <path
           style="fill:#f9f9f9;fill-opacity:1;fill-rule:nonzero;stroke:none"
           d="m 29.960488,31.66761 141.673902,0.25254 c 3.63756,0.006 9.19315,3.07428 5.55585,3.03046 L 72.386918,33.68792 c -3.6373,-0.0438 -36.831841,0.238821 -41.163731,2.971831 -4.3319,2.73301 -1.010155,30.701421 -1.010155,30.701421 -0.0632,3.637 -6.818534,16.431328 -6.818534,12.793768 l 0,-41.92134 c 0,-3.63756 2.92845,-6.57247 6.56599,-6.56599 z"
           id="path4928"
           inkscape:connector-curvature="0"
           sodipodi:nodetypes="sssszssss" />
      </g>
    </g>
    <path
       sodipodi:nodetypes="ccccc"
       inkscape:connector-curvature="0"
       id="path4930"
       d="m 629.80396,146.16062 -2.24822,40.60767 2.42447,14.06244 -11.48798,-0.34578 z"
       inkscape:transform-center-y="-6.4879835"
       inkscape:transform-center-x="0.29835434"
       style="fill:#6e6e6e;fill-opacity:1;fill-rule:nonzero;stroke:none"
       inkscape:export-filename="Z:\Proiecte\angrybox\src\assets\stone-04.png"
       inkscape:export-xdpi="36"
       inkscape:export-ydpi="36" />
    <path
       style="fill:#6e6e6e;fill-opacity:1;fill-rule:nonzero;stroke:none"
       inkscape:transform-center-x="-0.37255543"
       inkscape:transform-center-y="6.7422852"
       d="m 565.29679,98.58125 2.80737,-42.199325 -3.02745,-14.613639 14.34512,0.359341 z"
       id="path4932"
       inkscape:connector-curvature="0"
       sodipodi:nodetypes="ccccc"
       inkscape:export-filename="Z:\Proiecte\angrybox\src\assets\stone-04.png"
       inkscape:export-xdpi="36"
       inkscape:export-ydpi="36" />
    <path
       sodipodi:nodetypes="ccccc"
       inkscape:connector-curvature="0"
       id="path4934"
       d="m 610.6807,87.332152 1.87684,-33.093443 -2.02397,-11.46027 9.59023,0.281802 z"
       inkscape:transform-center-y="5.2874171"
       inkscape:transform-center-x="-0.24906939"
       style="fill:#6e6e6e;fill-opacity:1;fill-rule:nonzero;stroke:none"
       inkscape:export-filename="Z:\Proiecte\angrybox\src\assets\stone-04.png"
       inkscape:export-xdpi="36"
       inkscape:export-ydpi="36" />
    <path
       style="fill:#6e6e6e;fill-opacity:1;fill-rule:nonzero;stroke:none"
       inkscape:transform-center-x="4.0948009"
       inkscape:transform-center-y="-1.1061529"
       d="m 658.44918,82.689477 25.14148,-0.995016 8.58284,-2.613887 0.23013,8.161121 z"
       id="path4936"
       inkscape:connector-curvature="0"
       sodipodi:nodetypes="ccccc"
       inkscape:export-filename="Z:\Proiecte\angrybox\src\assets\stone-04.png"
       inkscape:export-xdpi="36"
       inkscape:export-ydpi="36" />
    <path
       sodipodi:nodetypes="ccccc"
       inkscape:connector-curvature="0"
       id="path4938"
       d="m 573.98034,124.8006 -30.52712,-1.19981 -10.57155,1.29387 0.25995,-6.13083 z"
       inkscape:transform-center-y="-0.1592247"
       inkscape:transform-center-x="-4.877391"
       style="fill:#6e6e6e;fill-opacity:1;fill-rule:nonzero;stroke:none"
       inkscape:export-filename="Z:\Proiecte\angrybox\src\assets\stone-04.png"
       inkscape:export-xdpi="36"
       inkscape:export-ydpi="36" />
    <path
       style="fill:#6e6e6e;fill-opacity:1;fill-rule:nonzero;stroke:none"
       inkscape:transform-center-x="-0.24270102"
       inkscape:transform-center-y="5.8098378"
       d="m 652.96158,146.11969 -7.83557,-22.46732 -20.69271,1.81839 26.24205,-6.87832 11.48798,-21.118921 -8.88659,30.394511 z"
       id="path4940"
       inkscape:connector-curvature="0"
       sodipodi:nodetypes="ccccccc"
       inkscape:export-filename="Z:\Proiecte\angrybox\src\assets\stone-04.png"
       inkscape:export-xdpi="36"
       inkscape:export-ydpi="36" />
    <path
       sodipodi:nodetypes="ccccc"
       inkscape:connector-curvature="0"
       id="path4942"
       d="m 661.66347,158.21174 22.49702,-0.64667 7.68008,-1.69878 0.20592,5.30398 z"
       inkscape:transform-center-y="-0.7188976"
       inkscape:transform-center-x="3.6640971"
       style="fill:#6e6e6e;fill-opacity:1;fill-rule:nonzero;stroke:none"
       inkscape:export-filename="Z:\Proiecte\angrybox\src\assets\stone-04.png"
       inkscape:export-xdpi="36"
       inkscape:export-ydpi="36" />
    <path
       sodipodi:nodetypes="ccccccc"
       inkscape:connector-curvature="0"
       id="path4944"
       d="m 581.09213,164.26821 5.11706,-17.41619 -12.75133,-8.34037 18.13478,7.76174 15.71622,-7.75183 -18.19527,14.65246 z"
       inkscape:transform-center-y="10.204443"
       inkscape:transform-center-x="-2.0794478"
       style="fill:#6e6e6e;fill-opacity:1;fill-rule:nonzero;stroke:none"
       inkscape:export-filename="Z:\Proiecte\angrybox\src\assets\stone-04.png"
       inkscape:export-xdpi="36"
       inkscape:export-ydpi="36" />
  </g>
</svg>
