<?xml version="1.0" encoding="UTF-8" standalone="no"?>
<!-- Created with Inkscape (http://www.inkscape.org/) -->

<svg
   xmlns:dc="http://purl.org/dc/elements/1.1/"
   xmlns:cc="http://creativecommons.org/ns#"
   xmlns:rdf="http://www.w3.org/1999/02/22-rdf-syntax-ns#"
   xmlns:svg="http://www.w3.org/2000/svg"
   xmlns="http://www.w3.org/2000/svg"
   xmlns:sodipodi="http://sodipodi.sourceforge.net/DTD/sodipodi-0.dtd"
   xmlns:inkscape="http://www.inkscape.org/namespaces/inkscape"
   width="744.09448819"
   height="1052.3622047"
   id="svg3844"
   version="1.1"
   inkscape:version="0.48.4 r9939"
   sodipodi:docname="terrain.svg">
  <defs
     id="defs3846" />
  <sodipodi:namedview
     id="base"
     pagecolor="#ffffff"
     bordercolor="#666666"
     borderopacity="1.0"
     inkscape:pageopacity="0.0"
     inkscape:pageshadow="2"
     inkscape:zoom="1.979899"
     inkscape:cx="456.38745"
     inkscape:cy="628.12018"
     inkscape:document-units="px"
     inkscape:current-layer="layer1"
     showgrid="false"
     inkscape:window-width="1680"
     inkscape:window-height="988"
     inkscape:window-x="-8"
     inkscape:window-y="-8"
     inkscape:window-maximized="1" />
  <metadata
     id="metadata3849">
    <rdf:RDF>
      <cc:Work
         rdf:about="">
        <dc:format>image/svg+xml</dc:format>
        <dc:type
           rdf:resource="http://purl.org/dc/dcmitype/StillImage" />
        <dc:title></dc:title>
      </cc:Work>
    </rdf:RDF>
  </metadata>
  <g
     inkscape:label="Layer 1"
     inkscape:groupmode="layer"
     id="layer1">
    <path
       sodipodi:nodetypes="sssssssss"
       inkscape:connector-curvature="0"
       id="path4444"
       d="m 239.97021,483.17265 c 6.753,-7.01462 15.42101,-5.20472 24.27266,-2.5486 4.41658,1.32528 8.22374,2.38447 9.49059,6.23491 l 5.33574,16.21735 c 0.70717,2.14935 -12.54261,3.44517 -12.66298,9.27922 -0.21178,10.26635 -12.59698,5.87054 -17.57332,8.30909 -7.53024,3.69004 -10.18751,-8.65722 -11.57246,-12.48022 l -6.79516,-18.75741 c -1.38494,-3.823 6.59121,-3.22774 9.50493,-6.25434 z"
       style="fill:#a57427;fill-opacity:1;stroke:none" />
    <rect
       style="fill:#784421;fill-opacity:1;stroke:none"
       id="rect3852"
       width="171.42857"
       height="182.85715"
       x="111.42857"
       y="358.07648" />
    <path
       sodipodi:nodetypes="sssssssss"
       inkscape:connector-curvature="0"
       id="path4424"
       d="m 135.34702,512.30931 c 7.99155,-6.5103 15.98311,-0.70123 23.97466,0 4.33699,0.38056 7.82665,2.52293 7.85857,5.65644 0.0459,4.50751 4.82623,3.41981 0,13.68531 -1.33327,2.83589 -3.50492,5.65644 -7.85857,5.65644 l -23.97466,0 c -4.35365,0 -7.85858,-2.52277 -7.85858,-5.65644 l 0,-13.68531 c 0,-3.13367 4.4832,-2.9067 7.85858,-5.65644 z"
       style="fill:#64381b;fill-opacity:1;stroke:none" />
    <rect
       y="358.07648"
       x="111.42857"
       height="55.577927"
       width="171.42857"
       id="rect3854"
       style="fill:#5aa02c;fill-opacity:1;stroke:none" />
    <path
       sodipodi:nodetypes="sssssssss"
       inkscape:connector-curvature="0"
       id="path4412"
       d="m 133.31109,424.65608 c 7.49923,-1.58336 11.24337,-7.95253 26.22472,0 4.22406,2.24225 5.24652,5.31306 8.59612,8.76453 3.57497,3.6837 3.58846,10.73929 0,21.20506 -0.65567,1.91227 -1.65353,9.74046 -8.59612,8.76453 -4.72339,-0.66398 -1.01871,-10.44525 -26.22472,0 -4.41179,1.82823 -9.69506,-4.04003 -8.59612,-8.76453 1.24235,-5.34104 4.05682,-8.49629 0,-21.20506 -1.47386,-4.61715 3.9328,-7.77994 8.59612,-8.76453 z"
       style="fill:#64381b;fill-opacity:1;stroke:none" />
    <path
       style="fill:#a05a2c;fill-opacity:1;stroke:none"
       d="m 132.4922,422.80909 c 7.49923,-1.58336 11.24337,-7.95253 26.22472,0 4.22406,2.24225 5.24652,5.31306 8.59612,8.76453 3.57497,3.6837 3.58846,10.73929 0,21.20506 -0.65567,1.91227 -1.65353,9.74046 -8.59612,8.76453 -4.72339,-0.66398 -1.01871,-10.44525 -26.22472,0 -4.41179,1.82823 -9.69506,-4.04003 -8.59612,-8.76453 1.24235,-5.34104 4.05682,-8.49629 0,-21.20506 -1.47386,-4.61715 3.9328,-7.77994 8.59612,-8.76453 z"
       id="rect3856"
       inkscape:connector-curvature="0"
       sodipodi:nodetypes="sssssssss" />
    <path
       sodipodi:nodetypes="sssssssss"
       inkscape:connector-curvature="0"
       id="path4422"
       d="m 196.67098,502.5185 c 7.99155,0 -2.8309,9.10355 23.97466,0 4.1224,-1.40003 7.85858,3.27966 7.85858,7.3535 0,5.9304 4.88354,2.70417 0,17.7912 -1.25458,3.87585 -3.50493,7.3535 -7.85858,7.3535 l -23.97466,0 c -4.35365,0 -10.43042,-4.1941 -7.85858,-7.3535 3.05259,-3.74998 0.0333,-11.83702 0,-17.7912 -0.0228,-4.07378 3.50493,-7.3535 7.85858,-7.3535 z"
       style="fill:#64381b;fill-opacity:1;stroke:none" />
    <path
       style="fill:#884d25;fill-opacity:1;stroke:none"
       d="m 195.91337,500.75073 c 7.99155,0 -2.8309,9.10355 23.97466,0 4.1224,-1.40003 7.85858,3.27966 7.85858,7.3535 0,5.9304 4.88354,2.70417 0,17.7912 -1.25458,3.87585 -3.50493,7.3535 -7.85858,7.3535 l -23.97466,0 c -4.35365,0 -10.43042,-4.1941 -7.85858,-7.3535 3.05259,-3.74998 0.0333,-11.83702 0,-17.7912 -0.0228,-4.07378 3.50493,-7.3535 7.85858,-7.3535 z"
       id="rect3858"
       inkscape:connector-curvature="0"
       sodipodi:nodetypes="sssssssss" />
    <path
       sodipodi:nodetypes="sssssssss"
       inkscape:connector-curvature="0"
       id="path4414"
       d="m 192.2525,426.90882 24.4061,0 c 4.432,0 8,3.20757 8,7.19187 l 0,17.40016 c 0,3.9843 -3.6595,8.08781 -8,7.19188 -7.42058,-1.53169 -13.85527,-5.17598 -24.4061,0 -3.97899,1.952 -8,-3.20758 -8,-7.19188 l 0,-17.40016 c 0,-3.9843 3.568,-7.19187 8,-7.19187 z"
       style="fill:#64381b;fill-opacity:1;stroke:none" />
    <path
       style="fill:#b37b2f;fill-opacity:1;stroke:none"
       d="m 192.12623,425.39359 24.4061,0 c 4.432,0 8,3.20757 8,7.19187 l 0,17.40016 c 0,3.9843 -3.6595,8.08781 -8,7.19188 -7.42058,-1.53169 -13.85527,-5.17598 -24.4061,0 -3.97899,1.952 -8,-3.20758 -8,-7.19188 l 0,-17.40016 c 0,-3.9843 3.568,-7.19187 8,-7.19187 z"
       id="rect3860"
       inkscape:connector-curvature="0"
       sodipodi:nodetypes="sssssssss" />
    <path
       sodipodi:nodetypes="sssssssss"
       inkscape:connector-curvature="0"
       id="path4416"
       d="m 246.59165,427.35634 22.89605,0 c 4.15779,0 7.50503,4.25281 7.50503,9.53544 l 0,23.07018 c 0,1.72392 -7.59446,9.53544 -7.50503,9.53544 l -22.89605,0 c -4.15778,0 -11.16709,-5.72815 -7.50502,-9.53544 3.96465,-4.12187 0.25622,-15.14952 0,-23.07018 -0.17079,-5.27987 3.34724,-9.53544 7.50502,-9.53544 z"
       style="fill:#64381b;fill-opacity:1;stroke:none" />
    <path
       style="fill:#a05d2c;fill-opacity:1;stroke:none"
       d="m 245.9603,425.4623 22.89605,0 c 4.15779,0 7.50503,4.25281 7.50503,9.53544 l 0,23.07018 c 0,1.72392 -7.59446,9.53544 -7.50503,9.53544 l -22.89605,0 c -4.15778,0 -11.16709,-5.72815 -7.50502,-9.53544 3.96465,-4.12187 0.25622,-15.14952 0,-23.07018 -0.17079,-5.27987 3.34724,-9.53544 7.50502,-9.53544 z"
       id="rect3862"
       inkscape:connector-curvature="0"
       sodipodi:nodetypes="sssssssss" />
    <path
       sodipodi:nodetypes="sssssssss"
       inkscape:connector-curvature="0"
       id="path4418"
       d="m 186.99748,471.23787 23.97466,0 c 4.35365,0 5.97354,3.15314 7.85858,5.65644 8.05855,10.70162 0.84424,9.76677 0,13.68531 -0.66,3.06338 -3.50493,5.65644 -7.85858,5.65644 l -23.97466,0 c -4.35365,0 -6.92534,2.15409 -8.75144,4.7007 -4.77454,6.65841 -3.85639,-8.31994 0.89286,-24.04245 0.90614,-2.9998 3.50493,-5.65644 7.85858,-5.65644 z"
       style="fill:#64381b;fill-opacity:1;stroke:none" />
    <path
       style="fill:#a05a2c;fill-opacity:1;stroke:none"
       d="m 186.23987,469.47011 23.97466,0 c 4.35365,0 5.97354,3.15314 7.85858,5.65644 8.05855,10.70162 0.84424,9.76677 0,13.68531 -0.66,3.06338 -3.50493,5.65644 -7.85858,5.65644 l -23.97466,0 c -4.35365,0 -6.92534,2.15409 -8.75144,4.7007 -4.77454,6.65841 -3.85639,-8.31994 0.89286,-24.04245 0.90614,-2.9998 3.50493,-5.65644 7.85858,-5.65644 z"
       id="rect3864"
       inkscape:connector-curvature="0"
       sodipodi:nodetypes="sssssssss" />
    <path
       sodipodi:nodetypes="sssssssss"
       inkscape:connector-curvature="0"
       id="path4426"
       d="m 140.32387,474.87057 20.95456,0 c 3.80522,0 6.86863,2.59486 6.86863,5.81807 l 0,14.07634 c 0,3.22321 -3.06341,5.81807 -6.86863,5.81807 l -20.95456,0 c -3.80522,0 -5.20903,-3.05495 -6.86863,-5.81807 -2.96046,-4.92895 -8.37167,-10.05396 0,-14.07634 2.90526,-1.39591 3.06341,-5.81807 6.86863,-5.81807 z"
       style="fill:#64381b;fill-opacity:1;stroke:none" />
    <path
       style="fill:#a5602f;fill-opacity:1;stroke:none"
       d="m 139.56626,473.60788 20.95456,0 c 3.80522,0 6.86863,2.59486 6.86863,5.81807 l 0,14.07634 c 0,3.22321 -3.06341,5.81807 -6.86863,5.81807 l -20.95456,0 c -3.80522,0 -5.20903,-3.05495 -6.86863,-5.81807 -2.96046,-4.92895 -8.37167,-10.05396 0,-14.07634 2.90526,-1.39591 3.06341,-5.81807 6.86863,-5.81807 z"
       id="rect3866"
       inkscape:connector-curvature="0"
       sodipodi:nodetypes="sssssssss" />
    <path
       sodipodi:nodetypes="sssssssss"
       inkscape:connector-curvature="0"
       id="path4420"
       d="m 240.72782,484.68788 c 6.753,-7.01462 15.42101,-5.20472 24.27266,-2.5486 4.41658,1.32528 8.22374,2.38447 9.49059,6.23491 l 5.33574,16.21735 c 0.70717,2.14935 -12.54261,3.44517 -12.66298,9.27922 -0.21178,10.26635 -12.59698,5.87054 -17.57332,8.30909 -7.53024,3.69004 -10.18751,-8.65722 -11.57246,-12.48022 l -6.79516,-18.75741 c -1.38494,-3.823 6.59121,-3.22774 9.50493,-6.25434 z"
       style="fill:#64381b;fill-opacity:1;stroke:none" />
    <path
       style="fill:#a57427;fill-opacity:1;stroke:none"
       d="m 239.97021,483.17265 c 6.753,-7.01462 15.42101,-5.20472 24.27266,-2.5486 4.41658,1.32528 8.22374,2.38447 9.49059,6.23491 l 5.33574,16.21735 c 0.70717,2.14935 -12.54261,3.44517 -12.66298,9.27922 -0.21178,10.26635 -12.59698,5.87054 -17.57332,8.30909 -7.53024,3.69004 -10.18751,-8.65722 -11.57246,-12.48022 l -6.79516,-18.75741 c -1.38494,-3.823 6.59121,-3.22774 9.50493,-6.25434 z"
       id="rect3868"
       inkscape:connector-curvature="0"
       sodipodi:nodetypes="sssssssss" />
    <path
       style="fill:#a16b2b;fill-opacity:1;stroke:none"
       d="m 135.09448,510.28901 c 7.99155,-6.5103 15.98311,-0.70123 23.97466,0 4.33699,0.38056 7.82665,2.52293 7.85857,5.65644 0.0459,4.50751 4.82623,3.41981 0,13.68531 -1.33327,2.83589 -3.50492,5.65644 -7.85857,5.65644 l -23.97466,0 c -4.35365,0 -7.85858,-2.52277 -7.85858,-5.65644 l 0,-13.68531 c 0,-3.13367 4.4832,-2.9067 7.85858,-5.65644 z"
       id="rect3870"
       inkscape:connector-curvature="0"
       sodipodi:nodetypes="sssssssss" />
    <path
       style="fill:#b56532;fill-opacity:1;stroke:none"
       d="m 131.20462,427.3303 c 9.74767,-10.93766 19.49534,-3.78059 29.24301,0 0.92633,2.95623 9.63519,8.11774 0,8.08122 -30.97933,-10.40654 -23.18883,-1.81034 -29.24301,0 -7.91791,-4.60832 -2.63826,-6.02542 0,-8.08122 z"
       id="rect4434"
       inkscape:connector-curvature="0"
       sodipodi:nodetypes="ccccc" />
    <path
       style="fill:#5aa02c;fill-opacity:1;stroke:none"
       d="m 158.13295,407.22908 5.23045,15.38946 -5.78205,37.01963 -5.94473,-36.81802 z"
       id="rect4388"
       inkscape:connector-curvature="0"
       sodipodi:nodetypes="ccccc" />
    <path
       sodipodi:nodetypes="ccccc"
       inkscape:connector-curvature="0"
       id="path4391"
       d="m 157.69065,406.33367 11.32295,8.24648 13.88853,28.41205 -22.31435,-22.79624 z"
       style="fill:#5aa02c;fill-opacity:1;stroke:none" />
    <path
       style="fill:#7ccc46;fill-opacity:1;stroke:none"
       d="m 162.66988,411.98507 5.79766,3.26529 7.56222,14.49274 -17.12673,-10.85298 z"
       id="path4616"
       inkscape:connector-curvature="0"
       sodipodi:nodetypes="ccccc" />
    <path
       style="fill:#5aa02c;fill-opacity:1;stroke:none"
       d="m 157.96959,407.75856 -0.004,9.44358 -10.97335,19.27951 3.93102,-21.36352 z"
       id="path4393"
       inkscape:connector-curvature="0"
       sodipodi:nodetypes="ccccc" />
    <path
       sodipodi:nodetypes="ccccc"
       inkscape:connector-curvature="0"
       id="path4395"
       d="m 160.49415,409.24475 7.92154,10.05875 2.45031,28.85221 -13.01208,-25.73004 z"
       style="fill:#5aa02c;fill-opacity:1;stroke:none" />
    <path
       style="fill:#5aa02c;fill-opacity:1;stroke:none"
       d="m 155.83745,405.25961 -4.12191,15.72268 -25.23559,27.69568 15.34131,-33.9934 z"
       id="path4397"
       inkscape:connector-curvature="0"
       sodipodi:nodetypes="ccccc" />
    <path
       sodipodi:nodetypes="ccccc"
       inkscape:connector-curvature="0"
       id="path4614"
       d="m 157.48355,411.15632 -0.3023,8.74438 -0.6636,27.07532 -4.46128,-26.0653 z"
       style="fill:#7ccc46;fill-opacity:1;stroke:none" />
    <path
       sodipodi:nodetypes="ccccc"
       inkscape:connector-curvature="0"
       id="path4622"
       d="m 152.51972,409.53463 -4.73797,8.6021 -15.96862,19.71999 10.15314,-21.56645 z"
       style="fill:#7ccc46;fill-opacity:1;stroke:none" />
    <path
       sodipodi:nodetypes="ccccc"
       inkscape:connector-curvature="0"
       id="path4399"
       d="m 235.3737,408.42369 6.11478,11.36816 -6.75964,27.34633 -6.94983,-27.1974 z"
       style="fill:#5aa02c;fill-opacity:1;stroke:none" />
    <path
       sodipodi:nodetypes="sssssssss"
       inkscape:connector-curvature="0"
       id="path4437"
       d="m 248.08129,427.48261 19.77711,0 c 3.59141,0 6.48268,1.72972 6.48268,3.87829 l 0,9.38319 c 0,0.70117 -2.34427,4.54639 -5.21999,-2.68769 -3.94334,-9.91975 -17.71877,-7.12782 -20.02965,1.01015 -0.98103,3.45481 -10.65604,3.22607 -7.49282,1.67754 3.42457,-1.67646 0.22131,-6.16167 0,-9.38319 -0.14753,-2.14745 2.89127,-3.87829 6.48267,-3.87829 z"
       style="fill:#b56931;fill-opacity:1;stroke:none" />
    <path
       style="fill:#5aa02c;fill-opacity:1;stroke:none"
       d="m 234.85662,407.76225 13.23736,6.09166 16.23672,20.98792 -26.08713,-16.83953 z"
       id="path4401"
       inkscape:connector-curvature="0"
       sodipodi:nodetypes="ccccc" />
    <path
       sodipodi:nodetypes="ccccc"
       inkscape:connector-curvature="0"
       id="path4403"
       d="m 235.18272,408.81481 -0.005,6.97596 -12.82866,14.24173 4.59565,-15.78119 z"
       style="fill:#5aa02c;fill-opacity:1;stroke:none" />
    <path
       style="fill:#5aa02c;fill-opacity:1;stroke:none"
       d="m 238.13411,409.91266 9.26087,7.43038 2.86459,21.31307 -15.21208,-19.00673 z"
       id="path4405"
       inkscape:connector-curvature="0"
       sodipodi:nodetypes="ccccc" />
    <path
       style="fill:#78cb42;fill-opacity:1;stroke:none"
       d="m 112.85715,360.57648 c 56.19621,0.004 118.06557,3.78975 168.57142,0 l 0,13.07792 c -61.02221,-2.41587 -117.07259,-2.34582 -168.57142,0 z"
       id="rect4409"
       inkscape:connector-curvature="0"
       sodipodi:nodetypes="ccccc" />
    <path
       sodipodi:nodetypes="sssssssss"
       inkscape:connector-curvature="0"
       id="path4430"
       d="m 193.34907,427.91897 21.2028,0 c 3.8503,0 6.95,0.49155 6.95,1.10213 l 0,2.66653 c 0,1.6787 1.35202,5.77063 -6.95,1.10214 -5.62285,-3.16191 -12.84211,-3.83983 -21.2028,0 -3.45675,1.58759 -6.95,3.90727 -6.95,-1.10214 l 0,-2.66653 c 0,-0.61058 3.0997,-1.10213 6.95,-1.10213 z"
       style="fill:#c68734;fill-opacity:1;stroke:none" />
    <path
       sodipodi:nodetypes="sssssssss"
       inkscape:connector-curvature="0"
       id="path4439"
       d="m 186.23987,469.47011 23.97466,0 c 4.35365,0 5.97354,3.15314 7.85858,5.65644 8.05855,10.70162 0.84424,9.76677 0,13.68531 -0.66,3.06338 -3.50493,5.65644 -7.85858,5.65644 l -23.97466,0 c -4.35365,0 -6.92534,2.15409 -8.75144,4.7007 -4.77454,6.65841 -3.85639,-8.31994 0.89286,-24.04245 0.90614,-2.9998 3.50493,-5.65644 7.85858,-5.65644 z"
       style="fill:#a05a2c;fill-opacity:1;stroke:none" />
    <path
       style="fill:#af6530;fill-opacity:1;stroke:none"
       d="m 185.14584,472.44908 c 8.97727,-2.23281 17.36637,-1.55447 25.57844,0 2.51027,0.47517 4.69075,1.36669 4.69075,3.06432 0,1.69765 -2.52777,4.08276 -4.69075,3.06434 -10.00699,-4.71173 -19.47131,-6.04919 -25.57844,0 -10.65486,10.55378 -7.35829,1.15328 -4.69074,-3.06434 0.9761,-1.54329 2.23931,-2.45461 4.69074,-3.06432 z"
       id="rect4441"
       inkscape:connector-curvature="0"
       sodipodi:nodetypes="sssssss" />
    <path
       style="fill:#c1882e;fill-opacity:1;stroke:none"
       d="m 247.04168,482.88869 c 4.51218,-1.61136 8.79417,-2.64954 14.78097,0 2.07708,0.91924 7.383,2.38901 7.383,3.78807 0,1.39906 -1.87726,2.99303 -4.1,2.52538 l -12.00305,-2.52538 c -4.20103,-0.88388 -15.83265,9.61533 -16.47437,9.84899 -5.22319,1.90185 -1.88434,-9.24535 10.41345,-13.63706 z"
       id="rect4452"
       inkscape:connector-curvature="0"
       sodipodi:nodetypes="sssssss" />
    <path
       style="fill:#be6f37;fill-opacity:1;stroke:none"
       d="m 140.68075,474.80746 20.92666,0 c 1.8282,0 3.3,1.46422 3.3,3.283 0,1.81878 -1.4718,3.283 -3.3,3.283 -6.97555,0 -15.8059,-2.77621 -23.70458,2.77792 -8.67077,6.09704 -2.18283,-1.79987 -0.52208,-6.06092 0.66048,-1.69462 1.4718,-3.283 3.3,-3.283 z"
       id="rect4455"
       inkscape:connector-curvature="0"
       sodipodi:nodetypes="sssssss" />
    <path
       sodipodi:nodetypes="sssssss"
       inkscape:connector-curvature="0"
       id="path4458"
       d="m 142.74343,511.67804 c 4.7529,0.6051 8.79417,-2.64954 14.78097,0 2.07708,0.91924 7.383,2.38901 7.383,3.78807 0,1.39906 -1.87726,2.99303 -4.1,2.52538 l -12.00305,-2.52538 c -5.72664,-1.20486 -19.2429,6.26566 -19.50483,7.82868 -0.91863,5.48183 -0.21628,-13.35585 13.44391,-11.61675 z"
       style="fill:#b8822c;fill-opacity:1;stroke:none" />
    <path
       sodipodi:nodetypes="ccccc"
       inkscape:connector-curvature="0"
       id="path4460"
       d="m 194.56765,508.64681 c 8.51426,8.55238 17.0285,2.95613 25.54276,0 0.80912,-2.31153 8.41601,-6.34742 0,-6.31886 -27.05937,8.13708 -20.25464,1.41554 -25.54276,0 -6.91602,3.60334 -2.30443,4.7114 0,6.31886 z"
       style="fill:#975529;fill-opacity:1;stroke:none" />
    <path
       style="fill:#a57427;fill-opacity:1;stroke:none"
       d="m 364.25593,426.74408 c 6.753,-7.01462 15.42101,-5.20472 24.27266,-2.5486 4.41658,1.32528 8.22374,2.38447 9.49059,6.23491 l 5.33574,16.21735 c 0.70717,2.14935 -12.54261,3.44517 -12.66298,9.27922 -0.21178,10.26635 -12.59698,5.87054 -17.57332,8.30909 -7.53024,3.69004 -10.18751,-8.65722 -11.57246,-12.48022 L 354.751,432.99842 c -1.38494,-3.823 6.59121,-3.22774 9.50493,-6.25434 z"
       id="path4462"
       inkscape:connector-curvature="0"
       sodipodi:nodetypes="sssssssss" />
    <rect
       y="358.07648"
       x="284.64285"
       height="182.85715"
       width="171.42857"
       id="rect4464"
       style="fill:#784421;fill-opacity:1;stroke:none" />
    <path
       style="fill:#64381b;fill-opacity:1;stroke:none"
       d="m 359.2756,478.0236 c 7.99155,-6.5103 15.98311,-0.70123 23.97466,0 4.33699,0.38056 7.82665,2.52293 7.85857,5.65644 0.0459,4.50751 4.82623,3.41981 0,13.68531 -1.33327,2.83589 -3.50492,5.65644 -7.85857,5.65644 l -23.97466,0 c -4.35365,0 -7.85858,-2.52277 -7.85858,-5.65644 l 0,-13.68531 c 0,-3.13367 4.4832,-2.9067 7.85858,-5.65644 z"
       id="path4466"
       inkscape:connector-curvature="0"
       sodipodi:nodetypes="sssssssss" />
    <rect
       style="fill:#5aa02c;fill-opacity:1;stroke:none"
       id="rect4468"
       width="171.42857"
       height="55.577927"
       x="284.64285"
       y="358.07648" />
    <path
       style="fill:#64381b;fill-opacity:1;stroke:none"
       d="m 306.52538,424.65608 c 7.49923,-1.58336 11.24337,-7.95253 26.22472,0 4.22406,2.24225 5.24652,5.31306 8.59612,8.76453 3.57497,3.6837 3.58846,10.73929 0,21.20506 -0.65567,1.91227 -1.65353,9.74046 -8.59612,8.76453 -4.72339,-0.66398 -1.01871,-10.44525 -26.22472,0 -4.41179,1.82823 -9.69506,-4.04003 -8.59612,-8.76453 1.24235,-5.34104 4.05682,-8.49629 0,-21.20506 -1.47386,-4.61715 3.9328,-7.77994 8.59612,-8.76453 z"
       id="path4470"
       inkscape:connector-curvature="0"
       sodipodi:nodetypes="sssssssss" />
    <path
       sodipodi:nodetypes="sssssssss"
       inkscape:connector-curvature="0"
       id="path4472"
       d="m 305.70649,422.80909 c 7.49923,-1.58336 11.24337,-7.95253 26.22472,0 4.22406,2.24225 5.24652,5.31306 8.59612,8.76453 3.57497,3.6837 3.58846,10.73929 0,21.20506 -0.65567,1.91227 -1.65353,9.74046 -8.59612,8.76453 -4.72339,-0.66398 -1.01871,-10.44525 -26.22472,0 -4.41179,1.82823 -9.69506,-4.04003 -8.59612,-8.76453 1.24235,-5.34104 4.05682,-8.49629 0,-21.20506 -1.47386,-4.61715 3.9328,-7.77994 8.59612,-8.76453 z"
       style="fill:#a05a2c;fill-opacity:1;stroke:none" />
    <path
       style="fill:#64381b;fill-opacity:1;stroke:none"
       d="m 418.4567,490.37564 c 7.99155,0 -2.8309,9.10355 23.97466,0 4.1224,-1.40003 7.85858,3.27966 7.85858,7.3535 0,5.9304 4.88354,2.70417 0,17.7912 -1.25458,3.87585 -3.50493,7.3535 -7.85858,7.3535 l -23.97466,0 c -4.35365,0 -10.43042,-4.1941 -7.85858,-7.3535 3.05259,-3.74998 0.0333,-11.83702 0,-17.7912 -0.0228,-4.07378 3.50493,-7.3535 7.85858,-7.3535 z"
       id="path4474"
       inkscape:connector-curvature="0"
       sodipodi:nodetypes="sssssssss" />
    <path
       sodipodi:nodetypes="sssssssss"
       inkscape:connector-curvature="0"
       id="path4476"
       d="m 417.69909,488.60787 c 7.99155,0 -2.8309,9.10355 23.97466,0 4.1224,-1.40003 7.85858,3.27966 7.85858,7.3535 0,5.9304 4.88354,2.70417 0,17.7912 -1.25458,3.87585 -3.50493,7.3535 -7.85858,7.3535 l -23.97466,0 c -4.35365,0 -10.43042,-4.1941 -7.85858,-7.3535 3.05259,-3.74998 0.0333,-11.83702 0,-17.7912 -0.0228,-4.07378 3.50493,-7.3535 7.85858,-7.3535 z"
       style="fill:#884d25;fill-opacity:1;stroke:none" />
    <path
       style="fill:#64381b;fill-opacity:1;stroke:none"
       d="m 310.82394,505.83739 24.4061,0 c 4.432,0 8,3.20757 8,7.19187 l 0,17.40016 c 0,3.9843 -3.6595,8.08781 -8,7.19188 -7.42058,-1.53169 -13.85527,-5.17598 -24.4061,0 -3.97899,1.952 -8,-3.20758 -8,-7.19188 l 0,-17.40016 c 0,-3.9843 3.568,-7.19187 8,-7.19187 z"
       id="path4478"
       inkscape:connector-curvature="0"
       sodipodi:nodetypes="sssssssss" />
    <path
       sodipodi:nodetypes="sssssssss"
       inkscape:connector-curvature="0"
       id="path4480"
       d="m 310.69767,504.32216 24.4061,0 c 4.432,0 8,3.20757 8,7.19187 l 0,17.40016 c 0,3.9843 -3.6595,8.08781 -8,7.19188 -7.42058,-1.53169 -13.85527,-5.17598 -24.4061,0 -3.97899,1.952 -8,-3.20758 -8,-7.19188 l 0,-17.40016 c 0,-3.9843 3.568,-7.19187 8,-7.19187 z"
       style="fill:#b37b2f;fill-opacity:1;stroke:none" />
    <path
       style="fill:#64381b;fill-opacity:1;stroke:none"
       d="m 419.80594,427.35634 22.89605,0 c 4.15779,0 7.50503,4.25281 7.50503,9.53544 l 0,23.07018 c 0,1.72392 -7.59446,9.53544 -7.50503,9.53544 l -22.89605,0 c -4.15778,0 -11.16709,-5.72815 -7.50502,-9.53544 3.96465,-4.12187 0.25622,-15.14952 0,-23.07018 -0.17079,-5.27987 3.34724,-9.53544 7.50502,-9.53544 z"
       id="path4482"
       inkscape:connector-curvature="0"
       sodipodi:nodetypes="sssssssss" />
    <path
       sodipodi:nodetypes="sssssssss"
       inkscape:connector-curvature="0"
       id="path4484"
       d="m 419.17459,425.4623 22.89605,0 c 4.15779,0 7.50503,4.25281 7.50503,9.53544 l 0,23.07018 c 0,1.72392 -7.59446,9.53544 -7.50503,9.53544 l -22.89605,0 c -4.15778,0 -11.16709,-5.72815 -7.50502,-9.53544 3.96465,-4.12187 0.25622,-15.14952 0,-23.07018 -0.17079,-5.27987 3.34724,-9.53544 7.50502,-9.53544 z"
       style="fill:#a05d2c;fill-opacity:1;stroke:none" />
    <path
       style="fill:#64381b;fill-opacity:1;stroke:none"
       d="m 365.56891,506.95216 23.97466,0 c 4.35365,0 5.97354,3.15314 7.85858,5.65644 8.05855,10.70162 0.84424,9.76677 0,13.68531 -0.66,3.06338 -3.50493,5.65644 -7.85858,5.65644 l -23.97466,0 c -4.35365,0 -6.92534,2.15409 -8.75144,4.7007 -4.77454,6.65841 -3.85639,-8.31994 0.89286,-24.04245 0.90614,-2.9998 3.50493,-5.65644 7.85858,-5.65644 z"
       id="path4486"
       inkscape:connector-curvature="0"
       sodipodi:nodetypes="sssssssss" />
    <path
       sodipodi:nodetypes="sssssssss"
       inkscape:connector-curvature="0"
       id="path4488"
       d="m 364.8113,505.1844 23.97466,0 c 4.35365,0 5.97354,3.15314 7.85858,5.65644 8.05855,10.70162 0.84424,9.76677 0,13.68531 -0.66,3.06338 -3.50493,5.65644 -7.85858,5.65644 l -23.97466,0 c -4.35365,0 -6.92534,2.15409 -8.75144,4.7007 -4.77454,6.65841 -3.85639,-8.31994 0.89286,-24.04245 0.90614,-2.9998 3.50493,-5.65644 7.85858,-5.65644 z"
       style="fill:#a05a2c;fill-opacity:1;stroke:none" />
    <path
       style="fill:#64381b;fill-opacity:1;stroke:none"
       d="m 313.53816,474.87057 20.95456,0 c 3.80522,0 6.86863,2.59486 6.86863,5.81807 l 0,14.07634 c 0,3.22321 -3.06341,5.81807 -6.86863,5.81807 l -20.95456,0 c -3.80522,0 -5.20903,-3.05495 -6.86863,-5.81807 -2.96046,-4.92895 -8.37167,-10.05396 0,-14.07634 2.90526,-1.39591 3.06341,-5.81807 6.86863,-5.81807 z"
       id="path4490"
       inkscape:connector-curvature="0"
       sodipodi:nodetypes="sssssssss" />
    <path
       sodipodi:nodetypes="sssssssss"
       inkscape:connector-curvature="0"
       id="path4492"
       d="m 312.78055,473.60788 20.95456,0 c 3.80522,0 6.86863,2.59486 6.86863,5.81807 l 0,14.07634 c 0,3.22321 -3.06341,5.81807 -6.86863,5.81807 l -20.95456,0 c -3.80522,0 -5.20903,-3.05495 -6.86863,-5.81807 -2.96046,-4.92895 -8.37167,-10.05396 0,-14.07634 2.90526,-1.39591 3.06341,-5.81807 6.86863,-5.81807 z"
       style="fill:#a5602f;fill-opacity:1;stroke:none" />
    <path
       style="fill:#64381b;fill-opacity:1;stroke:none"
       d="m 365.01354,428.25931 c 6.753,-7.01462 15.42101,-5.20472 24.27266,-2.5486 4.41658,1.32528 8.22374,2.38447 9.49059,6.23491 l 5.33574,16.21735 c 0.70717,2.14935 -12.54261,3.44517 -12.66298,9.27922 -0.21178,10.26635 -12.59698,5.87054 -17.57332,8.30909 -7.53024,3.69004 -10.18751,-8.65722 -11.57246,-12.48022 l -6.79516,-18.75741 c -1.38494,-3.823 6.59121,-3.22774 9.50493,-6.25434 z"
       id="path4494"
       inkscape:connector-curvature="0"
       sodipodi:nodetypes="sssssssss" />
    <path
       sodipodi:nodetypes="sssssssss"
       inkscape:connector-curvature="0"
       id="path4496"
       d="m 364.25593,426.74408 c 6.753,-7.01462 15.42101,-5.20472 24.27266,-2.5486 4.41658,1.32528 8.22374,2.38447 9.49059,6.23491 l 5.33574,16.21735 c 0.70717,2.14935 -12.54261,3.44517 -12.66298,9.27922 -0.21178,10.26635 -12.59698,5.87054 -17.57332,8.30909 -7.53024,3.69004 -10.18751,-8.65722 -11.57246,-12.48022 L 354.751,432.99842 c -1.38494,-3.823 6.59121,-3.22774 9.50493,-6.25434 z"
       style="fill:#a57427;fill-opacity:1;stroke:none" />
    <path
       sodipodi:nodetypes="sssssssss"
       inkscape:connector-curvature="0"
       id="path4498"
       d="m 359.02306,476.0033 c 7.99155,-6.5103 15.98311,-0.70123 23.97466,0 4.33699,0.38056 7.82665,2.52293 7.85857,5.65644 0.0459,4.50751 4.82623,3.41981 0,13.68531 -1.33327,2.83589 -3.50492,5.65644 -7.85857,5.65644 l -23.97466,0 c -4.35365,0 -7.85858,-2.52277 -7.85858,-5.65644 l 0,-13.68531 c 0,-3.13367 4.4832,-2.9067 7.85858,-5.65644 z"
       style="fill:#a16b2b;fill-opacity:1;stroke:none" />
    <path
       sodipodi:nodetypes="ccccc"
       inkscape:connector-curvature="0"
       id="path4500"
       d="m 304.41891,427.3303 c 9.74767,-10.93766 19.49534,-3.78059 29.24301,0 0.92633,2.95623 9.63519,8.11774 0,8.08122 -30.97933,-10.40654 -23.18883,-1.81034 -29.24301,0 -7.91791,-4.60832 -2.63826,-6.02542 0,-8.08122 z"
       style="fill:#b56532;fill-opacity:1;stroke:none" />
    <path
       sodipodi:nodetypes="ccccc"
       inkscape:connector-curvature="0"
       id="path4502"
       d="m 331.34724,407.22908 5.23045,15.38946 -5.78205,37.01963 -5.94473,-36.81802 z"
       style="fill:#5aa02c;fill-opacity:1;stroke:none" />
    <path
       style="fill:#5aa02c;fill-opacity:1;stroke:none"
       d="m 330.90494,406.33367 11.32295,8.24648 13.88853,28.41205 -22.31435,-22.79624 z"
       id="path4504"
       inkscape:connector-curvature="0"
       sodipodi:nodetypes="ccccc" />
    <path
       sodipodi:nodetypes="ccccc"
       inkscape:connector-curvature="0"
       id="path4506"
       d="m 331.18388,407.75856 -0.004,9.44358 -10.97335,19.27951 3.93102,-21.36352 z"
       style="fill:#5aa02c;fill-opacity:1;stroke:none" />
    <path
       style="fill:#5aa02c;fill-opacity:1;stroke:none"
       d="m 333.70844,409.24475 7.92154,10.05875 2.45031,28.85221 -13.01208,-25.73004 z"
       id="path4508"
       inkscape:connector-curvature="0"
       sodipodi:nodetypes="ccccc" />
    <path
       sodipodi:nodetypes="ccccc"
       inkscape:connector-curvature="0"
       id="path4510"
       d="m 329.05174,405.25961 -4.12191,15.72268 -25.23559,27.69568 15.34131,-33.9934 z"
       style="fill:#5aa02c;fill-opacity:1;stroke:none" />
    <path
       style="fill:#b56931;fill-opacity:1;stroke:none"
       d="m 421.29558,427.48261 19.77711,0 c 3.59141,0 6.48268,1.72972 6.48268,3.87829 l 0,9.38319 c 0,0.70117 -2.34427,4.54639 -5.21999,-2.68769 -3.94334,-9.91975 -17.71877,-7.12782 -20.02965,1.01015 -0.98103,3.45481 -10.65604,3.22607 -7.49282,1.67754 3.42457,-1.67646 0.22131,-6.16167 0,-9.38319 -0.14753,-2.14745 2.89127,-3.87829 6.48267,-3.87829 z"
       id="path4514"
       inkscape:connector-curvature="0"
       sodipodi:nodetypes="sssssssss" />
    <path
       id="path4522"
       d="m 286.07144,360.57648 c 67.696,8.21824 112.38095,0 168.57142,0 l 0,13.07792 c -68.87403,-3.33778 -116.94522,-1.20112 -168.57142,0 z"
       style="fill:#78cb42;fill-opacity:1;stroke:none"
       inkscape:connector-curvature="0"
       sodipodi:nodetypes="ccccc" />
    <path
       style="fill:#c68734;fill-opacity:1;stroke:none"
       d="m 311.92051,506.84754 21.2028,0 c 3.8503,0 6.95,0.49155 6.95,1.10213 l 0,2.66653 c 0,1.6787 1.35202,5.77063 -6.95,1.10214 -5.62285,-3.16191 -12.84211,-3.83983 -21.2028,0 -3.45675,1.58759 -6.95,3.90727 -6.95,-1.10214 l 0,-2.66653 c 0,-0.61058 3.0997,-1.10213 6.95,-1.10213 z"
       id="path4524"
       inkscape:connector-curvature="0"
       sodipodi:nodetypes="sssssssss" />
    <path
       style="fill:#a05a2c;fill-opacity:1;stroke:none"
       d="m 364.8113,505.1844 23.97466,0 c 4.35365,0 5.97354,3.15314 7.85858,5.65644 8.05855,10.70162 0.84424,9.76677 0,13.68531 -0.66,3.06338 -3.50493,5.65644 -7.85858,5.65644 l -23.97466,0 c -4.35365,0 -6.92534,2.15409 -8.75144,4.7007 -4.77454,6.65841 -3.85639,-8.31994 0.89286,-24.04245 0.90614,-2.9998 3.50493,-5.65644 7.85858,-5.65644 z"
       id="path4526"
       inkscape:connector-curvature="0"
       sodipodi:nodetypes="sssssssss" />
    <path
       sodipodi:nodetypes="sssssss"
       inkscape:connector-curvature="0"
       id="path4528"
       d="m 363.71727,508.16337 c 8.97727,-2.23281 17.36637,-1.55447 25.57844,0 2.51027,0.47517 4.69075,1.36669 4.69075,3.06432 0,1.69765 -2.52777,4.08276 -4.69075,3.06434 -10.00699,-4.71173 -19.47131,-6.04919 -25.57844,0 -10.65486,10.55378 -7.35829,1.15328 -4.69074,-3.06434 0.9761,-1.54329 2.23931,-2.45461 4.69074,-3.06432 z"
       style="fill:#af6530;fill-opacity:1;stroke:none" />
    <path
       sodipodi:nodetypes="sssssss"
       inkscape:connector-curvature="0"
       id="path4530"
       d="m 371.3274,426.46012 c 4.51218,-1.61136 8.79417,-2.64954 14.78097,0 2.07708,0.91924 7.383,2.38901 7.383,3.78807 0,1.39906 -1.87726,2.99303 -4.1,2.52538 l -12.00305,-2.52538 c -4.20103,-0.88388 -15.83265,9.61533 -16.47437,9.84899 -5.22319,1.90185 -1.88434,-9.24535 10.41345,-13.63706 z"
       style="fill:#c1882e;fill-opacity:1;stroke:none" />
    <path
       sodipodi:nodetypes="sssssss"
       inkscape:connector-curvature="0"
       id="path4532"
       d="m 313.89504,474.80746 20.92666,0 c 1.8282,0 3.3,1.46422 3.3,3.283 0,1.81878 -1.4718,3.283 -3.3,3.283 -6.97555,0 -15.8059,-2.77621 -23.70458,2.77792 -8.67077,6.09704 -2.18283,-1.79987 -0.52208,-6.06092 0.66048,-1.69462 1.4718,-3.283 3.3,-3.283 z"
       style="fill:#be6f37;fill-opacity:1;stroke:none" />
    <path
       style="fill:#b8822c;fill-opacity:1;stroke:none"
       d="m 366.67201,477.39233 c 4.7529,0.6051 8.79417,-2.64954 14.78097,0 2.07708,0.91924 7.383,2.38901 7.383,3.78807 0,1.39906 -1.87726,2.99303 -4.1,2.52538 l -12.00305,-2.52538 c -5.72664,-1.20486 -19.2429,6.26566 -19.50483,7.82868 -0.91863,5.48183 -0.21628,-13.35585 13.44391,-11.61675 z"
       id="path4534"
       inkscape:connector-curvature="0"
       sodipodi:nodetypes="sssssss" />
    <path
       style="fill:#975529;fill-opacity:1;stroke:none"
       d="m 416.35337,496.50395 c 8.51426,8.55238 17.0285,2.95613 25.54276,0 0.80912,-2.31153 8.41601,-6.34742 0,-6.31886 -27.05937,8.13708 -20.25464,1.41554 -25.54276,0 -6.91602,3.60334 -2.30443,4.7114 0,6.31886 z"
       id="path4536"
       inkscape:connector-curvature="0"
       sodipodi:nodetypes="ccccc" />
    <path
       sodipodi:nodetypes="sssssssss"
       inkscape:connector-curvature="0"
       id="path4538"
       d="m 586.04164,483.17265 c 6.753,-7.01462 15.42101,-5.20472 24.27266,-2.5486 4.41658,1.32528 8.22374,2.38447 9.49059,6.23491 l 5.33574,16.21735 c 0.70717,2.14935 -12.54261,3.44517 -12.66298,9.27922 -0.21178,10.26635 -12.59698,5.87054 -17.57332,8.30909 -7.53024,3.69004 -10.18751,-8.65722 -11.57246,-12.48022 l -6.79516,-18.75741 c -1.38494,-3.823 6.59121,-3.22774 9.50493,-6.25434 z"
       style="fill:#a57427;fill-opacity:1;stroke:none" />
    <rect
       style="fill:#784421;fill-opacity:1;stroke:none"
       id="rect4540"
       width="171.42857"
       height="182.85715"
       x="457.5"
       y="358.07648" />
    <path
       sodipodi:nodetypes="sssssssss"
       inkscape:connector-curvature="0"
       id="path4542"
       d="m 481.41845,512.30931 c 7.99155,-6.5103 15.98311,-0.70123 23.97466,0 4.33699,0.38056 7.82665,2.52293 7.85857,5.65644 0.0459,4.50751 4.82623,3.41981 0,13.68531 -1.33327,2.83589 -3.50492,5.65644 -7.85857,5.65644 l -23.97466,0 c -4.35365,0 -7.85858,-2.52277 -7.85858,-5.65644 l 0,-13.68531 c 0,-3.13367 4.4832,-2.9067 7.85858,-5.65644 z"
       style="fill:#64381b;fill-opacity:1;stroke:none" />
    <rect
       y="358.07648"
       x="457.5"
       height="55.577927"
       width="171.42857"
       id="rect4544"
       style="fill:#5aa02c;fill-opacity:1;stroke:none" />
    <path
       sodipodi:nodetypes="sssssssss"
       inkscape:connector-curvature="0"
       id="path4546"
       d="m 479.38252,424.65608 c 7.49923,-1.58336 11.24337,-7.95253 26.22472,0 4.22406,2.24225 5.24652,5.31306 8.59612,8.76453 3.57497,3.6837 3.58846,10.73929 0,21.20506 -0.65567,1.91227 -1.65353,9.74046 -8.59612,8.76453 -4.72339,-0.66398 -1.01871,-10.44525 -26.22472,0 -4.41179,1.82823 -9.69506,-4.04003 -8.59612,-8.76453 1.24235,-5.34104 4.05682,-8.49629 0,-21.20506 -1.47386,-4.61715 3.9328,-7.77994 8.59612,-8.76453 z"
       style="fill:#64381b;fill-opacity:1;stroke:none" />
    <path
       style="fill:#a05a2c;fill-opacity:1;stroke:none"
       d="m 478.56363,422.80909 c 7.49923,-1.58336 11.24337,-7.95253 26.22472,0 4.22406,2.24225 5.24652,5.31306 8.59612,8.76453 3.57497,3.6837 3.58846,10.73929 0,21.20506 -0.65567,1.91227 -1.65353,9.74046 -8.59612,8.76453 -4.72339,-0.66398 -1.01871,-10.44525 -26.22472,0 -4.41179,1.82823 -9.69506,-4.04003 -8.59612,-8.76453 1.24235,-5.34104 4.05682,-8.49629 0,-21.20506 -1.47386,-4.61715 3.9328,-7.77994 8.59612,-8.76453 z"
       id="path4548"
       inkscape:connector-curvature="0"
       sodipodi:nodetypes="sssssssss" />
    <path
       sodipodi:nodetypes="sssssssss"
       inkscape:connector-curvature="0"
       id="path4550"
       d="m 542.74241,502.5185 c 7.99155,0 -2.8309,9.10355 23.97466,0 4.1224,-1.40003 7.85858,3.27966 7.85858,7.3535 0,5.9304 4.88354,2.70417 0,17.7912 -1.25458,3.87585 -3.50493,7.3535 -7.85858,7.3535 l -23.97466,0 c -4.35365,0 -10.43042,-4.1941 -7.85858,-7.3535 3.05259,-3.74998 0.0333,-11.83702 0,-17.7912 -0.0228,-4.07378 3.50493,-7.3535 7.85858,-7.3535 z"
       style="fill:#64381b;fill-opacity:1;stroke:none" />
    <path
       style="fill:#884d25;fill-opacity:1;stroke:none"
       d="m 541.9848,500.75073 c 7.99155,0 -2.8309,9.10355 23.97466,0 4.1224,-1.40003 7.85858,3.27966 7.85858,7.3535 0,5.9304 4.88354,2.70417 0,17.7912 -1.25458,3.87585 -3.50493,7.3535 -7.85858,7.3535 l -23.97466,0 c -4.35365,0 -10.43042,-4.1941 -7.85858,-7.3535 3.05259,-3.74998 0.0333,-11.83702 0,-17.7912 -0.0228,-4.07378 3.50493,-7.3535 7.85858,-7.3535 z"
       id="path4552"
       inkscape:connector-curvature="0"
       sodipodi:nodetypes="sssssssss" />
    <path
       sodipodi:nodetypes="sssssssss"
       inkscape:connector-curvature="0"
       id="path4554"
       d="m 538.32393,426.90882 24.4061,0 c 4.432,0 8,3.20757 8,7.19187 l 0,17.40016 c 0,3.9843 -3.6595,8.08781 -8,7.19188 -7.42058,-1.53169 -13.85527,-5.17598 -24.4061,0 -3.97899,1.952 -8,-3.20758 -8,-7.19188 l 0,-17.40016 c 0,-3.9843 3.568,-7.19187 8,-7.19187 z"
       style="fill:#64381b;fill-opacity:1;stroke:none" />
    <path
       style="fill:#b37b2f;fill-opacity:1;stroke:none"
       d="m 538.19766,425.39359 24.4061,0 c 4.432,0 8,3.20757 8,7.19187 l 0,17.40016 c 0,3.9843 -3.6595,8.08781 -8,7.19188 -7.42058,-1.53169 -13.85527,-5.17598 -24.4061,0 -3.97899,1.952 -8,-3.20758 -8,-7.19188 l 0,-17.40016 c 0,-3.9843 3.568,-7.19187 8,-7.19187 z"
       id="path4556"
       inkscape:connector-curvature="0"
       sodipodi:nodetypes="sssssssss" />
    <path
       sodipodi:nodetypes="sssssssss"
       inkscape:connector-curvature="0"
       id="path4558"
       d="m 592.66308,427.35634 22.89605,0 c 4.15779,0 7.50503,4.25281 7.50503,9.53544 l 0,23.07018 c 0,1.72392 -7.59446,9.53544 -7.50503,9.53544 l -22.89605,0 c -4.15778,0 -11.16709,-5.72815 -7.50502,-9.53544 3.96465,-4.12187 0.25622,-15.14952 0,-23.07018 -0.17079,-5.27987 3.34724,-9.53544 7.50502,-9.53544 z"
       style="fill:#64381b;fill-opacity:1;stroke:none" />
    <path
       style="fill:#a05d2c;fill-opacity:1;stroke:none"
       d="m 592.03173,425.4623 22.89605,0 c 4.15779,0 7.50503,4.25281 7.50503,9.53544 l 0,23.07018 c 0,1.72392 -7.59446,9.53544 -7.50503,9.53544 l -22.89605,0 c -4.15778,0 -11.16709,-5.72815 -7.50502,-9.53544 3.96465,-4.12187 0.25622,-15.14952 0,-23.07018 -0.17079,-5.27987 3.34724,-9.53544 7.50502,-9.53544 z"
       id="path4560"
       inkscape:connector-curvature="0"
       sodipodi:nodetypes="sssssssss" />
    <path
       sodipodi:nodetypes="sssssssss"
       inkscape:connector-curvature="0"
       id="path4562"
       d="m 533.06891,471.23787 23.97466,0 c 4.35365,0 5.97354,3.15314 7.85858,5.65644 8.05855,10.70162 0.84424,9.76677 0,13.68531 -0.66,3.06338 -3.50493,5.65644 -7.85858,5.65644 l -23.97466,0 c -4.35365,0 -6.92534,2.15409 -8.75144,4.7007 -4.77454,6.65841 -3.85639,-8.31994 0.89286,-24.04245 0.90614,-2.9998 3.50493,-5.65644 7.85858,-5.65644 z"
       style="fill:#64381b;fill-opacity:1;stroke:none" />
    <path
       style="fill:#a05a2c;fill-opacity:1;stroke:none"
       d="m 532.3113,469.47011 23.97466,0 c 4.35365,0 5.97354,3.15314 7.85858,5.65644 8.05855,10.70162 0.84424,9.76677 0,13.68531 -0.66,3.06338 -3.50493,5.65644 -7.85858,5.65644 l -23.97466,0 c -4.35365,0 -6.92534,2.15409 -8.75144,4.7007 -4.77454,6.65841 -3.85639,-8.31994 0.89286,-24.04245 0.90614,-2.9998 3.50493,-5.65644 7.85858,-5.65644 z"
       id="path4564"
       inkscape:connector-curvature="0"
       sodipodi:nodetypes="sssssssss" />
    <path
       sodipodi:nodetypes="sssssssss"
       inkscape:connector-curvature="0"
       id="path4566"
       d="m 486.3953,474.87057 20.95456,0 c 3.80522,0 6.86863,2.59486 6.86863,5.81807 l 0,14.07634 c 0,3.22321 -3.06341,5.81807 -6.86863,5.81807 l -20.95456,0 c -3.80522,0 -5.20903,-3.05495 -6.86863,-5.81807 -2.96046,-4.92895 -8.37167,-10.05396 0,-14.07634 2.90526,-1.39591 3.06341,-5.81807 6.86863,-5.81807 z"
       style="fill:#64381b;fill-opacity:1;stroke:none" />
    <path
       style="fill:#a5602f;fill-opacity:1;stroke:none"
       d="m 485.63769,473.60788 20.95456,0 c 3.80522,0 6.86863,2.59486 6.86863,5.81807 l 0,14.07634 c 0,3.22321 -3.06341,5.81807 -6.86863,5.81807 l -20.95456,0 c -3.80522,0 -5.20903,-3.05495 -6.86863,-5.81807 -2.96046,-4.92895 -8.37167,-10.05396 0,-14.07634 2.90526,-1.39591 3.06341,-5.81807 6.86863,-5.81807 z"
       id="path4568"
       inkscape:connector-curvature="0"
       sodipodi:nodetypes="sssssssss" />
    <path
       sodipodi:nodetypes="sssssssss"
       inkscape:connector-curvature="0"
       id="path4570"
       d="m 586.79925,484.68788 c 6.753,-7.01462 15.42101,-5.20472 24.27266,-2.5486 4.41658,1.32528 8.22374,2.38447 9.49059,6.23491 l 5.33574,16.21735 c 0.70717,2.14935 -12.54261,3.44517 -12.66298,9.27922 -0.21178,10.26635 -12.59698,5.87054 -17.57332,8.30909 -7.53024,3.69004 -10.18751,-8.65722 -11.57246,-12.48022 l -6.79516,-18.75741 c -1.38494,-3.823 6.59121,-3.22774 9.50493,-6.25434 z"
       style="fill:#64381b;fill-opacity:1;stroke:none" />
    <path
       style="fill:#a57427;fill-opacity:1;stroke:none"
       d="m 586.04164,483.17265 c 6.753,-7.01462 15.42101,-5.20472 24.27266,-2.5486 4.41658,1.32528 8.22374,2.38447 9.49059,6.23491 l 5.33574,16.21735 c 0.70717,2.14935 -12.54261,3.44517 -12.66298,9.27922 -0.21178,10.26635 -12.59698,5.87054 -17.57332,8.30909 -7.53024,3.69004 -10.18751,-8.65722 -11.57246,-12.48022 l -6.79516,-18.75741 c -1.38494,-3.823 6.59121,-3.22774 9.50493,-6.25434 z"
       id="path4572"
       inkscape:connector-curvature="0"
       sodipodi:nodetypes="sssssssss" />
    <path
       style="fill:#a16b2b;fill-opacity:1;stroke:none"
       d="m 481.16591,510.28901 c 7.99155,-6.5103 15.98311,-0.70123 23.97466,0 4.33699,0.38056 7.82665,2.52293 7.85857,5.65644 0.0459,4.50751 4.82623,3.41981 0,13.68531 -1.33327,2.83589 -3.50492,5.65644 -7.85857,5.65644 l -23.97466,0 c -4.35365,0 -7.85858,-2.52277 -7.85858,-5.65644 l 0,-13.68531 c 0,-3.13367 4.4832,-2.9067 7.85858,-5.65644 z"
       id="path4574"
       inkscape:connector-curvature="0"
       sodipodi:nodetypes="sssssssss" />
    <path
       style="fill:#b56532;fill-opacity:1;stroke:none"
       d="m 477.27605,427.3303 c 9.74767,-10.93766 19.49534,-3.78059 29.24301,0 0.92633,2.95623 9.63519,8.11774 0,8.08122 -30.97933,-10.40654 -23.18883,-1.81034 -29.24301,0 -7.91791,-4.60832 -2.63826,-6.02542 0,-8.08122 z"
       id="path4576"
       inkscape:connector-curvature="0"
       sodipodi:nodetypes="ccccc" />
    <path
       style="fill:#5aa02c;fill-opacity:1;stroke:none"
       d="m 504.20438,407.22908 5.23045,15.38946 -5.78205,37.01963 -5.94473,-36.81802 z"
       id="path4578"
       inkscape:connector-curvature="0"
       sodipodi:nodetypes="ccccc" />
    <path
       sodipodi:nodetypes="ccccc"
       inkscape:connector-curvature="0"
       id="path4580"
       d="m 503.76208,406.33367 11.32295,8.24648 13.88853,28.41205 -22.31435,-22.79624 z"
       style="fill:#5aa02c;fill-opacity:1;stroke:none" />
    <path
       style="fill:#5aa02c;fill-opacity:1;stroke:none"
       d="m 504.04102,407.75856 -0.004,9.44358 -10.97335,19.27951 3.93102,-21.36352 z"
       id="path4582"
       inkscape:connector-curvature="0"
       sodipodi:nodetypes="ccccc" />
    <path
       sodipodi:nodetypes="ccccc"
       inkscape:connector-curvature="0"
       id="path4584"
       d="m 506.56558,409.24475 7.92154,10.05875 2.45031,28.85221 -13.01208,-25.73004 z"
       style="fill:#5aa02c;fill-opacity:1;stroke:none" />
    <path
       style="fill:#5aa02c;fill-opacity:1;stroke:none"
       d="m 501.90888,405.25961 -4.12191,15.72268 -25.23559,27.69568 15.34131,-33.9934 z"
       id="path4586"
       inkscape:connector-curvature="0"
       sodipodi:nodetypes="ccccc" />
    <path
       sodipodi:nodetypes="ccccc"
       inkscape:connector-curvature="0"
       id="path4588"
       d="m 581.44513,408.42369 6.11478,11.36816 -6.75964,27.34633 -6.94983,-27.1974 z"
       style="fill:#5aa02c;fill-opacity:1;stroke:none" />
    <path
       sodipodi:nodetypes="sssssssss"
       inkscape:connector-curvature="0"
       id="path4590"
       d="m 594.15272,427.48261 19.77711,0 c 3.59141,0 6.48268,1.72972 6.48268,3.87829 l 0,9.38319 c 0,0.70117 -2.34427,4.54639 -5.21999,-2.68769 -3.94334,-9.91975 -17.71877,-7.12782 -20.02965,1.01015 -0.98103,3.45481 -10.65604,3.22607 -7.49282,1.67754 3.42457,-1.67646 0.22131,-6.16167 0,-9.38319 -0.14753,-2.14745 2.89127,-3.87829 6.48267,-3.87829 z"
       style="fill:#b56931;fill-opacity:1;stroke:none" />
    <path
       style="fill:#5aa02c;fill-opacity:1;stroke:none"
       d="m 580.92805,407.76225 13.23736,6.09166 16.23672,20.98792 L 584.315,418.0023 z"
       id="path4592"
       inkscape:connector-curvature="0"
       sodipodi:nodetypes="ccccc" />
    <path
       sodipodi:nodetypes="ccccc"
       inkscape:connector-curvature="0"
       id="path4594"
       d="m 581.25415,408.81481 -0.005,6.97596 -12.82866,14.24173 4.59565,-15.78119 z"
       style="fill:#5aa02c;fill-opacity:1;stroke:none" />
    <path
       style="fill:#5aa02c;fill-opacity:1;stroke:none"
       d="m 584.20554,409.91266 9.26087,7.43038 2.86459,21.31307 -15.21208,-19.00673 z"
       id="path4596"
       inkscape:connector-curvature="0"
       sodipodi:nodetypes="ccccc" />
    <path
       inkscape:connector-curvature="0"
       style="fill:#78cb42;fill-opacity:1;stroke:none"
       d="m 458.92858,360.57648 c 56.19047,0 107.88221,2.99916 168.57142,0 l 0,13.07792 c -57.3618,-5.27098 -113.08955,-3.18873 -168.57142,0 z"
       id="path4598"
       sodipodi:nodetypes="ccccc" />
    <path
       sodipodi:nodetypes="sssssssss"
       inkscape:connector-curvature="0"
       id="path4600"
       d="m 539.4205,427.91897 21.2028,0 c 3.8503,0 6.95,0.49155 6.95,1.10213 l 0,2.66653 c 0,1.6787 1.35202,5.77063 -6.95,1.10214 -5.62285,-3.16191 -12.84211,-3.83983 -21.2028,0 -3.45675,1.58759 -6.95,3.90727 -6.95,-1.10214 l 0,-2.66653 c 0,-0.61058 3.0997,-1.10213 6.95,-1.10213 z"
       style="fill:#c68734;fill-opacity:1;stroke:none" />
    <path
       sodipodi:nodetypes="sssssssss"
       inkscape:connector-curvature="0"
       id="path4602"
       d="m 532.3113,469.47011 23.97466,0 c 4.35365,0 5.97354,3.15314 7.85858,5.65644 8.05855,10.70162 0.84424,9.76677 0,13.68531 -0.66,3.06338 -3.50493,5.65644 -7.85858,5.65644 l -23.97466,0 c -4.35365,0 -6.92534,2.15409 -8.75144,4.7007 -4.77454,6.65841 -3.85639,-8.31994 0.89286,-24.04245 0.90614,-2.9998 3.50493,-5.65644 7.85858,-5.65644 z"
       style="fill:#a05a2c;fill-opacity:1;stroke:none" />
    <path
       style="fill:#af6530;fill-opacity:1;stroke:none"
       d="m 531.21727,472.44908 c 8.97727,-2.23281 17.36637,-1.55447 25.57844,0 2.51027,0.47517 4.69075,1.36669 4.69075,3.06432 0,1.69765 -2.52777,4.08276 -4.69075,3.06434 -10.00699,-4.71173 -19.47131,-6.04919 -25.57844,0 -10.65486,10.55378 -7.35829,1.15328 -4.69074,-3.06434 0.9761,-1.54329 2.23931,-2.45461 4.69074,-3.06432 z"
       id="path4604"
       inkscape:connector-curvature="0"
       sodipodi:nodetypes="sssssss" />
    <path
       style="fill:#c1882e;fill-opacity:1;stroke:none"
       d="m 593.11311,482.88869 c 4.51218,-1.61136 8.79417,-2.64954 14.78097,0 2.07708,0.91924 7.383,2.38901 7.383,3.78807 0,1.39906 -1.87726,2.99303 -4.1,2.52538 l -12.00305,-2.52538 c -4.20103,-0.88388 -15.83265,9.61533 -16.47437,9.84899 -5.22319,1.90185 -1.88434,-9.24535 10.41345,-13.63706 z"
       id="path4606"
       inkscape:connector-curvature="0"
       sodipodi:nodetypes="sssssss" />
    <path
       style="fill:#be6f37;fill-opacity:1;stroke:none"
       d="m 486.75218,474.80746 20.92666,0 c 1.8282,0 3.3,1.46422 3.3,3.283 0,1.81878 -1.4718,3.283 -3.3,3.283 -6.97555,0 -15.8059,-2.77621 -23.70458,2.77792 -8.67077,6.09704 -2.18283,-1.79987 -0.52208,-6.06092 0.66048,-1.69462 1.4718,-3.283 3.3,-3.283 z"
       id="path4608"
       inkscape:connector-curvature="0"
       sodipodi:nodetypes="sssssss" />
    <path
       sodipodi:nodetypes="sssssss"
       inkscape:connector-curvature="0"
       id="path4610"
       d="m 488.81486,511.67804 c 4.7529,0.6051 8.79417,-2.64954 14.78097,0 2.07708,0.91924 7.383,2.38901 7.383,3.78807 0,1.39906 -1.87726,2.99303 -4.1,2.52538 l -12.00305,-2.52538 c -5.72664,-1.20486 -19.2429,6.26566 -19.50483,7.82868 -0.91863,5.48183 -0.21628,-13.35585 13.44391,-11.61675 z"
       style="fill:#b8822c;fill-opacity:1;stroke:none" />
    <path
       sodipodi:nodetypes="ccccc"
       inkscape:connector-curvature="0"
       id="path4612"
       d="m 540.63908,508.64681 c 8.51426,8.55238 17.0285,2.95613 25.54276,0 0.80912,-2.31153 8.41601,-6.34742 0,-6.31886 -27.05937,8.13708 -20.25464,1.41554 -25.54276,0 -6.91602,3.60334 -2.30443,4.7114 0,6.31886 z"
       style="fill:#975529;fill-opacity:1;stroke:none" />
    <path
       style="fill:#75ca3d;fill-opacity:1;stroke:none"
       d="m 236.00295,408.22571 4.39815,7.96553 -4.86197,19.16123 -4.99877,-19.05688 z"
       id="path4624"
       inkscape:connector-curvature="0"
       sodipodi:nodetypes="ccccc" />
    <path
       sodipodi:nodetypes="ccccc"
       inkscape:connector-curvature="0"
       id="path4626"
       d="m 235.63103,407.76225 9.52117,4.26835 11.6785,14.70597 -18.76356,-11.79925 z"
       style="fill:#75ca3d;fill-opacity:1;stroke:none" />
    <path
       style="fill:#75ca3d;fill-opacity:1;stroke:none"
       d="m 235.86558,408.49977 -0.004,4.88796 -9.22721,9.979 3.30549,-11.05768 z"
       id="path4628"
       inkscape:connector-curvature="0"
       sodipodi:nodetypes="ccccc" />
    <path
       sodipodi:nodetypes="ccccc"
       inkscape:connector-curvature="0"
       id="path4630"
       d="m 237.98842,409.26902 6.66102,5.20637 2.06039,14.9338 -10.94151,-13.31778 z"
       style="fill:#75ca3d;fill-opacity:1;stroke:none" />
    <path
       style="fill:#5aa02c;fill-opacity:1;stroke:none"
       d="m 395.44952,481.92934 3.54015,-12.41343 23.90906,-14.89535 -13.97556,24.34508 z"
       id="path4632"
       inkscape:connector-curvature="0"
       sodipodi:nodetypes="ccccc" />
    <path
       style="fill:#5aa02c;fill-opacity:1;stroke:none"
       d="m 395.8591,481.78203 4.86634,-4.99827 19.12568,-1.2688 -14.29573,8.1116 z"
       id="path4634"
       inkscape:connector-curvature="0"
       sodipodi:nodetypes="ccccc" />
    <path
       sodipodi:nodetypes="ccccc"
       inkscape:connector-curvature="0"
       id="path4636"
       d="m 394.50823,478.93753 -1.46052,-11.78308 12.80286,-17.2783 -2.34202,24.23176 z"
       style="fill:#5aa02c;fill-opacity:1;stroke:none" />
    <path
       sodipodi:nodetypes="ccccc"
       inkscape:connector-curvature="0"
       id="path4638"
       d="m 394.86035,481.63265 2.39908,-8.77712 16.84282,-10.34945 -9.69993,17.1483 z"
       style="fill:#67b732;fill-opacity:1;stroke:none" />
    <path
       style="fill:#67b732;fill-opacity:1;stroke:none"
       d="m 394.80395,482.22421 -3.85132,-9.69736 1.87765,-18.68494 5.22853,21.53963 z"
       id="path4640"
       inkscape:connector-curvature="0"
       sodipodi:nodetypes="ccccc" />
    <path
       sodipodi:nodetypes="ccccc"
       inkscape:connector-curvature="0"
       id="path4642"
       d="m 395.14988,481.53191 3.41016,-3.50186 13.57199,-0.7229 -10.07804,5.62419 z"
       style="fill:#6cc034;fill-opacity:1;stroke:none" />
    <path
       style="fill:#67b732;fill-opacity:1;stroke:none"
       d="m 394.16402,479.50058 -1.14672,-8.37619 8.93265,-12.14377 -1.43841,17.17588 z"
       id="path4644"
       inkscape:connector-curvature="0"
       sodipodi:nodetypes="ccccc" />
    <path
       style="fill:#65b331;fill-opacity:1;stroke:none"
       d="m 326.1946,407.75961 -3.16917,12.61879 -19.40262,22.22814 11.79531,-27.28259 z"
       id="path4646"
       inkscape:connector-curvature="0"
       sodipodi:nodetypes="ccccc" />
    <path
       style="fill:#64b130;fill-opacity:1;stroke:none"
       d="m 329.40732,405.08622 4.16583,13.3969 -3.86876,32.22648 -4.99813,-32.05098 z"
       id="path4648"
       inkscape:connector-curvature="0"
       sodipodi:nodetypes="ccccc" />
    <path
       sodipodi:nodetypes="ccccc"
       inkscape:connector-curvature="0"
       id="path4650"
       d="m 331.66073,406.88311 6.91087,5.56939 10.71761,21.41883 -14.42092,-16.19356 z"
       style="fill:#63b131;fill-opacity:1;stroke:none" />
  </g>
</svg>
