<?xml version="1.0" encoding="UTF-8" standalone="no"?>
<!-- Created with Inkscape (http://www.inkscape.org/) -->

<svg
   xmlns:dc="http://purl.org/dc/elements/1.1/"
   xmlns:cc="http://creativecommons.org/ns#"
   xmlns:rdf="http://www.w3.org/1999/02/22-rdf-syntax-ns#"
   xmlns:svg="http://www.w3.org/2000/svg"
   xmlns="http://www.w3.org/2000/svg"
   xmlns:sodipodi="http://sodipodi.sourceforge.net/DTD/sodipodi-0.dtd"
   xmlns:inkscape="http://www.inkscape.org/namespaces/inkscape"
   width="744.09448819"
   height="1052.3622047"
   id="svg4946"
   version="1.1"
   inkscape:version="0.48.4 r9939"
   sodipodi:docname="wood.svg">
  <defs
     id="defs4948" />
  <sodipodi:namedview
     id="base"
     pagecolor="#ffffff"
     bordercolor="#666666"
     borderopacity="1.0"
     inkscape:pageopacity="0.0"
     inkscape:pageshadow="2"
     inkscape:zoom="1.4"
     inkscape:cx="300.18641"
     inkscape:cy="892.36103"
     inkscape:document-units="px"
     inkscape:current-layer="layer1"
     showgrid="false"
     inkscape:window-width="1680"
     inkscape:window-height="988"
     inkscape:window-x="-8"
     inkscape:window-y="-8"
     inkscape:window-maximized="1" />
  <metadata
     id="metadata4951">
    <rdf:RDF>
      <cc:Work
         rdf:about="">
        <dc:format>image/svg+xml</dc:format>
        <dc:type
           rdf:resource="http://purl.org/dc/dcmitype/StillImage" />
        <dc:title></dc:title>
      </cc:Work>
    </rdf:RDF>
  </metadata>
  <g
     inkscape:label="Layer 1"
     inkscape:groupmode="layer"
     id="layer1">
    <g
       id="g3012">
      <path
         sodipodi:nodetypes="sssssssss"
         inkscape:connector-curvature="0"
         id="rect2997"
         d="m 37.939322,36.801751 c 51.517316,-1.640686 103.378188,-1.61342 155.565748,0 1.0188,0.0315 1.85312,0.796903 1.83993,1.786593 -0.33623,25.233497 -0.33401,49.8097 0,73.741536 0.0138,0.98969 -0.82122,1.75211 -1.83993,1.78659 -51.55567,1.74533 -103.341336,2.15076 -155.565748,0 -1.018405,-0.0419 -1.824095,-0.79693 -1.839929,-1.78659 -0.395323,-24.708465 -1.478816,-49.639673 0,-73.741536 0.06062,-0.988021 0.821156,-1.754148 1.839929,-1.786593 z"
         style="fill:#784421;fill-opacity:1;fill-rule:nonzero;stroke:none" />
      <path
         sodipodi:nodetypes="sssssssss"
         inkscape:connector-curvature="0"
         id="rect4954"
         d="m 41.295557,39.974547 c 48.886839,-4.789672 100.809453,-1.920396 150.361363,-1.70843 0.92922,0.004 1.6524,0.726714 1.6773,1.628679 0.64292,23.286135 0.9747,47.321133 0,70.640504 -0.0377,0.90155 -0.74824,1.61142 -1.6773,1.62868 -48.70306,0.90483 -101.490799,3.0763 -151.869447,-0.48812 -0.926767,-0.0656 -1.633414,-0.7274 -1.677301,-1.62869 -1.118345,-22.967548 -2.346723,-46.714999 1.508085,-68.443944 0.157747,-0.889192 0.75277,-1.538098 1.6773,-1.628679 z"
         style="fill:#e5993e;fill-opacity:1;fill-rule:nonzero;stroke:none" />
      <path
         sodipodi:nodetypes="sssssssss"
         inkscape:connector-curvature="0"
         id="rect3869"
         d="m 156.09314,42.462167 35.90839,-3.788072 c 0.65497,-0.06909 1.19005,0.4866 1.19005,1.091031 l 0,70.296414 c 0,0.60443 -0.53076,1.09103 -1.19005,1.09103 l -51.05856,0 c -0.65929,0 -1.19006,-0.4866 -1.19006,-1.09103 0,-23.432138 -19.41397,-28.150622 5.23369,-48.830672 3.19058,-2.676979 10.45156,-18.699606 11.10654,-18.768701 z"
         style="fill:#d9883b;fill-opacity:1;fill-rule:nonzero;stroke:none" />
      <path
         sodipodi:nodetypes="cccc"
         inkscape:connector-curvature="0"
         id="path3769"
         d="m 76.130863,67.677015 83.502607,-1.195742 -53.50181,3.831686 z"
         inkscape:transform-center-y="-1.1470088"
         inkscape:transform-center-x="4.614721"
         style="fill:#784421;fill-opacity:1;fill-rule:nonzero;stroke:none" />
      <path
         sodipodi:nodetypes="csssscsccc"
         inkscape:connector-curvature="0"
         id="rect3772"
         d="m 189.15158,106.61998 c 1.50653,-19.716257 -0.27974,-39.566591 3.11126,-58.488818 0.17474,-0.975109 1.84847,0.796856 1.83992,1.786594 l -0.5027,58.174354 c -0.009,0.98974 0.0769,4.49512 -3.59935,4.47126 0,0 -109.89041,2.52462 -150.396128,-0.97624 -1.261777,-1.99549 7.284348,-2.55831 8.303282,-2.53104 l 24.542735,0.6567 c 43.987341,2.85092 78.507381,-2.9753 116.700981,-3.09283 z"
         style="fill:#cc8146;fill-opacity:1;fill-rule:nonzero;stroke:none" />
      <path
         style="fill:#ebca91;fill-opacity:1;fill-rule:nonzero;stroke:none"
         d="m 42.296234,44.661748 c -1.506523,19.716258 0.279745,39.566591 -3.111251,58.488822 -0.174742,0.97511 -1.848474,-0.79686 -1.839924,-1.7866 l 0.502699,-58.174352 c 0.009,-0.989745 -0.07694,-4.495127 3.599348,-4.471265 0,0 109.890404,-2.524616 150.396124,0.976243 1.26178,1.995493 -7.28435,2.558306 -8.30328,2.531043 L 158.99721,41.568937 C 115.00988,38.718014 80.48984,44.544239 42.296234,44.661768 z"
         id="path3775"
         inkscape:connector-curvature="0"
         sodipodi:nodetypes="csssscsccc" />
      <path
         style="fill:#784421;fill-opacity:1;fill-rule:nonzero;stroke:none"
         inkscape:transform-center-x="4.6147208"
         inkscape:transform-center-y="-1.1470088"
         d="m 35.513104,91.459509 54.094957,0.390658 -53.501806,3.831686 z"
         id="path3777"
         inkscape:connector-curvature="0"
         sodipodi:nodetypes="cccc" />
      <path
         sodipodi:nodetypes="cccc"
         inkscape:connector-curvature="0"
         id="path3779"
         d="m 36.224023,55.218232 37.388386,0.183085 -36.978423,1.795751 z"
         inkscape:transform-center-y="-0.53755521"
         inkscape:transform-center-x="3.1895198"
         style="fill:#784421;fill-opacity:1;fill-rule:nonzero;stroke:none" />
      <path
         style="fill:#784421;fill-opacity:1;fill-rule:nonzero;stroke:none"
         inkscape:transform-center-x="-3.1895199"
         inkscape:transform-center-y="-0.5375553"
         d="m 194.64619,54.355345 -37.3884,0.183085 36.97843,1.79575 z"
         id="path3781"
         inkscape:connector-curvature="0"
         sodipodi:nodetypes="cccc" />
      <path
         sodipodi:nodetypes="cccc"
         inkscape:connector-curvature="0"
         id="path3783"
         d="m 195.00164,85.246719 -48.9408,0.230986 48.40416,2.265582 z"
         inkscape:transform-center-y="-0.67819847"
         inkscape:transform-center-x="-4.1750324"
         style="fill:#784421;fill-opacity:1;fill-rule:nonzero;stroke:none" />
    </g>
    <g
       id="g3024"
       transform="matrix(1.0002789,0,0,1.000047,-0.0580758,-0.00543408)">
      <path
         id="path3785"
         d="m 288.3125,35.59375 c -25.92833,-0.0034 -51.77259,0.398407 -77.53125,1.21875 -1.01878,0.03245 -1.7519,0.793229 -1.8125,1.78125 -0.38273,6.237715 -0.59446,12.543995 -0.6875,18.875 l 10.5,0.09375 -10.5,0.84375 c -0.14151,10.968078 0.0457,22.034032 0.28125,33.125 l 14.875,0.125 -14.875,1.21875 c 0.13969,6.490442 0.30259,12.98997 0.40625,19.46875 0.0158,0.98966 0.79409,1.73935 1.8125,1.78125 52.22441,2.15076 104.03808,1.74533 155.59375,0 1.01871,-0.0345 1.8263,-0.79156 1.8125,-1.78125 -0.11172,-8.00452 -0.18152,-16.099568 -0.21875,-24.25 L 356.75,87.1875 367.96875,87.09375 C 367.92724,77.188988 367.93351,67.176331 368,57.0625 l -13.75,-1.125 13.78125,-0.125 c 0.0401,-5.707109 0.0793,-11.440483 0.15625,-17.21875 0.0132,-0.98969 -0.7937,-1.74975 -1.8125,-1.78125 -26.09378,-0.80671 -52.13417,-1.215342 -78.0625,-1.21875 z"
         style="fill:#784421;fill-opacity:1;fill-rule:nonzero;stroke:none"
         inkscape:connector-curvature="0" />
      <path
         id="path3787"
         d="m 279.59375,37.21875 c -22.09738,0.02743 -44.04951,0.654519 -65.4375,2.75 -0.92453,0.09058 -1.52975,0.735808 -1.6875,1.625 C 211.54656,46.79196 210.90912,52.107625 210.5,57.5 l 8.28125,0.0625 -8.3125,0.6875 c -0.78445,10.892478 -0.7018,22.092327 -0.3125,33.28125 l 13.28125,0.125 -13.25,1.0625 c 0.2122,5.79565 0.50166,11.60186 0.78125,17.34375 0.0439,0.90129 0.76073,1.5594 1.6875,1.625 50.37864,3.56442 103.14069,1.37358 151.84375,0.46875 0.92906,-0.0173 1.6498,-0.72345 1.6875,-1.625 C 366.49896,103.07969 366.67287,95.547765 366.75,88 l -10,-0.8125 10,-0.09375 c 0.092,-10.053049 -0.007,-20.135737 -0.1875,-30.15625 l -12.3125,-1 12.3125,-0.09375 c -0.10021,-5.336051 -0.22925,-10.658508 -0.375,-15.9375 -0.0249,-0.901965 -0.75828,-1.621 -1.6875,-1.625 -27.87295,-0.119231 -56.49533,-1.097762 -84.90625,-1.0625 z"
         style="fill:#e5993e;fill-opacity:1;fill-rule:nonzero;stroke:none"
         inkscape:connector-curvature="0" />
      <path
         id="path3872"
         d="m 365,38.15625 -35.90625,3.8125 c -0.65498,0.06909 -7.93442,16.073021 -11.125,18.75 C 293.32109,81.3988 312.75,86.130356 312.75,109.5625 c 0,0.60443 0.52821,1.09375 1.1875,1.09375 l 51.0625,0 c 0.65929,0 1.1875,-0.48932 1.1875,-1.09375 l 0,-21.21875 -17.8125,-1.78125 17.8125,0.34375 0,-29.8125 -21.5,-2.125 21.5,0.4375 0,-16.15625 c 0,-0.604431 -0.53253,-1.16284 -1.1875,-1.09375 z"
         style="fill:#d9883b;fill-opacity:1;fill-rule:nonzero;stroke:none"
         inkscape:connector-curvature="0" />
      <path
         style="fill:#784421;fill-opacity:1;fill-rule:nonzero;stroke:none"
         inkscape:transform-center-x="5.0193347"
         inkscape:transform-center-y="-1.7350143"
         d="m 248.98801,68.290003 90.82403,-1.80873 -58.1928,5.795972 z"
         id="path3789"
         inkscape:connector-curvature="0"
         sodipodi:nodetypes="cccc" />
      <path
         id="path3791"
         d="m 365.34375,47.84375 c -0.11719,0.01294 -0.18599,0.09842 -0.21875,0.28125 -0.45772,2.554154 -0.80291,5.133167 -1.09375,7.71875 l 2.875,0 0.0625,-5.9375 c 0.007,-0.804162 -1.11717,-2.11859 -1.625,-2.0625 z m -1.40625,8.875 c -1.05859,9.97963 -1.08543,20.160997 -1.21875,30.40625 l 3.9375,-0.03125 0.25,-30.125 -2.96875,-0.25 z m -1.21875,30.96875 c -0.0853,6.30024 -0.23678,12.62993 -0.71875,18.9375 -38.1936,0.11753 -72.70016,5.94467 -116.6875,3.09375 L 220.75,109.0625 c -1.01894,-0.0273 -9.54303,0.53576 -8.28125,2.53125 40.50571,3.50086 150.375,0.96875 150.375,0.96875 3.67625,0.0239 3.616,-3.47901 3.625,-4.46875 L 366.65625,88 l -3.9375,-0.3125 z"
         style="fill:#cc8146;fill-opacity:1;fill-rule:nonzero;stroke:none"
         inkscape:connector-curvature="0" />
      <path
         id="path3793"
         d="m 286.71875,37.84375 c -37.63291,0.07588 -72.40625,0.875 -72.40625,0.875 -3.67625,-0.02386 -3.58475,3.479005 -3.59375,4.46875 l -0.125,14.3125 3.96875,0.03125 c 0.1039,-4.287987 0.26623,-8.588656 0.59375,-12.875 38.1936,-0.117529 72.70017,-5.944673 116.6875,-3.09375 l 24.5625,0.65625 c 1.01893,0.02726 9.54303,-0.535757 8.28125,-2.53125 -17.72125,-1.531626 -48.69871,-1.902765 -77.96875,-1.84375 z m -72.15625,20.0625 -3.96875,0.3125 -0.3125,33.3125 3.25,0.03125 c 0.94372,-11.053774 0.76721,-22.333535 1.03125,-33.65625 z m -1.09375,34.5625 -3.1875,0.25 -0.0937,8.65625 c -0.009,0.98974 1.669,2.75636 1.84375,1.78125 0.63216,-3.527572 1.11032,-7.102299 1.4375,-10.6875 z"
         style="fill:#ebca91;fill-opacity:1;fill-rule:nonzero;stroke:none"
         inkscape:connector-curvature="0" />
      <path
         id="path3795"
         d="m 208.375,88.78125 0.25,2.75 14.8125,0.125 -14.6875,1.1875 0.28125,2.84375 60.9375,-6.28125 -61.59375,-0.625 z"
         style="fill:#784421;fill-opacity:1;fill-rule:nonzero;stroke:none"
         inkscape:connector-curvature="0" />
      <path
         id="path3797"
         d="m 209.09375,55.21875 0.28125,2.25 9.40625,0.09375 -9.3125,0.75 0.0937,0.84375 43.875,-3.5625 -44.34375,-0.375 z"
         style="fill:#784421;fill-opacity:1;fill-rule:nonzero;stroke:none"
         inkscape:connector-curvature="0" />
      <path
         id="path3799"
         d="M 367.5,54.34375 325.84375,54.75 367.03125,58.65625 367.21875,57 354.25,55.9375 367.34375,55.8125 367.5,54.34375 z"
         style="fill:#784421;fill-opacity:1;fill-rule:nonzero;stroke:none"
         inkscape:connector-curvature="0" />
      <path
         id="path3801"
         d="m 367.84375,85.25 -56.4375,0.4375 55.84375,4.375 0.25,-2 -10.75,-0.875 10.875,-0.09375 0.21875,-1.84375 z"
         style="fill:#784421;fill-opacity:1;fill-rule:nonzero;stroke:none"
         inkscape:connector-curvature="0" />
    </g>
    <g
       id="g3036"
       transform="matrix(1.0003281,0,0,1.000047,-0.12384069,-0.00543613)">
      <path
         id="path3882"
         d="m 457.5,35.59375 c -25.92833,-0.0034 -51.77259,0.398407 -77.53125,1.21875 -1.01878,0.03245 -1.7519,0.793229 -1.8125,1.78125 -0.35503,5.786275 -0.55375,11.63072 -0.65625,17.5 l 32.71875,-1.375 -32.75,4.25 c -0.11962,10.103452 0.0396,20.289591 0.25,30.5 l 48.46875,0.3125 -48.40625,3.90625 c 0.13558,6.220151 0.27567,12.44795 0.375,18.65625 0.0158,0.98966 0.79409,1.73935 1.8125,1.78125 52.22441,2.15076 104.03808,1.74533 155.59375,0 1.01871,-0.0345 1.8263,-0.79156 1.8125,-1.78125 -0.10656,-7.6351 -0.18035,-15.355667 -0.21875,-23.125 l -43.125,-3.46875 43.125,-0.28125 c -0.0343,-9.377092 -0.0315,-18.842541 0.0312,-28.40625 l -13.75,-1.125 0.28125,0 -18.5625,-1.5 32.0625,-0.21875 c 0.0365,-5.183465 0.0864,-10.381519 0.15625,-15.625 0.0132,-0.98969 -0.7937,-1.74975 -1.8125,-1.78125 C 509.46872,36.00579 483.42833,35.597158 457.5,35.59375 z m 24.90625,32.3125 c -11.33922,0.758418 -24.45822,2.285759 -33.25,3.46875 C 445.25282,69.934042 437.55164,68.956318 430.5,68.65625 l 51.90625,-0.75 z"
         style="fill:#784421;fill-opacity:1;fill-rule:nonzero;stroke:none"
         inkscape:connector-curvature="0" />
      <path
         id="path3884"
         d="m 448.78125,37.21875 c -22.09738,0.02743 -44.04951,0.654519 -65.4375,2.75 -0.92453,0.09058 -1.52975,0.735808 -1.6875,1.625 C 380.81983,46.308485 380.22253,51.122421 379.8125,56 L 410.21875,54.71875 379.625,58.6875 c -0.70418,10.083959 -0.66698,20.430596 -0.34375,30.78125 l 46.90625,0.3125 -46.78125,3.78125 c 0.20884,5.515089 0.48398,11.03687 0.75,16.5 0.0439,0.90129 0.76073,1.5594 1.6875,1.625 50.37864,3.56442 103.14069,1.37358 151.84375,0.46875 0.92906,-0.0173 1.6498,-0.72345 1.6875,-1.625 0.29597,-7.08097 0.44871,-14.235507 0.53125,-21.40625 l -41.875,-3.375 41.90625,-0.28125 C 536.0053,75.9552 535.9208,66.417497 535.75,56.9375 l -12.3125,-1 0.28125,0 -18.5625,-1.5 30.5625,-0.1875 c -0.0953,-4.79978 -0.21257,-9.592609 -0.34375,-14.34375 -0.0249,-0.901965 -0.75828,-1.621 -1.6875,-1.625 -27.87295,-0.119231 -56.49533,-1.097762 -84.90625,-1.0625 z m 33.625,30.6875 c -11.33922,0.758418 -24.45822,2.285759 -33.25,3.46875 C 445.25282,69.934042 437.55164,68.956318 430.5,68.65625 l 51.90625,-0.75 z"
         style="fill:#e5993e;fill-opacity:1;fill-rule:nonzero;stroke:none"
         inkscape:connector-curvature="0" />
      <path
         id="path3886"
         d="m 534.1875,38.15625 -35.90625,3.8125 c -0.65498,0.06909 -7.93442,16.073021 -11.125,18.75 -3.15633,2.648243 -5.56217,5.020817 -7.40625,7.21875 l 2.65625,-0.03125 c -0.91379,0.06112 -1.84753,0.116908 -2.78125,0.1875 -12.32177,14.852289 2.3125,21.108928 2.3125,41.46875 0,0.60443 0.52821,1.09375 1.1875,1.09375 l 51.0625,0 c 0.65929,0 1.1875,-0.48932 1.1875,-1.09375 l 0,-20.46875 -41.34375,-3.34375 41.34375,-0.28125 0,-28.375 -11.96875,-1.1875 -18.25,-1.46875 30.21875,-0.1875 0,-15 c 0,-0.604431 -0.53253,-1.16284 -1.1875,-1.09375 z"
         style="fill:#c87137;fill-opacity:0.42021275;fill-rule:nonzero;stroke:none"
         inkscape:connector-curvature="0" />
      <path
         id="path3888"
         d="M 512.75,65.0625 412.46875,67.75 448.5,73.71875 512.75,65.0625 z m -30.34375,2.84375 c -11.33922,0.758418 -24.45822,2.285759 -33.25,3.46875 C 445.25282,69.934042 437.55164,68.956318 430.5,68.65625 l 51.90625,-0.75 z"
         style="fill:#784421;fill-opacity:1;fill-rule:nonzero;stroke:none"
         inkscape:connector-curvature="0" />
      <path
         id="path3890"
         d="m 534.53125,47.84375 c -0.11719,0.01294 -0.18599,0.09842 -0.21875,0.28125 -0.36363,2.029113 -0.65549,4.073679 -0.90625,6.125 l 2.71875,0 0.0312,-4.34375 c 0.007,-0.804162 -1.11717,-2.11859 -1.625,-2.0625 z m -1.40625,8.875 c -1.00242,9.450074 -1.06892,19.086436 -1.1875,28.78125 l 3.90625,-0.03125 0.25,-28.5 -2.96875,-0.25 z m -1.21875,32.09375 c -0.0885,5.927923 -0.2655,11.88081 -0.71875,17.8125 -38.1936,0.11753 -72.70016,5.94467 -116.6875,3.09375 l -24.5625,-0.65625 c -1.01894,-0.0273 -9.54303,0.53576 -8.28125,2.53125 40.50571,3.50086 150.375,0.96875 150.375,0.96875 3.67625,0.0239 3.616,-3.47901 3.625,-4.46875 l 0.1875,-18.96875 -3.9375,-0.3125 z"
         style="fill:#b36531;fill-opacity:1;fill-rule:nonzero;stroke:none"
         inkscape:connector-curvature="0" />
      <path
         id="path3892"
         d="m 455.90625,37.84375 c -37.63291,0.07588 -72.40625,0.875 -72.40625,0.875 -3.67625,-0.02386 -3.58475,3.479005 -3.59375,4.46875 L 379.78125,56 383.8125,55.84375 c 0.10518,-3.728397 0.24666,-7.463017 0.53125,-11.1875 38.1936,-0.117529 72.70017,-5.944673 116.6875,-3.09375 l 24.5625,0.65625 c 1.01893,0.02726 9.54303,-0.535757 8.28125,-2.53125 -17.72125,-1.531626 -48.69871,-1.902765 -77.96875,-1.84375 z M 383.75,58.15625 379.78125,58.6875 379.5,89.46875 382.875,89.5 c 0.75449,-10.312217 0.63513,-20.807331 0.875,-31.34375 z m -1.15625,35.15625 -3.125,0.25 -0.0937,7.8125 c -0.009,0.98974 1.669,2.75636 1.84375,1.78125 0.58263,-3.251182 1.05163,-6.541174 1.375,-9.84375 z"
         style="fill:#ebca91;fill-opacity:1;fill-rule:nonzero;stroke:none"
         inkscape:connector-curvature="0" />
      <path
         id="path3894"
         d="m 377.5625,87.53125 0.15625,1.9375 48.46875,0.3125 -48.15625,3.875 0.25,3.28125 65.875,-8.5625 -66.59375,-0.84375 z"
         style="fill:#784421;fill-opacity:1;fill-rule:nonzero;stroke:none"
         inkscape:connector-curvature="0" />
      <path
         id="path3896"
         d="m 378.28125,53.78125 0.21875,2.28125 31.71875,-1.34375 -21.5625,2.8125 0.5625,0 -4.75,0.53125 -5.75,0.75 0.0937,1.25 49.53125,-5.6875 -50.0625,-0.59375 z"
         style="fill:#784421;fill-opacity:1;fill-rule:nonzero;stroke:none"
         inkscape:connector-curvature="0" />
      <path
         id="path3898"
         d="M 536.6875,52.5625 484.5,53.28125 536.125,60.25 l 0.21875,-2.9375 -9.78125,-1.15625 -21.40625,-1.71875 31.40625,-0.21875 0.125,-1.65625 z"
         style="fill:#784421;fill-opacity:1;fill-rule:nonzero;stroke:none"
         inkscape:connector-curvature="0" />
      <path
         id="path3900"
         d="m 537.03125,83.8125 -65.875,0.75 65.1875,7.28125 0.25,-2.65625 -42.5625,-3.4375 42.875,-0.28125 0.125,-1.65625 z"
         style="fill:#784421;fill-opacity:1;fill-rule:nonzero;stroke:none"
         inkscape:connector-curvature="0" />
    </g>
  </g>
</svg>
