<?xml version="1.0" encoding="UTF-8" standalone="no"?>
<!-- Created with Inkscape (http://www.inkscape.org/) -->

<svg
   xmlns:dc="http://purl.org/dc/elements/1.1/"
   xmlns:cc="http://creativecommons.org/ns#"
   xmlns:rdf="http://www.w3.org/1999/02/22-rdf-syntax-ns#"
   xmlns:svg="http://www.w3.org/2000/svg"
   xmlns="http://www.w3.org/2000/svg"
   xmlns:sodipodi="http://sodipodi.sourceforge.net/DTD/sodipodi-0.dtd"
   xmlns:inkscape="http://www.inkscape.org/namespaces/inkscape"
   width="744.09448819"
   height="1052.3622047"
   id="svg4946"
   version="1.1"
   inkscape:version="0.48.4 r9939"
   sodipodi:docname="wood.svg">
  <defs
     id="defs4948" />
  <sodipodi:namedview
     id="base"
     pagecolor="#ffffff"
     bordercolor="#666666"
     borderopacity="1.0"
     inkscape:pageopacity="0.0"
     inkscape:pageshadow="2"
     inkscape:zoom="0.98994949"
     inkscape:cx="71.932012"
     inkscape:cy="817.58218"
     inkscape:document-units="px"
     inkscape:current-layer="layer1"
     showgrid="false"
     inkscape:window-width="1680"
     inkscape:window-height="988"
     inkscape:window-x="-8"
     inkscape:window-y="-8"
     inkscape:window-maximized="1" />
  <metadata
     id="metadata4951">
    <rdf:RDF>
      <cc:Work
         rdf:about="">
        <dc:format>image/svg+xml</dc:format>
        <dc:type
           rdf:resource="http://purl.org/dc/dcmitype/StillImage" />
        <dc:title></dc:title>
      </cc:Work>
    </rdf:RDF>
  </metadata>
  <g
     inkscape:label="Layer 1"
     inkscape:groupmode="layer"
     id="layer1">
    <g
       id="g3012">
      <path
         sodipodi:nodetypes="sssssssss"
         inkscape:connector-curvature="0"
         id="rect2997"
         d="m 37.939322,36.801751 c 51.517316,-1.640686 103.378188,-1.61342 155.565748,0 1.0188,0.0315 1.85312,0.796903 1.83993,1.786593 -0.33623,25.233497 -0.33401,49.8097 0,73.741536 0.0138,0.98969 -0.82122,1.75211 -1.83993,1.78659 -51.55567,1.74533 -103.341336,2.15076 -155.565748,0 -1.018405,-0.0419 -1.824095,-0.79693 -1.839929,-1.78659 -0.395323,-24.708465 -1.478816,-49.639673 0,-73.741536 0.06062,-0.988021 0.821156,-1.754148 1.839929,-1.786593 z"
         style="fill:#784421;fill-opacity:1;fill-rule:nonzero;stroke:none" />
      <path
         sodipodi:nodetypes="sssssssss"
         inkscape:connector-curvature="0"
         id="rect4954"
         d="m 41.295557,39.974547 c 48.886839,-4.789672 100.809453,-1.920396 150.361363,-1.70843 0.92922,0.004 1.6524,0.726714 1.6773,1.628679 0.64292,23.286135 0.9747,47.321133 0,70.640504 -0.0377,0.90155 -0.74824,1.61142 -1.6773,1.62868 -48.70306,0.90483 -101.490799,3.0763 -151.869447,-0.48812 -0.926767,-0.0656 -1.633414,-0.7274 -1.677301,-1.62869 -1.118345,-22.967548 -2.346723,-46.714999 1.508085,-68.443944 0.157747,-0.889192 0.75277,-1.538098 1.6773,-1.628679 z"
         style="fill:#e5993e;fill-opacity:1;fill-rule:nonzero;stroke:none" />
      <path
         sodipodi:nodetypes="sssssssss"
         inkscape:connector-curvature="0"
         id="rect3869"
         d="m 156.09314,42.462167 35.90839,-3.788072 c 0.65497,-0.06909 1.19005,0.4866 1.19005,1.091031 l 0,70.296414 c 0,0.60443 -0.53076,1.09103 -1.19005,1.09103 l -51.05856,0 c -0.65929,0 -1.19006,-0.4866 -1.19006,-1.09103 0,-23.432138 -19.41397,-28.150622 5.23369,-48.830672 3.19058,-2.676979 10.45156,-18.699606 11.10654,-18.768701 z"
         style="fill:#d9883b;fill-opacity:1;fill-rule:nonzero;stroke:none" />
      <path
         sodipodi:nodetypes="cccc"
         inkscape:connector-curvature="0"
         id="path3769"
         d="m 76.130863,67.677015 83.502607,-1.195742 -53.50181,3.831686 z"
         inkscape:transform-center-y="-1.1470088"
         inkscape:transform-center-x="4.614721"
         style="fill:#784421;fill-opacity:1;fill-rule:nonzero;stroke:none" />
      <path
         sodipodi:nodetypes="csssscsccc"
         inkscape:connector-curvature="0"
         id="rect3772"
         d="m 189.15158,106.61998 c 1.50653,-19.716257 -0.27974,-39.566591 3.11126,-58.488818 0.17474,-0.975109 1.84847,0.796856 1.83992,1.786594 l -0.5027,58.174354 c -0.009,0.98974 0.0769,4.49512 -3.59935,4.47126 0,0 -109.89041,2.52462 -150.396128,-0.97624 -1.261777,-1.99549 7.284348,-2.55831 8.303282,-2.53104 l 24.542735,0.6567 c 43.987341,2.85092 78.507381,-2.9753 116.700981,-3.09283 z"
         style="fill:#cc8146;fill-opacity:1;fill-rule:nonzero;stroke:none" />
      <path
         style="fill:#ebca91;fill-opacity:1;fill-rule:nonzero;stroke:none"
         d="m 42.296234,44.661748 c -1.506523,19.716258 0.279745,39.566591 -3.111251,58.488822 -0.174742,0.97511 -1.848474,-0.79686 -1.839924,-1.7866 l 0.502699,-58.174352 c 0.009,-0.989745 -0.07694,-4.495127 3.599348,-4.471265 0,0 109.890404,-2.524616 150.396124,0.976243 1.26178,1.995493 -7.28435,2.558306 -8.30328,2.531043 L 158.99721,41.568937 C 115.00988,38.718014 80.48984,44.544239 42.296234,44.661768 z"
         id="path3775"
         inkscape:connector-curvature="0"
         sodipodi:nodetypes="csssscsccc" />
      <path
         style="fill:#784421;fill-opacity:1;fill-rule:nonzero;stroke:none"
         inkscape:transform-center-x="4.6147208"
         inkscape:transform-center-y="-1.1470088"
         d="m 35.513104,91.459509 54.094957,0.390658 -53.501806,3.831686 z"
         id="path3777"
         inkscape:connector-curvature="0"
         sodipodi:nodetypes="cccc" />
      <path
         sodipodi:nodetypes="cccc"
         inkscape:connector-curvature="0"
         id="path3779"
         d="m 36.224023,55.218232 37.388386,0.183085 -36.978423,1.795751 z"
         inkscape:transform-center-y="-0.53755521"
         inkscape:transform-center-x="3.1895198"
         style="fill:#784421;fill-opacity:1;fill-rule:nonzero;stroke:none" />
      <path
         style="fill:#784421;fill-opacity:1;fill-rule:nonzero;stroke:none"
         inkscape:transform-center-x="-3.1895199"
         inkscape:transform-center-y="-0.5375553"
         d="m 194.64619,54.355345 -37.3884,0.183085 36.97843,1.79575 z"
         id="path3781"
         inkscape:connector-curvature="0"
         sodipodi:nodetypes="cccc" />
      <path
         sodipodi:nodetypes="cccc"
         inkscape:connector-curvature="0"
         id="path3783"
         d="m 195.00164,85.246719 -48.9408,0.230986 48.40416,2.265582 z"
         inkscape:transform-center-y="-0.67819847"
         inkscape:transform-center-x="-4.1750324"
         style="fill:#784421;fill-opacity:1;fill-rule:nonzero;stroke:none" />
    </g>
    <g
       id="g3024"
       transform="matrix(1.0002789,0,0,1.000047,-0.0580758,-0.00543408)">
      <path
         id="path3785"
         d="m 288.3125,35.59375 c -25.92833,-0.0034 -51.77259,0.398407 -77.53125,1.21875 -1.01878,0.03245 -1.7519,0.793229 -1.8125,1.78125 -0.38273,6.237715 -0.59446,12.543995 -0.6875,18.875 l 10.5,0.09375 -10.5,0.84375 c -0.14151,10.968078 0.0457,22.034032 0.28125,33.125 l 14.875,0.125 -14.875,1.21875 c 0.13969,6.490442 0.30259,12.98997 0.40625,19.46875 0.0158,0.98966 0.79409,1.73935 1.8125,1.78125 52.22441,2.15076 104.03808,1.74533 155.59375,0 1.01871,-0.0345 1.8263,-0.79156 1.8125,-1.78125 -0.11172,-8.00452 -0.18152,-16.099568 -0.21875,-24.25 L 356.75,87.1875 367.96875,87.09375 C 367.92724,77.188988 367.93351,67.176331 368,57.0625 l -13.75,-1.125 13.78125,-0.125 c 0.0401,-5.707109 0.0793,-11.440483 0.15625,-17.21875 0.0132,-0.98969 -0.7937,-1.74975 -1.8125,-1.78125 -26.09378,-0.80671 -52.13417,-1.215342 -78.0625,-1.21875 z"
         style="fill:#784421;fill-opacity:1;fill-rule:nonzero;stroke:none"
         inkscape:connector-curvature="0" />
      <path
         id="path3787"
         d="m 279.59375,37.21875 c -22.09738,0.02743 -44.04951,0.654519 -65.4375,2.75 -0.92453,0.09058 -1.52975,0.735808 -1.6875,1.625 C 211.54656,46.79196 210.90912,52.107625 210.5,57.5 l 8.28125,0.0625 -8.3125,0.6875 c -0.78445,10.892478 -0.7018,22.092327 -0.3125,33.28125 l 13.28125,0.125 -13.25,1.0625 c 0.2122,5.79565 0.50166,11.60186 0.78125,17.34375 0.0439,0.90129 0.76073,1.5594 1.6875,1.625 50.37864,3.56442 103.14069,1.37358 151.84375,0.46875 0.92906,-0.0173 1.6498,-0.72345 1.6875,-1.625 C 366.49896,103.07969 366.67287,95.547765 366.75,88 l -10,-0.8125 10,-0.09375 c 0.092,-10.053049 -0.007,-20.135737 -0.1875,-30.15625 l -12.3125,-1 12.3125,-0.09375 c -0.10021,-5.336051 -0.22925,-10.658508 -0.375,-15.9375 -0.0249,-0.901965 -0.75828,-1.621 -1.6875,-1.625 -27.87295,-0.119231 -56.49533,-1.097762 -84.90625,-1.0625 z"
         style="fill:#e5993e;fill-opacity:1;fill-rule:nonzero;stroke:none"
         inkscape:connector-curvature="0" />
      <path
         id="path3872"
         d="m 365,38.15625 -35.90625,3.8125 c -0.65498,0.06909 -7.93442,16.073021 -11.125,18.75 C 293.32109,81.3988 312.75,86.130356 312.75,109.5625 c 0,0.60443 0.52821,1.09375 1.1875,1.09375 l 51.0625,0 c 0.65929,0 1.1875,-0.48932 1.1875,-1.09375 l 0,-21.21875 -17.8125,-1.78125 17.8125,0.34375 0,-29.8125 -21.5,-2.125 21.5,0.4375 0,-16.15625 c 0,-0.604431 -0.53253,-1.16284 -1.1875,-1.09375 z"
         style="fill:#d9883b;fill-opacity:1;fill-rule:nonzero;stroke:none"
         inkscape:connector-curvature="0" />
      <path
         style="fill:#784421;fill-opacity:1;fill-rule:nonzero;stroke:none"
         inkscape:transform-center-x="5.0193347"
         inkscape:transform-center-y="-1.7350143"
         d="m 248.98801,68.290003 90.82403,-1.80873 -58.1928,5.795972 z"
         id="path3789"
         inkscape:connector-curvature="0"
         sodipodi:nodetypes="cccc" />
      <path
         id="path3791"
         d="m 365.34375,47.84375 c -0.11719,0.01294 -0.18599,0.09842 -0.21875,0.28125 -0.45772,2.554154 -0.80291,5.133167 -1.09375,7.71875 l 2.875,0 0.0625,-5.9375 c 0.007,-0.804162 -1.11717,-2.11859 -1.625,-2.0625 z m -1.40625,8.875 c -1.05859,9.97963 -1.08543,20.160997 -1.21875,30.40625 l 3.9375,-0.03125 0.25,-30.125 -2.96875,-0.25 z m -1.21875,30.96875 c -0.0853,6.30024 -0.23678,12.62993 -0.71875,18.9375 -38.1936,0.11753 -72.70016,5.94467 -116.6875,3.09375 L 220.75,109.0625 c -1.01894,-0.0273 -9.54303,0.53576 -8.28125,2.53125 40.50571,3.50086 150.375,0.96875 150.375,0.96875 3.67625,0.0239 3.616,-3.47901 3.625,-4.46875 L 366.65625,88 l -3.9375,-0.3125 z"
         style="fill:#cc8146;fill-opacity:1;fill-rule:nonzero;stroke:none"
         inkscape:connector-curvature="0" />
      <path
         id="path3793"
         d="m 286.71875,37.84375 c -37.63291,0.07588 -72.40625,0.875 -72.40625,0.875 -3.67625,-0.02386 -3.58475,3.479005 -3.59375,4.46875 l -0.125,14.3125 3.96875,0.03125 c 0.1039,-4.287987 0.26623,-8.588656 0.59375,-12.875 38.1936,-0.117529 72.70017,-5.944673 116.6875,-3.09375 l 24.5625,0.65625 c 1.01893,0.02726 9.54303,-0.535757 8.28125,-2.53125 -17.72125,-1.531626 -48.69871,-1.902765 -77.96875,-1.84375 z m -72.15625,20.0625 -3.96875,0.3125 -0.3125,33.3125 3.25,0.03125 c 0.94372,-11.053774 0.76721,-22.333535 1.03125,-33.65625 z m -1.09375,34.5625 -3.1875,0.25 -0.0937,8.65625 c -0.009,0.98974 1.669,2.75636 1.84375,1.78125 0.63216,-3.527572 1.11032,-7.102299 1.4375,-10.6875 z"
         style="fill:#ebca91;fill-opacity:1;fill-rule:nonzero;stroke:none"
         inkscape:connector-curvature="0" />
      <path
         id="path3795"
         d="m 208.375,88.78125 0.25,2.75 14.8125,0.125 -14.6875,1.1875 0.28125,2.84375 60.9375,-6.28125 -61.59375,-0.625 z"
         style="fill:#784421;fill-opacity:1;fill-rule:nonzero;stroke:none"
         inkscape:connector-curvature="0" />
      <path
         id="path3797"
         d="m 209.09375,55.21875 0.28125,2.25 9.40625,0.09375 -9.3125,0.75 0.0937,0.84375 43.875,-3.5625 -44.34375,-0.375 z"
         style="fill:#784421;fill-opacity:1;fill-rule:nonzero;stroke:none"
         inkscape:connector-curvature="0" />
      <path
         id="path3799"
         d="M 367.5,54.34375 325.84375,54.75 367.03125,58.65625 367.21875,57 354.25,55.9375 367.34375,55.8125 367.5,54.34375 z"
         style="fill:#784421;fill-opacity:1;fill-rule:nonzero;stroke:none"
         inkscape:connector-curvature="0" />
      <path
         id="path3801"
         d="m 367.84375,85.25 -56.4375,0.4375 55.84375,4.375 0.25,-2 -10.75,-0.875 10.875,-0.09375 0.21875,-1.84375 z"
         style="fill:#784421;fill-opacity:1;fill-rule:nonzero;stroke:none"
         inkscape:connector-curvature="0" />
    </g>
    <g
       id="g3036"
       transform="matrix(1.0003281,0,0,1.000047,-0.12384069,-0.00543613)">
      <path
         id="path3882"
         d="m 457.5,35.59375 c -25.92833,-0.0034 -51.77259,0.398407 -77.53125,1.21875 -1.01878,0.03245 -1.7519,0.793229 -1.8125,1.78125 -0.35503,5.786275 -0.55375,11.63072 -0.65625,17.5 l 32.71875,-1.375 -32.75,4.25 c -0.11962,10.103452 0.0396,20.289591 0.25,30.5 l 48.46875,0.3125 -48.40625,3.90625 c 0.13558,6.220151 0.27567,12.44795 0.375,18.65625 0.0158,0.98966 0.79409,1.73935 1.8125,1.78125 52.22441,2.15076 104.03808,1.74533 155.59375,0 1.01871,-0.0345 1.8263,-0.79156 1.8125,-1.78125 -0.10656,-7.6351 -0.18035,-15.355667 -0.21875,-23.125 l -43.125,-3.46875 43.125,-0.28125 c -0.0343,-9.377092 -0.0315,-18.842541 0.0312,-28.40625 l -13.75,-1.125 0.28125,0 -18.5625,-1.5 32.0625,-0.21875 c 0.0365,-5.183465 0.0864,-10.381519 0.15625,-15.625 0.0132,-0.98969 -0.7937,-1.74975 -1.8125,-1.78125 C 509.46872,36.00579 483.42833,35.597158 457.5,35.59375 z m 24.90625,32.3125 c -11.33922,0.758418 -24.45822,2.285759 -33.25,3.46875 C 445.25282,69.934042 437.55164,68.956318 430.5,68.65625 l 51.90625,-0.75 z"
         style="fill:#784421;fill-opacity:1;fill-rule:nonzero;stroke:none"
         inkscape:connector-curvature="0" />
      <path
         id="path3884"
         d="m 448.78125,37.21875 c -22.09738,0.02743 -44.04951,0.654519 -65.4375,2.75 -0.92453,0.09058 -1.52975,0.735808 -1.6875,1.625 C 380.81983,46.308485 380.22253,51.122421 379.8125,56 L 410.21875,54.71875 379.625,58.6875 c -0.70418,10.083959 -0.66698,20.430596 -0.34375,30.78125 l 46.90625,0.3125 -46.78125,3.78125 c 0.20884,5.515089 0.48398,11.03687 0.75,16.5 0.0439,0.90129 0.76073,1.5594 1.6875,1.625 50.37864,3.56442 103.14069,1.37358 151.84375,0.46875 0.92906,-0.0173 1.6498,-0.72345 1.6875,-1.625 0.29597,-7.08097 0.44871,-14.235507 0.53125,-21.40625 l -41.875,-3.375 41.90625,-0.28125 C 536.0053,75.9552 535.9208,66.417497 535.75,56.9375 l -12.3125,-1 0.28125,0 -18.5625,-1.5 30.5625,-0.1875 c -0.0953,-4.79978 -0.21257,-9.592609 -0.34375,-14.34375 -0.0249,-0.901965 -0.75828,-1.621 -1.6875,-1.625 -27.87295,-0.119231 -56.49533,-1.097762 -84.90625,-1.0625 z m 33.625,30.6875 c -11.33922,0.758418 -24.45822,2.285759 -33.25,3.46875 C 445.25282,69.934042 437.55164,68.956318 430.5,68.65625 l 51.90625,-0.75 z"
         style="fill:#e5993e;fill-opacity:1;fill-rule:nonzero;stroke:none"
         inkscape:connector-curvature="0" />
      <path
         id="path3886"
         d="m 534.1875,38.15625 -35.90625,3.8125 c -0.65498,0.06909 -7.93442,16.073021 -11.125,18.75 -3.15633,2.648243 -5.56217,5.020817 -7.40625,7.21875 l 2.65625,-0.03125 c -0.91379,0.06112 -1.84753,0.116908 -2.78125,0.1875 -12.32177,14.852289 2.3125,21.108928 2.3125,41.46875 0,0.60443 0.52821,1.09375 1.1875,1.09375 l 51.0625,0 c 0.65929,0 1.1875,-0.48932 1.1875,-1.09375 l 0,-20.46875 -41.34375,-3.34375 41.34375,-0.28125 0,-28.375 -11.96875,-1.1875 -18.25,-1.46875 30.21875,-0.1875 0,-15 c 0,-0.604431 -0.53253,-1.16284 -1.1875,-1.09375 z"
         style="fill:#c87137;fill-opacity:0.42021275;fill-rule:nonzero;stroke:none"
         inkscape:connector-curvature="0" />
      <path
         id="path3888"
         d="M 512.75,65.0625 412.46875,67.75 448.5,73.71875 512.75,65.0625 z m -30.34375,2.84375 c -11.33922,0.758418 -24.45822,2.285759 -33.25,3.46875 C 445.25282,69.934042 437.55164,68.956318 430.5,68.65625 l 51.90625,-0.75 z"
         style="fill:#784421;fill-opacity:1;fill-rule:nonzero;stroke:none"
         inkscape:connector-curvature="0" />
      <path
         id="path3890"
         d="m 534.53125,47.84375 c -0.11719,0.01294 -0.18599,0.09842 -0.21875,0.28125 -0.36363,2.029113 -0.65549,4.073679 -0.90625,6.125 l 2.71875,0 0.0312,-4.34375 c 0.007,-0.804162 -1.11717,-2.11859 -1.625,-2.0625 z m -1.40625,8.875 c -1.00242,9.450074 -1.06892,19.086436 -1.1875,28.78125 l 3.90625,-0.03125 0.25,-28.5 -2.96875,-0.25 z m -1.21875,32.09375 c -0.0885,5.927923 -0.2655,11.88081 -0.71875,17.8125 -38.1936,0.11753 -72.70016,5.94467 -116.6875,3.09375 l -24.5625,-0.65625 c -1.01894,-0.0273 -9.54303,0.53576 -8.28125,2.53125 40.50571,3.50086 150.375,0.96875 150.375,0.96875 3.67625,0.0239 3.616,-3.47901 3.625,-4.46875 l 0.1875,-18.96875 -3.9375,-0.3125 z"
         style="fill:#b36531;fill-opacity:1;fill-rule:nonzero;stroke:none"
         inkscape:connector-curvature="0" />
      <path
         id="path3892"
         d="m 455.90625,37.84375 c -37.63291,0.07588 -72.40625,0.875 -72.40625,0.875 -3.67625,-0.02386 -3.58475,3.479005 -3.59375,4.46875 L 379.78125,56 383.8125,55.84375 c 0.10518,-3.728397 0.24666,-7.463017 0.53125,-11.1875 38.1936,-0.117529 72.70017,-5.944673 116.6875,-3.09375 l 24.5625,0.65625 c 1.01893,0.02726 9.54303,-0.535757 8.28125,-2.53125 -17.72125,-1.531626 -48.69871,-1.902765 -77.96875,-1.84375 z M 383.75,58.15625 379.78125,58.6875 379.5,89.46875 382.875,89.5 c 0.75449,-10.312217 0.63513,-20.807331 0.875,-31.34375 z m -1.15625,35.15625 -3.125,0.25 -0.0937,7.8125 c -0.009,0.98974 1.669,2.75636 1.84375,1.78125 0.58263,-3.251182 1.05163,-6.541174 1.375,-9.84375 z"
         style="fill:#ebca91;fill-opacity:1;fill-rule:nonzero;stroke:none"
         inkscape:connector-curvature="0" />
      <path
         id="path3894"
         d="m 377.5625,87.53125 0.15625,1.9375 48.46875,0.3125 -48.15625,3.875 0.25,3.28125 65.875,-8.5625 -66.59375,-0.84375 z"
         style="fill:#784421;fill-opacity:1;fill-rule:nonzero;stroke:none"
         inkscape:connector-curvature="0" />
      <path
         id="path3896"
         d="m 378.28125,53.78125 0.21875,2.28125 31.71875,-1.34375 -21.5625,2.8125 0.5625,0 -4.75,0.53125 -5.75,0.75 0.0937,1.25 49.53125,-5.6875 -50.0625,-0.59375 z"
         style="fill:#784421;fill-opacity:1;fill-rule:nonzero;stroke:none"
         inkscape:connector-curvature="0" />
      <path
         id="path3898"
         d="M 536.6875,52.5625 484.5,53.28125 536.125,60.25 l 0.21875,-2.9375 -9.78125,-1.15625 -21.40625,-1.71875 31.40625,-0.21875 0.125,-1.65625 z"
         style="fill:#784421;fill-opacity:1;fill-rule:nonzero;stroke:none"
         inkscape:connector-curvature="0" />
      <path
         id="path3900"
         d="m 537.03125,83.8125 -65.875,0.75 65.1875,7.28125 0.25,-2.65625 -42.5625,-3.4375 42.875,-0.28125 0.125,-1.65625 z"
         style="fill:#784421;fill-opacity:1;fill-rule:nonzero;stroke:none"
         inkscape:connector-curvature="0" />
    </g>
    <g
       id="g3137"
       inkscape:export-filename="Z:\Proiecte\angrybox\src\bmp\wood-w-1.png"
       inkscape:export-xdpi="90"
       inkscape:export-ydpi="90">
      <path
         style="fill:#784421;fill-opacity:1;fill-rule:nonzero;stroke:none"
         d="m 37.939322,191.90588 c 51.517316,-0.82034 103.378188,-0.80671 155.565748,0 1.0188,0.0157 1.85312,0.39845 1.83993,0.8933 -0.33623,12.61675 -0.33401,24.90485 0,36.87077 0.0138,0.49484 -0.82122,0.87605 -1.83993,0.89329 -51.55567,0.87267 -103.341336,1.07538 -155.565748,0 -1.018405,-0.0209 -1.824095,-0.39846 -1.839929,-0.89329 -0.395323,-12.35423 -1.478816,-24.81984 0,-36.87077 0.06062,-0.49401 0.821156,-0.87707 1.839929,-0.8933 z"
         id="path3063"
         inkscape:connector-curvature="0"
         sodipodi:nodetypes="sssssssss" />
      <path
         style="fill:#e5993e;fill-opacity:1;fill-rule:nonzero;stroke:none"
         d="m 41.295557,193.66555 c 48.886839,-2.32082 100.809453,-0.93052 150.361363,-0.82781 0.92922,0.002 1.6524,0.35212 1.6773,0.78916 0.64292,11.28316 0.9747,22.92917 0,34.22843 -0.0377,0.43685 -0.74824,0.78081 -1.6773,0.78917 -48.70306,0.43843 -101.490799,1.4906 -151.869447,-0.23652 -0.926767,-0.0318 -1.633414,-0.35245 -1.677301,-0.78917 -1.118345,-11.12879 -2.346723,-22.63547 1.508085,-33.16409 0.157747,-0.43086 0.75277,-0.74528 1.6773,-0.78917 z"
         id="path3065"
         inkscape:connector-curvature="0"
         sodipodi:nodetypes="sssssssss" />
      <path
         style="fill:#d9883b;fill-opacity:1;fill-rule:nonzero;stroke:none"
         d="m 156.09314,196.22834 35.90839,-1.68963 c 0.65497,-0.0308 1.19005,0.21704 1.19005,0.48665 l 0,31.35486 c 0,0.26959 -0.53076,0.48664 -1.19005,0.48664 l -51.05856,0 c -0.65929,0 -1.19006,-0.21705 -1.19006,-0.48664 0,-10.45162 -19.41397,-12.55624 5.23369,-21.78033 3.19058,-1.19403 10.45156,-8.34073 11.10654,-8.37155 z"
         id="path3067"
         inkscape:connector-curvature="0"
         sodipodi:nodetypes="sssssssss" />
      <path
         style="fill:#784421;fill-opacity:1;fill-rule:nonzero;stroke:none"
         inkscape:transform-center-x="4.614721"
         inkscape:transform-center-y="-1.1470088"
         d="m 80.868172,213.94843 83.502608,-1.19574 -53.50181,3.83169 z"
         id="path3069"
         inkscape:connector-curvature="0"
         sodipodi:nodetypes="cccc" />
      <path
         style="fill:#cc8146;fill-opacity:1;fill-rule:nonzero;stroke:none"
         d="m 189.15158,223.16703 c 1.25399,-14.20166 2.24564,-20.59739 2.60618,-28.27328 0.0443,-0.94214 1.83984,0.75856 1.83992,1.70081 l 0.002,27.97391 c 8e-5,0.94225 0.0769,4.27926 -3.59935,4.25655 0,0 -109.89041,2.40339 -150.396128,-0.92936 -1.261777,-1.89967 7.284348,-2.43546 8.303282,-2.4095 l 24.542735,0.62517 c 43.987341,2.71401 78.507381,-2.83243 116.700981,-2.94431 z"
         id="path3071"
         inkscape:connector-curvature="0"
         sodipodi:nodetypes="csssscsccc" />
      <path
         sodipodi:nodetypes="csssscsccc"
         inkscape:connector-curvature="0"
         id="path3073"
         d="m 42.296234,199.11334 c -0.243832,8.09951 -1.235484,15.0704 -3.111251,23.63856 -0.211857,0.96773 -1.861252,-0.79706 -1.839924,-1.7866 l 0.502699,-23.32409 c 0.02133,-0.98956 -0.07694,-4.49513 3.599348,-4.47127 0,0 109.890404,-2.52461 150.396124,0.97625 1.26178,1.99549 -7.28435,2.5583 -8.30328,2.53104 l -24.54274,-0.6567 c -43.98733,-2.85093 -78.50737,2.9753 -116.700976,3.09283 z"
         style="fill:#ebca91;fill-opacity:1;fill-rule:nonzero;stroke:none" />
      <path
         sodipodi:nodetypes="cccc"
         inkscape:connector-curvature="0"
         id="path3075"
         d="m 35.513104,207.1738 54.094957,0.39066 -53.501806,3.83168 z"
         inkscape:transform-center-y="-1.1470088"
         inkscape:transform-center-x="4.6147208"
         style="fill:#784421;fill-opacity:1;fill-rule:nonzero;stroke:none" />
      <path
         style="fill:#784421;fill-opacity:1;fill-rule:nonzero;stroke:none"
         inkscape:transform-center-x="-4.1750324"
         inkscape:transform-center-y="-0.67819847"
         d="m 195.00164,200.96101 -48.9408,0.23099 48.40416,2.26558 z"
         id="path3081"
         inkscape:connector-curvature="0"
         sodipodi:nodetypes="cccc" />
    </g>
    <g
       id="g3281"
       inkscape:export-filename="Z:\Proiecte\angrybox\src\bmp\wood-w-2.png"
       inkscape:export-xdpi="90"
       inkscape:export-ydpi="90">
      <path
         id="path3149"
         d="M 287.6875 191.28125 C 261.75917 191.27955 235.91491 191.49608 210.15625 191.90625 C 209.13748 191.92248 208.40435 192.31849 208.34375 192.8125 C 207.66805 198.31884 207.54088 203.90807 207.625 209.53125 L 232.0625 209.09375 L 207.65625 211.28125 C 207.79444 217.39018 208.14776 223.53127 208.34375 229.65625 C 208.35959 230.15108 209.13785 230.5416 210.15625 230.5625 C 262.38066 231.63788 314.19433 231.43517 365.75 230.5625 C 366.76871 230.54526 367.5763 230.15109 367.5625 229.65625 C 367.33484 221.50046 367.26103 213.19919 367.34375 204.75 L 357.53125 203.65625 L 367.375 203.46875 C 367.41606 199.94424 367.46708 196.39291 367.5625 192.8125 C 367.57569 192.31765 366.7688 191.92195 365.75 191.90625 C 339.65622 191.50289 313.61583 191.28295 287.6875 191.28125 z M 313.5 215.28125 L 282.09375 218.09375 L 264.46875 216.15625 L 313.5 215.28125 z "
         style="fill:#784421;fill-opacity:1;fill-rule:nonzero;stroke:none" />
      <path
         id="path3151"
         d="M 281.375 192.3125 C 277.42817 192.31073 273.46901 192.32497 269.53125 192.34375 C 250.62998 192.43391 231.86381 192.78594 213.53125 193.65625 C 212.60672 193.70014 212.00149 194.03789 211.84375 194.46875 C 210.06735 199.32063 209.37382 204.3672 209.25 209.5 L 232.0625 209.09375 L 209.21875 211.125 C 209.20896 216.60546 209.79501 222.1644 210.34375 227.625 C 210.38764 228.06172 211.10449 228.37445 212.03125 228.40625 C 262.4099 230.13337 315.17194 229.09468 363.875 228.65625 C 364.80406 228.64789 365.5248 228.2806 365.5625 227.84375 C 366.22416 220.17337 366.26233 212.35887 366.03125 204.59375 L 357.53125 203.65625 L 366 203.5 C 365.89019 200.19422 365.74845 196.88839 365.5625 193.625 C 365.5376 193.18796 364.80422 192.84575 363.875 192.84375 C 336.7763 192.78758 309.00281 192.32489 281.375 192.3125 z M 313.5 215.28125 L 282.09375 218.09375 L 264.46875 216.15625 L 313.5 215.28125 z "
         style="fill:#e5993e;fill-opacity:1;fill-rule:nonzero;stroke:none" />
      <path
         id="path3153"
         d="M 364.21875 194.53125 L 328.3125 196.21875 C 327.65752 196.24957 320.40933 203.39972 317.21875 204.59375 C 304.37466 209.4005 303.52126 212.2775 305.625 215.40625 L 313.5 215.28125 L 306 215.9375 C 308.07986 218.66768 311.96875 221.67588 311.96875 226.375 C 311.96875 226.64459 312.52821 226.875 313.1875 226.875 L 364.21875 226.875 C 364.87804 226.875 365.4375 226.64459 365.4375 226.375 L 365.4375 204.53125 L 357.53125 203.65625 L 365.4375 203.5 L 365.4375 195.03125 C 365.4375 194.76164 364.87372 194.50045 364.21875 194.53125 z "
         style="fill:#d9883b;fill-opacity:1;fill-rule:nonzero;stroke:none" />
      <path
         id="path3155"
         d="M 340.125 212.75 L 249.0625 214.96875 L 281.78125 219.875 L 340.125 212.75 z M 313.5 215.28125 L 282.09375 218.09375 L 264.46875 216.15625 L 313.5 215.28125 z "
         style="fill:#784421;fill-opacity:1;fill-rule:nonzero;stroke:none" />
      <path
         id="path3157"
         d="M 364.1875 194.625 C 364.07944 194.63825 364.00831 194.7296 364 194.90625 C 363.86503 197.77978 363.60502 200.57109 363.3125 203.5625 L 365.84375 203.5 L 365.84375 196.59375 C 365.84368 195.82817 364.65577 194.5676 364.1875 194.625 z M 363.25 204.28125 C 362.7671 209.12276 362.12221 214.69395 361.375 223.15625 C 323.1814 223.26813 288.67484 228.83901 244.6875 226.125 L 220.125 225.5 C 219.10607 225.47404 210.58198 226.00658 211.84375 227.90625 C 252.34947 231.239 362.21875 228.8125 362.21875 228.8125 C 365.895 228.83521 365.84383 225.50475 365.84375 224.5625 L 365.84375 204.5625 L 363.25 204.28125 z "
         style="fill:#cc8146;fill-opacity:1;fill-rule:nonzero;stroke:none" />
      <path
         id="path3159"
         d="M 286.09375 192.28125 C 248.46084 192.35712 213.6875 193.15625 213.6875 193.15625 C 210.01125 193.13239 210.11505 196.66669 210.09375 197.65625 L 209.8125 209.5 L 213.75 209.40625 C 214.16004 206.03983 214.42373 202.69661 214.53125 199.125 C 252.72486 199.00747 287.23142 193.18032 331.21875 196.03125 L 355.78125 196.6875 C 356.80018 196.71476 365.32428 196.15174 364.0625 194.15625 C 346.34125 192.62462 315.36379 192.22224 286.09375 192.28125 z M 213.59375 210.75 L 209.78125 211.09375 L 209.5625 220.96875 C 209.54117 221.95829 211.1944 223.71773 211.40625 222.75 C 212.34413 218.46592 213.08089 214.57618 213.59375 210.75 z "
         style="fill:#ebca91;fill-opacity:1;fill-rule:nonzero;stroke:none" />
      <path
         id="path3161"
         d="M 207.75 207.1875 L 207.96875 209.53125 L 232.0625 209.09375 L 208.125 211.25 L 208.34375 213.40625 L 261.84375 207.75 L 207.75 207.1875 z "
         style="fill:#784421;fill-opacity:1;fill-rule:nonzero;stroke:none" />
      <path
         id="path3163"
         d="M 367.21875 200.96875 L 318.28125 201.46875 L 366.6875 206.5 L 366.875 204.6875 L 357.53125 203.65625 L 366.96875 203.5 L 367.21875 200.96875 z "
         style="fill:#784421;fill-opacity:1;fill-rule:nonzero;stroke:none" />
    </g>
    <g
       id="g3271"
       inkscape:export-filename="Z:\Proiecte\angrybox\src\bmp\wood-w-3.png"
       inkscape:export-xdpi="90"
       inkscape:export-ydpi="90">
      <path
         id="path3216"
         d="M 460.9375 191.28125 C 435.00917 191.27925 409.16491 191.49608 383.40625 191.90625 C 382.38748 191.92245 381.65435 192.31849 381.59375 192.8125 C 381.01315 197.54384 380.82832 202.33356 380.84375 207.15625 L 424.6875 208.34375 L 380.90625 211.4375 C 381.04686 217.49506 381.39943 223.58331 381.59375 229.65625 C 381.60955 230.15108 382.38785 230.5416 383.40625 230.5625 C 435.63066 231.63788 487.44433 231.43517 539 230.5625 C 540.01871 230.5453 540.8263 230.15109 540.8125 229.65625 C 540.59329 221.80327 540.52529 213.81242 540.59375 205.6875 L 496.09375 202.53125 L 540.65625 201.34375 C 540.69341 198.5134 540.73612 195.67896 540.8125 192.8125 C 540.8257 192.31765 540.0188 191.92195 539 191.90625 C 512.90622 191.50289 486.86583 191.28295 460.9375 191.28125 z M 499.25 213.375 L 483.21875 215.34375 L 486.75 215.28125 L 475.65625 216.28125 L 452.71875 219.09375 L 426.59375 215.15625 L 499.25 213.375 z "
         style="fill:#784421;fill-opacity:1;fill-rule:nonzero;stroke:none" />
      <path
         id="path3218"
         d="M 454.625 192.3125 C 450.67817 192.3105 446.71901 192.32505 442.78125 192.34375 C 423.87998 192.43395 405.11381 192.78594 386.78125 193.65625 C 385.85672 193.70015 385.25149 194.03789 385.09375 194.46875 C 383.58239 198.59674 382.85345 202.8757 382.59375 207.21875 L 424.6875 208.34375 L 382.46875 211.34375 C 382.47437 216.75359 383.05228 222.23678 383.59375 227.625 C 383.63765 228.06172 384.35449 228.37445 385.28125 228.40625 C 435.6599 230.13337 488.42194 229.09468 537.125 228.65625 C 538.05406 228.64825 538.7748 228.2806 538.8125 227.84375 C 539.44585 220.50158 539.51101 213.03031 539.3125 205.59375 L 496.09375 202.53125 L 539.15625 201.375 C 539.05875 198.7778 538.95868 196.19039 538.8125 193.625 C 538.7876 193.18796 538.05422 192.84575 537.125 192.84375 C 510.0263 192.78755 482.25281 192.32489 454.625 192.3125 z M 499.25 213.375 L 483.21875 215.34375 L 486.75 215.28125 L 475.65625 216.28125 L 452.71875 219.09375 L 426.59375 215.15625 L 499.25 213.375 z "
         style="fill:#e5993e;fill-opacity:1;fill-rule:nonzero;stroke:none" />
      <path
         id="path3220"
         d="M 537.46875 194.53125 L 501.5625 196.21875 C 500.90752 196.24955 493.65933 203.39972 490.46875 204.59375 C 479.69602 208.62532 477.35756 211.30259 478.125 213.90625 L 499.25 213.375 L 483.28125 215.34375 L 486.75 215.28125 L 479.25 215.9375 C 481.32986 218.66768 485.21875 221.67588 485.21875 226.375 C 485.21875 226.64459 485.77821 226.875 486.4375 226.875 L 537.46875 226.875 C 538.12804 226.875 538.6875 226.64459 538.6875 226.375 L 538.6875 205.53125 L 496.09375 202.53125 L 538.6875 201.40625 L 538.6875 195.03125 C 538.6875 194.76164 538.12372 194.50045 537.46875 194.53125 z "
         style="fill:#d9883b;fill-opacity:1;fill-rule:nonzero;stroke:none" />
      <path
         id="path3222"
         d="M 517.53125 211.75 L 414.21875 214.4375 L 451.34375 220.375 L 517.53125 211.75 z M 499.25 213.375 L 452.71875 219.09375 L 426.59375 215.15625 L 499.25 213.375 z "
         style="fill:#784421;fill-opacity:1;fill-rule:nonzero;stroke:none" />
      <path
         id="path3224"
         d="M 537.4375 194.625 C 537.32944 194.6382 537.25831 194.7296 537.25 194.90625 C 537.14779 197.08222 536.95543 199.23323 536.75 201.4375 L 539.09375 201.375 L 539.09375 196.59375 C 539.09368 195.82817 537.90577 194.5676 537.4375 194.625 z M 536.375 205.375 C 535.90459 209.99029 535.32167 215.26632 534.625 223.15625 C 496.4314 223.26813 461.92484 228.83901 417.9375 226.125 L 393.375 225.5 C 392.35607 225.474 383.83198 226.00658 385.09375 227.90625 C 425.59947 231.239 535.46875 228.8125 535.46875 228.8125 C 539.145 228.8352 539.09383 225.50475 539.09375 224.5625 L 539.09375 205.5625 L 536.375 205.375 z "
         style="fill:#cc8146;fill-opacity:1;fill-rule:nonzero;stroke:none" />
      <path
         id="path3226"
         d="M 459.34375 192.28125 C 421.71084 192.35715 386.9375 193.15625 386.9375 193.15625 C 383.26125 193.13235 383.36505 196.66669 383.34375 197.65625 L 383.125 207.21875 L 387.21875 207.34375 C 387.49753 204.66192 387.69562 201.96946 387.78125 199.125 C 425.97486 199.00747 460.48142 193.18032 504.46875 196.03125 L 529.03125 196.6875 C 530.05018 196.7148 538.57428 196.15174 537.3125 194.15625 C 519.59125 192.62462 488.61379 192.22224 459.34375 192.28125 z M 386.8125 211.03125 L 383.03125 211.28125 L 382.8125 220.96875 C 382.7912 221.95829 384.4444 223.71773 384.65625 222.75 C 385.57133 218.57005 386.3015 214.76763 386.8125 211.03125 z "
         style="fill:#ebca91;fill-opacity:1;fill-rule:nonzero;stroke:none" />
      <path
         id="path3228"
         d="M 380.625 205.53125 L 380.90625 207.15625 L 424.6875 208.34375 L 385.21875 211.125 L 381.5 211.46875 L 381.75 213.90625 L 443.9375 207.46875 L 380.625 205.53125 z "
         style="fill:#784421;fill-opacity:1;fill-rule:nonzero;stroke:none" />
      <path
         id="path3230"
         d="M 540.46875 199.84375 L 467.90625 201.65625 L 539.6875 207.25 L 539.875 205.625 L 496.09375 202.53125 L 540.34375 201.34375 L 540.46875 199.84375 z "
         style="fill:#784421;fill-opacity:1;fill-rule:nonzero;stroke:none" />
    </g>
    <g
       id="g3291"
       transform="matrix(0.50000002,0,0,0.50000001,17.672587,317.79072)"
       inkscape:export-filename="Z:\Proiecte\angrybox\src\bmp\wood-ws-1.png"
       inkscape:export-xdpi="90"
       inkscape:export-ydpi="90">
      <path
         style="fill:#784421;fill-opacity:1;fill-rule:nonzero;stroke:none"
         d="m 37.939322,36.801751 c 51.517316,-1.640686 103.378188,-1.61342 155.565748,0 1.0188,0.0315 1.85312,0.796903 1.83993,1.786593 -0.33623,25.233497 -0.33401,49.8097 0,73.741536 0.0138,0.98969 -0.82122,1.75211 -1.83993,1.78659 -51.55567,1.74533 -103.341336,2.15076 -155.565748,0 -1.018405,-0.0419 -1.824095,-0.79693 -1.839929,-1.78659 -0.395323,-24.708465 -1.478816,-49.639673 0,-73.741536 0.06062,-0.988021 0.821156,-1.754148 1.839929,-1.786593 z"
         id="path3293"
         inkscape:connector-curvature="0"
         sodipodi:nodetypes="sssssssss" />
      <path
         style="fill:#e5993e;fill-opacity:1;fill-rule:nonzero;stroke:none"
         d="m 41.295557,39.974547 c 48.886839,-4.789672 100.809453,-1.920396 150.361363,-1.70843 0.92922,0.004 1.6524,0.726714 1.6773,1.628679 0.64292,23.286135 0.9747,47.321133 0,70.640504 -0.0377,0.90155 -0.74824,1.61142 -1.6773,1.62868 -48.70306,0.90483 -101.490799,3.0763 -151.869447,-0.48812 -0.926767,-0.0656 -1.633414,-0.7274 -1.677301,-1.62869 -1.118345,-22.967548 -2.346723,-46.714999 1.508085,-68.443944 0.157747,-0.889192 0.75277,-1.538098 1.6773,-1.628679 z"
         id="path3295"
         inkscape:connector-curvature="0"
         sodipodi:nodetypes="sssssssss" />
      <path
         style="fill:#d9883b;fill-opacity:1;fill-rule:nonzero;stroke:none"
         d="m 156.09314,42.462167 35.90839,-3.788072 c 0.65497,-0.06909 1.19005,0.4866 1.19005,1.091031 l 0,70.296414 c 0,0.60443 -0.53076,1.09103 -1.19005,1.09103 l -51.05856,0 c -0.65929,0 -1.19006,-0.4866 -1.19006,-1.09103 0,-23.432138 -19.41397,-28.150622 5.23369,-48.830672 3.19058,-2.676979 10.45156,-18.699606 11.10654,-18.768701 z"
         id="path3297"
         inkscape:connector-curvature="0"
         sodipodi:nodetypes="sssssssss" />
      <path
         style="fill:#784421;fill-opacity:1;fill-rule:nonzero;stroke:none"
         inkscape:transform-center-x="4.614721"
         inkscape:transform-center-y="-1.1470088"
         d="m 76.130863,67.677015 83.502607,-1.195742 -53.50181,3.831686 z"
         id="path3299"
         inkscape:connector-curvature="0"
         sodipodi:nodetypes="cccc" />
      <path
         style="fill:#cc8146;fill-opacity:1;fill-rule:nonzero;stroke:none"
         d="m 189.15158,106.61998 c 1.50653,-19.716257 -0.27974,-39.566591 3.11126,-58.488818 0.17474,-0.975109 1.84847,0.796856 1.83992,1.786594 l -0.5027,58.174354 c -0.009,0.98974 0.0769,4.49512 -3.59935,4.47126 0,0 -109.89041,2.52462 -150.396128,-0.97624 -1.261777,-1.99549 7.284348,-2.55831 8.303282,-2.53104 l 24.542735,0.6567 c 43.987341,2.85092 78.507381,-2.9753 116.700981,-3.09283 z"
         id="path3301"
         inkscape:connector-curvature="0"
         sodipodi:nodetypes="csssscsccc" />
      <path
         sodipodi:nodetypes="csssscsccc"
         inkscape:connector-curvature="0"
         id="path3303"
         d="m 42.296234,44.661748 c -1.506523,19.716258 0.279745,39.566591 -3.111251,58.488822 -0.174742,0.97511 -1.848474,-0.79686 -1.839924,-1.7866 l 0.502699,-58.174352 c 0.009,-0.989745 -0.07694,-4.495127 3.599348,-4.471265 0,0 109.890404,-2.524616 150.396124,0.976243 1.26178,1.995493 -7.28435,2.558306 -8.30328,2.531043 L 158.99721,41.568937 C 115.00988,38.718014 80.48984,44.544239 42.296234,44.661768 z"
         style="fill:#ebca91;fill-opacity:1;fill-rule:nonzero;stroke:none" />
      <path
         sodipodi:nodetypes="cccc"
         inkscape:connector-curvature="0"
         id="path3305"
         d="m 35.513104,91.459509 54.094957,0.390658 -53.501806,3.831686 z"
         inkscape:transform-center-y="-1.1470088"
         inkscape:transform-center-x="4.6147208"
         style="fill:#784421;fill-opacity:1;fill-rule:nonzero;stroke:none" />
      <path
         style="fill:#784421;fill-opacity:1;fill-rule:nonzero;stroke:none"
         inkscape:transform-center-x="3.1895198"
         inkscape:transform-center-y="-0.53755521"
         d="m 36.224023,55.218232 37.388386,0.183085 -36.978423,1.795751 z"
         id="path3307"
         inkscape:connector-curvature="0"
         sodipodi:nodetypes="cccc" />
      <path
         sodipodi:nodetypes="cccc"
         inkscape:connector-curvature="0"
         id="path3309"
         d="m 194.64619,54.355345 -37.3884,0.183085 36.97843,1.79575 z"
         inkscape:transform-center-y="-0.5375553"
         inkscape:transform-center-x="-3.1895199"
         style="fill:#784421;fill-opacity:1;fill-rule:nonzero;stroke:none" />
      <path
         style="fill:#784421;fill-opacity:1;fill-rule:nonzero;stroke:none"
         inkscape:transform-center-x="-4.1750324"
         inkscape:transform-center-y="-0.67819847"
         d="m 195.00164,85.246719 -48.9408,0.230986 48.40416,2.265582 z"
         id="path3311"
         inkscape:connector-curvature="0"
         sodipodi:nodetypes="cccc" />
    </g>
    <g
       transform="matrix(0.50013946,0,0,0.50002351,104.0871,317.79227)"
       id="g3313"
       inkscape:export-filename="Z:\Proiecte\angrybox\src\bmp\wood-ws-2.png"
       inkscape:export-xdpi="90"
       inkscape:export-ydpi="90">
      <path
         inkscape:connector-curvature="0"
         style="fill:#784421;fill-opacity:1;fill-rule:nonzero;stroke:none"
         d="m 288.3125,35.59375 c -25.92833,-0.0034 -51.77259,0.398407 -77.53125,1.21875 -1.01878,0.03245 -1.7519,0.793229 -1.8125,1.78125 -0.38273,6.237715 -0.59446,12.543995 -0.6875,18.875 l 10.5,0.09375 -10.5,0.84375 c -0.14151,10.968078 0.0457,22.034032 0.28125,33.125 l 14.875,0.125 -14.875,1.21875 c 0.13969,6.490442 0.30259,12.98997 0.40625,19.46875 0.0158,0.98966 0.79409,1.73935 1.8125,1.78125 52.22441,2.15076 104.03808,1.74533 155.59375,0 1.01871,-0.0345 1.8263,-0.79156 1.8125,-1.78125 -0.11172,-8.00452 -0.18152,-16.099568 -0.21875,-24.25 L 356.75,87.1875 367.96875,87.09375 C 367.92724,77.188988 367.93351,67.176331 368,57.0625 l -13.75,-1.125 13.78125,-0.125 c 0.0401,-5.707109 0.0793,-11.440483 0.15625,-17.21875 0.0132,-0.98969 -0.7937,-1.74975 -1.8125,-1.78125 -26.09378,-0.80671 -52.13417,-1.215342 -78.0625,-1.21875 z"
         id="path3315" />
      <path
         inkscape:connector-curvature="0"
         style="fill:#e5993e;fill-opacity:1;fill-rule:nonzero;stroke:none"
         d="m 279.59375,37.21875 c -22.09738,0.02743 -44.04951,0.654519 -65.4375,2.75 -0.92453,0.09058 -1.52975,0.735808 -1.6875,1.625 C 211.54656,46.79196 210.90912,52.107625 210.5,57.5 l 8.28125,0.0625 -8.3125,0.6875 c -0.78445,10.892478 -0.7018,22.092327 -0.3125,33.28125 l 13.28125,0.125 -13.25,1.0625 c 0.2122,5.79565 0.50166,11.60186 0.78125,17.34375 0.0439,0.90129 0.76073,1.5594 1.6875,1.625 50.37864,3.56442 103.14069,1.37358 151.84375,0.46875 0.92906,-0.0173 1.6498,-0.72345 1.6875,-1.625 C 366.49896,103.07969 366.67287,95.547765 366.75,88 l -10,-0.8125 10,-0.09375 c 0.092,-10.053049 -0.007,-20.135737 -0.1875,-30.15625 l -12.3125,-1 12.3125,-0.09375 c -0.10021,-5.336051 -0.22925,-10.658508 -0.375,-15.9375 -0.0249,-0.901965 -0.75828,-1.621 -1.6875,-1.625 -27.87295,-0.119231 -56.49533,-1.097762 -84.90625,-1.0625 z"
         id="path3317" />
      <path
         inkscape:connector-curvature="0"
         style="fill:#d9883b;fill-opacity:1;fill-rule:nonzero;stroke:none"
         d="m 365,38.15625 -35.90625,3.8125 c -0.65498,0.06909 -7.93442,16.073021 -11.125,18.75 C 293.32109,81.3988 312.75,86.130356 312.75,109.5625 c 0,0.60443 0.52821,1.09375 1.1875,1.09375 l 51.0625,0 c 0.65929,0 1.1875,-0.48932 1.1875,-1.09375 l 0,-21.21875 -17.8125,-1.78125 17.8125,0.34375 0,-29.8125 -21.5,-2.125 21.5,0.4375 0,-16.15625 c 0,-0.604431 -0.53253,-1.16284 -1.1875,-1.09375 z"
         id="path3319" />
      <path
         sodipodi:nodetypes="cccc"
         inkscape:connector-curvature="0"
         id="path3321"
         d="m 248.98801,68.290003 90.82403,-1.80873 -58.1928,5.795972 z"
         inkscape:transform-center-y="-1.7350143"
         inkscape:transform-center-x="5.0193347"
         style="fill:#784421;fill-opacity:1;fill-rule:nonzero;stroke:none" />
      <path
         inkscape:connector-curvature="0"
         style="fill:#cc8146;fill-opacity:1;fill-rule:nonzero;stroke:none"
         d="m 365.34375,47.84375 c -0.11719,0.01294 -0.18599,0.09842 -0.21875,0.28125 -0.45772,2.554154 -0.80291,5.133167 -1.09375,7.71875 l 2.875,0 0.0625,-5.9375 c 0.007,-0.804162 -1.11717,-2.11859 -1.625,-2.0625 z m -1.40625,8.875 c -1.05859,9.97963 -1.08543,20.160997 -1.21875,30.40625 l 3.9375,-0.03125 0.25,-30.125 -2.96875,-0.25 z m -1.21875,30.96875 c -0.0853,6.30024 -0.23678,12.62993 -0.71875,18.9375 -38.1936,0.11753 -72.70016,5.94467 -116.6875,3.09375 L 220.75,109.0625 c -1.01894,-0.0273 -9.54303,0.53576 -8.28125,2.53125 40.50571,3.50086 150.375,0.96875 150.375,0.96875 3.67625,0.0239 3.616,-3.47901 3.625,-4.46875 L 366.65625,88 l -3.9375,-0.3125 z"
         id="path3323" />
      <path
         inkscape:connector-curvature="0"
         style="fill:#ebca91;fill-opacity:1;fill-rule:nonzero;stroke:none"
         d="m 286.71875,37.84375 c -37.63291,0.07588 -72.40625,0.875 -72.40625,0.875 -3.67625,-0.02386 -3.58475,3.479005 -3.59375,4.46875 l -0.125,14.3125 3.96875,0.03125 c 0.1039,-4.287987 0.26623,-8.588656 0.59375,-12.875 38.1936,-0.117529 72.70017,-5.944673 116.6875,-3.09375 l 24.5625,0.65625 c 1.01893,0.02726 9.54303,-0.535757 8.28125,-2.53125 -17.72125,-1.531626 -48.69871,-1.902765 -77.96875,-1.84375 z m -72.15625,20.0625 -3.96875,0.3125 -0.3125,33.3125 3.25,0.03125 c 0.94372,-11.053774 0.76721,-22.333535 1.03125,-33.65625 z m -1.09375,34.5625 -3.1875,0.25 -0.0937,8.65625 c -0.009,0.98974 1.669,2.75636 1.84375,1.78125 0.63216,-3.527572 1.11032,-7.102299 1.4375,-10.6875 z"
         id="path3325" />
      <path
         inkscape:connector-curvature="0"
         style="fill:#784421;fill-opacity:1;fill-rule:nonzero;stroke:none"
         d="m 208.375,88.78125 0.25,2.75 14.8125,0.125 -14.6875,1.1875 0.28125,2.84375 60.9375,-6.28125 -61.59375,-0.625 z"
         id="path3327" />
      <path
         inkscape:connector-curvature="0"
         style="fill:#784421;fill-opacity:1;fill-rule:nonzero;stroke:none"
         d="m 209.09375,55.21875 0.28125,2.25 9.40625,0.09375 -9.3125,0.75 0.0937,0.84375 43.875,-3.5625 -44.34375,-0.375 z"
         id="path3329" />
      <path
         inkscape:connector-curvature="0"
         style="fill:#784421;fill-opacity:1;fill-rule:nonzero;stroke:none"
         d="M 367.5,54.34375 325.84375,54.75 367.03125,58.65625 367.21875,57 354.25,55.9375 367.34375,55.8125 367.5,54.34375 z"
         id="path3331" />
      <path
         inkscape:connector-curvature="0"
         style="fill:#784421;fill-opacity:1;fill-rule:nonzero;stroke:none"
         d="m 367.84375,85.25 -56.4375,0.4375 55.84375,4.375 0.25,-2 -10.75,-0.875 10.875,-0.09375 0.21875,-1.84375 z"
         id="path3333" />
    </g>
    <g
       transform="matrix(0.50016406,0,0,0.50002351,188.6519,317.79226)"
       id="g3335"
       inkscape:export-filename="Z:\Proiecte\angrybox\src\bmp\wood-ws-3.png"
       inkscape:export-xdpi="90"
       inkscape:export-ydpi="90">
      <path
         inkscape:connector-curvature="0"
         style="fill:#784421;fill-opacity:1;fill-rule:nonzero;stroke:none"
         d="m 457.5,35.59375 c -25.92833,-0.0034 -51.77259,0.398407 -77.53125,1.21875 -1.01878,0.03245 -1.7519,0.793229 -1.8125,1.78125 -0.35503,5.786275 -0.55375,11.63072 -0.65625,17.5 l 32.71875,-1.375 -32.75,4.25 c -0.11962,10.103452 0.0396,20.289591 0.25,30.5 l 48.46875,0.3125 -48.40625,3.90625 c 0.13558,6.220151 0.27567,12.44795 0.375,18.65625 0.0158,0.98966 0.79409,1.73935 1.8125,1.78125 52.22441,2.15076 104.03808,1.74533 155.59375,0 1.01871,-0.0345 1.8263,-0.79156 1.8125,-1.78125 -0.10656,-7.6351 -0.18035,-15.355667 -0.21875,-23.125 l -43.125,-3.46875 43.125,-0.28125 c -0.0343,-9.377092 -0.0315,-18.842541 0.0312,-28.40625 l -13.75,-1.125 0.28125,0 -18.5625,-1.5 32.0625,-0.21875 c 0.0365,-5.183465 0.0864,-10.381519 0.15625,-15.625 0.0132,-0.98969 -0.7937,-1.74975 -1.8125,-1.78125 C 509.46872,36.00579 483.42833,35.597158 457.5,35.59375 z m 24.90625,32.3125 c -11.33922,0.758418 -24.45822,2.285759 -33.25,3.46875 C 445.25282,69.934042 437.55164,68.956318 430.5,68.65625 l 51.90625,-0.75 z"
         id="path3337" />
      <path
         inkscape:connector-curvature="0"
         style="fill:#e5993e;fill-opacity:1;fill-rule:nonzero;stroke:none"
         d="m 448.78125,37.21875 c -22.09738,0.02743 -44.04951,0.654519 -65.4375,2.75 -0.92453,0.09058 -1.52975,0.735808 -1.6875,1.625 C 380.81983,46.308485 380.22253,51.122421 379.8125,56 L 410.21875,54.71875 379.625,58.6875 c -0.70418,10.083959 -0.66698,20.430596 -0.34375,30.78125 l 46.90625,0.3125 -46.78125,3.78125 c 0.20884,5.515089 0.48398,11.03687 0.75,16.5 0.0439,0.90129 0.76073,1.5594 1.6875,1.625 50.37864,3.56442 103.14069,1.37358 151.84375,0.46875 0.92906,-0.0173 1.6498,-0.72345 1.6875,-1.625 0.29597,-7.08097 0.44871,-14.235507 0.53125,-21.40625 l -41.875,-3.375 41.90625,-0.28125 C 536.0053,75.9552 535.9208,66.417497 535.75,56.9375 l -12.3125,-1 0.28125,0 -18.5625,-1.5 30.5625,-0.1875 c -0.0953,-4.79978 -0.21257,-9.592609 -0.34375,-14.34375 -0.0249,-0.901965 -0.75828,-1.621 -1.6875,-1.625 -27.87295,-0.119231 -56.49533,-1.097762 -84.90625,-1.0625 z m 33.625,30.6875 c -11.33922,0.758418 -24.45822,2.285759 -33.25,3.46875 C 445.25282,69.934042 437.55164,68.956318 430.5,68.65625 l 51.90625,-0.75 z"
         id="path3339" />
      <path
         inkscape:connector-curvature="0"
         style="fill:#c87137;fill-opacity:0.42021275;fill-rule:nonzero;stroke:none"
         d="m 534.1875,38.15625 -35.90625,3.8125 c -0.65498,0.06909 -7.93442,16.073021 -11.125,18.75 -3.15633,2.648243 -5.56217,5.020817 -7.40625,7.21875 l 2.65625,-0.03125 c -0.91379,0.06112 -1.84753,0.116908 -2.78125,0.1875 -12.32177,14.852289 2.3125,21.108928 2.3125,41.46875 0,0.60443 0.52821,1.09375 1.1875,1.09375 l 51.0625,0 c 0.65929,0 1.1875,-0.48932 1.1875,-1.09375 l 0,-20.46875 -41.34375,-3.34375 41.34375,-0.28125 0,-28.375 -11.96875,-1.1875 -18.25,-1.46875 30.21875,-0.1875 0,-15 c 0,-0.604431 -0.53253,-1.16284 -1.1875,-1.09375 z"
         id="path3341" />
      <path
         inkscape:connector-curvature="0"
         style="fill:#784421;fill-opacity:1;fill-rule:nonzero;stroke:none"
         d="M 512.75,65.0625 412.46875,67.75 448.5,73.71875 512.75,65.0625 z m -30.34375,2.84375 c -11.33922,0.758418 -24.45822,2.285759 -33.25,3.46875 C 445.25282,69.934042 437.55164,68.956318 430.5,68.65625 l 51.90625,-0.75 z"
         id="path3343" />
      <path
         inkscape:connector-curvature="0"
         style="fill:#b36531;fill-opacity:1;fill-rule:nonzero;stroke:none"
         d="m 534.53125,47.84375 c -0.11719,0.01294 -0.18599,0.09842 -0.21875,0.28125 -0.36363,2.029113 -0.65549,4.073679 -0.90625,6.125 l 2.71875,0 0.0312,-4.34375 c 0.007,-0.804162 -1.11717,-2.11859 -1.625,-2.0625 z m -1.40625,8.875 c -1.00242,9.450074 -1.06892,19.086436 -1.1875,28.78125 l 3.90625,-0.03125 0.25,-28.5 -2.96875,-0.25 z m -1.21875,32.09375 c -0.0885,5.927923 -0.2655,11.88081 -0.71875,17.8125 -38.1936,0.11753 -72.70016,5.94467 -116.6875,3.09375 l -24.5625,-0.65625 c -1.01894,-0.0273 -9.54303,0.53576 -8.28125,2.53125 40.50571,3.50086 150.375,0.96875 150.375,0.96875 3.67625,0.0239 3.616,-3.47901 3.625,-4.46875 l 0.1875,-18.96875 -3.9375,-0.3125 z"
         id="path3345" />
      <path
         inkscape:connector-curvature="0"
         style="fill:#ebca91;fill-opacity:1;fill-rule:nonzero;stroke:none"
         d="m 455.90625,37.84375 c -37.63291,0.07588 -72.40625,0.875 -72.40625,0.875 -3.67625,-0.02386 -3.58475,3.479005 -3.59375,4.46875 L 379.78125,56 383.8125,55.84375 c 0.10518,-3.728397 0.24666,-7.463017 0.53125,-11.1875 38.1936,-0.117529 72.70017,-5.944673 116.6875,-3.09375 l 24.5625,0.65625 c 1.01893,0.02726 9.54303,-0.535757 8.28125,-2.53125 -17.72125,-1.531626 -48.69871,-1.902765 -77.96875,-1.84375 z M 383.75,58.15625 379.78125,58.6875 379.5,89.46875 382.875,89.5 c 0.75449,-10.312217 0.63513,-20.807331 0.875,-31.34375 z m -1.15625,35.15625 -3.125,0.25 -0.0937,7.8125 c -0.009,0.98974 1.669,2.75636 1.84375,1.78125 0.58263,-3.251182 1.05163,-6.541174 1.375,-9.84375 z"
         id="path3347" />
      <path
         inkscape:connector-curvature="0"
         style="fill:#784421;fill-opacity:1;fill-rule:nonzero;stroke:none"
         d="m 377.5625,87.53125 0.15625,1.9375 48.46875,0.3125 -48.15625,3.875 0.25,3.28125 65.875,-8.5625 -66.59375,-0.84375 z"
         id="path3349" />
      <path
         inkscape:connector-curvature="0"
         style="fill:#784421;fill-opacity:1;fill-rule:nonzero;stroke:none"
         d="m 378.28125,53.78125 0.21875,2.28125 31.71875,-1.34375 -21.5625,2.8125 0.5625,0 -4.75,0.53125 -5.75,0.75 0.0937,1.25 49.53125,-5.6875 -50.0625,-0.59375 z"
         id="path3351" />
      <path
         inkscape:connector-curvature="0"
         style="fill:#784421;fill-opacity:1;fill-rule:nonzero;stroke:none"
         d="M 536.6875,52.5625 484.5,53.28125 536.125,60.25 l 0.21875,-2.9375 -9.78125,-1.15625 -21.40625,-1.71875 31.40625,-0.21875 0.125,-1.65625 z"
         id="path3353" />
      <path
         inkscape:connector-curvature="0"
         style="fill:#784421;fill-opacity:1;fill-rule:nonzero;stroke:none"
         d="m 537.03125,83.8125 -65.875,0.75 65.1875,7.28125 0.25,-2.65625 -42.5625,-3.4375 42.875,-0.28125 0.125,-1.65625 z"
         id="path3355" />
    </g>
    <g
       id="g3357"
       transform="matrix(1,0,0,0.5,-1.2630376e-6,306.95749)"
       inkscape:export-filename="Z:\Proiecte\angrybox\src\bmp\wood-www-1.png"
       inkscape:export-xdpi="90"
       inkscape:export-ydpi="90">
      <path
         sodipodi:nodetypes="sssssssss"
         inkscape:connector-curvature="0"
         id="path3359"
         d="m 37.939322,191.90588 c 51.517316,-0.82034 103.378188,-0.80671 155.565748,0 1.0188,0.0157 1.85312,0.39845 1.83993,0.8933 -0.33623,12.61675 -0.33401,24.90485 0,36.87077 0.0138,0.49484 -0.82122,0.87605 -1.83993,0.89329 -51.55567,0.87267 -103.341336,1.07538 -155.565748,0 -1.018405,-0.0209 -1.824095,-0.39846 -1.839929,-0.89329 -0.395323,-12.35423 -1.478816,-24.81984 0,-36.87077 0.06062,-0.49401 0.821156,-0.87707 1.839929,-0.8933 z"
         style="fill:#784421;fill-opacity:1;fill-rule:nonzero;stroke:none" />
      <path
         sodipodi:nodetypes="sssssssss"
         inkscape:connector-curvature="0"
         id="path3361"
         d="m 41.295557,193.66555 c 48.886839,-2.32082 100.809453,-0.93052 150.361363,-0.82781 0.92922,0.002 1.6524,0.35212 1.6773,0.78916 0.64292,11.28316 0.9747,22.92917 0,34.22843 -0.0377,0.43685 -0.74824,0.78081 -1.6773,0.78917 -48.70306,0.43843 -101.490799,1.4906 -151.869447,-0.23652 -0.926767,-0.0318 -1.633414,-0.35245 -1.677301,-0.78917 -1.118345,-11.12879 -2.346723,-22.63547 1.508085,-33.16409 0.157747,-0.43086 0.75277,-0.74528 1.6773,-0.78917 z"
         style="fill:#e5993e;fill-opacity:1;fill-rule:nonzero;stroke:none" />
      <path
         sodipodi:nodetypes="sssssssss"
         inkscape:connector-curvature="0"
         id="path3363"
         d="m 156.09314,196.22834 35.90839,-1.68963 c 0.65497,-0.0308 1.19005,0.21704 1.19005,0.48665 l 0,31.35486 c 0,0.26959 -0.53076,0.48664 -1.19005,0.48664 l -51.05856,0 c -0.65929,0 -1.19006,-0.21705 -1.19006,-0.48664 0,-10.45162 -19.41397,-12.55624 5.23369,-21.78033 3.19058,-1.19403 10.45156,-8.34073 11.10654,-8.37155 z"
         style="fill:#d9883b;fill-opacity:1;fill-rule:nonzero;stroke:none" />
      <path
         sodipodi:nodetypes="cccc"
         inkscape:connector-curvature="0"
         id="path3365"
         d="m 80.868172,213.94843 83.502608,-1.19574 -53.50181,3.83169 z"
         inkscape:transform-center-y="-1.1470088"
         inkscape:transform-center-x="4.614721"
         style="fill:#784421;fill-opacity:1;fill-rule:nonzero;stroke:none" />
      <path
         sodipodi:nodetypes="csssscsccc"
         inkscape:connector-curvature="0"
         id="path3367"
         d="m 189.15158,223.16703 c 1.25399,-14.20166 2.24564,-20.59739 2.60618,-28.27328 0.0443,-0.94214 1.83984,0.75856 1.83992,1.70081 l 0.002,27.97391 c 8e-5,0.94225 0.0769,4.27926 -3.59935,4.25655 0,0 -109.89041,2.40339 -150.396128,-0.92936 -1.261777,-1.89967 7.284348,-2.43546 8.303282,-2.4095 l 24.542735,0.62517 c 43.987341,2.71401 78.507381,-2.83243 116.700981,-2.94431 z"
         style="fill:#cc8146;fill-opacity:1;fill-rule:nonzero;stroke:none" />
      <path
         style="fill:#ebca91;fill-opacity:1;fill-rule:nonzero;stroke:none"
         d="m 42.296234,199.11334 c -0.243832,8.09951 -1.235484,15.0704 -3.111251,23.63856 -0.211857,0.96773 -1.861252,-0.79706 -1.839924,-1.7866 l 0.502699,-23.32409 c 0.02133,-0.98956 -0.07694,-4.49513 3.599348,-4.47127 0,0 109.890404,-2.52461 150.396124,0.97625 1.26178,1.99549 -7.28435,2.5583 -8.30328,2.53104 l -24.54274,-0.6567 c -43.98733,-2.85093 -78.50737,2.9753 -116.700976,3.09283 z"
         id="path3369"
         inkscape:connector-curvature="0"
         sodipodi:nodetypes="csssscsccc" />
      <path
         style="fill:#784421;fill-opacity:1;fill-rule:nonzero;stroke:none"
         inkscape:transform-center-x="4.6147208"
         inkscape:transform-center-y="-1.1470088"
         d="m 35.513104,207.1738 54.094957,0.39066 -53.501806,3.83168 z"
         id="path3371"
         inkscape:connector-curvature="0"
         sodipodi:nodetypes="cccc" />
      <path
         sodipodi:nodetypes="cccc"
         inkscape:connector-curvature="0"
         id="path3373"
         d="m 195.00164,200.96101 -48.9408,0.23099 48.40416,2.26558 z"
         inkscape:transform-center-y="-0.67819847"
         inkscape:transform-center-x="-4.1750324"
         style="fill:#784421;fill-opacity:1;fill-rule:nonzero;stroke:none" />
    </g>
    <g
       id="g3375"
       transform="matrix(1,0,0,0.49982819,0,306.99686)"
       inkscape:export-filename="Z:\Proiecte\angrybox\src\bmp\wood-www-2.png"
       inkscape:export-xdpi="90"
       inkscape:export-ydpi="90">
      <path
         style="fill:#784421;fill-opacity:1;fill-rule:nonzero;stroke:none"
         d="m 287.6875,191.28125 c -25.92833,-0.002 -51.77259,0.21483 -77.53125,0.625 -1.01877,0.0162 -1.7519,0.41224 -1.8125,0.90625 -0.6757,5.50634 -0.80287,11.09557 -0.71875,16.71875 l 24.4375,-0.4375 -24.40625,2.1875 c 0.13819,6.10893 0.49151,12.25002 0.6875,18.375 0.0158,0.49483 0.7941,0.88535 1.8125,0.90625 52.22441,1.07538 104.03808,0.87267 155.59375,0 1.01871,-0.0172 1.8263,-0.41141 1.8125,-0.90625 -0.22766,-8.15579 -0.30147,-16.45706 -0.21875,-24.90625 l -9.8125,-1.09375 9.84375,-0.1875 c 0.0411,-3.52451 0.0921,-7.07584 0.1875,-10.65625 0.0132,-0.49485 -0.7937,-0.89055 -1.8125,-0.90625 -26.09378,-0.40336 -52.13417,-0.6233 -78.0625,-0.625 z m 25.8125,24 -31.40625,2.8125 -17.625,-1.9375 49.03125,-0.875 z"
         id="path3377"
         inkscape:connector-curvature="0" />
      <path
         style="fill:#e5993e;fill-opacity:1;fill-rule:nonzero;stroke:none"
         d="m 281.375,192.3125 c -3.94683,-0.002 -7.90599,0.0125 -11.84375,0.0312 -18.90127,0.0902 -37.66744,0.44219 -56,1.3125 -0.92453,0.0439 -1.52976,0.38164 -1.6875,0.8125 -1.7764,4.85188 -2.46993,9.89845 -2.59375,15.03125 l 22.8125,-0.40625 -22.84375,2.03125 c -0.01,5.48046 0.57626,11.0394 1.125,16.5 0.0439,0.43672 0.76074,0.74945 1.6875,0.78125 50.37865,1.72712 103.14069,0.68843 151.84375,0.25 0.92906,-0.008 1.6498,-0.37565 1.6875,-0.8125 0.66166,-7.67038 0.69983,-15.48488 0.46875,-23.25 l -8.5,-0.9375 L 366,203.5 c -0.10981,-3.30578 -0.25155,-6.61161 -0.4375,-9.875 -0.0249,-0.43704 -0.75828,-0.77925 -1.6875,-0.78125 -27.0987,-0.0562 -54.87219,-0.51886 -82.5,-0.53125 z m 32.125,22.96875 -31.40625,2.8125 -17.625,-1.9375 49.03125,-0.875 z"
         id="path3379"
         inkscape:connector-curvature="0" />
      <path
         style="fill:#d9883b;fill-opacity:1;fill-rule:nonzero;stroke:none"
         d="m 364.21875,194.53125 -35.90625,1.6875 c -0.65498,0.0308 -7.90317,7.18097 -11.09375,8.375 -12.84409,4.80675 -13.69749,7.68375 -11.59375,10.8125 l 7.875,-0.125 -7.5,0.65625 c 2.07986,2.73018 5.96875,5.73838 5.96875,10.4375 0,0.26959 0.55946,0.5 1.21875,0.5 l 51.03125,0 c 0.65929,0 1.21875,-0.23041 1.21875,-0.5 l 0,-21.84375 -7.90625,-0.875 7.90625,-0.15625 0,-8.46875 c 0,-0.26961 -0.56378,-0.5308 -1.21875,-0.5 z"
         id="path3381"
         inkscape:connector-curvature="0" />
      <path
         style="fill:#784421;fill-opacity:1;fill-rule:nonzero;stroke:none"
         d="m 340.125,212.75 -91.0625,2.21875 32.71875,4.90625 58.34375,-7.125 z m -26.625,2.53125 -31.40625,2.8125 -17.625,-1.9375 49.03125,-0.875 z"
         id="path3383"
         inkscape:connector-curvature="0" />
      <path
         style="fill:#cc8146;fill-opacity:1;fill-rule:nonzero;stroke:none"
         d="m 364.1875,194.625 c -0.10806,0.0132 -0.17919,0.1046 -0.1875,0.28125 -0.13497,2.87353 -0.39498,5.66484 -0.6875,8.65625 l 2.53125,-0.0625 0,-6.90625 c -7e-5,-0.76558 -1.18798,-2.02615 -1.65625,-1.96875 z m -0.9375,9.65625 c -0.4829,4.84151 -1.12779,10.4127 -1.875,18.875 -38.1936,0.11188 -72.70016,5.68276 -116.6875,2.96875 L 220.125,225.5 c -1.01893,-0.026 -9.54302,0.50658 -8.28125,2.40625 40.50572,3.33275 150.375,0.90625 150.375,0.90625 3.67625,0.0227 3.62508,-3.30775 3.625,-4.25 l 0,-20 -2.59375,-0.28125 z"
         id="path3385"
         inkscape:connector-curvature="0" />
      <path
         style="fill:#ebca91;fill-opacity:1;fill-rule:nonzero;stroke:none"
         d="m 286.09375,192.28125 c -37.63291,0.0759 -72.40625,0.875 -72.40625,0.875 -3.67625,-0.0239 -3.57245,3.51044 -3.59375,4.5 L 209.8125,209.5 213.75,209.4063 c 0.41004,-3.36642 0.67373,-6.70964 0.78125,-10.28125 38.19361,-0.11753 72.70017,-5.94468 116.6875,-3.09375 l 24.5625,0.65625 c 1.01893,0.0273 9.54303,-0.53576 8.28125,-2.53125 -17.72125,-1.53163 -48.69871,-1.93401 -77.96875,-1.875 z m -72.5,18.46875 -3.8125,0.34375 -0.21875,9.875 c -0.0213,0.98954 1.6319,2.74898 1.84375,1.78125 0.93788,-4.28408 1.67464,-8.17382 2.1875,-12 z"
         id="path3387"
         inkscape:connector-curvature="0" />
      <path
         style="fill:#784421;fill-opacity:1;fill-rule:nonzero;stroke:none"
         d="m 207.75,207.1875 0.21875,2.34375 24.09375,-0.4375 -23.9375,2.15625 0.21875,2.15625 53.5,-5.65625 -54.09375,-0.5625 z"
         id="path3389"
         inkscape:connector-curvature="0" />
      <path
         style="fill:#784421;fill-opacity:1;fill-rule:nonzero;stroke:none"
         d="m 367.21875,200.96875 -48.9375,0.5 48.40625,5.03125 0.1875,-1.8125 -9.34375,-1.03125 9.4375,-0.15625 0.25,-2.53125 z"
         id="path3391"
         inkscape:connector-curvature="0" />
    </g>
    <g
       id="g3393"
       transform="matrix(1,0,0,0.49982819,0,306.99686)"
       inkscape:export-filename="Z:\Proiecte\angrybox\src\bmp\wood-www-3.png"
       inkscape:export-xdpi="90"
       inkscape:export-ydpi="90">
      <path
         style="fill:#784421;fill-opacity:1;fill-rule:nonzero;stroke:none"
         d="m 460.9375,191.28125 c -25.92833,-0.002 -51.77259,0.21483 -77.53125,0.625 -1.01877,0.0162 -1.7519,0.41224 -1.8125,0.90625 -0.5806,4.73134 -0.76543,9.52106 -0.75,14.34375 l 43.84375,1.1875 -43.78125,3.09375 c 0.14061,6.05756 0.49318,12.14581 0.6875,18.21875 0.0158,0.49483 0.7941,0.88535 1.8125,0.90625 52.22441,1.07538 104.03808,0.87267 155.59375,0 1.01871,-0.0172 1.8263,-0.41141 1.8125,-0.90625 -0.21921,-7.85298 -0.28721,-15.84383 -0.21875,-23.96875 l -44.5,-3.15625 44.5625,-1.1875 c 0.0372,-2.83035 0.0799,-5.66479 0.15625,-8.53125 0.0132,-0.49485 -0.7937,-0.89055 -1.8125,-0.90625 -26.09378,-0.40336 -52.13417,-0.6233 -78.0625,-0.625 z m 38.3125,22.09375 -16.03125,1.96875 3.53125,-0.0625 -11.09375,1 -22.9375,2.8125 -26.125,-3.9375 L 499.25,213.375 z"
         id="path3395"
         inkscape:connector-curvature="0" />
      <path
         style="fill:#e5993e;fill-opacity:1;fill-rule:nonzero;stroke:none"
         d="m 454.625,192.3125 c -3.94683,-0.002 -7.90599,0.0126 -11.84375,0.0312 -18.90127,0.0902 -37.66744,0.44219 -56,1.3125 -0.92453,0.0439 -1.52976,0.38164 -1.6875,0.8125 -1.51136,4.12799 -2.2403,8.40695 -2.5,12.75 l 42.09375,1.125 -42.21875,3 c 0.006,5.40984 0.58353,10.89303 1.125,16.28125 0.0439,0.43672 0.76074,0.74945 1.6875,0.78125 50.37865,1.72712 103.14069,0.68843 151.84375,0.25 0.92906,-0.008 1.6498,-0.37565 1.6875,-0.8125 0.63335,-7.34217 0.69851,-14.81344 0.5,-22.25 l -43.21875,-3.0625 43.0625,-1.15625 c -0.0975,-2.5972 -0.19757,-5.18461 -0.34375,-7.75 -0.0249,-0.43704 -0.75828,-0.77925 -1.6875,-0.78125 -27.0987,-0.0562 -54.87219,-0.51886 -82.5,-0.53125 z m 44.625,21.0625 -16.03125,1.96875 3.53125,-0.0625 -11.09375,1 -22.9375,2.8125 -26.125,-3.9375 L 499.25,213.375 z"
         id="path3397"
         inkscape:connector-curvature="0" />
      <path
         style="fill:#d9883b;fill-opacity:1;fill-rule:nonzero;stroke:none"
         d="m 537.46875,194.53125 -35.90625,1.6875 c -0.65498,0.0308 -7.90317,7.18097 -11.09375,8.375 -10.77273,4.03157 -13.11119,6.70884 -12.34375,9.3125 l 21.125,-0.53125 -15.96875,1.96875 3.46875,-0.0625 -7.5,0.65625 c 2.07986,2.73018 5.96875,5.73838 5.96875,10.4375 0,0.26959 0.55946,0.5 1.21875,0.5 l 51.03125,0 c 0.65929,0 1.21875,-0.23041 1.21875,-0.5 l 0,-20.84375 -42.59375,-3 42.59375,-1.125 0,-6.375 c 0,-0.26961 -0.56378,-0.5308 -1.21875,-0.5 z"
         id="path3399"
         inkscape:connector-curvature="0" />
      <path
         style="fill:#784421;fill-opacity:1;fill-rule:nonzero;stroke:none"
         d="m 517.53125,211.75 -103.3125,2.6875 37.125,5.9375 66.1875,-8.625 z m -18.28125,1.625 -46.53125,5.71875 -26.125,-3.9375 L 499.25,213.375 z"
         id="path3401"
         inkscape:connector-curvature="0" />
      <path
         style="fill:#cc8146;fill-opacity:1;fill-rule:nonzero;stroke:none"
         d="m 537.4375,194.625 c -0.10806,0.0132 -0.17919,0.1046 -0.1875,0.28125 -0.10221,2.17597 -0.29457,4.32698 -0.5,6.53125 l 2.34375,-0.0625 0,-4.78125 c -7e-5,-0.76558 -1.18798,-2.02615 -1.65625,-1.96875 z m -1.0625,10.75 c -0.47041,4.61529 -1.05333,9.89132 -1.75,17.78125 -38.1936,0.11188 -72.70016,5.68276 -116.6875,2.96875 L 393.375,225.5 c -1.01893,-0.026 -9.54302,0.50658 -8.28125,2.40625 40.50572,3.33275 150.375,0.90625 150.375,0.90625 3.67625,0.0227 3.62508,-3.30775 3.625,-4.25 l 0,-19 -2.71875,-0.1875 z"
         id="path3403"
         inkscape:connector-curvature="0" />
      <path
         style="fill:#ebca91;fill-opacity:1;fill-rule:nonzero;stroke:none"
         d="m 459.34375,192.28125 c -37.63291,0.0759 -72.40625,0.875 -72.40625,0.875 -3.67625,-0.0239 -3.57245,3.51044 -3.59375,4.5 l -0.21875,9.5625 4.09375,0.125 c 0.27878,-2.68183 0.47687,-5.37429 0.5625,-8.21875 38.19361,-0.11753 72.70017,-5.94468 116.6875,-3.09375 l 24.5625,0.65625 c 1.01893,0.0273 9.54303,-0.53576 8.28125,-2.53125 -17.72125,-1.53163 -48.69871,-1.93401 -77.96875,-1.875 z m -72.53125,18.75 -3.78125,0.25 -0.21875,9.6875 c -0.0213,0.98954 1.6319,2.74898 1.84375,1.78125 0.91508,-4.17995 1.64525,-7.98237 2.15625,-11.71875 z"
         id="path3405"
         inkscape:connector-curvature="0" />
      <path
         style="fill:#784421;fill-opacity:1;fill-rule:nonzero;stroke:none"
         d="m 380.625,205.53125 0.28125,1.625 43.78125,1.1875 -39.46875,2.78125 -3.71875,0.34375 0.25,2.4375 62.1875,-6.4375 -63.3125,-1.9375 z"
         id="path3407"
         inkscape:connector-curvature="0" />
      <path
         style="fill:#784421;fill-opacity:1;fill-rule:nonzero;stroke:none"
         d="m 540.46875,199.84375 -72.5625,1.8125 71.78125,5.59375 0.1875,-1.625 -43.78125,-3.09375 44.25,-1.1875 0.125,-1.5 z"
         id="path3409"
         inkscape:connector-curvature="0" />
    </g>
    <g
       id="g3411"
       transform="matrix(0.50000002,0,0,1,17.672587,206.07112)"
       inkscape:export-filename="Z:\Proiecte\angrybox\src\bmp\wood-s-1.png"
       inkscape:export-xdpi="90"
       inkscape:export-ydpi="90">
      <path
         style="fill:#784421;fill-opacity:1;fill-rule:nonzero;stroke:none"
         d="m 37.939322,36.801751 c 51.517316,-1.640686 103.378188,-1.61342 155.565748,0 1.0188,0.0315 1.85312,0.796903 1.83993,1.786593 -0.33623,25.233497 -0.33401,49.8097 0,73.741536 0.0138,0.98969 -0.82122,1.75211 -1.83993,1.78659 -51.55567,1.74533 -103.341336,2.15076 -155.565748,0 -1.018405,-0.0419 -1.824095,-0.79693 -1.839929,-1.78659 -0.395323,-24.708465 -1.478816,-49.639673 0,-73.741536 0.06062,-0.988021 0.821156,-1.754148 1.839929,-1.786593 z"
         id="path3413"
         inkscape:connector-curvature="0"
         sodipodi:nodetypes="sssssssss" />
      <path
         style="fill:#e5993e;fill-opacity:1;fill-rule:nonzero;stroke:none"
         d="m 41.295557,39.974547 c 48.886839,-4.789672 100.809453,-1.920396 150.361363,-1.70843 0.92922,0.004 1.6524,0.726714 1.6773,1.628679 0.64292,23.286135 0.9747,47.321133 0,70.640504 -0.0377,0.90155 -0.74824,1.61142 -1.6773,1.62868 -48.70306,0.90483 -101.490799,3.0763 -151.869447,-0.48812 -0.926767,-0.0656 -1.633414,-0.7274 -1.677301,-1.62869 -1.118345,-22.967548 -2.346723,-46.714999 1.508085,-68.443944 0.157747,-0.889192 0.75277,-1.538098 1.6773,-1.628679 z"
         id="path3415"
         inkscape:connector-curvature="0"
         sodipodi:nodetypes="sssssssss" />
      <path
         style="fill:#d9883b;fill-opacity:1;fill-rule:nonzero;stroke:none"
         d="m 156.09314,42.462167 35.90839,-3.788072 c 0.65497,-0.06909 1.19005,0.4866 1.19005,1.091031 l 0,70.296414 c 0,0.60443 -0.53076,1.09103 -1.19005,1.09103 l -51.05856,0 c -0.65929,0 -1.19006,-0.4866 -1.19006,-1.09103 0,-23.432138 -19.41397,-28.150622 5.23369,-48.830672 3.19058,-2.676979 10.45156,-18.699606 11.10654,-18.768701 z"
         id="path3417"
         inkscape:connector-curvature="0"
         sodipodi:nodetypes="sssssssss" />
      <path
         style="fill:#784421;fill-opacity:1;fill-rule:nonzero;stroke:none"
         inkscape:transform-center-x="4.614721"
         inkscape:transform-center-y="-1.1470088"
         d="m 76.130863,67.677015 83.502607,-1.195742 -53.50181,3.831686 z"
         id="path3419"
         inkscape:connector-curvature="0"
         sodipodi:nodetypes="cccc" />
      <path
         style="fill:#cc8146;fill-opacity:1;fill-rule:nonzero;stroke:none"
         d="m 189.15158,106.61998 c 1.50653,-19.716257 -0.27974,-39.566591 3.11126,-58.488818 0.17474,-0.975109 1.84847,0.796856 1.83992,1.786594 l -0.5027,58.174354 c -0.009,0.98974 0.0769,4.49512 -3.59935,4.47126 0,0 -109.89041,2.52462 -150.396128,-0.97624 -1.261777,-1.99549 7.284348,-2.55831 8.303282,-2.53104 l 24.542735,0.6567 c 43.987341,2.85092 78.507381,-2.9753 116.700981,-3.09283 z"
         id="path3421"
         inkscape:connector-curvature="0"
         sodipodi:nodetypes="csssscsccc" />
      <path
         sodipodi:nodetypes="csssscsccc"
         inkscape:connector-curvature="0"
         id="path3423"
         d="m 42.296234,44.661748 c -1.506523,19.716258 0.279745,39.566591 -3.111251,58.488822 -0.174742,0.97511 -1.848474,-0.79686 -1.839924,-1.7866 l 0.502699,-58.174352 c 0.009,-0.989745 -0.07694,-4.495127 3.599348,-4.471265 0,0 109.890404,-2.524616 150.396124,0.976243 1.26178,1.995493 -7.28435,2.558306 -8.30328,2.531043 L 158.99721,41.568937 C 115.00988,38.718014 80.48984,44.544239 42.296234,44.661768 z"
         style="fill:#ebca91;fill-opacity:1;fill-rule:nonzero;stroke:none" />
      <path
         sodipodi:nodetypes="cccc"
         inkscape:connector-curvature="0"
         id="path3425"
         d="m 35.513104,91.459509 54.094957,0.390658 -53.501806,3.831686 z"
         inkscape:transform-center-y="-1.1470088"
         inkscape:transform-center-x="4.6147208"
         style="fill:#784421;fill-opacity:1;fill-rule:nonzero;stroke:none" />
      <path
         style="fill:#784421;fill-opacity:1;fill-rule:nonzero;stroke:none"
         inkscape:transform-center-x="3.1895198"
         inkscape:transform-center-y="-0.53755521"
         d="m 36.224023,55.218232 37.388386,0.183085 -36.978423,1.795751 z"
         id="path3427"
         inkscape:connector-curvature="0"
         sodipodi:nodetypes="cccc" />
      <path
         sodipodi:nodetypes="cccc"
         inkscape:connector-curvature="0"
         id="path3429"
         d="m 194.64619,54.355345 -37.3884,0.183085 36.97843,1.79575 z"
         inkscape:transform-center-y="-0.5375553"
         inkscape:transform-center-x="-3.1895199"
         style="fill:#784421;fill-opacity:1;fill-rule:nonzero;stroke:none" />
      <path
         style="fill:#784421;fill-opacity:1;fill-rule:nonzero;stroke:none"
         inkscape:transform-center-x="-4.1750324"
         inkscape:transform-center-y="-0.67819847"
         d="m 195.00164,85.246719 -48.9408,0.230986 48.40416,2.265582 z"
         id="path3431"
         inkscape:connector-curvature="0"
         sodipodi:nodetypes="cccc" />
    </g>
    <g
       transform="matrix(0.50013946,0,0,1.000047,104.0871,206.06568)"
       id="g3433"
       inkscape:export-filename="Z:\Proiecte\angrybox\src\bmp\wood-s-2.png"
       inkscape:export-xdpi="90"
       inkscape:export-ydpi="90">
      <path
         inkscape:connector-curvature="0"
         style="fill:#784421;fill-opacity:1;fill-rule:nonzero;stroke:none"
         d="m 288.3125,35.59375 c -25.92833,-0.0034 -51.77259,0.398407 -77.53125,1.21875 -1.01878,0.03245 -1.7519,0.793229 -1.8125,1.78125 -0.38273,6.237715 -0.59446,12.543995 -0.6875,18.875 l 10.5,0.09375 -10.5,0.84375 c -0.14151,10.968078 0.0457,22.034032 0.28125,33.125 l 14.875,0.125 -14.875,1.21875 c 0.13969,6.490442 0.30259,12.98997 0.40625,19.46875 0.0158,0.98966 0.79409,1.73935 1.8125,1.78125 52.22441,2.15076 104.03808,1.74533 155.59375,0 1.01871,-0.0345 1.8263,-0.79156 1.8125,-1.78125 -0.11172,-8.00452 -0.18152,-16.099568 -0.21875,-24.25 L 356.75,87.1875 367.96875,87.09375 C 367.92724,77.188988 367.93351,67.176331 368,57.0625 l -13.75,-1.125 13.78125,-0.125 c 0.0401,-5.707109 0.0793,-11.440483 0.15625,-17.21875 0.0132,-0.98969 -0.7937,-1.74975 -1.8125,-1.78125 -26.09378,-0.80671 -52.13417,-1.215342 -78.0625,-1.21875 z"
         id="path3435" />
      <path
         inkscape:connector-curvature="0"
         style="fill:#e5993e;fill-opacity:1;fill-rule:nonzero;stroke:none"
         d="m 279.59375,37.21875 c -22.09738,0.02743 -44.04951,0.654519 -65.4375,2.75 -0.92453,0.09058 -1.52975,0.735808 -1.6875,1.625 C 211.54656,46.79196 210.90912,52.107625 210.5,57.5 l 8.28125,0.0625 -8.3125,0.6875 c -0.78445,10.892478 -0.7018,22.092327 -0.3125,33.28125 l 13.28125,0.125 -13.25,1.0625 c 0.2122,5.79565 0.50166,11.60186 0.78125,17.34375 0.0439,0.90129 0.76073,1.5594 1.6875,1.625 50.37864,3.56442 103.14069,1.37358 151.84375,0.46875 0.92906,-0.0173 1.6498,-0.72345 1.6875,-1.625 C 366.49896,103.07969 366.67287,95.547765 366.75,88 l -10,-0.8125 10,-0.09375 c 0.092,-10.053049 -0.007,-20.135737 -0.1875,-30.15625 l -12.3125,-1 12.3125,-0.09375 c -0.10021,-5.336051 -0.22925,-10.658508 -0.375,-15.9375 -0.0249,-0.901965 -0.75828,-1.621 -1.6875,-1.625 -27.87295,-0.119231 -56.49533,-1.097762 -84.90625,-1.0625 z"
         id="path3437" />
      <path
         inkscape:connector-curvature="0"
         style="fill:#d9883b;fill-opacity:1;fill-rule:nonzero;stroke:none"
         d="m 365,38.15625 -35.90625,3.8125 c -0.65498,0.06909 -7.93442,16.073021 -11.125,18.75 C 293.32109,81.3988 312.75,86.130356 312.75,109.5625 c 0,0.60443 0.52821,1.09375 1.1875,1.09375 l 51.0625,0 c 0.65929,0 1.1875,-0.48932 1.1875,-1.09375 l 0,-21.21875 -17.8125,-1.78125 17.8125,0.34375 0,-29.8125 -21.5,-2.125 21.5,0.4375 0,-16.15625 c 0,-0.604431 -0.53253,-1.16284 -1.1875,-1.09375 z"
         id="path3439" />
      <path
         sodipodi:nodetypes="cccc"
         inkscape:connector-curvature="0"
         id="path3441"
         d="m 248.98801,68.290003 90.82403,-1.80873 -58.1928,5.795972 z"
         inkscape:transform-center-y="-1.7350143"
         inkscape:transform-center-x="5.0193347"
         style="fill:#784421;fill-opacity:1;fill-rule:nonzero;stroke:none" />
      <path
         inkscape:connector-curvature="0"
         style="fill:#cc8146;fill-opacity:1;fill-rule:nonzero;stroke:none"
         d="m 365.34375,47.84375 c -0.11719,0.01294 -0.18599,0.09842 -0.21875,0.28125 -0.45772,2.554154 -0.80291,5.133167 -1.09375,7.71875 l 2.875,0 0.0625,-5.9375 c 0.007,-0.804162 -1.11717,-2.11859 -1.625,-2.0625 z m -1.40625,8.875 c -1.05859,9.97963 -1.08543,20.160997 -1.21875,30.40625 l 3.9375,-0.03125 0.25,-30.125 -2.96875,-0.25 z m -1.21875,30.96875 c -0.0853,6.30024 -0.23678,12.62993 -0.71875,18.9375 -38.1936,0.11753 -72.70016,5.94467 -116.6875,3.09375 L 220.75,109.0625 c -1.01894,-0.0273 -9.54303,0.53576 -8.28125,2.53125 40.50571,3.50086 150.375,0.96875 150.375,0.96875 3.67625,0.0239 3.616,-3.47901 3.625,-4.46875 L 366.65625,88 l -3.9375,-0.3125 z"
         id="path3443" />
      <path
         inkscape:connector-curvature="0"
         style="fill:#ebca91;fill-opacity:1;fill-rule:nonzero;stroke:none"
         d="m 286.71875,37.84375 c -37.63291,0.07588 -72.40625,0.875 -72.40625,0.875 -3.67625,-0.02386 -3.58475,3.479005 -3.59375,4.46875 l -0.125,14.3125 3.96875,0.03125 c 0.1039,-4.287987 0.26623,-8.588656 0.59375,-12.875 38.1936,-0.117529 72.70017,-5.944673 116.6875,-3.09375 l 24.5625,0.65625 c 1.01893,0.02726 9.54303,-0.535757 8.28125,-2.53125 -17.72125,-1.531626 -48.69871,-1.902765 -77.96875,-1.84375 z m -72.15625,20.0625 -3.96875,0.3125 -0.3125,33.3125 3.25,0.03125 c 0.94372,-11.053774 0.76721,-22.333535 1.03125,-33.65625 z m -1.09375,34.5625 -3.1875,0.25 -0.0937,8.65625 c -0.009,0.98974 1.669,2.75636 1.84375,1.78125 0.63216,-3.527572 1.11032,-7.102299 1.4375,-10.6875 z"
         id="path3445" />
      <path
         inkscape:connector-curvature="0"
         style="fill:#784421;fill-opacity:1;fill-rule:nonzero;stroke:none"
         d="m 208.375,88.78125 0.25,2.75 14.8125,0.125 -14.6875,1.1875 0.28125,2.84375 60.9375,-6.28125 -61.59375,-0.625 z"
         id="path3447" />
      <path
         inkscape:connector-curvature="0"
         style="fill:#784421;fill-opacity:1;fill-rule:nonzero;stroke:none"
         d="m 209.09375,55.21875 0.28125,2.25 9.40625,0.09375 -9.3125,0.75 0.0937,0.84375 43.875,-3.5625 -44.34375,-0.375 z"
         id="path3449" />
      <path
         inkscape:connector-curvature="0"
         style="fill:#784421;fill-opacity:1;fill-rule:nonzero;stroke:none"
         d="M 367.5,54.34375 325.84375,54.75 367.03125,58.65625 367.21875,57 354.25,55.9375 367.34375,55.8125 367.5,54.34375 z"
         id="path3451" />
      <path
         inkscape:connector-curvature="0"
         style="fill:#784421;fill-opacity:1;fill-rule:nonzero;stroke:none"
         d="m 367.84375,85.25 -56.4375,0.4375 55.84375,4.375 0.25,-2 -10.75,-0.875 10.875,-0.09375 0.21875,-1.84375 z"
         id="path3453" />
    </g>
    <g
       transform="matrix(0.50016406,0,0,1.000047,188.6519,206.06568)"
       id="g3455"
       inkscape:export-filename="Z:\Proiecte\angrybox\src\bmp\wood-s-3.png"
       inkscape:export-xdpi="90"
       inkscape:export-ydpi="90">
      <path
         inkscape:connector-curvature="0"
         style="fill:#784421;fill-opacity:1;fill-rule:nonzero;stroke:none"
         d="m 457.5,35.59375 c -25.92833,-0.0034 -51.77259,0.398407 -77.53125,1.21875 -1.01878,0.03245 -1.7519,0.793229 -1.8125,1.78125 -0.35503,5.786275 -0.55375,11.63072 -0.65625,17.5 l 32.71875,-1.375 -32.75,4.25 c -0.11962,10.103452 0.0396,20.289591 0.25,30.5 l 48.46875,0.3125 -48.40625,3.90625 c 0.13558,6.220151 0.27567,12.44795 0.375,18.65625 0.0158,0.98966 0.79409,1.73935 1.8125,1.78125 52.22441,2.15076 104.03808,1.74533 155.59375,0 1.01871,-0.0345 1.8263,-0.79156 1.8125,-1.78125 -0.10656,-7.6351 -0.18035,-15.355667 -0.21875,-23.125 l -43.125,-3.46875 43.125,-0.28125 c -0.0343,-9.377092 -0.0315,-18.842541 0.0312,-28.40625 l -13.75,-1.125 0.28125,0 -18.5625,-1.5 32.0625,-0.21875 c 0.0365,-5.183465 0.0864,-10.381519 0.15625,-15.625 0.0132,-0.98969 -0.7937,-1.74975 -1.8125,-1.78125 C 509.46872,36.00579 483.42833,35.597158 457.5,35.59375 z m 24.90625,32.3125 c -11.33922,0.758418 -24.45822,2.285759 -33.25,3.46875 C 445.25282,69.934042 437.55164,68.956318 430.5,68.65625 l 51.90625,-0.75 z"
         id="path3457" />
      <path
         inkscape:connector-curvature="0"
         style="fill:#e5993e;fill-opacity:1;fill-rule:nonzero;stroke:none"
         d="m 448.78125,37.21875 c -22.09738,0.02743 -44.04951,0.654519 -65.4375,2.75 -0.92453,0.09058 -1.52975,0.735808 -1.6875,1.625 C 380.81983,46.308485 380.22253,51.122421 379.8125,56 L 410.21875,54.71875 379.625,58.6875 c -0.70418,10.083959 -0.66698,20.430596 -0.34375,30.78125 l 46.90625,0.3125 -46.78125,3.78125 c 0.20884,5.515089 0.48398,11.03687 0.75,16.5 0.0439,0.90129 0.76073,1.5594 1.6875,1.625 50.37864,3.56442 103.14069,1.37358 151.84375,0.46875 0.92906,-0.0173 1.6498,-0.72345 1.6875,-1.625 0.29597,-7.08097 0.44871,-14.235507 0.53125,-21.40625 l -41.875,-3.375 41.90625,-0.28125 C 536.0053,75.9552 535.9208,66.417497 535.75,56.9375 l -12.3125,-1 0.28125,0 -18.5625,-1.5 30.5625,-0.1875 c -0.0953,-4.79978 -0.21257,-9.592609 -0.34375,-14.34375 -0.0249,-0.901965 -0.75828,-1.621 -1.6875,-1.625 -27.87295,-0.119231 -56.49533,-1.097762 -84.90625,-1.0625 z m 33.625,30.6875 c -11.33922,0.758418 -24.45822,2.285759 -33.25,3.46875 C 445.25282,69.934042 437.55164,68.956318 430.5,68.65625 l 51.90625,-0.75 z"
         id="path3459" />
      <path
         inkscape:connector-curvature="0"
         style="fill:#c87137;fill-opacity:0.42021275;fill-rule:nonzero;stroke:none"
         d="m 534.1875,38.15625 -35.90625,3.8125 c -0.65498,0.06909 -7.93442,16.073021 -11.125,18.75 -3.15633,2.648243 -5.56217,5.020817 -7.40625,7.21875 l 2.65625,-0.03125 c -0.91379,0.06112 -1.84753,0.116908 -2.78125,0.1875 -12.32177,14.852289 2.3125,21.108928 2.3125,41.46875 0,0.60443 0.52821,1.09375 1.1875,1.09375 l 51.0625,0 c 0.65929,0 1.1875,-0.48932 1.1875,-1.09375 l 0,-20.46875 -41.34375,-3.34375 41.34375,-0.28125 0,-28.375 -11.96875,-1.1875 -18.25,-1.46875 30.21875,-0.1875 0,-15 c 0,-0.604431 -0.53253,-1.16284 -1.1875,-1.09375 z"
         id="path3461" />
      <path
         inkscape:connector-curvature="0"
         style="fill:#784421;fill-opacity:1;fill-rule:nonzero;stroke:none"
         d="M 512.75,65.0625 412.46875,67.75 448.5,73.71875 512.75,65.0625 z m -30.34375,2.84375 c -11.33922,0.758418 -24.45822,2.285759 -33.25,3.46875 C 445.25282,69.934042 437.55164,68.956318 430.5,68.65625 l 51.90625,-0.75 z"
         id="path3463" />
      <path
         inkscape:connector-curvature="0"
         style="fill:#b36531;fill-opacity:1;fill-rule:nonzero;stroke:none"
         d="m 534.53125,47.84375 c -0.11719,0.01294 -0.18599,0.09842 -0.21875,0.28125 -0.36363,2.029113 -0.65549,4.073679 -0.90625,6.125 l 2.71875,0 0.0312,-4.34375 c 0.007,-0.804162 -1.11717,-2.11859 -1.625,-2.0625 z m -1.40625,8.875 c -1.00242,9.450074 -1.06892,19.086436 -1.1875,28.78125 l 3.90625,-0.03125 0.25,-28.5 -2.96875,-0.25 z m -1.21875,32.09375 c -0.0885,5.927923 -0.2655,11.88081 -0.71875,17.8125 -38.1936,0.11753 -72.70016,5.94467 -116.6875,3.09375 l -24.5625,-0.65625 c -1.01894,-0.0273 -9.54303,0.53576 -8.28125,2.53125 40.50571,3.50086 150.375,0.96875 150.375,0.96875 3.67625,0.0239 3.616,-3.47901 3.625,-4.46875 l 0.1875,-18.96875 -3.9375,-0.3125 z"
         id="path3465" />
      <path
         inkscape:connector-curvature="0"
         style="fill:#ebca91;fill-opacity:1;fill-rule:nonzero;stroke:none"
         d="m 455.90625,37.84375 c -37.63291,0.07588 -72.40625,0.875 -72.40625,0.875 -3.67625,-0.02386 -3.58475,3.479005 -3.59375,4.46875 L 379.78125,56 383.8125,55.84375 c 0.10518,-3.728397 0.24666,-7.463017 0.53125,-11.1875 38.1936,-0.117529 72.70017,-5.944673 116.6875,-3.09375 l 24.5625,0.65625 c 1.01893,0.02726 9.54303,-0.535757 8.28125,-2.53125 -17.72125,-1.531626 -48.69871,-1.902765 -77.96875,-1.84375 z M 383.75,58.15625 379.78125,58.6875 379.5,89.46875 382.875,89.5 c 0.75449,-10.312217 0.63513,-20.807331 0.875,-31.34375 z m -1.15625,35.15625 -3.125,0.25 -0.0937,7.8125 c -0.009,0.98974 1.669,2.75636 1.84375,1.78125 0.58263,-3.251182 1.05163,-6.541174 1.375,-9.84375 z"
         id="path3467" />
      <path
         inkscape:connector-curvature="0"
         style="fill:#784421;fill-opacity:1;fill-rule:nonzero;stroke:none"
         d="m 377.5625,87.53125 0.15625,1.9375 48.46875,0.3125 -48.15625,3.875 0.25,3.28125 65.875,-8.5625 -66.59375,-0.84375 z"
         id="path3469" />
      <path
         inkscape:connector-curvature="0"
         style="fill:#784421;fill-opacity:1;fill-rule:nonzero;stroke:none"
         d="m 378.28125,53.78125 0.21875,2.28125 31.71875,-1.34375 -21.5625,2.8125 0.5625,0 -4.75,0.53125 -5.75,0.75 0.0937,1.25 49.53125,-5.6875 -50.0625,-0.59375 z"
         id="path3471" />
      <path
         inkscape:connector-curvature="0"
         style="fill:#784421;fill-opacity:1;fill-rule:nonzero;stroke:none"
         d="M 536.6875,52.5625 484.5,53.28125 536.125,60.25 l 0.21875,-2.9375 -9.78125,-1.15625 -21.40625,-1.71875 31.40625,-0.21875 0.125,-1.65625 z"
         id="path3473" />
      <path
         inkscape:connector-curvature="0"
         style="fill:#784421;fill-opacity:1;fill-rule:nonzero;stroke:none"
         d="m 537.03125,83.8125 -65.875,0.75 65.1875,7.28125 0.25,-2.65625 -42.5625,-3.4375 42.875,-0.28125 0.125,-1.65625 z"
         id="path3475" />
    </g>
    <g
       transform="matrix(0.50000002,0,0,0.5,17.672585,344.33313)"
       id="g3477"
       inkscape:export-filename="Z:\Proiecte\angrybox\src\bmp\wood-ww-1.png"
       inkscape:export-xdpi="90"
       inkscape:export-ydpi="90">
      <path
         style="fill:#784421;fill-opacity:1;fill-rule:nonzero;stroke:none"
         d="m 37.939322,191.90588 c 51.517316,-0.82034 103.378188,-0.80671 155.565748,0 1.0188,0.0157 1.85312,0.39845 1.83993,0.8933 -0.33623,12.61675 -0.33401,24.90485 0,36.87077 0.0138,0.49484 -0.82122,0.87605 -1.83993,0.89329 -51.55567,0.87267 -103.341336,1.07538 -155.565748,0 -1.018405,-0.0209 -1.824095,-0.39846 -1.839929,-0.89329 -0.395323,-12.35423 -1.478816,-24.81984 0,-36.87077 0.06062,-0.49401 0.821156,-0.87707 1.839929,-0.8933 z"
         id="path3479"
         inkscape:connector-curvature="0"
         sodipodi:nodetypes="sssssssss" />
      <path
         style="fill:#e5993e;fill-opacity:1;fill-rule:nonzero;stroke:none"
         d="m 41.295557,193.66555 c 48.886839,-2.32082 100.809453,-0.93052 150.361363,-0.82781 0.92922,0.002 1.6524,0.35212 1.6773,0.78916 0.64292,11.28316 0.9747,22.92917 0,34.22843 -0.0377,0.43685 -0.74824,0.78081 -1.6773,0.78917 -48.70306,0.43843 -101.490799,1.4906 -151.869447,-0.23652 -0.926767,-0.0318 -1.633414,-0.35245 -1.677301,-0.78917 -1.118345,-11.12879 -2.346723,-22.63547 1.508085,-33.16409 0.157747,-0.43086 0.75277,-0.74528 1.6773,-0.78917 z"
         id="path3481"
         inkscape:connector-curvature="0"
         sodipodi:nodetypes="sssssssss" />
      <path
         style="fill:#d9883b;fill-opacity:1;fill-rule:nonzero;stroke:none"
         d="m 156.09314,196.22834 35.90839,-1.68963 c 0.65497,-0.0308 1.19005,0.21704 1.19005,0.48665 l 0,31.35486 c 0,0.26959 -0.53076,0.48664 -1.19005,0.48664 l -51.05856,0 c -0.65929,0 -1.19006,-0.21705 -1.19006,-0.48664 0,-10.45162 -19.41397,-12.55624 5.23369,-21.78033 3.19058,-1.19403 10.45156,-8.34073 11.10654,-8.37155 z"
         id="path3483"
         inkscape:connector-curvature="0"
         sodipodi:nodetypes="sssssssss" />
      <path
         style="fill:#784421;fill-opacity:1;fill-rule:nonzero;stroke:none"
         inkscape:transform-center-x="4.614721"
         inkscape:transform-center-y="-1.1470088"
         d="m 80.868172,213.94843 83.502608,-1.19574 -53.50181,3.83169 z"
         id="path3485"
         inkscape:connector-curvature="0"
         sodipodi:nodetypes="cccc" />
      <path
         style="fill:#cc8146;fill-opacity:1;fill-rule:nonzero;stroke:none"
         d="m 189.15158,223.16703 c 1.25399,-14.20166 2.24564,-20.59739 2.60618,-28.27328 0.0443,-0.94214 1.83984,0.75856 1.83992,1.70081 l 0.002,27.97391 c 8e-5,0.94225 0.0769,4.27926 -3.59935,4.25655 0,0 -109.89041,2.40339 -150.396128,-0.92936 -1.261777,-1.89967 7.284348,-2.43546 8.303282,-2.4095 l 24.542735,0.62517 c 43.987341,2.71401 78.507381,-2.83243 116.700981,-2.94431 z"
         id="path3487"
         inkscape:connector-curvature="0"
         sodipodi:nodetypes="csssscsccc" />
      <path
         sodipodi:nodetypes="csssscsccc"
         inkscape:connector-curvature="0"
         id="path3489"
         d="m 42.296234,199.11334 c -0.243832,8.09951 -1.235484,15.0704 -3.111251,23.63856 -0.211857,0.96773 -1.861252,-0.79706 -1.839924,-1.7866 l 0.502699,-23.32409 c 0.02133,-0.98956 -0.07694,-4.49513 3.599348,-4.47127 0,0 109.890404,-2.52461 150.396124,0.97625 1.26178,1.99549 -7.28435,2.5583 -8.30328,2.53104 l -24.54274,-0.6567 c -43.98733,-2.85093 -78.50737,2.9753 -116.700976,3.09283 z"
         style="fill:#ebca91;fill-opacity:1;fill-rule:nonzero;stroke:none" />
      <path
         sodipodi:nodetypes="cccc"
         inkscape:connector-curvature="0"
         id="path3491"
         d="m 35.513104,207.1738 54.094957,0.39066 -53.501806,3.83168 z"
         inkscape:transform-center-y="-1.1470088"
         inkscape:transform-center-x="4.6147208"
         style="fill:#784421;fill-opacity:1;fill-rule:nonzero;stroke:none" />
      <path
         style="fill:#784421;fill-opacity:1;fill-rule:nonzero;stroke:none"
         inkscape:transform-center-x="-4.1750324"
         inkscape:transform-center-y="-0.67819847"
         d="m 195.00164,200.96101 -48.9408,0.23099 48.40416,2.26558 z"
         id="path3493"
         inkscape:connector-curvature="0"
         sodipodi:nodetypes="cccc" />
    </g>
    <g
       transform="matrix(0.5001231,0,0,0.49982819,103.77547,344.3725)"
       id="g3495"
       inkscape:export-filename="Z:\Proiecte\angrybox\src\bmp\wood-ww-2.png"
       inkscape:export-xdpi="90"
       inkscape:export-ydpi="90">
      <path
         inkscape:connector-curvature="0"
         id="path3497"
         d="m 287.6875,191.28125 c -25.92833,-0.002 -51.77259,0.21483 -77.53125,0.625 -1.01877,0.0162 -1.7519,0.41224 -1.8125,0.90625 -0.6757,5.50634 -0.80287,11.09557 -0.71875,16.71875 l 24.4375,-0.4375 -24.40625,2.1875 c 0.13819,6.10893 0.49151,12.25002 0.6875,18.375 0.0158,0.49483 0.7941,0.88535 1.8125,0.90625 52.22441,1.07538 104.03808,0.87267 155.59375,0 1.01871,-0.0172 1.8263,-0.41141 1.8125,-0.90625 -0.22766,-8.15579 -0.30147,-16.45706 -0.21875,-24.90625 l -9.8125,-1.09375 9.84375,-0.1875 c 0.0411,-3.52451 0.0921,-7.07584 0.1875,-10.65625 0.0132,-0.49485 -0.7937,-0.89055 -1.8125,-0.90625 -26.09378,-0.40336 -52.13417,-0.6233 -78.0625,-0.625 z m 25.8125,24 -31.40625,2.8125 -17.625,-1.9375 49.03125,-0.875 z"
         style="fill:#784421;fill-opacity:1;fill-rule:nonzero;stroke:none" />
      <path
         inkscape:connector-curvature="0"
         id="path3499"
         d="m 281.375,192.3125 c -3.94683,-0.002 -7.90599,0.0125 -11.84375,0.0312 -18.90127,0.0902 -37.66744,0.44219 -56,1.3125 -0.92453,0.0439 -1.52976,0.38164 -1.6875,0.8125 -1.7764,4.85188 -2.46993,9.89845 -2.59375,15.03125 l 22.8125,-0.40625 -22.84375,2.03125 c -0.01,5.48046 0.57626,11.0394 1.125,16.5 0.0439,0.43672 0.76074,0.74945 1.6875,0.78125 50.37865,1.72712 103.14069,0.68843 151.84375,0.25 0.92906,-0.008 1.6498,-0.37565 1.6875,-0.8125 0.66166,-7.67038 0.69983,-15.48488 0.46875,-23.25 l -8.5,-0.9375 L 366,203.5 c -0.10981,-3.30578 -0.25155,-6.61161 -0.4375,-9.875 -0.0249,-0.43704 -0.75828,-0.77925 -1.6875,-0.78125 -27.0987,-0.0562 -54.87219,-0.51886 -82.5,-0.53125 z m 32.125,22.96875 -31.40625,2.8125 -17.625,-1.9375 49.03125,-0.875 z"
         style="fill:#e5993e;fill-opacity:1;fill-rule:nonzero;stroke:none" />
      <path
         inkscape:connector-curvature="0"
         id="path3501"
         d="m 364.21875,194.53125 -35.90625,1.6875 c -0.65498,0.0308 -7.90317,7.18097 -11.09375,8.375 -12.84409,4.80675 -13.69749,7.68375 -11.59375,10.8125 l 7.875,-0.125 -7.5,0.65625 c 2.07986,2.73018 5.96875,5.73838 5.96875,10.4375 0,0.26959 0.55946,0.5 1.21875,0.5 l 51.03125,0 c 0.65929,0 1.21875,-0.23041 1.21875,-0.5 l 0,-21.84375 -7.90625,-0.875 7.90625,-0.15625 0,-8.46875 c 0,-0.26961 -0.56378,-0.5308 -1.21875,-0.5 z"
         style="fill:#d9883b;fill-opacity:1;fill-rule:nonzero;stroke:none" />
      <path
         inkscape:connector-curvature="0"
         id="path3503"
         d="m 340.125,212.75 -91.0625,2.21875 32.71875,4.90625 58.34375,-7.125 z m -26.625,2.53125 -31.40625,2.8125 -17.625,-1.9375 49.03125,-0.875 z"
         style="fill:#784421;fill-opacity:1;fill-rule:nonzero;stroke:none" />
      <path
         inkscape:connector-curvature="0"
         id="path3505"
         d="m 364.1875,194.625 c -0.10806,0.0132 -0.17919,0.1046 -0.1875,0.28125 -0.13497,2.87353 -0.39498,5.66484 -0.6875,8.65625 l 2.53125,-0.0625 0,-6.90625 c -7e-5,-0.76558 -1.18798,-2.02615 -1.65625,-1.96875 z m -0.9375,9.65625 c -0.4829,4.84151 -1.12779,10.4127 -1.875,18.875 -38.1936,0.11188 -72.70016,5.68276 -116.6875,2.96875 L 220.125,225.5 c -1.01893,-0.026 -9.54302,0.50658 -8.28125,2.40625 40.50572,3.33275 150.375,0.90625 150.375,0.90625 3.67625,0.0227 3.62508,-3.30775 3.625,-4.25 l 0,-20 -2.59375,-0.28125 z"
         style="fill:#cc8146;fill-opacity:1;fill-rule:nonzero;stroke:none" />
      <path
         inkscape:connector-curvature="0"
         id="path3507"
         d="m 286.09375,192.28125 c -37.63291,0.0759 -72.40625,0.875 -72.40625,0.875 -3.67625,-0.0239 -3.57245,3.51044 -3.59375,4.5 L 209.8125,209.5 213.75,209.4063 c 0.41004,-3.36642 0.67373,-6.70964 0.78125,-10.28125 38.19361,-0.11753 72.70017,-5.94468 116.6875,-3.09375 l 24.5625,0.65625 c 1.01893,0.0273 9.54303,-0.53576 8.28125,-2.53125 -17.72125,-1.53163 -48.69871,-1.93401 -77.96875,-1.875 z m -72.5,18.46875 -3.8125,0.34375 -0.21875,9.875 c -0.0213,0.98954 1.6319,2.74898 1.84375,1.78125 0.93788,-4.28408 1.67464,-8.17382 2.1875,-12 z"
         style="fill:#ebca91;fill-opacity:1;fill-rule:nonzero;stroke:none" />
      <path
         inkscape:connector-curvature="0"
         id="path3509"
         d="m 207.75,207.1875 0.21875,2.34375 24.09375,-0.4375 -23.9375,2.15625 0.21875,2.15625 53.5,-5.65625 -54.09375,-0.5625 z"
         style="fill:#784421;fill-opacity:1;fill-rule:nonzero;stroke:none" />
      <path
         inkscape:connector-curvature="0"
         id="path3511"
         d="m 367.21875,200.96875 -48.9375,0.5 48.40625,5.03125 0.1875,-1.8125 -9.34375,-1.03125 9.4375,-0.15625 0.25,-2.53125 z"
         style="fill:#784421;fill-opacity:1;fill-rule:nonzero;stroke:none" />
    </g>
    <g
       transform="matrix(0.49941421,0,0,0.49982819,190.53547,344.3725)"
       id="g3513"
       inkscape:export-filename="Z:\Proiecte\angrybox\src\bmp\wood-ww-3.png"
       inkscape:export-xdpi="90"
       inkscape:export-ydpi="90">
      <path
         inkscape:connector-curvature="0"
         id="path3515"
         d="m 460.9375,191.28125 c -25.92833,-0.002 -51.77259,0.21483 -77.53125,0.625 -1.01877,0.0162 -1.7519,0.41224 -1.8125,0.90625 -0.5806,4.73134 -0.76543,9.52106 -0.75,14.34375 l 43.84375,1.1875 -43.78125,3.09375 c 0.14061,6.05756 0.49318,12.14581 0.6875,18.21875 0.0158,0.49483 0.7941,0.88535 1.8125,0.90625 52.22441,1.07538 104.03808,0.87267 155.59375,0 1.01871,-0.0172 1.8263,-0.41141 1.8125,-0.90625 -0.21921,-7.85298 -0.28721,-15.84383 -0.21875,-23.96875 l -44.5,-3.15625 44.5625,-1.1875 c 0.0372,-2.83035 0.0799,-5.66479 0.15625,-8.53125 0.0132,-0.49485 -0.7937,-0.89055 -1.8125,-0.90625 -26.09378,-0.40336 -52.13417,-0.6233 -78.0625,-0.625 z m 38.3125,22.09375 -16.03125,1.96875 3.53125,-0.0625 -11.09375,1 -22.9375,2.8125 -26.125,-3.9375 L 499.25,213.375 z"
         style="fill:#784421;fill-opacity:1;fill-rule:nonzero;stroke:none" />
      <path
         inkscape:connector-curvature="0"
         id="path3517"
         d="m 454.625,192.3125 c -3.94683,-0.002 -7.90599,0.0126 -11.84375,0.0312 -18.90127,0.0902 -37.66744,0.44219 -56,1.3125 -0.92453,0.0439 -1.52976,0.38164 -1.6875,0.8125 -1.51136,4.12799 -2.2403,8.40695 -2.5,12.75 l 42.09375,1.125 -42.21875,3 c 0.006,5.40984 0.58353,10.89303 1.125,16.28125 0.0439,0.43672 0.76074,0.74945 1.6875,0.78125 50.37865,1.72712 103.14069,0.68843 151.84375,0.25 0.92906,-0.008 1.6498,-0.37565 1.6875,-0.8125 0.63335,-7.34217 0.69851,-14.81344 0.5,-22.25 l -43.21875,-3.0625 43.0625,-1.15625 c -0.0975,-2.5972 -0.19757,-5.18461 -0.34375,-7.75 -0.0249,-0.43704 -0.75828,-0.77925 -1.6875,-0.78125 -27.0987,-0.0562 -54.87219,-0.51886 -82.5,-0.53125 z m 44.625,21.0625 -16.03125,1.96875 3.53125,-0.0625 -11.09375,1 -22.9375,2.8125 -26.125,-3.9375 L 499.25,213.375 z"
         style="fill:#e5993e;fill-opacity:1;fill-rule:nonzero;stroke:none" />
      <path
         inkscape:connector-curvature="0"
         id="path3519"
         d="m 537.46875,194.53125 -35.90625,1.6875 c -0.65498,0.0308 -7.90317,7.18097 -11.09375,8.375 -10.77273,4.03157 -13.11119,6.70884 -12.34375,9.3125 l 21.125,-0.53125 -15.96875,1.96875 3.46875,-0.0625 -7.5,0.65625 c 2.07986,2.73018 5.96875,5.73838 5.96875,10.4375 0,0.26959 0.55946,0.5 1.21875,0.5 l 51.03125,0 c 0.65929,0 1.21875,-0.23041 1.21875,-0.5 l 0,-20.84375 -42.59375,-3 42.59375,-1.125 0,-6.375 c 0,-0.26961 -0.56378,-0.5308 -1.21875,-0.5 z"
         style="fill:#d9883b;fill-opacity:1;fill-rule:nonzero;stroke:none" />
      <path
         inkscape:connector-curvature="0"
         id="path3521"
         d="m 517.53125,211.75 -103.3125,2.6875 37.125,5.9375 66.1875,-8.625 z m -18.28125,1.625 -46.53125,5.71875 -26.125,-3.9375 L 499.25,213.375 z"
         style="fill:#784421;fill-opacity:1;fill-rule:nonzero;stroke:none" />
      <path
         inkscape:connector-curvature="0"
         id="path3523"
         d="m 537.4375,194.625 c -0.10806,0.0132 -0.17919,0.1046 -0.1875,0.28125 -0.10221,2.17597 -0.29457,4.32698 -0.5,6.53125 l 2.34375,-0.0625 0,-4.78125 c -7e-5,-0.76558 -1.18798,-2.02615 -1.65625,-1.96875 z m -1.0625,10.75 c -0.47041,4.61529 -1.05333,9.89132 -1.75,17.78125 -38.1936,0.11188 -72.70016,5.68276 -116.6875,2.96875 L 393.375,225.5 c -1.01893,-0.026 -9.54302,0.50658 -8.28125,2.40625 40.50572,3.33275 150.375,0.90625 150.375,0.90625 3.67625,0.0227 3.62508,-3.30775 3.625,-4.25 l 0,-19 -2.71875,-0.1875 z"
         style="fill:#cc8146;fill-opacity:1;fill-rule:nonzero;stroke:none" />
      <path
         inkscape:connector-curvature="0"
         id="path3525"
         d="m 459.34375,192.28125 c -37.63291,0.0759 -72.40625,0.875 -72.40625,0.875 -3.67625,-0.0239 -3.57245,3.51044 -3.59375,4.5 l -0.21875,9.5625 4.09375,0.125 c 0.27878,-2.68183 0.47687,-5.37429 0.5625,-8.21875 38.19361,-0.11753 72.70017,-5.94468 116.6875,-3.09375 l 24.5625,0.65625 c 1.01893,0.0273 9.54303,-0.53576 8.28125,-2.53125 -17.72125,-1.53163 -48.69871,-1.93401 -77.96875,-1.875 z m -72.53125,18.75 -3.78125,0.25 -0.21875,9.6875 c -0.0213,0.98954 1.6319,2.74898 1.84375,1.78125 0.91508,-4.17995 1.64525,-7.98237 2.15625,-11.71875 z"
         style="fill:#ebca91;fill-opacity:1;fill-rule:nonzero;stroke:none" />
      <path
         inkscape:connector-curvature="0"
         id="path3527"
         d="m 380.625,205.53125 0.28125,1.625 43.78125,1.1875 -39.46875,2.78125 -3.71875,0.34375 0.25,2.4375 62.1875,-6.4375 -63.3125,-1.9375 z"
         style="fill:#784421;fill-opacity:1;fill-rule:nonzero;stroke:none" />
      <path
         inkscape:connector-curvature="0"
         id="path3529"
         d="m 540.46875,199.84375 -72.5625,1.8125 71.78125,5.59375 0.1875,-1.625 -43.78125,-3.09375 44.25,-1.1875 0.125,-1.5 z"
         style="fill:#784421;fill-opacity:1;fill-rule:nonzero;stroke:none" />
    </g>
  </g>
</svg>
