<?xml version="1.0" encoding="UTF-8" standalone="no"?>
<!-- Created with Inkscape (http://www.inkscape.org/) -->

<svg
   xmlns:dc="http://purl.org/dc/elements/1.1/"
   xmlns:cc="http://creativecommons.org/ns#"
   xmlns:rdf="http://www.w3.org/1999/02/22-rdf-syntax-ns#"
   xmlns:svg="http://www.w3.org/2000/svg"
   xmlns="http://www.w3.org/2000/svg"
   xmlns:sodipodi="http://sodipodi.sourceforge.net/DTD/sodipodi-0.dtd"
   xmlns:inkscape="http://www.inkscape.org/namespaces/inkscape"
   width="744.09448819"
   height="1052.3622047"
   id="svg4946"
   version="1.1"
   inkscape:version="0.48.4 r9939"
   sodipodi:docname="wood.svg">
  <defs
     id="defs4948" />
  <sodipodi:namedview
     id="base"
     pagecolor="#ffffff"
     bordercolor="#666666"
     borderopacity="1.0"
     inkscape:pageopacity="0.0"
     inkscape:pageshadow="2"
     inkscape:zoom="1.4"
     inkscape:cx="300.18641"
     inkscape:cy="1063.7896"
     inkscape:document-units="px"
     inkscape:current-layer="layer1"
     showgrid="false"
     inkscape:window-width="1680"
     inkscape:window-height="988"
     inkscape:window-x="-8"
     inkscape:window-y="-8"
     inkscape:window-maximized="1" />
  <metadata
     id="metadata4951">
    <rdf:RDF>
      <cc:Work
         rdf:about="">
        <dc:format>image/svg+xml</dc:format>
        <dc:type
           rdf:resource="http://purl.org/dc/dcmitype/StillImage" />
        <dc:title />
      </cc:Work>
    </rdf:RDF>
  </metadata>
  <g
     inkscape:label="Layer 1"
     inkscape:groupmode="layer"
     id="layer1">
    <path
       style="fill:#784421;fill-opacity:1;fill-rule:nonzero;stroke:none"
       d="m 37.939322,36.801751 c 51.517316,-1.640686 103.378188,-1.61342 155.565748,0 1.0188,0.0315 1.85312,0.796903 1.83993,1.786593 -0.33623,25.233497 -0.33401,49.8097 0,73.741536 0.0138,0.98969 -0.82122,1.75211 -1.83993,1.78659 -51.55567,1.74533 -103.341336,2.15076 -155.565748,0 -1.018405,-0.0419 -1.824095,-0.79693 -1.839929,-1.78659 -0.395323,-24.708465 -1.478816,-49.639673 0,-73.741536 0.06062,-0.988021 0.821156,-1.754148 1.839929,-1.786593 z"
       id="rect2997"
       inkscape:connector-curvature="0"
       sodipodi:nodetypes="sssssssss" />
    <path
       style="fill:#e5993e;fill-opacity:1;fill-rule:nonzero;stroke:none"
       d="m 41.295557,39.974547 c 48.886839,-4.789672 100.809453,-1.920396 150.361363,-1.70843 0.92922,0.004 1.6524,0.726714 1.6773,1.628679 0.64292,23.286135 0.9747,47.321133 0,70.640504 -0.0377,0.90155 -0.74824,1.61142 -1.6773,1.62868 -48.70306,0.90483 -101.490799,3.0763 -151.869447,-0.48812 -0.926767,-0.0656 -1.633414,-0.7274 -1.677301,-1.62869 -1.118345,-22.967548 -2.346723,-46.714999 1.508085,-68.443944 0.157747,-0.889192 0.75277,-1.538098 1.6773,-1.628679 z"
       id="rect4954"
       inkscape:connector-curvature="0"
       sodipodi:nodetypes="sssssssss" />
    <path
       style="fill:#d9883b;fill-opacity:1;fill-rule:nonzero;stroke:none"
       d="m 156.09314,42.462167 35.90839,-3.788072 c 0.65497,-0.06909 1.19005,0.4866 1.19005,1.091031 l 0,70.296414 c 0,0.60443 -0.53076,1.09103 -1.19005,1.09103 l -51.05856,0 c -0.65929,0 -1.19006,-0.4866 -1.19006,-1.09103 0,-23.432138 -19.41397,-28.150622 5.23369,-48.830672 3.19058,-2.676979 10.45156,-18.699606 11.10654,-18.768701 z"
       id="rect3869"
       inkscape:connector-curvature="0"
       sodipodi:nodetypes="sssssssss" />
    <path
       style="fill:#784421;fill-opacity:1;fill-rule:nonzero;stroke:none"
       inkscape:transform-center-x="4.614721"
       inkscape:transform-center-y="-1.1470088"
       d="m 76.130863,67.677015 83.502607,-1.195742 -53.50181,3.831686 z"
       id="path3769"
       inkscape:connector-curvature="0"
       sodipodi:nodetypes="cccc" />
    <path
       style="fill:#cc8146;fill-opacity:1;fill-rule:nonzero;stroke:none"
       d="m 189.15158,106.61998 c 1.50653,-19.716257 -0.27974,-39.566591 3.11126,-58.488818 0.17474,-0.975109 1.84847,0.796856 1.83992,1.786594 l -0.5027,58.174354 c -0.009,0.98974 0.0769,4.49512 -3.59935,4.47126 0,0 -109.89041,2.52462 -150.396128,-0.97624 -1.261777,-1.99549 7.284348,-2.55831 8.303282,-2.53104 l 24.542735,0.6567 c 43.987341,2.85092 78.507381,-2.9753 116.700981,-3.09283 z"
       id="rect3772"
       inkscape:connector-curvature="0"
       sodipodi:nodetypes="csssscsccc" />
    <path
       sodipodi:nodetypes="csssscsccc"
       inkscape:connector-curvature="0"
       id="path3775"
       d="m 42.296234,44.661748 c -1.506523,19.716258 0.279745,39.566591 -3.111251,58.488822 -0.174742,0.97511 -1.848474,-0.79686 -1.839924,-1.7866 l 0.502699,-58.174352 c 0.009,-0.989745 -0.07694,-4.495127 3.599348,-4.471265 0,0 109.890404,-2.524616 150.396124,0.976243 1.26178,1.995493 -7.28435,2.558306 -8.30328,2.531043 L 158.99721,41.568937 C 115.00988,38.718014 80.48984,44.544239 42.296234,44.661768 z"
       style="fill:#ebca91;fill-opacity:1;fill-rule:nonzero;stroke:none" />
    <path
       sodipodi:nodetypes="cccc"
       inkscape:connector-curvature="0"
       id="path3777"
       d="m 35.513104,91.459509 54.094957,0.390658 -53.501806,3.831686 z"
       inkscape:transform-center-y="-1.1470088"
       inkscape:transform-center-x="4.6147208"
       style="fill:#784421;fill-opacity:1;fill-rule:nonzero;stroke:none" />
    <path
       style="fill:#784421;fill-opacity:1;fill-rule:nonzero;stroke:none"
       inkscape:transform-center-x="3.1895198"
       inkscape:transform-center-y="-0.53755521"
       d="m 36.224023,55.218232 37.388386,0.183085 -36.978423,1.795751 z"
       id="path3779"
       inkscape:connector-curvature="0"
       sodipodi:nodetypes="cccc" />
    <path
       sodipodi:nodetypes="cccc"
       inkscape:connector-curvature="0"
       id="path3781"
       d="m 194.64619,54.355345 -37.3884,0.183085 36.97843,1.79575 z"
       inkscape:transform-center-y="-0.5375553"
       inkscape:transform-center-x="-3.1895199"
       style="fill:#784421;fill-opacity:1;fill-rule:nonzero;stroke:none" />
    <path
       style="fill:#784421;fill-opacity:1;fill-rule:nonzero;stroke:none"
       inkscape:transform-center-x="-4.1750324"
       inkscape:transform-center-y="-0.67819847"
       d="m 195.00164,85.246719 -48.9408,0.230986 48.40416,2.265582 z"
       id="path3783"
       inkscape:connector-curvature="0"
       sodipodi:nodetypes="cccc" />
    <path
       style="fill:#784421;fill-opacity:1;fill-rule:nonzero;stroke:none"
       d="M 288.3125 35.59375 C 262.38417 35.590342 236.53991 35.992157 210.78125 36.8125 C 209.76247 36.844945 209.02935 37.605729 208.96875 38.59375 C 208.58602 44.831465 208.37429 51.137745 208.28125 57.46875 L 218.78125 57.5625 L 208.28125 58.40625 C 208.13974 69.374328 208.32692 80.440282 208.5625 91.53125 L 223.4375 91.65625 L 208.5625 92.875 C 208.70219 99.365442 208.86509 105.86497 208.96875 112.34375 C 208.98458 113.33341 209.76284 114.0831 210.78125 114.125 C 263.00566 116.27576 314.81933 115.87033 366.375 114.125 C 367.39371 114.09052 368.2013 113.33344 368.1875 112.34375 C 368.07578 104.33923 368.00598 96.244182 367.96875 88.09375 L 356.75 87.1875 L 367.96875 87.09375 C 367.92724 77.188988 367.93351 67.176331 368 57.0625 L 354.25 55.9375 L 368.03125 55.8125 C 368.07136 50.105391 368.11051 44.372017 368.1875 38.59375 C 368.20069 37.60406 367.3938 36.844 366.375 36.8125 C 340.28122 36.00579 314.24083 35.597158 288.3125 35.59375 z "
       id="path3785" />
    <path
       style="fill:#e5993e;fill-opacity:1;fill-rule:nonzero;stroke:none"
       d="M 279.59375 37.21875 C 257.49637 37.246176 235.54424 37.873269 214.15625 39.96875 C 213.23172 40.059331 212.6265 40.704558 212.46875 41.59375 C 211.54656 46.79196 210.90912 52.107625 210.5 57.5 L 218.78125 57.5625 L 210.46875 58.25 C 209.6843 69.142478 209.76695 80.342327 210.15625 91.53125 L 223.4375 91.65625 L 210.1875 92.71875 C 210.3997 98.5144 210.68916 104.32061 210.96875 110.0625 C 211.01263 110.96379 211.72948 111.6219 212.65625 111.6875 C 263.03489 115.25192 315.79694 113.06108 364.5 112.15625 C 365.42906 112.13899 366.1498 111.4328 366.1875 110.53125 C 366.49896 103.07969 366.67287 95.547765 366.75 88 L 356.75 87.1875 L 366.75 87.09375 C 366.84204 77.040701 366.74329 66.958013 366.5625 56.9375 L 354.25 55.9375 L 366.5625 55.84375 C 366.46229 50.507699 366.33325 45.185242 366.1875 39.90625 C 366.1626 39.004285 365.42922 38.28525 364.5 38.28125 C 336.62705 38.162019 308.00467 37.183488 279.59375 37.21875 z "
       id="path3787" />
    <path
       style="fill:#d9883b;fill-opacity:1;fill-rule:nonzero;stroke:none"
       d="M 365 38.15625 L 329.09375 41.96875 C 328.43877 42.037845 321.15933 58.041771 317.96875 60.71875 C 293.32109 81.3988 312.75 86.130356 312.75 109.5625 C 312.75 110.16693 313.27821 110.65625 313.9375 110.65625 L 365 110.65625 C 365.65929 110.65625 366.1875 110.16693 366.1875 109.5625 L 366.1875 88.34375 L 348.375 86.5625 L 366.1875 86.90625 L 366.1875 57.09375 L 344.6875 54.96875 L 366.1875 55.40625 L 366.1875 39.25 C 366.1875 38.645569 365.65497 38.08716 365 38.15625 z "
       id="path3872" />
    <path
       sodipodi:nodetypes="cccc"
       inkscape:connector-curvature="0"
       id="path3789"
       d="m 248.98801,68.290003 90.82403,-1.80873 -58.1928,5.795972 z"
       inkscape:transform-center-y="-1.7350143"
       inkscape:transform-center-x="5.0193347"
       style="fill:#784421;fill-opacity:1;fill-rule:nonzero;stroke:none" />
    <path
       style="fill:#cc8146;fill-opacity:1;fill-rule:nonzero;stroke:none"
       d="M 365.34375 47.84375 C 365.22656 47.856694 365.15776 47.942167 365.125 48.125 C 364.66728 50.679154 364.32209 53.258167 364.03125 55.84375 L 366.90625 55.84375 L 366.96875 49.90625 C 366.9757 49.102088 365.85158 47.78766 365.34375 47.84375 z M 363.9375 56.71875 C 362.87891 66.69838 362.85207 76.879747 362.71875 87.125 L 366.65625 87.09375 L 366.90625 56.96875 L 363.9375 56.71875 z M 362.71875 87.6875 C 362.63347 93.98774 362.48197 100.31743 362 106.625 C 323.8064 106.74253 289.29984 112.56967 245.3125 109.71875 L 220.75 109.0625 C 219.73106 109.03523 211.20697 109.59826 212.46875 111.59375 C 252.97446 115.09461 362.84375 112.5625 362.84375 112.5625 C 366.52 112.58636 366.45975 109.08349 366.46875 108.09375 L 366.65625 88 L 362.71875 87.6875 z "
       id="path3791" />
    <path
       style="fill:#ebca91;fill-opacity:1;fill-rule:nonzero;stroke:none"
       d="M 286.71875 37.84375 C 249.08584 37.919626 214.3125 38.71875 214.3125 38.71875 C 210.63625 38.694888 210.72775 42.197755 210.71875 43.1875 L 210.59375 57.5 L 214.5625 57.53125 C 214.6664 53.243263 214.82873 48.942594 215.15625 44.65625 C 253.34985 44.538721 287.85642 38.711577 331.84375 41.5625 L 356.40625 42.21875 C 357.42518 42.246013 365.94928 41.682993 364.6875 39.6875 C 346.96625 38.155874 315.98879 37.784735 286.71875 37.84375 z M 214.5625 57.90625 L 210.59375 58.21875 L 210.28125 91.53125 L 213.53125 91.5625 C 214.47497 80.508726 214.29846 69.228965 214.5625 57.90625 z M 213.46875 92.46875 L 210.28125 92.71875 L 210.1875 101.375 C 210.17895 102.36474 211.8565 104.13136 212.03125 103.15625 C 212.66341 99.628678 213.14157 96.053951 213.46875 92.46875 z "
       id="path3793" />
    <path
       style="fill:#784421;fill-opacity:1;fill-rule:nonzero;stroke:none"
       d="M 208.375 88.78125 L 208.625 91.53125 L 223.4375 91.65625 L 208.75 92.84375 L 209.03125 95.6875 L 269.96875 89.40625 L 208.375 88.78125 z "
       id="path3795" />
    <path
       style="fill:#784421;fill-opacity:1;fill-rule:nonzero;stroke:none"
       d="M 209.09375 55.21875 L 209.375 57.46875 L 218.78125 57.5625 L 209.46875 58.3125 L 209.5625 59.15625 L 253.4375 55.59375 L 209.09375 55.21875 z "
       id="path3797" />
    <path
       style="fill:#784421;fill-opacity:1;fill-rule:nonzero;stroke:none"
       d="M 367.5 54.34375 L 325.84375 54.75 L 367.03125 58.65625 L 367.21875 57 L 354.25 55.9375 L 367.34375 55.8125 L 367.5 54.34375 z "
       id="path3799" />
    <path
       style="fill:#784421;fill-opacity:1;fill-rule:nonzero;stroke:none"
       d="M 367.84375 85.25 L 311.40625 85.6875 L 367.25 90.0625 L 367.5 88.0625 L 356.75 87.1875 L 367.625 87.09375 L 367.84375 85.25 z "
       id="path3801" />
    <path
       style="fill:#784421;fill-opacity:1;fill-rule:nonzero;stroke:none"
       d="M 457.5 35.59375 C 431.57167 35.59035 405.72741 35.992157 379.96875 36.8125 C 378.94997 36.84495 378.21685 37.605729 378.15625 38.59375 C 377.80122 44.380025 377.6025 50.22447 377.5 56.09375 L 410.21875 54.71875 L 377.46875 58.96875 C 377.34913 69.072202 377.50835 79.258341 377.71875 89.46875 L 426.1875 89.78125 L 377.78125 93.6875 C 377.91683 99.907651 378.05692 106.13545 378.15625 112.34375 C 378.17205 113.33341 378.95034 114.0831 379.96875 114.125 C 432.19316 116.27576 484.00683 115.87033 535.5625 114.125 C 536.58121 114.0905 537.3888 113.33344 537.375 112.34375 C 537.26844 104.70865 537.19465 96.988083 537.15625 89.21875 L 494.03125 85.75 L 537.15625 85.46875 C 537.12196 76.091658 537.12471 66.626209 537.1875 57.0625 L 523.4375 55.9375 L 523.71875 55.9375 L 505.15625 54.4375 L 537.21875 54.21875 C 537.25529 49.035285 537.30517 43.837231 537.375 38.59375 C 537.3882 37.60406 536.5813 36.844 535.5625 36.8125 C 509.46872 36.00579 483.42833 35.597158 457.5 35.59375 z M 482.40625 67.90625 C 471.06703 68.664668 457.94803 70.192009 449.15625 71.375 C 445.25282 69.934042 437.55164 68.956318 430.5 68.65625 L 482.40625 67.90625 z "
       id="path3882" />
    <path
       style="fill:#e5993e;fill-opacity:1;fill-rule:nonzero;stroke:none"
       d="M 448.78125 37.21875 C 426.68387 37.24618 404.73174 37.873269 383.34375 39.96875 C 382.41922 40.05933 381.814 40.704558 381.65625 41.59375 C 380.81983 46.308485 380.22253 51.122421 379.8125 56 L 410.21875 54.71875 L 379.625 58.6875 C 378.92082 68.771459 378.95802 79.118096 379.28125 89.46875 L 426.1875 89.78125 L 379.40625 93.5625 C 379.61509 99.077589 379.89023 104.59937 380.15625 110.0625 C 380.20015 110.96379 380.91698 111.6219 381.84375 111.6875 C 432.22239 115.25192 484.98444 113.06108 533.6875 112.15625 C 534.61656 112.13895 535.3373 111.4328 535.375 110.53125 C 535.67097 103.45028 535.82371 96.295743 535.90625 89.125 L 494.03125 85.75 L 535.9375 85.46875 C 536.00534 75.9552 535.92076 66.417497 535.75 56.9375 L 523.4375 55.9375 L 523.71875 55.9375 L 505.15625 54.4375 L 535.71875 54.25 C 535.62348 49.45022 535.50618 44.657391 535.375 39.90625 C 535.3501 39.004285 534.61672 38.28525 533.6875 38.28125 C 505.81455 38.162019 477.19217 37.183488 448.78125 37.21875 z M 482.40625 67.90625 C 471.06703 68.664668 457.94803 70.192009 449.15625 71.375 C 445.25282 69.934042 437.55164 68.956318 430.5 68.65625 L 482.40625 67.90625 z "
       id="path3884" />
    <path
       style="fill:#c87137;fill-opacity:0.42021278;fill-rule:nonzero;stroke:none"
       d="M 534.1875 38.15625 L 498.28125 41.96875 C 497.62627 42.03784 490.34683 58.041771 487.15625 60.71875 C 483.99992 63.366993 481.59408 65.739567 479.75 67.9375 L 482.40625 67.90625 C 481.49246 67.967368 480.55872 68.023158 479.625 68.09375 C 467.30323 82.946039 481.9375 89.202678 481.9375 109.5625 C 481.9375 110.16693 482.46571 110.65625 483.125 110.65625 L 534.1875 110.65625 C 534.84679 110.65625 535.375 110.16693 535.375 109.5625 L 535.375 89.09375 L 494.03125 85.75 L 535.375 85.46875 L 535.375 57.09375 L 523.40625 55.90625 L 505.15625 54.4375 L 535.375 54.25 L 535.375 39.25 C 535.375 38.645569 534.84247 38.08716 534.1875 38.15625 z "
       id="path3886" />
    <path
       style="fill:#784421;fill-opacity:1;fill-rule:nonzero;stroke:none"
       d="M 512.75 65.0625 L 412.46875 67.75 L 448.5 73.71875 L 512.75 65.0625 z M 482.40625 67.90625 C 471.06703 68.664668 457.94803 70.192009 449.15625 71.375 C 445.25282 69.934042 437.55164 68.956318 430.5 68.65625 L 482.40625 67.90625 z "
       id="path3888" />
    <path
       style="fill:#b36531;fill-opacity:1;fill-rule:nonzero;stroke:none"
       d="M 534.53125 47.84375 C 534.41406 47.85669 534.34526 47.94217 534.3125 48.125 C 533.94887 50.154113 533.65701 52.198679 533.40625 54.25 L 536.125 54.25 L 536.15625 49.90625 C 536.16325 49.102088 535.03908 47.78766 534.53125 47.84375 z M 533.125 56.71875 C 532.12258 66.168824 532.05608 75.805186 531.9375 85.5 L 535.84375 85.46875 L 536.09375 56.96875 L 533.125 56.71875 z M 531.90625 88.8125 C 531.81773 94.740423 531.64075 100.69331 531.1875 106.625 C 492.9939 106.74253 458.48734 112.56967 414.5 109.71875 L 389.9375 109.0625 C 388.91856 109.0352 380.39447 109.59826 381.65625 111.59375 C 422.16196 115.09461 532.03125 112.5625 532.03125 112.5625 C 535.7075 112.5864 535.64725 109.08349 535.65625 108.09375 L 535.84375 89.125 L 531.90625 88.8125 z "
       id="path3890" />
    <path
       style="fill:#ebca91;fill-opacity:1;fill-rule:nonzero;stroke:none"
       d="M 455.90625 37.84375 C 418.27334 37.91963 383.5 38.71875 383.5 38.71875 C 379.82375 38.69489 379.91525 42.197755 379.90625 43.1875 L 379.78125 56 L 383.8125 55.84375 C 383.91768 52.115353 384.05916 48.380733 384.34375 44.65625 C 422.53735 44.538721 457.04392 38.711577 501.03125 41.5625 L 525.59375 42.21875 C 526.61268 42.24601 535.13678 41.682993 533.875 39.6875 C 516.15375 38.155874 485.17629 37.784735 455.90625 37.84375 z M 383.75 58.15625 L 379.78125 58.6875 L 379.5 89.46875 L 382.875 89.5 C 383.62949 79.187783 383.51013 68.692669 383.75 58.15625 z M 382.59375 93.3125 L 379.46875 93.5625 L 379.375 101.375 C 379.366 102.36474 381.044 104.13136 381.21875 103.15625 C 381.80138 99.905068 382.27038 96.615076 382.59375 93.3125 z "
       id="path3892" />
    <path
       style="fill:#784421;fill-opacity:1;fill-rule:nonzero;stroke:none"
       d="M 377.5625 87.53125 L 377.71875 89.46875 L 426.1875 89.78125 L 378.03125 93.65625 L 378.28125 96.9375 L 444.15625 88.375 L 377.5625 87.53125 z "
       id="path3894" />
    <path
       style="fill:#784421;fill-opacity:1;fill-rule:nonzero;stroke:none"
       d="M 378.28125 53.78125 L 378.5 56.0625 L 410.21875 54.71875 L 388.65625 57.53125 L 389.21875 57.53125 L 384.46875 58.0625 L 378.71875 58.8125 L 378.8125 60.0625 L 428.34375 54.375 L 378.28125 53.78125 z "
       id="path3896" />
    <path
       style="fill:#784421;fill-opacity:1;fill-rule:nonzero;stroke:none"
       d="M 536.6875 52.5625 L 484.5 53.28125 L 536.125 60.25 L 536.34375 57.3125 L 526.5625 56.15625 L 505.15625 54.4375 L 536.5625 54.21875 L 536.6875 52.5625 z "
       id="path3898" />
    <path
       style="fill:#784421;fill-opacity:1;fill-rule:nonzero;stroke:none"
       d="M 537.03125 83.8125 L 471.15625 84.5625 L 536.34375 91.84375 L 536.59375 89.1875 L 494.03125 85.75 L 536.90625 85.46875 L 537.03125 83.8125 z "
       id="path3900" />
  </g>
</svg>
